<svg xmlns="http://www.w3.org/2000/svg" xmlns:xlink="http://www.w3.org/1999/xlink" width="207" zoomAndPan="magnify" viewBox="0 0 155.25 183.749994" height="245" preserveAspectRatio="xMidYMid meet" version="1.0"><defs><clipPath id="9be503fc9d"><path d="M 44 0.566406 L 113 0.566406 L 113 86 L 44 86 Z M 44 0.566406 " clip-rule="nonzero"/></clipPath><clipPath id="1bcd65ddab"><path d="M 83 64 L 153 64 L 153 182.6875 L 83 182.6875 Z M 83 64 " clip-rule="nonzero"/></clipPath><clipPath id="82b7e63f4d"><path d="M 44 0.566406 L 113 0.566406 L 113 86 L 44 86 Z M 44 0.566406 " clip-rule="nonzero"/></clipPath><clipPath id="942ce686de"><path d="M 83 64 L 153 64 L 153 182.6875 L 83 182.6875 Z M 83 64 " clip-rule="nonzero"/></clipPath></defs><g clip-path="url(#9be503fc9d)"><path fill="#f3f6fa" d="M 108.125 85.898438 C 107.976562 83.328125 107.726562 80.785156 107.691406 78.566406 C 107.5 67.132812 108.460938 55.789062 108.996094 44.378906 C 109.507812 33.414062 109.40625 22.425781 109.878906 11.460938 C 109.054688 4.941406 102.757812 3.386719 95.484375 3.386719 C 91.171875 3.386719 86.515625 3.933594 82.453125 4.316406 C 82.316406 4.417969 82.167969 4.503906 81.976562 4.53125 C 81.285156 4.632812 80.488281 4.675781 79.605469 4.675781 C 79.121094 4.675781 78.609375 4.664062 78.078125 4.640625 C 77.542969 4.664062 77.035156 4.675781 76.546875 4.675781 C 75.664062 4.675781 74.871094 4.632812 74.179688 4.53125 C 73.984375 4.503906 73.835938 4.417969 73.703125 4.316406 C 69.636719 3.933594 64.984375 3.386719 60.671875 3.386719 C 53.398438 3.386719 47.097656 4.941406 46.273438 11.460938 C 46.746094 22.425781 46.648438 33.414062 47.160156 44.378906 C 47.445312 50.453125 47.84375 56.507812 48.132812 62.570312 C 48.054688 62.484375 47.976562 62.398438 47.898438 62.3125 C 47.140625 61.511719 46.082031 60.890625 44.921875 60.527344 C 44.902344 57.8125 44.867188 55.101562 44.789062 52.394531 C 44.402344 38.703125 43.765625 24.863281 44.316406 11.167969 C 44.289062 10.609375 44.304688 10.074219 44.371094 9.570312 C 44.378906 9.484375 44.378906 9.394531 44.382812 9.304688 C 44.390625 9.125 44.445312 8.984375 44.519531 8.859375 C 46.050781 2.257812 55.730469 0.554688 65.117188 0.554688 C 69.882812 0.554688 74.570312 0.996094 78.078125 1.453125 C 81.582031 0.996094 86.273438 0.554688 91.039062 0.554688 C 100.421875 0.554688 110.105469 2.257812 111.632812 8.859375 C 111.707031 8.984375 111.765625 9.125 111.773438 9.304688 C 111.777344 9.394531 111.777344 9.484375 111.78125 9.570312 C 111.847656 10.074219 111.863281 10.609375 111.839844 11.167969 C 112.386719 24.863281 111.75 38.703125 111.363281 52.394531 C 111.058594 63.226562 111.328125 74.082031 111.210938 84.914062 C 110.992188 84.882812 110.777344 84.863281 110.5625 84.863281 C 109.675781 84.863281 108.832031 85.167969 108.125 85.898438 " fill-opacity="1" fill-rule="nonzero"/></g><path fill="#f3f6fa" d="M 75.113281 105.980469 C 72.730469 105.980469 70.378906 105.867188 68.078125 105.59375 C 67.597656 105.535156 67.257812 105.273438 67.039062 104.941406 C 62.996094 104.417969 58.996094 103.769531 55.15625 103.175781 C 54.644531 102.035156 54.046875 100.914062 53.378906 99.804688 C 54.757812 100.203125 56.289062 100.347656 57.808594 100.46875 C 64.597656 101.007812 71.316406 102.410156 78.078125 102.914062 C 79.964844 102.773438 81.851562 102.558594 83.738281 102.316406 C 83.691406 103.523438 83.636719 104.726562 83.585938 105.933594 C 82.722656 105.964844 81.851562 105.980469 80.976562 105.980469 C 80.015625 105.980469 79.046875 105.960938 78.078125 105.925781 C 77.085938 105.964844 76.097656 105.980469 75.113281 105.980469 " fill-opacity="1" fill-rule="nonzero"/><path fill="#f3f6fa" d="M 75.90625 98.449219 C 73.964844 98.449219 72.046875 98.347656 70.171875 98.113281 C 69.777344 98.066406 69.5 97.84375 69.320312 97.558594 C 65.847656 97.085938 62.417969 96.492188 59.132812 95.964844 C 55.152344 95.320312 52.414062 93.25 51.628906 89.363281 C 51.671875 86.042969 51.496094 82.695312 51.25 79.480469 C 51.238281 77.875 51.234375 76.265625 51.238281 74.660156 C 51.269531 74.570312 51.289062 74.472656 51.296875 74.359375 C 51.320312 73.839844 51.328125 73.320312 51.328125 72.792969 C 51.4375 72.488281 51.457031 72.132812 51.335938 71.730469 C 51.320312 71.6875 51.308594 71.644531 51.292969 71.597656 C 51.28125 71.355469 51.265625 71.113281 51.246094 70.867188 C 51.265625 64.738281 51.308594 58.601562 51.144531 52.480469 C 50.828125 40.734375 50.308594 28.863281 50.753906 17.109375 C 50.734375 16.632812 50.746094 16.175781 50.804688 15.742188 C 50.804688 15.667969 50.808594 15.59375 50.808594 15.515625 C 50.820312 15.363281 50.863281 15.238281 50.921875 15.132812 C 52.171875 9.46875 60.078125 8.011719 67.746094 8.011719 C 71.640625 8.011719 75.476562 8.386719 78.339844 8.78125 C 81.203125 8.386719 85.039062 8.011719 88.933594 8.011719 C 96.597656 8.011719 104.507812 9.46875 105.757812 15.132812 C 105.816406 15.238281 105.859375 15.363281 105.867188 15.515625 C 105.871094 15.59375 105.871094 15.667969 105.875 15.742188 C 105.933594 16.175781 105.945312 16.632812 105.925781 17.109375 C 106.371094 28.863281 105.851562 40.734375 105.535156 52.480469 C 105.253906 63.050781 105.574219 73.648438 105.347656 84.21875 C 104.609375 83.605469 103.808594 83.117188 102.957031 82.84375 C 102.878906 80.101562 102.570312 77.304688 102.535156 74.933594 C 102.378906 65.125 103.164062 55.394531 103.597656 45.601562 C 104.019531 36.199219 103.9375 26.769531 104.324219 17.367188 C 103.648438 11.769531 98.503906 10.4375 92.558594 10.4375 C 89.035156 10.4375 85.234375 10.90625 81.914062 11.234375 C 81.804688 11.324219 81.679688 11.394531 81.523438 11.421875 C 80.953125 11.507812 80.296875 11.542969 79.566406 11.542969 C 79.175781 11.542969 78.765625 11.535156 78.339844 11.515625 C 77.914062 11.535156 77.503906 11.542969 77.113281 11.542969 C 76.386719 11.542969 75.726562 11.507812 75.15625 11.421875 C 75 11.394531 74.875 11.324219 74.765625 11.234375 C 71.445312 10.90625 67.640625 10.4375 64.121094 10.4375 C 58.175781 10.4375 53.03125 11.773438 52.355469 17.367188 C 52.742188 26.769531 52.660156 36.199219 53.078125 45.601562 C 53.515625 55.394531 54.300781 65.125 54.148438 74.933594 C 54.074219 79.371094 53.015625 85.296875 54.394531 89.574219 C 55.53125 93.109375 58.691406 93.464844 61.78125 93.71875 C 67.328125 94.179688 72.816406 95.386719 78.339844 95.816406 C 80.382812 95.65625 82.417969 95.390625 84.457031 95.09375 C 84.238281 96.195312 84.085938 97.316406 83.984375 98.335938 C 82.867188 98.410156 81.738281 98.445312 80.597656 98.445312 C 79.847656 98.445312 79.097656 98.429688 78.339844 98.398438 C 77.523438 98.433594 76.710938 98.449219 75.90625 98.449219 " fill-opacity="1" fill-rule="nonzero"/><g clip-path="url(#1bcd65ddab)"><path fill="#f3f6fa" d="M 118.246094 182.6875 C 118.191406 182.6875 118.136719 182.679688 118.078125 182.664062 C 113.007812 181.253906 110.933594 173.789062 109.617188 169.3125 C 109.46875 169.277344 109.339844 169.183594 109.300781 169.035156 C 109.039062 168.109375 109.703125 167 110.867188 165.847656 C 110.820312 165.796875 110.769531 165.757812 110.746094 165.679688 C 110.195312 163.695312 109.882812 161.640625 109.34375 159.644531 C 108.921875 158.074219 108.457031 156.515625 108.339844 154.886719 C 108.324219 154.679688 108.410156 154.53125 108.539062 154.433594 C 104.117188 151.507812 101.269531 147.023438 97.492188 143.367188 C 93.769531 139.769531 89.5625 136.644531 86.292969 132.609375 C 83.476562 129.136719 83.378906 124.992188 83.277344 120.652344 C 83.160156 115.730469 83.375 110.835938 83.585938 105.933594 C 83.636719 104.726562 83.691406 103.523438 83.738281 102.316406 C 83.742188 102.167969 83.75 102.023438 83.753906 101.875 C 83.777344 101.265625 83.824219 99.929688 83.984375 98.335938 C 84.085938 97.316406 84.238281 96.195312 84.457031 95.09375 C 85.066406 92.03125 86.214844 89.144531 88.410156 89.144531 C 88.929688 89.144531 89.507812 89.304688 90.148438 89.664062 C 88.257812 82.015625 84.230469 64.46875 90.34375 64.46875 C 94.714844 64.46875 97.15625 73.398438 98.289062 76.519531 C 99.023438 78.550781 99.761719 80.613281 100.472656 82.699219 C 100.800781 82.632812 101.125 82.597656 101.445312 82.597656 C 101.964844 82.597656 102.46875 82.683594 102.957031 82.84375 C 103.808594 83.117188 104.609375 83.605469 105.347656 84.21875 C 106.171875 84.898438 106.917969 85.734375 107.582031 86.597656 C 107.75 86.328125 107.933594 86.097656 108.125 85.898438 C 108.832031 85.167969 109.675781 84.863281 110.5625 84.863281 C 110.777344 84.863281 110.992188 84.882812 111.210938 84.914062 C 112.992188 85.1875 114.863281 86.515625 116.101562 87.953125 C 116.824219 88.789062 117.492188 89.667969 118.140625 90.5625 C 118.324219 90.550781 118.511719 90.542969 118.691406 90.542969 C 124.988281 90.542969 129.636719 97.59375 131.976562 102.78125 C 134.050781 107.367188 133.851562 112.988281 133.449219 117.875 C 132.996094 123.410156 133.246094 129.140625 132.476562 134.609375 C 132.453125 134.761719 132.339844 134.847656 132.210938 134.898438 C 132.292969 135.070312 132.375 135.230469 132.449219 135.367188 C 133.644531 137.53125 135.765625 140.496094 135.453125 143.09375 C 135.429688 143.277344 135.324219 143.414062 135.191406 143.488281 C 135.339844 143.511719 135.488281 143.546875 135.632812 143.582031 C 135.675781 143.214844 135.933594 142.882812 136.277344 142.882812 C 136.402344 142.882812 136.53125 142.925781 136.671875 143.019531 C 138.390625 144.21875 139.605469 145.886719 140.761719 147.617188 C 141.496094 148.714844 142.730469 150.054688 143.132812 151.429688 C 143.652344 151.714844 144.050781 152.179688 144.027344 152.828125 C 143.851562 158.160156 148.90625 162.390625 152.558594 165.488281 C 153.453125 166.246094 152.628906 167.414062 151.6875 167.414062 C 151.433594 167.414062 151.167969 167.328125 150.929688 167.125 C 146.484375 163.378906 143.972656 159.730469 141.585938 154.722656 C 135.839844 156.324219 130.363281 158.582031 124.828125 160.835938 C 121.082031 162.363281 117.265625 164.335938 113.902344 166.605469 C 113.167969 167.101562 112.257812 168.070312 111.316406 168.710938 C 112.222656 171.207031 112.941406 173.804688 114.1875 176.164062 C 115.371094 178.398438 116.886719 179.882812 118.714844 181.5625 C 119.164062 181.976562 118.78125 182.6875 118.246094 182.6875 M 133.675781 146.835938 C 130.191406 146.835938 126.984375 147.191406 123.285156 148.5625 C 118.4375 150.355469 113.585938 152.128906 109.800781 155.78125 C 110.21875 157.449219 110.589844 159.136719 110.980469 160.804688 C 111.316406 162.230469 111.667969 163.667969 111.636719 165.136719 C 115.285156 161.980469 121.988281 158.667969 123.527344 157.734375 C 127.40625 155.390625 134.53125 150.8125 140.050781 150.8125 C 140.113281 150.8125 140.171875 150.8125 140.234375 150.816406 C 139.882812 150.238281 139.578125 149.640625 139.277344 149.148438 C 138.8125 148.386719 138.320312 147.65625 137.816406 146.933594 C 137.777344 146.933594 137.746094 146.949219 137.707031 146.949219 C 137.703125 146.949219 137.699219 146.945312 137.695312 146.945312 C 136.289062 146.882812 134.964844 146.835938 133.675781 146.835938 M 89.722656 94.296875 C 88.867188 94.296875 87.855469 94.546875 86.683594 95.046875 C 85.375 102.539062 85.402344 110.976562 85.554688 118.566406 C 85.636719 122.683594 85.15625 128.023438 87.738281 131.484375 C 89.769531 134.207031 92.171875 136.441406 94.65625 138.722656 C 99.890625 143.535156 103.953125 149.511719 109.59375 153.863281 C 109.65625 153.914062 109.707031 153.972656 109.746094 154.035156 C 113.59375 150.242188 118.949219 147.242188 123.917969 145.542969 C 126.21875 144.757812 130.160156 143.363281 133.539062 143.363281 C 133.929688 143.363281 134.3125 143.382812 134.683594 143.421875 L 134.679688 143.417969 C 132.644531 141.625 131.542969 138.1875 130.289062 135.808594 C 129.710938 134.714844 127.777344 132.144531 128.660156 130.890625 C 128.738281 130.777344 128.867188 130.664062 129.011719 130.664062 C 129.023438 130.664062 129.035156 130.664062 129.042969 130.667969 C 129.664062 130.742188 130.199219 131.25 130.664062 131.925781 C 129.222656 125.71875 131.460938 118.550781 131.195312 112.324219 C 130.914062 105.835938 127.132812 94.109375 119.464844 92.460938 C 119.964844 93.203125 120.457031 93.957031 120.941406 94.714844 C 121.867188 96.167969 123.359375 97.867188 123.410156 99.667969 C 123.417969 100.089844 123.066406 100.351562 122.691406 100.351562 C 122.640625 100.351562 122.585938 100.347656 122.535156 100.335938 C 118.445312 99.527344 115.496094 87.128906 110.8125 87.128906 C 110.113281 87.128906 109.382812 87.402344 108.597656 88.027344 C 108.882812 88.453125 109.140625 88.871094 109.375 89.257812 C 110.804688 91.636719 112.046875 94.109375 113.34375 96.5625 C 114.121094 98.03125 115.664062 99.839844 115.714844 101.539062 C 115.730469 101.992188 115.328125 102.355469 114.898438 102.355469 C 114.828125 102.355469 114.757812 102.347656 114.6875 102.328125 C 111.898438 101.496094 110.21875 95.738281 108.964844 93.425781 C 107.242188 90.25 104.984375 85.25 101.066406 84.503906 C 103.058594 90.570312 104.746094 96.8125 105.375 103.039062 C 105.429688 103.578125 104.925781 103.925781 104.445312 103.925781 C 104.144531 103.925781 103.855469 103.792969 103.71875 103.492188 C 100.675781 96.964844 99.726562 88.996094 97.570312 82.074219 C 96.15625 77.519531 94.648438 70.476562 90.960938 67.195312 C 90.746094 67.007812 90.558594 66.921875 90.398438 66.921875 C 89.097656 66.921875 89.359375 72.40625 89.417969 73.042969 C 89.691406 76.039062 90.179688 78.992188 90.6875 81.953125 C 91.179688 84.847656 92.144531 88.121094 92.121094 91.175781 C 98.460938 97.214844 96.222656 108.273438 96.289062 116.140625 C 96.296875 116.847656 95.753906 117.222656 95.203125 117.222656 C 94.746094 117.222656 94.285156 116.96875 94.113281 116.4375 C 93.011719 112.964844 93.441406 109.632812 93.582031 106.03125 C 93.679688 103.546875 93.902344 100.703125 93.070312 98.320312 C 92.808594 95.636719 91.695312 94.296875 89.722656 94.296875 " fill-opacity="1" fill-rule="nonzero"/></g><path fill="#f3f6fa" d="M 123.488281 155.367188 C 123.089844 155.367188 122.742188 154.859375 123.117188 154.539062 C 123.550781 154.171875 124.007812 153.824219 124.46875 153.496094 C 124.050781 153.40625 123.789062 152.894531 124.152344 152.492188 C 124.722656 151.871094 125.382812 151.320312 126.109375 150.835938 C 124.96875 151.175781 123.839844 151.542969 122.757812 152.027344 C 122.714844 152.042969 122.675781 152.050781 122.636719 152.050781 C 122.394531 152.050781 122.242188 151.730469 122.492188 151.570312 C 124.171875 150.523438 126.066406 149.550781 128.027344 148.898438 C 128.6875 148.59375 129.363281 148.316406 130.046875 148.101562 C 131.019531 147.796875 132.070312 147.324219 133.109375 147.324219 C 133.242188 147.324219 133.375 147.332031 133.507812 147.351562 C 133.921875 147.402344 134.324219 147.808594 134.320312 148.214844 C 134.382812 148.253906 134.441406 148.296875 134.488281 148.355469 C 134.652344 148.566406 134.746094 148.75 134.789062 148.921875 C 134.894531 148.917969 135 148.910156 135.101562 148.910156 C 135.128906 148.910156 135.15625 148.910156 135.183594 148.910156 C 135.691406 148.9375 136.089844 149.621094 135.632812 150.003906 C 135.523438 150.097656 135.40625 150.175781 135.292969 150.257812 C 135.484375 150.429688 135.539062 150.757812 135.402344 150.96875 C 134.59375 152.199219 132.902344 152.34375 131.589844 152.839844 C 129.851562 153.492188 128.171875 154.304688 126.382812 154.800781 C 126.328125 154.816406 126.277344 154.820312 126.230469 154.820312 C 125.917969 154.820312 125.753906 154.523438 125.808594 154.242188 C 125.105469 154.589844 124.40625 154.945312 123.710938 155.3125 C 123.636719 155.351562 123.5625 155.367188 123.488281 155.367188 " fill-opacity="1" fill-rule="nonzero"/><path fill="#f3f6fa" d="M 132.714844 175.464844 C 132.167969 175.464844 131.683594 174.789062 132.203125 174.351562 C 132.644531 173.980469 133.097656 173.605469 133.550781 173.238281 C 132.394531 173.535156 131.226562 173.800781 130.035156 173.984375 C 130.007812 173.988281 129.976562 173.992188 129.949219 173.992188 C 129.636719 173.992188 129.375 173.746094 129.304688 173.476562 L 129.222656 173.507812 C 129.140625 173.542969 129.058594 173.558594 128.984375 173.558594 C 128.726562 173.558594 128.535156 173.363281 128.453125 173.121094 C 127.96875 173.082031 127.710938 172.449219 128.199219 172.085938 C 129.839844 170.847656 131.570312 169.726562 133.324219 168.65625 C 131.71875 169.457031 130.125 170.265625 128.683594 171.234375 C 128.617188 171.277344 128.550781 171.296875 128.488281 171.296875 C 128.429688 171.296875 128.371094 171.277344 128.324219 171.25 L 128.304688 171.269531 C 128.207031 171.386719 128.085938 171.4375 127.960938 171.4375 C 127.59375 171.4375 127.21875 170.996094 127.46875 170.621094 C 128.574219 168.96875 130.066406 167.496094 131.765625 166.222656 C 129.859375 167.332031 127.992188 168.515625 126.011719 169.472656 C 125.90625 169.523438 125.804688 169.542969 125.707031 169.542969 C 125.398438 169.542969 125.15625 169.316406 125.101562 169.035156 C 124.808594 169.25 124.507812 169.453125 124.222656 169.691406 C 124.085938 169.800781 123.925781 169.851562 123.765625 169.851562 C 123.273438 169.851562 122.804688 169.382812 123.15625 168.859375 C 123.738281 167.996094 124.449219 167.230469 125.257812 166.542969 C 123.851562 167.28125 122.441406 168.019531 120.996094 168.71875 C 120.980469 168.726562 120.96875 168.730469 120.953125 168.730469 C 120.882812 168.730469 120.824219 168.640625 120.890625 168.582031 C 122.609375 166.984375 124.511719 165.515625 126.527344 164.199219 C 125.386719 164.722656 124.261719 165.304688 123.160156 165.996094 C 123.070312 166.054688 122.980469 166.078125 122.898438 166.078125 C 122.511719 166.078125 122.253906 165.542969 122.546875 165.195312 C 123.914062 163.59375 125.753906 162.480469 127.703125 161.636719 C 129.332031 160.367188 130.910156 159.089844 132.71875 158.0625 C 134.003906 157.339844 135.5 156.417969 137.015625 156.417969 C 137.148438 156.417969 137.28125 156.425781 137.417969 156.441406 C 137.742188 156.476562 137.996094 156.875 137.707031 157.144531 C 137.621094 157.222656 137.53125 157.289062 137.441406 157.363281 C 137.503906 157.359375 137.5625 157.355469 137.625 157.355469 C 138.011719 157.355469 138.398438 157.417969 138.765625 157.574219 C 138.898438 157.628906 138.957031 157.742188 138.972656 157.859375 C 139.199219 157.828125 139.425781 157.804688 139.65625 157.804688 C 139.746094 157.804688 139.835938 157.808594 139.929688 157.816406 C 140.308594 157.851562 140.503906 158.269531 140.238281 158.566406 C 140.132812 158.679688 140.015625 158.78125 139.898438 158.886719 C 140.371094 159.066406 140.601562 159.640625 140.425781 160.058594 C 140.714844 160.085938 141 160.144531 141.269531 160.246094 C 141.777344 160.425781 142.082031 161.070312 141.753906 161.53125 C 141.800781 161.519531 141.847656 161.507812 141.894531 161.496094 C 141.992188 161.472656 142.089844 161.460938 142.175781 161.460938 C 143.125 161.460938 143.496094 162.742188 142.667969 163.339844 C 142.074219 163.765625 141.449219 164.136719 140.804688 164.472656 C 141.421875 164.25 142.054688 164.082031 142.71875 164.03125 C 142.738281 164.027344 142.757812 164.027344 142.777344 164.027344 C 143.382812 164.027344 143.519531 164.796875 143.199219 165.199219 C 142.902344 165.566406 142.558594 165.890625 142.1875 166.191406 C 142.417969 166.164062 142.644531 166.148438 142.867188 166.148438 C 143.429688 166.148438 143.96875 166.25 144.449219 166.496094 C 144.523438 166.488281 144.597656 166.46875 144.671875 166.460938 C 144.710938 166.457031 144.742188 166.453125 144.777344 166.453125 C 145.503906 166.453125 145.832031 167.269531 145.628906 167.894531 C 145.714844 167.929688 145.804688 167.945312 145.886719 167.992188 C 146.320312 168.234375 146.371094 168.835938 146.039062 169.175781 C 144.546875 170.726562 141.679688 170.875 139.753906 171.832031 C 137.476562 172.964844 135.292969 174.277344 133.007812 175.398438 C 132.910156 175.445312 132.8125 175.464844 132.714844 175.464844 " fill-opacity="1" fill-rule="nonzero"/><path fill="#f3f6fa" d="M 110.425781 151.757812 C 110.324219 151.757812 110.214844 151.722656 110.125 151.648438 C 103.476562 146.070312 99.152344 137.890625 93.335938 131.476562 C 92.992188 131.097656 93.316406 130.617188 93.707031 130.617188 C 93.820312 130.617188 93.941406 130.660156 94.050781 130.757812 C 100.554688 136.34375 106.296875 143.820312 110.824219 151.105469 C 111.035156 151.449219 110.742188 151.757812 110.425781 151.757812 " fill-opacity="1" fill-rule="nonzero"/><path fill="#f3f6fa" d="M 43.339844 177.105469 C 43.039062 177.105469 42.738281 176.960938 42.5625 176.65625 C 41.085938 174.050781 42.835938 168.886719 43.082031 166.046875 C 43.355469 162.878906 43.632812 159.546875 42.660156 156.488281 C 41.546875 157.195312 40.074219 157.644531 38.152344 157.753906 C 37.222656 157.808594 36.289062 157.832031 35.347656 157.832031 C 26.335938 157.832031 16.9375 155.394531 9.28125 150.675781 C 9.289062 150.894531 9.246094 151.121094 9.128906 151.308594 C 7.679688 153.667969 6.613281 156.367188 5.996094 159.070312 C 5.652344 160.585938 5.933594 163.226562 4.886719 164.429688 C 4.832031 164.488281 4.746094 164.523438 4.660156 164.523438 C 4.632812 164.523438 4.605469 164.519531 4.582031 164.511719 C 0.625 163.144531 5.859375 152.269531 7.140625 150.140625 C 7.292969 149.890625 7.578125 149.65625 7.886719 149.585938 C 7.808594 149.402344 7.789062 149.191406 7.847656 148.980469 C 9.015625 144.777344 9.90625 140.445312 11.929688 136.554688 C 12.042969 136.335938 12.230469 136.242188 12.429688 136.242188 C 12.550781 136.242188 12.675781 136.277344 12.785156 136.339844 L 12.800781 136.324219 C 13.050781 136.269531 13.300781 136.242188 13.554688 136.242188 C 13.730469 136.242188 13.910156 136.257812 14.085938 136.277344 C 14.230469 136.140625 14.425781 136.046875 14.65625 136.046875 C 14.820312 136.046875 14.992188 136.066406 15.164062 136.085938 C 15.269531 135.996094 15.390625 135.917969 15.550781 135.871094 C 15.695312 135.828125 15.824219 135.8125 15.941406 135.8125 C 16.269531 135.8125 16.535156 135.9375 16.90625 136.015625 C 17.164062 136.070312 17.425781 136.054688 17.6875 136.0625 C 17.796875 136.066406 17.886719 136.097656 17.980469 136.125 C 18.070312 135.972656 18.160156 135.816406 18.25 135.652344 C 20.160156 132.078125 20.574219 128.519531 20.375 124.46875 C 20.007812 117.050781 19.324219 109.65625 19.546875 102.214844 C 19.71875 96.410156 19.542969 90.394531 23.078125 85.515625 C 25.945312 81.550781 30.972656 79.300781 34.886719 76.589844 C 34.921875 76.566406 34.953125 76.558594 34.984375 76.539062 C 34.929688 75.722656 34.882812 74.90625 34.855469 74.078125 C 34.703125 69.503906 35.222656 65.183594 38.460938 61.730469 C 39.492188 60.628906 40.980469 60.148438 42.519531 60.148438 C 43.324219 60.148438 44.144531 60.28125 44.921875 60.527344 C 46.082031 60.890625 47.140625 61.511719 47.898438 62.3125 C 47.976562 62.398438 48.054688 62.484375 48.132812 62.570312 C 50.144531 64.847656 50.996094 67.835938 51.246094 70.867188 C 51.265625 71.113281 51.28125 71.355469 51.292969 71.597656 C 51.3125 72 51.324219 72.398438 51.328125 72.792969 C 51.328125 73.320312 51.320312 73.839844 51.296875 74.359375 C 51.289062 74.472656 51.269531 74.570312 51.238281 74.660156 C 51.164062 74.847656 51.035156 74.988281 50.878906 75.078125 C 51.007812 76.503906 51.136719 77.980469 51.25 79.480469 C 51.496094 82.695312 51.671875 86.042969 51.628906 89.363281 C 51.597656 91.773438 51.453125 94.167969 51.132812 96.484375 C 51.949219 97.574219 52.703125 98.683594 53.378906 99.804688 C 54.046875 100.914062 54.644531 102.035156 55.15625 103.175781 C 57.46875 108.328125 58.089844 113.820312 56.015625 119.722656 C 53.933594 125.652344 48.230469 131 43.960938 135.777344 C 43.941406 138.679688 43.820312 141.542969 44.039062 144.441406 C 44.253906 144.492188 44.457031 144.589844 44.605469 144.78125 C 45.214844 145.070312 45.410156 145.875 45.09375 146.449219 C 45.835938 150.003906 45.738281 153.257812 43.953125 155.355469 C 46.355469 156.820312 45.902344 161.828125 45.761719 164.058594 C 45.59375 166.664062 45.296875 169.246094 45.007812 171.835938 C 44.839844 173.367188 45.003906 175.3125 44.160156 176.65625 C 43.976562 176.949219 43.65625 177.105469 43.339844 177.105469 M 13.074219 137.101562 C 12.539062 138.878906 8.917969 148.328125 10.539062 149.292969 C 14.964844 151.925781 19.800781 153.738281 24.863281 154.671875 C 28.09375 155.265625 31.539062 155.789062 34.917969 155.789062 C 36.003906 155.789062 37.085938 155.734375 38.152344 155.613281 C 43.535156 154.984375 43.929688 151.503906 42.996094 147.179688 C 41.375 147.332031 39.667969 147.425781 37.925781 147.425781 C 32.925781 147.425781 27.671875 146.65625 23.5625 144.355469 C 20.351562 142.558594 15.5 140.128906 13.074219 137.101562 M 35.1875 79.53125 C 30.464844 82.535156 24.015625 85.542969 22.910156 91.464844 C 21.554688 98.746094 22.132812 106.320312 22.335938 113.667969 C 22.488281 119.421875 24.621094 126.304688 22.863281 131.941406 C 22.25 133.910156 20.769531 137.253906 18.859375 138.726562 C 20.085938 139.660156 21.234375 140.640625 22.199219 141.238281 C 26.707031 144.039062 32.042969 145.320312 37.355469 145.320312 C 39.199219 145.320312 41.039062 145.164062 42.839844 144.867188 C 42.90625 144.78125 42.980469 144.699219 43.070312 144.636719 C 42.359375 142.34375 42.386719 139.765625 42.539062 137.273438 C 42.457031 137.300781 42.371094 137.316406 42.285156 137.316406 C 41.789062 137.316406 41.28125 136.832031 41.464844 136.285156 C 41.796875 135.300781 42.25 134.390625 42.777344 133.535156 L 42.777344 133.507812 C 42.789062 133.238281 42.941406 133.070312 43.128906 132.992188 C 45.621094 129.289062 49.542969 126.5625 51.992188 122.804688 C 54.820312 118.46875 56.597656 112.964844 54.871094 107.820312 C 53.828125 104.707031 52.160156 101.984375 50.691406 99.113281 C 50.265625 101.203125 49.675781 103.210938 48.863281 105.070312 C 48.738281 105.359375 48.523438 105.476562 48.304688 105.476562 C 47.859375 105.476562 47.378906 105.003906 47.460938 104.476562 C 48.386719 98.554688 49.648438 92.976562 49.554688 86.925781 C 49.488281 82.582031 49.15625 78.207031 49.386719 73.859375 C 48.535156 70.546875 47.425781 61.769531 43.347656 61.769531 C 42.566406 61.769531 41.671875 62.09375 40.648438 62.84375 C 36.523438 65.867188 36.769531 71.664062 37.136719 76.183594 C 37.515625 80.898438 38.003906 85.617188 36.59375 90.199219 C 35.613281 93.386719 33.550781 96.445312 32.1875 99.496094 C 32.046875 99.808594 31.808594 99.9375 31.558594 99.9375 C 31.0625 99.9375 30.527344 99.429688 30.640625 98.839844 C 31.371094 94.972656 34.324219 91.902344 34.972656 88.058594 C 35.464844 85.148438 35.371094 82.351562 35.1875 79.53125 " fill-opacity="1" fill-rule="nonzero"/><path fill="#f3f6fa" d="M 34.195312 155.179688 C 33.621094 155.179688 33.015625 154.996094 32.476562 154.886719 C 31.457031 154.679688 30.429688 154.585938 29.402344 154.433594 C 28.566406 154.3125 28.816406 153.238281 29.460938 153.027344 C 27.910156 152.796875 26.351562 152.472656 24.988281 151.71875 C 24.789062 151.609375 24.8125 151.25 25.054688 151.207031 C 25.613281 151.109375 26.175781 151.070312 26.738281 151.070312 C 28.417969 151.070312 30.121094 151.417969 31.777344 151.609375 C 30.3125 151.355469 28.84375 151.113281 27.363281 150.925781 C 26.707031 150.839844 26.640625 150.03125 27.191406 149.832031 C 25.097656 149.300781 23.03125 148.792969 21.035156 148.523438 C 20.078125 148.394531 19.992188 146.945312 21.007812 146.945312 C 21.015625 146.945312 21.027344 146.945312 21.035156 146.945312 C 24.277344 147.027344 27.441406 147.597656 30.621094 148.203125 C 30.785156 148.238281 30.953125 148.261719 31.117188 148.289062 C 31.210938 148.230469 31.316406 148.183594 31.453125 148.164062 C 32.316406 148.050781 33.214844 147.988281 34.109375 147.988281 C 34.820312 147.988281 35.527344 148.027344 36.214844 148.117188 C 37.351562 148.265625 38.511719 148.289062 39.324219 149.179688 C 39.511719 149.382812 39.519531 149.648438 39.414062 149.863281 C 39.558594 149.90625 39.707031 149.929688 39.847656 149.976562 C 40.515625 150.183594 40.660156 151.367188 39.847656 151.484375 C 39.34375 151.554688 38.835938 151.589844 38.320312 151.613281 C 38.285156 151.75 38.207031 151.882812 38.070312 151.976562 C 37.992188 152.035156 37.90625 152.070312 37.824219 152.113281 C 38.238281 152.199219 38.648438 152.304688 39.039062 152.449219 C 39.546875 152.640625 39.5625 153.316406 39.039062 153.5 C 38.578125 153.660156 38.089844 153.75 37.59375 153.8125 C 37.765625 153.910156 37.929688 154.023438 38.078125 154.175781 C 38.261719 154.363281 38.230469 154.703125 37.992188 154.835938 C 37.609375 155.050781 37.1875 155.128906 36.753906 155.128906 C 36.234375 155.128906 35.691406 155.015625 35.167969 154.898438 C 35.105469 154.953125 35.042969 155.003906 34.957031 155.039062 C 34.714844 155.140625 34.457031 155.179688 34.195312 155.179688 " fill-opacity="1" fill-rule="nonzero"/><path fill="#f3f6fa" d="M 33.9375 176.121094 C 32.742188 176.121094 31.460938 175.867188 30.273438 175.625 C 29.253906 175.535156 28.226562 175.421875 27.253906 175.078125 C 25.101562 174.691406 22.957031 174.175781 21.050781 173.054688 C 20.417969 172.683594 20.75 171.730469 21.402344 171.730469 C 21.464844 171.730469 21.527344 171.738281 21.597656 171.757812 C 22.664062 172.046875 23.730469 172.269531 24.796875 172.46875 C 24.789062 172.226562 24.902344 171.988281 25.125 171.839844 C 21.789062 171.121094 18.648438 169.925781 16.5625 168.601562 C 15.914062 168.1875 16.234375 167.195312 16.933594 167.195312 C 16.996094 167.195312 17.070312 167.203125 17.140625 167.222656 C 21.046875 168.269531 24.742188 169.453125 28.824219 169.703125 C 28.867188 169.707031 28.914062 169.703125 28.957031 169.707031 L 28.96875 169.617188 C 28.398438 169.554688 27.832031 169.472656 27.277344 169.335938 C 25.660156 169.140625 24.050781 168.839844 22.617188 168.050781 C 22.128906 167.785156 22.363281 167.027344 22.898438 167.023438 C 22.964844 167.023438 23.027344 167.023438 23.09375 167.023438 C 24.828125 167.023438 26.566406 167.238281 28.308594 167.402344 C 27.839844 167.226562 27.390625 167.015625 26.976562 166.746094 C 26.890625 166.6875 26.832031 166.625 26.777344 166.558594 C 22.71875 165.910156 18.679688 165.03125 15.050781 163.03125 C 14.335938 162.636719 14.703125 161.511719 15.421875 161.511719 C 15.5 161.511719 15.582031 161.527344 15.667969 161.554688 C 20.019531 163.023438 24.378906 163.921875 28.957031 164.320312 C 28.996094 164.324219 29.035156 164.324219 29.074219 164.328125 C 26.570312 163.910156 24.066406 163.539062 21.566406 163.121094 C 20.636719 162.964844 20.894531 161.53125 21.78125 161.519531 C 21.925781 161.515625 22.074219 161.515625 22.21875 161.515625 C 23.417969 161.515625 24.617188 161.578125 25.8125 161.671875 C 25.789062 161.5 25.808594 161.328125 25.867188 161.175781 C 23.691406 160.976562 21.519531 160.746094 19.351562 160.421875 C 18.546875 160.304688 18.726562 158.976562 19.511719 158.976562 C 19.523438 158.976562 19.535156 158.976562 19.546875 158.976562 C 20.246094 159.015625 20.988281 159.027344 21.757812 159.027344 C 22.695312 159.027344 23.683594 159.007812 24.691406 158.988281 C 25.703125 158.96875 26.742188 158.949219 27.78125 158.949219 C 32.113281 158.949219 36.539062 159.285156 39.617188 161.363281 C 40.199219 161.753906 39.964844 162.609375 39.269531 162.652344 C 38.980469 162.671875 38.691406 162.679688 38.398438 162.679688 C 38.144531 162.679688 37.886719 162.671875 37.632812 162.664062 C 37.789062 162.910156 37.847656 163.230469 37.71875 163.472656 C 38.105469 163.632812 38.484375 163.8125 38.84375 164.035156 C 39.28125 164.308594 39.214844 164.949219 38.753906 165.148438 C 38.875 165.191406 39 165.21875 39.117188 165.265625 C 39.90625 165.578125 39.921875 166.582031 39.117188 166.890625 C 38.539062 167.113281 37.90625 167.25 37.257812 167.351562 C 37.351562 167.449219 37.445312 167.542969 37.527344 167.660156 C 37.699219 167.914062 37.578125 168.296875 37.324219 168.441406 C 37.28125 168.464844 37.230469 168.476562 37.1875 168.496094 C 37.277344 168.75 37.207031 169.054688 36.953125 169.199219 C 36.566406 169.417969 36.128906 169.5625 35.679688 169.671875 C 36.324219 169.710938 36.964844 169.777344 37.589844 169.910156 C 38.171875 170.03125 38.246094 170.882812 37.753906 171.160156 C 37 171.582031 36.128906 171.890625 35.191406 172.113281 C 35.324219 172.199219 35.453125 172.296875 35.578125 172.414062 C 35.914062 172.722656 35.707031 173.226562 35.328125 173.363281 C 35.023438 173.476562 34.703125 173.53125 34.371094 173.558594 C 35.128906 173.730469 35.832031 174.027344 36.410156 174.570312 C 36.714844 174.863281 36.667969 175.46875 36.269531 175.660156 C 35.570312 175.996094 34.777344 176.121094 33.9375 176.121094 " fill-opacity="1" fill-rule="nonzero"/><g clip-path="url(#82b7e63f4d)"><path fill="#f3f6fa" d="M 108.125 85.898438 C 107.976562 83.328125 107.726562 80.785156 107.691406 78.566406 C 107.5 67.132812 108.460938 55.789062 108.996094 44.378906 C 109.507812 33.414062 109.40625 22.425781 109.878906 11.460938 C 109.054688 4.941406 102.757812 3.386719 95.484375 3.386719 C 91.171875 3.386719 86.515625 3.933594 82.453125 4.316406 C 82.316406 4.417969 82.167969 4.503906 81.976562 4.53125 C 81.285156 4.632812 80.488281 4.675781 79.605469 4.675781 C 79.121094 4.675781 78.609375 4.664062 78.078125 4.640625 C 77.542969 4.664062 77.035156 4.675781 76.546875 4.675781 C 75.664062 4.675781 74.871094 4.632812 74.179688 4.53125 C 73.984375 4.503906 73.835938 4.417969 73.703125 4.316406 C 69.636719 3.933594 64.984375 3.386719 60.671875 3.386719 C 53.398438 3.386719 47.097656 4.941406 46.273438 11.460938 C 46.746094 22.425781 46.648438 33.414062 47.160156 44.378906 C 47.445312 50.453125 47.84375 56.507812 48.132812 62.570312 C 48.054688 62.484375 47.976562 62.398438 47.898438 62.3125 C 47.140625 61.511719 46.082031 60.890625 44.921875 60.527344 C 44.902344 57.8125 44.867188 55.101562 44.789062 52.394531 C 44.402344 38.703125 43.765625 24.863281 44.316406 11.167969 C 44.289062 10.609375 44.304688 10.074219 44.371094 9.570312 C 44.378906 9.484375 44.378906 9.394531 44.382812 9.304688 C 44.390625 9.125 44.445312 8.984375 44.519531 8.859375 C 46.050781 2.257812 55.730469 0.554688 65.117188 0.554688 C 69.882812 0.554688 74.570312 0.996094 78.078125 1.453125 C 81.582031 0.996094 86.273438 0.554688 91.039062 0.554688 C 100.421875 0.554688 110.105469 2.257812 111.632812 8.859375 C 111.707031 8.984375 111.765625 9.125 111.773438 9.304688 C 111.777344 9.394531 111.777344 9.484375 111.78125 9.570312 C 111.847656 10.074219 111.863281 10.609375 111.839844 11.167969 C 112.386719 24.863281 111.75 38.703125 111.363281 52.394531 C 111.058594 63.226562 111.328125 74.082031 111.210938 84.914062 C 110.992188 84.882812 110.777344 84.863281 110.5625 84.863281 C 109.675781 84.863281 108.832031 85.167969 108.125 85.898438 " fill-opacity="1" fill-rule="nonzero"/></g><path fill="#f3f6fa" d="M 75.113281 105.980469 C 72.730469 105.980469 70.378906 105.867188 68.078125 105.59375 C 67.597656 105.535156 67.257812 105.273438 67.039062 104.941406 C 62.996094 104.417969 58.996094 103.769531 55.15625 103.175781 C 54.644531 102.035156 54.046875 100.914062 53.378906 99.804688 C 54.757812 100.203125 56.289062 100.347656 57.808594 100.46875 C 64.597656 101.007812 71.316406 102.410156 78.078125 102.914062 C 79.964844 102.773438 81.851562 102.558594 83.738281 102.316406 C 83.691406 103.523438 83.636719 104.726562 83.585938 105.933594 C 82.722656 105.964844 81.851562 105.980469 80.976562 105.980469 C 80.015625 105.980469 79.046875 105.960938 78.078125 105.925781 C 77.085938 105.964844 76.097656 105.980469 75.113281 105.980469 " fill-opacity="1" fill-rule="nonzero"/><path fill="#f3f6fa" d="M 75.90625 98.449219 C 73.964844 98.449219 72.046875 98.347656 70.171875 98.113281 C 69.777344 98.066406 69.5 97.84375 69.320312 97.558594 C 65.847656 97.085938 62.417969 96.492188 59.132812 95.964844 C 55.152344 95.320312 52.414062 93.25 51.628906 89.363281 C 51.671875 86.042969 51.496094 82.695312 51.25 79.480469 C 51.238281 77.875 51.234375 76.265625 51.238281 74.660156 C 51.269531 74.570312 51.289062 74.472656 51.296875 74.359375 C 51.320312 73.839844 51.328125 73.320312 51.328125 72.792969 C 51.4375 72.488281 51.457031 72.132812 51.335938 71.730469 C 51.320312 71.6875 51.308594 71.644531 51.292969 71.597656 C 51.28125 71.355469 51.265625 71.113281 51.246094 70.867188 C 51.265625 64.738281 51.308594 58.601562 51.144531 52.480469 C 50.828125 40.734375 50.308594 28.863281 50.753906 17.109375 C 50.734375 16.632812 50.746094 16.175781 50.804688 15.742188 C 50.804688 15.667969 50.808594 15.59375 50.808594 15.515625 C 50.820312 15.363281 50.863281 15.238281 50.921875 15.132812 C 52.171875 9.46875 60.078125 8.011719 67.746094 8.011719 C 71.640625 8.011719 75.476562 8.386719 78.339844 8.78125 C 81.203125 8.386719 85.039062 8.011719 88.933594 8.011719 C 96.597656 8.011719 104.507812 9.46875 105.757812 15.132812 C 105.816406 15.238281 105.859375 15.363281 105.867188 15.515625 C 105.871094 15.59375 105.871094 15.667969 105.875 15.742188 C 105.933594 16.175781 105.945312 16.632812 105.925781 17.109375 C 106.371094 28.863281 105.851562 40.734375 105.535156 52.480469 C 105.253906 63.050781 105.574219 73.648438 105.347656 84.21875 C 104.609375 83.605469 103.808594 83.117188 102.957031 82.84375 C 102.878906 80.101562 102.570312 77.304688 102.535156 74.933594 C 102.378906 65.125 103.164062 55.394531 103.597656 45.601562 C 104.019531 36.199219 103.9375 26.769531 104.324219 17.367188 C 103.648438 11.769531 98.503906 10.4375 92.558594 10.4375 C 89.035156 10.4375 85.234375 10.90625 81.914062 11.234375 C 81.804688 11.324219 81.679688 11.394531 81.523438 11.421875 C 80.953125 11.507812 80.296875 11.542969 79.566406 11.542969 C 79.175781 11.542969 78.765625 11.535156 78.339844 11.515625 C 77.914062 11.535156 77.503906 11.542969 77.113281 11.542969 C 76.386719 11.542969 75.726562 11.507812 75.15625 11.421875 C 75 11.394531 74.875 11.324219 74.765625 11.234375 C 71.445312 10.90625 67.640625 10.4375 64.121094 10.4375 C 58.175781 10.4375 53.03125 11.773438 52.355469 17.367188 C 52.742188 26.769531 52.660156 36.199219 53.078125 45.601562 C 53.515625 55.394531 54.300781 65.125 54.148438 74.933594 C 54.074219 79.371094 53.015625 85.296875 54.394531 89.574219 C 55.53125 93.109375 58.691406 93.464844 61.78125 93.71875 C 67.328125 94.179688 72.816406 95.386719 78.339844 95.816406 C 80.382812 95.65625 82.417969 95.390625 84.457031 95.09375 C 84.238281 96.195312 84.085938 97.316406 83.984375 98.335938 C 82.867188 98.410156 81.738281 98.445312 80.597656 98.445312 C 79.847656 98.445312 79.097656 98.429688 78.339844 98.398438 C 77.523438 98.433594 76.710938 98.449219 75.90625 98.449219 " fill-opacity="1" fill-rule="nonzero"/><g clip-path="url(#942ce686de)"><path fill="#f3f6fa" d="M 118.246094 182.6875 C 118.191406 182.6875 118.136719 182.679688 118.078125 182.664062 C 113.007812 181.253906 110.933594 173.789062 109.617188 169.3125 C 109.46875 169.277344 109.339844 169.183594 109.300781 169.035156 C 109.039062 168.109375 109.703125 167 110.867188 165.847656 C 110.820312 165.796875 110.769531 165.757812 110.746094 165.679688 C 110.195312 163.695312 109.882812 161.640625 109.34375 159.644531 C 108.921875 158.074219 108.457031 156.515625 108.339844 154.886719 C 108.324219 154.679688 108.410156 154.53125 108.539062 154.433594 C 104.117188 151.507812 101.269531 147.023438 97.492188 143.367188 C 93.769531 139.769531 89.5625 136.644531 86.292969 132.609375 C 83.476562 129.136719 83.378906 124.992188 83.277344 120.652344 C 83.160156 115.730469 83.375 110.835938 83.585938 105.933594 C 83.636719 104.726562 83.691406 103.523438 83.738281 102.316406 C 83.742188 102.167969 83.75 102.023438 83.753906 101.875 C 83.777344 101.265625 83.824219 99.929688 83.984375 98.335938 C 84.085938 97.316406 84.238281 96.195312 84.457031 95.09375 C 85.066406 92.03125 86.214844 89.144531 88.410156 89.144531 C 88.929688 89.144531 89.507812 89.304688 90.148438 89.664062 C 88.257812 82.015625 84.230469 64.46875 90.34375 64.46875 C 94.714844 64.46875 97.15625 73.398438 98.289062 76.519531 C 99.023438 78.550781 99.761719 80.613281 100.472656 82.699219 C 100.800781 82.632812 101.125 82.597656 101.445312 82.597656 C 101.964844 82.597656 102.46875 82.683594 102.957031 82.84375 C 103.808594 83.117188 104.609375 83.605469 105.347656 84.21875 C 106.171875 84.898438 106.917969 85.734375 107.582031 86.597656 C 107.75 86.328125 107.933594 86.097656 108.125 85.898438 C 108.832031 85.167969 109.675781 84.863281 110.5625 84.863281 C 110.777344 84.863281 110.992188 84.882812 111.210938 84.914062 C 112.992188 85.1875 114.863281 86.515625 116.101562 87.953125 C 116.824219 88.789062 117.492188 89.667969 118.140625 90.5625 C 118.324219 90.550781 118.511719 90.542969 118.691406 90.542969 C 124.988281 90.542969 129.636719 97.59375 131.976562 102.78125 C 134.050781 107.367188 133.851562 112.988281 133.449219 117.875 C 132.996094 123.410156 133.246094 129.140625 132.476562 134.609375 C 132.453125 134.761719 132.339844 134.847656 132.210938 134.898438 C 132.292969 135.070312 132.375 135.230469 132.449219 135.367188 C 133.644531 137.53125 135.765625 140.496094 135.453125 143.09375 C 135.429688 143.277344 135.324219 143.414062 135.191406 143.488281 C 135.339844 143.511719 135.488281 143.546875 135.632812 143.582031 C 135.675781 143.214844 135.933594 142.882812 136.277344 142.882812 C 136.402344 142.882812 136.53125 142.925781 136.671875 143.019531 C 138.390625 144.21875 139.605469 145.886719 140.761719 147.617188 C 141.496094 148.714844 142.730469 150.054688 143.132812 151.429688 C 143.652344 151.714844 144.050781 152.179688 144.027344 152.828125 C 143.851562 158.160156 148.90625 162.390625 152.558594 165.488281 C 153.453125 166.246094 152.628906 167.414062 151.6875 167.414062 C 151.433594 167.414062 151.167969 167.328125 150.929688 167.125 C 146.484375 163.378906 143.972656 159.730469 141.585938 154.722656 C 135.839844 156.324219 130.363281 158.582031 124.828125 160.835938 C 121.082031 162.363281 117.265625 164.335938 113.902344 166.605469 C 113.167969 167.101562 112.257812 168.070312 111.316406 168.710938 C 112.222656 171.207031 112.941406 173.804688 114.1875 176.164062 C 115.371094 178.398438 116.886719 179.882812 118.714844 181.5625 C 119.164062 181.976562 118.78125 182.6875 118.246094 182.6875 M 133.675781 146.835938 C 130.191406 146.835938 126.984375 147.191406 123.285156 148.5625 C 118.4375 150.355469 113.585938 152.128906 109.800781 155.78125 C 110.21875 157.449219 110.589844 159.136719 110.980469 160.804688 C 111.316406 162.230469 111.667969 163.667969 111.636719 165.136719 C 115.285156 161.980469 121.988281 158.667969 123.527344 157.734375 C 127.40625 155.390625 134.53125 150.8125 140.050781 150.8125 C 140.113281 150.8125 140.171875 150.8125 140.234375 150.816406 C 139.882812 150.238281 139.578125 149.640625 139.277344 149.148438 C 138.8125 148.386719 138.320312 147.65625 137.816406 146.933594 C 137.777344 146.933594 137.746094 146.949219 137.707031 146.949219 C 137.703125 146.949219 137.699219 146.945312 137.695312 146.945312 C 136.289062 146.882812 134.964844 146.835938 133.675781 146.835938 M 89.722656 94.296875 C 88.867188 94.296875 87.855469 94.546875 86.683594 95.046875 C 85.375 102.539062 85.402344 110.976562 85.554688 118.566406 C 85.636719 122.683594 85.15625 128.023438 87.738281 131.484375 C 89.769531 134.207031 92.171875 136.441406 94.65625 138.722656 C 99.890625 143.535156 103.953125 149.511719 109.59375 153.863281 C 109.65625 153.914062 109.707031 153.972656 109.746094 154.035156 C 113.59375 150.242188 118.949219 147.242188 123.917969 145.542969 C 126.21875 144.757812 130.160156 143.363281 133.539062 143.363281 C 133.929688 143.363281 134.3125 143.382812 134.683594 143.421875 L 134.679688 143.417969 C 132.644531 141.625 131.542969 138.1875 130.289062 135.808594 C 129.710938 134.714844 127.777344 132.144531 128.660156 130.890625 C 128.738281 130.777344 128.867188 130.664062 129.011719 130.664062 C 129.023438 130.664062 129.035156 130.664062 129.042969 130.667969 C 129.664062 130.742188 130.199219 131.25 130.664062 131.925781 C 129.222656 125.71875 131.460938 118.550781 131.195312 112.324219 C 130.914062 105.835938 127.132812 94.109375 119.464844 92.460938 C 119.964844 93.203125 120.457031 93.957031 120.941406 94.714844 C 121.867188 96.167969 123.359375 97.867188 123.410156 99.667969 C 123.417969 100.089844 123.066406 100.351562 122.691406 100.351562 C 122.640625 100.351562 122.585938 100.347656 122.535156 100.335938 C 118.445312 99.527344 115.496094 87.128906 110.8125 87.128906 C 110.113281 87.128906 109.382812 87.402344 108.597656 88.027344 C 108.882812 88.453125 109.140625 88.871094 109.375 89.257812 C 110.804688 91.636719 112.046875 94.109375 113.34375 96.5625 C 114.121094 98.03125 115.664062 99.839844 115.714844 101.539062 C 115.730469 101.992188 115.328125 102.355469 114.898438 102.355469 C 114.828125 102.355469 114.757812 102.347656 114.6875 102.328125 C 111.898438 101.496094 110.21875 95.738281 108.964844 93.425781 C 107.242188 90.25 104.984375 85.25 101.066406 84.503906 C 103.058594 90.570312 104.746094 96.8125 105.375 103.039062 C 105.429688 103.578125 104.925781 103.925781 104.445312 103.925781 C 104.144531 103.925781 103.855469 103.792969 103.71875 103.492188 C 100.675781 96.964844 99.726562 88.996094 97.570312 82.074219 C 96.15625 77.519531 94.648438 70.476562 90.960938 67.195312 C 90.746094 67.007812 90.558594 66.921875 90.398438 66.921875 C 89.097656 66.921875 89.359375 72.40625 89.417969 73.042969 C 89.691406 76.039062 90.179688 78.992188 90.6875 81.953125 C 91.179688 84.847656 92.144531 88.121094 92.121094 91.175781 C 98.460938 97.214844 96.222656 108.273438 96.289062 116.140625 C 96.296875 116.847656 95.753906 117.222656 95.203125 117.222656 C 94.746094 117.222656 94.285156 116.96875 94.113281 116.4375 C 93.011719 112.964844 93.441406 109.632812 93.582031 106.03125 C 93.679688 103.546875 93.902344 100.703125 93.070312 98.320312 C 92.808594 95.636719 91.695312 94.296875 89.722656 94.296875 " fill-opacity="1" fill-rule="nonzero"/></g><path fill="#f3f6fa" d="M 123.488281 155.367188 C 123.089844 155.367188 122.742188 154.859375 123.117188 154.539062 C 123.550781 154.171875 124.007812 153.824219 124.46875 153.496094 C 124.050781 153.40625 123.789062 152.894531 124.152344 152.492188 C 124.722656 151.871094 125.382812 151.320312 126.109375 150.835938 C 124.96875 151.175781 123.839844 151.542969 122.757812 152.027344 C 122.714844 152.042969 122.675781 152.050781 122.636719 152.050781 C 122.394531 152.050781 122.242188 151.730469 122.492188 151.570312 C 124.171875 150.523438 126.066406 149.550781 128.027344 148.898438 C 128.6875 148.59375 129.363281 148.316406 130.046875 148.101562 C 131.019531 147.796875 132.070312 147.324219 133.109375 147.324219 C 133.242188 147.324219 133.375 147.332031 133.507812 147.351562 C 133.921875 147.402344 134.324219 147.808594 134.320312 148.214844 C 134.382812 148.253906 134.441406 148.296875 134.488281 148.355469 C 134.652344 148.566406 134.746094 148.75 134.789062 148.921875 C 134.894531 148.917969 135 148.910156 135.101562 148.910156 C 135.128906 148.910156 135.15625 148.910156 135.183594 148.910156 C 135.691406 148.9375 136.089844 149.621094 135.632812 150.003906 C 135.523438 150.097656 135.40625 150.175781 135.292969 150.257812 C 135.484375 150.429688 135.539062 150.757812 135.402344 150.96875 C 134.59375 152.199219 132.902344 152.34375 131.589844 152.839844 C 129.851562 153.492188 128.171875 154.304688 126.382812 154.800781 C 126.328125 154.816406 126.277344 154.820312 126.230469 154.820312 C 125.917969 154.820312 125.753906 154.523438 125.808594 154.242188 C 125.105469 154.589844 124.40625 154.945312 123.710938 155.3125 C 123.636719 155.351562 123.5625 155.367188 123.488281 155.367188 " fill-opacity="1" fill-rule="nonzero"/><path fill="#f3f6fa" d="M 132.714844 175.464844 C 132.167969 175.464844 131.683594 174.789062 132.203125 174.351562 C 132.644531 173.980469 133.097656 173.605469 133.550781 173.238281 C 132.394531 173.535156 131.226562 173.800781 130.035156 173.984375 C 130.007812 173.988281 129.976562 173.992188 129.949219 173.992188 C 129.636719 173.992188 129.375 173.746094 129.304688 173.476562 L 129.222656 173.507812 C 129.140625 173.542969 129.058594 173.558594 128.984375 173.558594 C 128.726562 173.558594 128.535156 173.363281 128.453125 173.121094 C 127.96875 173.082031 127.710938 172.449219 128.199219 172.085938 C 129.839844 170.847656 131.570312 169.726562 133.324219 168.65625 C 131.71875 169.457031 130.125 170.265625 128.683594 171.234375 C 128.617188 171.277344 128.550781 171.296875 128.488281 171.296875 C 128.429688 171.296875 128.371094 171.277344 128.324219 171.25 L 128.304688 171.269531 C 128.207031 171.386719 128.085938 171.4375 127.960938 171.4375 C 127.59375 171.4375 127.21875 170.996094 127.46875 170.621094 C 128.574219 168.96875 130.066406 167.496094 131.765625 166.222656 C 129.859375 167.332031 127.992188 168.515625 126.011719 169.472656 C 125.90625 169.523438 125.804688 169.542969 125.707031 169.542969 C 125.398438 169.542969 125.15625 169.316406 125.101562 169.035156 C 124.808594 169.25 124.507812 169.453125 124.222656 169.691406 C 124.085938 169.800781 123.925781 169.851562 123.765625 169.851562 C 123.273438 169.851562 122.804688 169.382812 123.15625 168.859375 C 123.738281 167.996094 124.449219 167.230469 125.257812 166.542969 C 123.851562 167.28125 122.441406 168.019531 120.996094 168.71875 C 120.980469 168.726562 120.96875 168.730469 120.953125 168.730469 C 120.882812 168.730469 120.824219 168.640625 120.890625 168.582031 C 122.609375 166.984375 124.511719 165.515625 126.527344 164.199219 C 125.386719 164.722656 124.261719 165.304688 123.160156 165.996094 C 123.070312 166.054688 122.980469 166.078125 122.898438 166.078125 C 122.511719 166.078125 122.253906 165.542969 122.546875 165.195312 C 123.914062 163.59375 125.753906 162.480469 127.703125 161.636719 C 129.332031 160.367188 130.910156 159.089844 132.71875 158.0625 C 134.003906 157.339844 135.5 156.417969 137.015625 156.417969 C 137.148438 156.417969 137.28125 156.425781 137.417969 156.441406 C 137.742188 156.476562 137.996094 156.875 137.707031 157.144531 C 137.621094 157.222656 137.53125 157.289062 137.441406 157.363281 C 137.503906 157.359375 137.5625 157.355469 137.625 157.355469 C 138.011719 157.355469 138.398438 157.417969 138.765625 157.574219 C 138.898438 157.628906 138.957031 157.742188 138.972656 157.859375 C 139.199219 157.828125 139.425781 157.804688 139.65625 157.804688 C 139.746094 157.804688 139.835938 157.808594 139.929688 157.816406 C 140.308594 157.851562 140.503906 158.269531 140.238281 158.566406 C 140.132812 158.679688 140.015625 158.78125 139.898438 158.886719 C 140.371094 159.066406 140.601562 159.640625 140.425781 160.058594 C 140.714844 160.085938 141 160.144531 141.269531 160.246094 C 141.777344 160.425781 142.082031 161.070312 141.753906 161.53125 C 141.800781 161.519531 141.847656 161.507812 141.894531 161.496094 C 141.992188 161.472656 142.089844 161.460938 142.175781 161.460938 C 143.125 161.460938 143.496094 162.742188 142.667969 163.339844 C 142.074219 163.765625 141.449219 164.136719 140.804688 164.472656 C 141.421875 164.25 142.054688 164.082031 142.71875 164.03125 C 142.738281 164.027344 142.757812 164.027344 142.777344 164.027344 C 143.382812 164.027344 143.519531 164.796875 143.199219 165.199219 C 142.902344 165.566406 142.558594 165.890625 142.1875 166.191406 C 142.417969 166.164062 142.644531 166.148438 142.867188 166.148438 C 143.429688 166.148438 143.96875 166.25 144.449219 166.496094 C 144.523438 166.488281 144.597656 166.46875 144.671875 166.460938 C 144.710938 166.457031 144.742188 166.453125 144.777344 166.453125 C 145.503906 166.453125 145.832031 167.269531 145.628906 167.894531 C 145.714844 167.929688 145.804688 167.945312 145.886719 167.992188 C 146.320312 168.234375 146.371094 168.835938 146.039062 169.175781 C 144.546875 170.726562 141.679688 170.875 139.753906 171.832031 C 137.476562 172.964844 135.292969 174.277344 133.007812 175.398438 C 132.910156 175.445312 132.8125 175.464844 132.714844 175.464844 " fill-opacity="1" fill-rule="nonzero"/><path fill="#f3f6fa" d="M 110.425781 151.757812 C 110.324219 151.757812 110.214844 151.722656 110.125 151.648438 C 103.476562 146.070312 99.152344 137.890625 93.335938 131.476562 C 92.992188 131.097656 93.316406 130.617188 93.707031 130.617188 C 93.820312 130.617188 93.941406 130.660156 94.050781 130.757812 C 100.554688 136.34375 106.296875 143.820312 110.824219 151.105469 C 111.035156 151.449219 110.742188 151.757812 110.425781 151.757812 " fill-opacity="1" fill-rule="nonzero"/><path fill="#f3f6fa" d="M 43.339844 177.105469 C 43.039062 177.105469 42.738281 176.960938 42.5625 176.65625 C 41.085938 174.050781 42.835938 168.886719 43.082031 166.046875 C 43.355469 162.878906 43.632812 159.546875 42.660156 156.488281 C 41.546875 157.195312 40.074219 157.644531 38.152344 157.753906 C 37.222656 157.808594 36.289062 157.832031 35.347656 157.832031 C 26.335938 157.832031 16.9375 155.394531 9.28125 150.675781 C 9.289062 150.894531 9.246094 151.121094 9.128906 151.308594 C 7.679688 153.667969 6.613281 156.367188 5.996094 159.070312 C 5.652344 160.585938 5.933594 163.226562 4.886719 164.429688 C 4.832031 164.488281 4.746094 164.523438 4.660156 164.523438 C 4.632812 164.523438 4.605469 164.519531 4.582031 164.511719 C 0.625 163.144531 5.859375 152.269531 7.140625 150.140625 C 7.292969 149.890625 7.578125 149.65625 7.886719 149.585938 C 7.808594 149.402344 7.789062 149.191406 7.847656 148.980469 C 9.015625 144.777344 9.90625 140.445312 11.929688 136.554688 C 12.042969 136.335938 12.230469 136.242188 12.429688 136.242188 C 12.550781 136.242188 12.675781 136.277344 12.785156 136.339844 L 12.800781 136.324219 C 13.050781 136.269531 13.300781 136.242188 13.554688 136.242188 C 13.730469 136.242188 13.910156 136.257812 14.085938 136.277344 C 14.230469 136.140625 14.425781 136.046875 14.65625 136.046875 C 14.820312 136.046875 14.992188 136.066406 15.164062 136.085938 C 15.269531 135.996094 15.390625 135.917969 15.550781 135.871094 C 15.695312 135.828125 15.824219 135.8125 15.941406 135.8125 C 16.269531 135.8125 16.535156 135.9375 16.90625 136.015625 C 17.164062 136.070312 17.425781 136.054688 17.6875 136.0625 C 17.796875 136.066406 17.886719 136.097656 17.980469 136.125 C 18.070312 135.972656 18.160156 135.816406 18.25 135.652344 C 20.160156 132.078125 20.574219 128.519531 20.375 124.46875 C 20.007812 117.050781 19.324219 109.65625 19.546875 102.214844 C 19.71875 96.410156 19.542969 90.394531 23.078125 85.515625 C 25.945312 81.550781 30.972656 79.300781 34.886719 76.589844 C 34.921875 76.566406 34.953125 76.558594 34.984375 76.539062 C 34.929688 75.722656 34.882812 74.90625 34.855469 74.078125 C 34.703125 69.503906 35.222656 65.183594 38.460938 61.730469 C 39.492188 60.628906 40.980469 60.148438 42.519531 60.148438 C 43.324219 60.148438 44.144531 60.28125 44.921875 60.527344 C 46.082031 60.890625 47.140625 61.511719 47.898438 62.3125 C 47.976562 62.398438 48.054688 62.484375 48.132812 62.570312 C 50.144531 64.847656 50.996094 67.835938 51.246094 70.867188 C 51.265625 71.113281 51.28125 71.355469 51.292969 71.597656 C 51.3125 72 51.324219 72.398438 51.328125 72.792969 C 51.328125 73.320312 51.320312 73.839844 51.296875 74.359375 C 51.289062 74.472656 51.269531 74.570312 51.238281 74.660156 C 51.164062 74.847656 51.035156 74.988281 50.878906 75.078125 C 51.007812 76.503906 51.136719 77.980469 51.25 79.480469 C 51.496094 82.695312 51.671875 86.042969 51.628906 89.363281 C 51.597656 91.773438 51.453125 94.167969 51.132812 96.484375 C 51.949219 97.574219 52.703125 98.683594 53.378906 99.804688 C 54.046875 100.914062 54.644531 102.035156 55.15625 103.175781 C 57.46875 108.328125 58.089844 113.820312 56.015625 119.722656 C 53.933594 125.652344 48.230469 131 43.960938 135.777344 C 43.941406 138.679688 43.820312 141.542969 44.039062 144.441406 C 44.253906 144.492188 44.457031 144.589844 44.605469 144.78125 C 45.214844 145.070312 45.410156 145.875 45.09375 146.449219 C 45.835938 150.003906 45.738281 153.257812 43.953125 155.355469 C 46.355469 156.820312 45.902344 161.828125 45.761719 164.058594 C 45.59375 166.664062 45.296875 169.246094 45.007812 171.835938 C 44.839844 173.367188 45.003906 175.3125 44.160156 176.65625 C 43.976562 176.949219 43.65625 177.105469 43.339844 177.105469 M 13.074219 137.101562 C 12.539062 138.878906 8.917969 148.328125 10.539062 149.292969 C 14.964844 151.925781 19.800781 153.738281 24.863281 154.671875 C 28.09375 155.265625 31.539062 155.789062 34.917969 155.789062 C 36.003906 155.789062 37.085938 155.734375 38.152344 155.613281 C 43.535156 154.984375 43.929688 151.503906 42.996094 147.179688 C 41.375 147.332031 39.667969 147.425781 37.925781 147.425781 C 32.925781 147.425781 27.671875 146.65625 23.5625 144.355469 C 20.351562 142.558594 15.5 140.128906 13.074219 137.101562 M 35.1875 79.53125 C 30.464844 82.535156 24.015625 85.542969 22.910156 91.464844 C 21.554688 98.746094 22.132812 106.320312 22.335938 113.667969 C 22.488281 119.421875 24.621094 126.304688 22.863281 131.941406 C 22.25 133.910156 20.769531 137.253906 18.859375 138.726562 C 20.085938 139.660156 21.234375 140.640625 22.199219 141.238281 C 26.707031 144.039062 32.042969 145.320312 37.355469 145.320312 C 39.199219 145.320312 41.039062 145.164062 42.839844 144.867188 C 42.90625 144.78125 42.980469 144.699219 43.070312 144.636719 C 42.359375 142.34375 42.386719 139.765625 42.539062 137.273438 C 42.457031 137.300781 42.371094 137.316406 42.285156 137.316406 C 41.789062 137.316406 41.28125 136.832031 41.464844 136.285156 C 41.796875 135.300781 42.25 134.390625 42.777344 133.535156 L 42.777344 133.507812 C 42.789062 133.238281 42.941406 133.070312 43.128906 132.992188 C 45.621094 129.289062 49.542969 126.5625 51.992188 122.804688 C 54.820312 118.46875 56.597656 112.964844 54.871094 107.820312 C 53.828125 104.707031 52.160156 101.984375 50.691406 99.113281 C 50.265625 101.203125 49.675781 103.210938 48.863281 105.070312 C 48.738281 105.359375 48.523438 105.476562 48.304688 105.476562 C 47.859375 105.476562 47.378906 105.003906 47.460938 104.476562 C 48.386719 98.554688 49.648438 92.976562 49.554688 86.925781 C 49.488281 82.582031 49.15625 78.207031 49.386719 73.859375 C 48.535156 70.546875 47.425781 61.769531 43.347656 61.769531 C 42.566406 61.769531 41.671875 62.09375 40.648438 62.84375 C 36.523438 65.867188 36.769531 71.664062 37.136719 76.183594 C 37.515625 80.898438 38.003906 85.617188 36.59375 90.199219 C 35.613281 93.386719 33.550781 96.445312 32.1875 99.496094 C 32.046875 99.808594 31.808594 99.9375 31.558594 99.9375 C 31.0625 99.9375 30.527344 99.429688 30.640625 98.839844 C 31.371094 94.972656 34.324219 91.902344 34.972656 88.058594 C 35.464844 85.148438 35.371094 82.351562 35.1875 79.53125 " fill-opacity="1" fill-rule="nonzero"/><path fill="#f3f6fa" d="M 34.195312 155.179688 C 33.621094 155.179688 33.015625 154.996094 32.476562 154.886719 C 31.457031 154.679688 30.429688 154.585938 29.402344 154.433594 C 28.566406 154.3125 28.816406 153.238281 29.460938 153.027344 C 27.910156 152.796875 26.351562 152.472656 24.988281 151.71875 C 24.789062 151.609375 24.8125 151.25 25.054688 151.207031 C 25.613281 151.109375 26.175781 151.070312 26.738281 151.070312 C 28.417969 151.070312 30.121094 151.417969 31.777344 151.609375 C 30.3125 151.355469 28.84375 151.113281 27.363281 150.925781 C 26.707031 150.839844 26.640625 150.03125 27.191406 149.832031 C 25.097656 149.300781 23.03125 148.792969 21.035156 148.523438 C 20.078125 148.394531 19.992188 146.945312 21.007812 146.945312 C 21.015625 146.945312 21.027344 146.945312 21.035156 146.945312 C 24.277344 147.027344 27.441406 147.597656 30.621094 148.203125 C 30.785156 148.238281 30.953125 148.261719 31.117188 148.289062 C 31.210938 148.230469 31.316406 148.183594 31.453125 148.164062 C 32.316406 148.050781 33.214844 147.988281 34.109375 147.988281 C 34.820312 147.988281 35.527344 148.027344 36.214844 148.117188 C 37.351562 148.265625 38.511719 148.289062 39.324219 149.179688 C 39.511719 149.382812 39.519531 149.648438 39.414062 149.863281 C 39.558594 149.90625 39.707031 149.929688 39.847656 149.976562 C 40.515625 150.183594 40.660156 151.367188 39.847656 151.484375 C 39.34375 151.554688 38.835938 151.589844 38.320312 151.613281 C 38.285156 151.75 38.207031 151.882812 38.070312 151.976562 C 37.992188 152.035156 37.90625 152.070312 37.824219 152.113281 C 38.238281 152.199219 38.648438 152.304688 39.039062 152.449219 C 39.546875 152.640625 39.5625 153.316406 39.039062 153.5 C 38.578125 153.660156 38.089844 153.75 37.59375 153.8125 C 37.765625 153.910156 37.929688 154.023438 38.078125 154.175781 C 38.261719 154.363281 38.230469 154.703125 37.992188 154.835938 C 37.609375 155.050781 37.1875 155.128906 36.753906 155.128906 C 36.234375 155.128906 35.691406 155.015625 35.167969 154.898438 C 35.105469 154.953125 35.042969 155.003906 34.957031 155.039062 C 34.714844 155.140625 34.457031 155.179688 34.195312 155.179688 " fill-opacity="1" fill-rule="nonzero"/><path fill="#f3f6fa" d="M 33.9375 176.121094 C 32.742188 176.121094 31.460938 175.867188 30.273438 175.625 C 29.253906 175.535156 28.226562 175.421875 27.253906 175.078125 C 25.101562 174.691406 22.957031 174.175781 21.050781 173.054688 C 20.417969 172.683594 20.75 171.730469 21.402344 171.730469 C 21.464844 171.730469 21.527344 171.738281 21.597656 171.757812 C 22.664062 172.046875 23.730469 172.269531 24.796875 172.46875 C 24.789062 172.226562 24.902344 171.988281 25.125 171.839844 C 21.789062 171.121094 18.648438 169.925781 16.5625 168.601562 C 15.914062 168.1875 16.234375 167.195312 16.933594 167.195312 C 16.996094 167.195312 17.070312 167.203125 17.140625 167.222656 C 21.046875 168.269531 24.742188 169.453125 28.824219 169.703125 C 28.867188 169.707031 28.914062 169.703125 28.957031 169.707031 L 28.96875 169.617188 C 28.398438 169.554688 27.832031 169.472656 27.277344 169.335938 C 25.660156 169.140625 24.050781 168.839844 22.617188 168.050781 C 22.128906 167.785156 22.363281 167.027344 22.898438 167.023438 C 22.964844 167.023438 23.027344 167.023438 23.09375 167.023438 C 24.828125 167.023438 26.566406 167.238281 28.308594 167.402344 C 27.839844 167.226562 27.390625 167.015625 26.976562 166.746094 C 26.890625 166.6875 26.832031 166.625 26.777344 166.558594 C 22.71875 165.910156 18.679688 165.03125 15.050781 163.03125 C 14.335938 162.636719 14.703125 161.511719 15.421875 161.511719 C 15.5 161.511719 15.582031 161.527344 15.667969 161.554688 C 20.019531 163.023438 24.378906 163.921875 28.957031 164.320312 C 28.996094 164.324219 29.035156 164.324219 29.074219 164.328125 C 26.570312 163.910156 24.066406 163.539062 21.566406 163.121094 C 20.636719 162.964844 20.894531 161.53125 21.78125 161.519531 C 21.925781 161.515625 22.074219 161.515625 22.21875 161.515625 C 23.417969 161.515625 24.617188 161.578125 25.8125 161.671875 C 25.789062 161.5 25.808594 161.328125 25.867188 161.175781 C 23.691406 160.976562 21.519531 160.746094 19.351562 160.421875 C 18.546875 160.304688 18.726562 158.976562 19.511719 158.976562 C 19.523438 158.976562 19.535156 158.976562 19.546875 158.976562 C 20.246094 159.015625 20.988281 159.027344 21.757812 159.027344 C 22.695312 159.027344 23.683594 159.007812 24.691406 158.988281 C 25.703125 158.96875 26.742188 158.949219 27.78125 158.949219 C 32.113281 158.949219 36.539062 159.285156 39.617188 161.363281 C 40.199219 161.753906 39.964844 162.609375 39.269531 162.652344 C 38.980469 162.671875 38.691406 162.679688 38.398438 162.679688 C 38.144531 162.679688 37.886719 162.671875 37.632812 162.664062 C 37.789062 162.910156 37.847656 163.230469 37.71875 163.472656 C 38.105469 163.632812 38.484375 163.8125 38.84375 164.035156 C 39.28125 164.308594 39.214844 164.949219 38.753906 165.148438 C 38.875 165.191406 39 165.21875 39.117188 165.265625 C 39.90625 165.578125 39.921875 166.582031 39.117188 166.890625 C 38.539062 167.113281 37.90625 167.25 37.257812 167.351562 C 37.351562 167.449219 37.445312 167.542969 37.527344 167.660156 C 37.699219 167.914062 37.578125 168.296875 37.324219 168.441406 C 37.28125 168.464844 37.230469 168.476562 37.1875 168.496094 C 37.277344 168.75 37.207031 169.054688 36.953125 169.199219 C 36.566406 169.417969 36.128906 169.5625 35.679688 169.671875 C 36.324219 169.710938 36.964844 169.777344 37.589844 169.910156 C 38.171875 170.03125 38.246094 170.882812 37.753906 171.160156 C 37 171.582031 36.128906 171.890625 35.191406 172.113281 C 35.324219 172.199219 35.453125 172.296875 35.578125 172.414062 C 35.914062 172.722656 35.707031 173.226562 35.328125 173.363281 C 35.023438 173.476562 34.703125 173.53125 34.371094 173.558594 C 35.128906 173.730469 35.832031 174.027344 36.410156 174.570312 C 36.714844 174.863281 36.667969 175.46875 36.269531 175.660156 C 35.570312 175.996094 34.777344 176.121094 33.9375 176.121094 " fill-opacity="1" fill-rule="nonzero"/></svg>