<svg xmlns="http://www.w3.org/2000/svg" xmlns:xlink="http://www.w3.org/1999/xlink" width="194" zoomAndPan="magnify" viewBox="0 0 145.5 146.249994" height="195" preserveAspectRatio="xMidYMid meet" version="1.0"><defs><clipPath id="ba5b20bc31"><path d="M 0.65625 0.257812 L 144.414062 0.257812 L 144.414062 145.503906 L 0.65625 145.503906 Z M 0.65625 0.257812 " clip-rule="nonzero"/></clipPath><clipPath id="33aabd70ef"><path d="M 79 141 L 88 141 L 88 145.503906 L 79 145.503906 Z M 79 141 " clip-rule="nonzero"/></clipPath><clipPath id="fa150200f3"><path d="M 0.65625 0.257812 L 144.414062 0.257812 L 144.414062 145.503906 L 0.65625 145.503906 Z M 0.65625 0.257812 " clip-rule="nonzero"/></clipPath><clipPath id="347feceb45"><path d="M 79 141 L 88 141 L 88 145.503906 L 79 145.503906 Z M 79 141 " clip-rule="nonzero"/></clipPath></defs><path fill="#f3f6fa" d="M 80.171875 30.320312 C 79.621094 30.320312 79.179688 30.765625 79.179688 31.320312 L 79.179688 40.074219 L 83.0625 40.074219 L 83.0625 31.320312 C 83.0625 30.765625 82.617188 30.320312 82.070312 30.320312 L 80.171875 30.320312 " fill-opacity="1" fill-rule="nonzero"/><path fill="#f3f6fa" d="M 62.820312 30.320312 C 62.273438 30.320312 61.828125 30.765625 61.828125 31.320312 L 61.828125 40.074219 L 65.714844 40.074219 L 65.714844 31.320312 C 65.714844 30.765625 65.269531 30.320312 64.71875 30.320312 L 62.820312 30.320312 " fill-opacity="1" fill-rule="nonzero"/><g clip-path="url(#ba5b20bc31)"><path fill="#f3f6fa" d="M 138.757812 44.332031 C 135.136719 35.738281 129.957031 28.019531 123.355469 21.394531 C 116.757812 14.765625 109.070312 9.5625 100.511719 5.925781 C 91.648438 2.160156 82.238281 0.253906 72.535156 0.253906 C 62.835938 0.253906 53.421875 2.160156 44.558594 5.925781 C 36 9.5625 28.316406 14.765625 21.714844 21.394531 C 15.117188 28.019531 9.933594 35.738281 6.316406 44.332031 C 2.566406 53.230469 0.667969 62.683594 0.667969 72.425781 C 0.667969 82.167969 2.566406 91.621094 6.316406 100.519531 C 9.933594 109.113281 15.117188 116.832031 21.714844 123.457031 C 28.316406 130.085938 36 135.289062 44.558594 138.925781 C 52.859375 142.449219 61.640625 144.347656 70.691406 144.574219 L 74.378906 144.597656 L 74.378906 114.53125 L 77.054688 114.53125 L 77.054688 104.550781 L 87.210938 104.550781 C 87.738281 104.550781 88.167969 104.117188 88.167969 103.585938 L 88.167969 102.566406 L 88.785156 102.566406 C 89.59375 102.566406 90.25 101.910156 90.25 101.097656 L 90.25 62.957031 L 89.003906 62.957031 L 89.003906 50.296875 L 82.769531 50.296875 L 82.769531 40.507812 L 79.472656 40.507812 L 79.472656 50.296875 L 65.421875 50.296875 L 65.421875 40.507812 L 62.121094 40.507812 L 62.121094 50.296875 L 56.066406 50.296875 L 56.066406 62.957031 L 54.824219 62.957031 L 54.824219 101.097656 C 54.824219 101.910156 55.480469 102.566406 56.289062 102.566406 L 56.542969 102.566406 L 56.542969 103.585938 C 56.542969 104.117188 56.972656 104.550781 57.5 104.550781 L 68.019531 104.550781 L 68.019531 114.53125 L 70.691406 114.53125 L 70.691406 140.496094 C 34.148438 139.511719 4.726562 109.355469 4.726562 72.425781 C 4.726562 34.875 35.144531 4.328125 72.535156 4.328125 C 109.925781 4.328125 140.347656 34.875 140.347656 72.425781 C 140.347656 101.726562 121.820312 126.761719 95.914062 136.347656 C 95.648438 136.15625 95.304688 136.070312 94.960938 136.136719 L 85.773438 137.828125 L 88.074219 145.066406 L 96.542969 141.101562 C 96.910156 140.925781 97.15625 140.597656 97.238281 140.222656 C 98.335938 139.816406 99.429688 139.386719 100.511719 138.925781 C 109.070312 135.289062 116.757812 130.085938 123.355469 123.457031 C 129.957031 116.832031 135.136719 109.113281 138.757812 100.519531 C 142.507812 91.621094 144.40625 82.167969 144.40625 72.425781 C 144.40625 62.683594 142.507812 53.230469 138.757812 44.332031 " fill-opacity="1" fill-rule="nonzero"/></g><path fill="#afc1d0" d="M 80.136719 143.347656 L 79.886719 142.570312 L 81.9375 141.910156 L 82.1875 142.691406 L 83.050781 142.414062 L 83.296875 143.191406 L 84.703125 142.742188 L 84.207031 141.183594 L 86.214844 140.539062 L 86.484375 141.394531 L 86.589844 141.359375 L 85.824219 138.960938 L 79.144531 141.105469 L 79.886719 143.429688 L 80.136719 143.347656 " fill-opacity="1" fill-rule="nonzero"/><g clip-path="url(#33aabd70ef)"><path fill="#afc1d0" d="M 86.246094 141.859375 L 85.976562 141.007812 L 84.671875 141.421875 L 85.167969 142.984375 L 83.058594 143.660156 L 82.808594 142.878906 L 81.945312 143.15625 L 81.695312 142.378906 L 80.351562 142.808594 L 80.597656 143.589844 L 79.996094 143.78125 L 80.785156 146.25 L 87.460938 144.109375 L 86.699219 141.710938 L 86.246094 141.859375 " fill-opacity="1" fill-rule="nonzero"/></g><path fill="#f3f6fa" d="M 80.171875 30.320312 C 79.621094 30.320312 79.179688 30.765625 79.179688 31.320312 L 79.179688 40.074219 L 83.0625 40.074219 L 83.0625 31.320312 C 83.0625 30.765625 82.617188 30.320312 82.070312 30.320312 L 80.171875 30.320312 " fill-opacity="1" fill-rule="nonzero"/><path fill="#f3f6fa" d="M 62.820312 30.320312 C 62.273438 30.320312 61.828125 30.765625 61.828125 31.320312 L 61.828125 40.074219 L 65.714844 40.074219 L 65.714844 31.320312 C 65.714844 30.765625 65.269531 30.320312 64.71875 30.320312 L 62.820312 30.320312 " fill-opacity="1" fill-rule="nonzero"/><g clip-path="url(#fa150200f3)"><path fill="#f3f6fa" d="M 138.757812 44.332031 C 135.136719 35.738281 129.957031 28.019531 123.355469 21.394531 C 116.757812 14.765625 109.070312 9.5625 100.511719 5.925781 C 91.648438 2.160156 82.238281 0.253906 72.535156 0.253906 C 62.835938 0.253906 53.421875 2.160156 44.558594 5.925781 C 36 9.5625 28.316406 14.765625 21.714844 21.394531 C 15.117188 28.019531 9.933594 35.738281 6.316406 44.332031 C 2.566406 53.230469 0.667969 62.683594 0.667969 72.425781 C 0.667969 82.167969 2.566406 91.621094 6.316406 100.519531 C 9.933594 109.113281 15.117188 116.832031 21.714844 123.457031 C 28.316406 130.085938 36 135.289062 44.558594 138.925781 C 52.859375 142.449219 61.640625 144.347656 70.691406 144.574219 L 74.378906 144.597656 L 74.378906 114.53125 L 77.054688 114.53125 L 77.054688 104.550781 L 87.210938 104.550781 C 87.738281 104.550781 88.167969 104.117188 88.167969 103.585938 L 88.167969 102.566406 L 88.785156 102.566406 C 89.59375 102.566406 90.25 101.910156 90.25 101.097656 L 90.25 62.957031 L 89.003906 62.957031 L 89.003906 50.296875 L 82.769531 50.296875 L 82.769531 40.507812 L 79.472656 40.507812 L 79.472656 50.296875 L 65.421875 50.296875 L 65.421875 40.507812 L 62.121094 40.507812 L 62.121094 50.296875 L 56.066406 50.296875 L 56.066406 62.957031 L 54.824219 62.957031 L 54.824219 101.097656 C 54.824219 101.910156 55.480469 102.566406 56.289062 102.566406 L 56.542969 102.566406 L 56.542969 103.585938 C 56.542969 104.117188 56.972656 104.550781 57.5 104.550781 L 68.019531 104.550781 L 68.019531 114.53125 L 70.691406 114.53125 L 70.691406 140.496094 C 34.148438 139.511719 4.726562 109.355469 4.726562 72.425781 C 4.726562 34.875 35.144531 4.328125 72.535156 4.328125 C 109.925781 4.328125 140.347656 34.875 140.347656 72.425781 C 140.347656 101.726562 121.820312 126.761719 95.914062 136.347656 C 95.648438 136.15625 95.304688 136.070312 94.960938 136.136719 L 85.773438 137.828125 L 88.074219 145.066406 L 96.542969 141.101562 C 96.910156 140.925781 97.15625 140.597656 97.238281 140.222656 C 98.335938 139.816406 99.429688 139.386719 100.511719 138.925781 C 109.070312 135.289062 116.757812 130.085938 123.355469 123.457031 C 129.957031 116.832031 135.136719 109.113281 138.757812 100.519531 C 142.507812 91.621094 144.40625 82.167969 144.40625 72.425781 C 144.40625 62.683594 142.507812 53.230469 138.757812 44.332031 " fill-opacity="1" fill-rule="nonzero"/></g><path fill="#afc1d0" d="M 80.136719 143.347656 L 79.886719 142.570312 L 81.9375 141.910156 L 82.1875 142.691406 L 83.050781 142.414062 L 83.296875 143.191406 L 84.703125 142.742188 L 84.207031 141.183594 L 86.214844 140.539062 L 86.484375 141.394531 L 86.589844 141.359375 L 85.824219 138.960938 L 79.144531 141.105469 L 79.886719 143.429688 L 80.136719 143.347656 " fill-opacity="1" fill-rule="nonzero"/><g clip-path="url(#347feceb45)"><path fill="#afc1d0" d="M 86.246094 141.859375 L 85.976562 141.007812 L 84.671875 141.421875 L 85.167969 142.984375 L 83.058594 143.660156 L 82.808594 142.878906 L 81.945312 143.15625 L 81.695312 142.378906 L 80.351562 142.808594 L 80.597656 143.589844 L 79.996094 143.78125 L 80.785156 146.25 L 87.460938 144.109375 L 86.699219 141.710938 L 86.246094 141.859375 " fill-opacity="1" fill-rule="nonzero"/></g></svg>