<svg xmlns="http://www.w3.org/2000/svg" xmlns:xlink="http://www.w3.org/1999/xlink" width="660" zoomAndPan="magnify" viewBox="0 0 495 546.750001" height="729" preserveAspectRatio="xMidYMid meet" version="1.0"><defs><clipPath id="ee8a5611fc"><path d="M 256.707031 0.300781 L 494.351562 0.300781 L 494.351562 239 L 256.707031 239 Z M 256.707031 0.300781 " clip-rule="nonzero"/></clipPath><clipPath id="419badd2c6"><path d="M 387 232 L 401 232 L 401 240.941406 L 387 240.941406 Z M 387 232 " clip-rule="nonzero"/></clipPath><clipPath id="90fc2787a0"><path d="M 65 0.300781 L 166 0.300781 L 166 128 L 65 128 Z M 65 0.300781 " clip-rule="nonzero"/></clipPath><clipPath id="5ec88217f1"><path d="M 123 95 L 227 95 L 227 270.925781 L 123 270.925781 Z M 123 95 " clip-rule="nonzero"/></clipPath><clipPath id="71785c408c"><path d="M 9 304 L 173 304 L 173 465 L 9 465 Z M 9 304 " clip-rule="nonzero"/></clipPath><clipPath id="399911231c"><path d="M 63.648438 468.011719 L 6.234375 407.253906 L 118.441406 301.222656 L 175.855469 361.980469 Z M 63.648438 468.011719 " clip-rule="nonzero"/></clipPath><clipPath id="cc4b588e38"><path d="M 63.648438 468.011719 L 6.234375 407.253906 L 118.441406 301.222656 L 175.855469 361.980469 Z M 63.648438 468.011719 " clip-rule="nonzero"/></clipPath><clipPath id="66459b8d26"><path d="M 6.222656 384.710938 L 157.90625 384.710938 L 157.90625 545.832031 L 6.222656 545.832031 Z M 6.222656 384.710938 " clip-rule="nonzero"/></clipPath><clipPath id="91e9d250d5"><path d="M 487.582031 368.347656 L 494.5 368.347656 L 494.5 382 L 487.582031 382 Z M 487.582031 368.347656 " clip-rule="nonzero"/></clipPath><clipPath id="d3e0110f78"><path d="M 282.367188 301.464844 L 491 301.464844 L 491 545.730469 L 282.367188 545.730469 Z M 282.367188 301.464844 " clip-rule="nonzero"/></clipPath></defs><path fill="#1c3f60" d="M 388.152344 49.84375 C 387.242188 49.84375 386.507812 50.582031 386.507812 51.492188 L 386.507812 65.925781 L 392.929688 65.925781 L 392.929688 51.492188 C 392.929688 50.582031 392.195312 49.84375 391.289062 49.84375 L 388.152344 49.84375 " fill-opacity="1" fill-rule="nonzero"/><path fill="#1c3f60" d="M 359.472656 49.84375 C 358.5625 49.84375 357.828125 50.582031 357.828125 51.492188 L 357.828125 65.925781 L 364.25 65.925781 L 364.25 51.492188 C 364.25 50.582031 363.515625 49.84375 362.609375 49.84375 L 359.472656 49.84375 " fill-opacity="1" fill-rule="nonzero"/><g clip-path="url(#ee8a5611fc)"><path fill="#1c3f60" d="M 484.996094 72.941406 C 479.015625 58.773438 470.449219 46.054688 459.539062 35.132812 C 448.628906 24.207031 435.921875 15.632812 421.777344 9.636719 C 407.125 3.433594 391.566406 0.292969 375.53125 0.292969 C 359.492188 0.292969 343.933594 3.433594 329.285156 9.636719 C 315.136719 15.632812 302.429688 24.207031 291.519531 35.132812 C 280.609375 46.054688 272.042969 58.773438 266.0625 72.941406 C 259.863281 87.605469 256.722656 103.183594 256.722656 119.242188 C 256.722656 135.300781 259.863281 150.878906 266.0625 165.546875 C 272.042969 179.710938 280.609375 192.429688 291.519531 203.355469 C 302.429688 214.28125 315.136719 222.855469 329.285156 228.847656 C 343.003906 234.65625 357.519531 237.78125 372.480469 238.15625 L 378.578125 238.199219 L 378.578125 188.640625 L 383 188.640625 L 383 172.191406 L 399.785156 172.191406 C 400.660156 172.191406 401.371094 171.476562 401.371094 170.597656 L 401.371094 168.921875 L 402.386719 168.921875 C 403.722656 168.921875 404.808594 167.835938 404.808594 166.496094 L 404.808594 103.636719 L 402.753906 103.636719 L 402.753906 82.773438 L 392.445312 82.773438 L 392.445312 66.632812 L 386.992188 66.632812 L 386.992188 82.773438 L 363.765625 82.773438 L 363.765625 66.632812 L 358.3125 66.632812 L 358.3125 82.773438 L 348.304688 82.773438 L 348.304688 103.636719 L 346.25 103.636719 L 346.25 166.496094 C 346.25 167.835938 347.335938 168.921875 348.671875 168.921875 L 349.089844 168.921875 L 349.089844 170.597656 C 349.089844 171.476562 349.800781 172.191406 350.675781 172.191406 L 368.058594 172.191406 L 368.058594 188.640625 L 372.480469 188.640625 L 372.480469 231.433594 C 312.074219 229.8125 263.433594 180.109375 263.433594 119.242188 C 263.433594 57.355469 313.71875 7.007812 375.53125 7.007812 C 437.339844 7.007812 487.628906 57.355469 487.628906 119.242188 C 487.628906 167.535156 457 208.800781 414.175781 224.597656 C 413.734375 224.28125 413.171875 224.140625 412.601562 224.246094 L 397.410156 227.035156 L 401.214844 238.96875 L 415.210938 232.429688 C 415.820312 232.144531 416.226562 231.597656 416.359375 230.980469 C 418.179688 230.3125 419.984375 229.605469 421.777344 228.847656 C 435.921875 222.855469 448.628906 214.28125 459.539062 203.355469 C 470.449219 192.429688 479.015625 179.710938 484.996094 165.546875 C 491.195312 150.878906 494.335938 135.300781 494.335938 119.242188 C 494.335938 103.183594 491.195312 87.605469 484.996094 72.941406 " fill-opacity="1" fill-rule="nonzero"/></g><path fill="#eaeef3" d="M 388.089844 236.136719 L 387.679688 234.851562 L 391.070312 233.765625 L 391.480469 235.050781 L 392.910156 234.59375 L 393.316406 235.878906 L 395.640625 235.136719 L 394.824219 232.566406 L 398.140625 231.503906 L 398.585938 232.914062 L 398.757812 232.859375 L 397.496094 228.90625 L 386.457031 232.4375 L 387.675781 236.265625 L 388.089844 236.136719 " fill-opacity="1" fill-rule="nonzero"/><g clip-path="url(#419badd2c6)"><path fill="#eaeef3" d="M 398.191406 233.679688 L 397.746094 232.273438 L 395.589844 232.964844 L 396.40625 235.53125 L 392.921875 236.648438 L 392.511719 235.359375 L 391.085938 235.816406 L 390.671875 234.535156 L 388.445312 235.246094 L 388.855469 236.53125 L 387.863281 236.851562 L 389.164062 240.917969 L 400.203125 237.390625 L 398.941406 233.4375 L 398.191406 233.679688 " fill-opacity="1" fill-rule="nonzero"/></g><g clip-path="url(#90fc2787a0)"><path fill="#1c3f60" d="M 160.113281 127.097656 C 159.890625 123.28125 159.519531 119.503906 159.460938 116.203125 C 159.179688 99.21875 160.609375 82.359375 161.402344 65.40625 C 162.160156 49.113281 162.011719 32.78125 162.714844 16.492188 C 161.488281 6.800781 152.144531 4.492188 141.34375 4.492188 C 134.941406 4.492188 128.03125 5.304688 122 5.871094 C 121.800781 6.027344 121.574219 6.152344 121.292969 6.195312 C 120.265625 6.34375 119.082031 6.410156 117.773438 6.410156 C 117.054688 6.410156 116.296875 6.390625 115.503906 6.355469 C 114.714844 6.390625 113.957031 6.410156 113.234375 6.410156 C 111.925781 6.410156 110.746094 6.34375 109.71875 6.195312 C 109.433594 6.152344 109.210938 6.027344 109.011719 5.871094 C 102.980469 5.304688 96.070312 4.492188 89.667969 4.492188 C 78.871094 4.492188 69.523438 6.804688 68.296875 16.492188 C 69 32.78125 68.851562 49.113281 69.613281 65.40625 C 70.03125 74.429688 70.628906 83.429688 71.054688 92.433594 C 70.941406 92.308594 70.824219 92.179688 70.707031 92.054688 C 69.582031 90.863281 68.011719 89.941406 66.289062 89.398438 C 66.261719 85.367188 66.207031 81.339844 66.09375 77.316406 C 65.515625 56.972656 64.578125 36.40625 65.390625 16.054688 C 65.351562 15.222656 65.375 14.429688 65.476562 13.683594 C 65.484375 13.550781 65.484375 13.417969 65.488281 13.289062 C 65.5 13.019531 65.585938 12.808594 65.695312 12.625 C 67.964844 2.8125 82.335938 0.285156 96.265625 0.285156 C 103.339844 0.285156 110.300781 0.9375 115.503906 1.621094 C 120.710938 0.9375 127.667969 0.285156 134.746094 0.285156 C 148.675781 0.285156 163.050781 2.8125 165.316406 12.625 C 165.425781 12.808594 165.511719 13.019531 165.523438 13.289062 C 165.527344 13.417969 165.527344 13.550781 165.535156 13.683594 C 165.636719 14.429688 165.65625 15.222656 165.621094 16.054688 C 166.433594 36.40625 165.492188 56.972656 164.917969 77.316406 C 164.464844 93.410156 164.863281 109.542969 164.6875 125.640625 C 164.367188 125.589844 164.046875 125.5625 163.730469 125.5625 C 162.410156 125.5625 161.15625 126.015625 160.113281 127.097656 " fill-opacity="1" fill-rule="nonzero"/></g><path fill="#1c3f60" d="M 111.105469 156.945312 C 107.570312 156.945312 104.078125 156.773438 100.664062 156.367188 C 99.949219 156.28125 99.441406 155.894531 99.117188 155.402344 C 93.117188 154.621094 87.183594 153.660156 81.480469 152.773438 C 80.71875 151.082031 79.835938 149.414062 78.847656 147.769531 C 80.890625 148.359375 83.164062 148.574219 85.417969 148.753906 C 95.5 149.550781 105.46875 151.636719 115.503906 152.382812 C 118.308594 152.175781 121.109375 151.859375 123.910156 151.5 C 123.839844 153.289062 123.761719 155.082031 123.683594 156.871094 C 122.402344 156.917969 121.109375 156.941406 119.8125 156.941406 C 118.382812 156.941406 116.945312 156.914062 115.503906 156.859375 C 114.03125 156.917969 112.566406 156.945312 111.105469 156.945312 " fill-opacity="1" fill-rule="nonzero"/><path fill="#1c3f60" d="M 112.28125 145.753906 C 109.398438 145.753906 106.550781 145.601562 103.769531 145.253906 C 103.183594 145.183594 102.773438 144.851562 102.507812 144.425781 C 97.351562 143.722656 92.261719 142.847656 87.386719 142.0625 C 81.476562 141.105469 77.414062 138.023438 76.246094 132.253906 C 76.3125 127.316406 76.046875 122.339844 75.6875 117.566406 C 75.667969 115.179688 75.660156 112.789062 75.664062 110.402344 C 75.714844 110.269531 75.742188 110.121094 75.753906 109.953125 C 75.785156 109.183594 75.800781 108.410156 75.796875 107.628906 C 75.964844 107.175781 75.992188 106.644531 75.808594 106.046875 C 75.789062 105.984375 75.769531 105.921875 75.746094 105.855469 C 75.730469 105.492188 75.703125 105.128906 75.675781 104.765625 C 75.707031 95.65625 75.769531 86.542969 75.527344 77.441406 C 75.054688 59.988281 74.285156 42.347656 74.949219 24.882812 C 74.921875 24.175781 74.9375 23.492188 75.019531 22.851562 C 75.023438 22.738281 75.027344 22.628906 75.03125 22.515625 C 75.042969 22.285156 75.109375 22.105469 75.199219 21.945312 C 77.054688 13.527344 88.789062 11.363281 100.171875 11.363281 C 105.953125 11.363281 111.644531 11.921875 115.894531 12.503906 C 120.148438 11.921875 125.835938 11.363281 131.621094 11.363281 C 143 11.363281 154.738281 13.53125 156.59375 21.945312 C 156.679688 22.105469 156.746094 22.285156 156.757812 22.515625 C 156.761719 22.628906 156.761719 22.738281 156.769531 22.851562 C 156.851562 23.492188 156.871094 24.175781 156.839844 24.882812 C 157.507812 42.347656 156.734375 59.988281 156.265625 77.441406 C 155.84375 93.152344 156.324219 108.898438 155.984375 124.605469 C 154.890625 123.695312 153.703125 122.96875 152.4375 122.558594 C 152.324219 118.484375 151.867188 114.332031 151.808594 110.804688 C 151.578125 96.230469 152.746094 81.773438 153.390625 67.222656 C 154.015625 53.246094 153.890625 39.238281 154.464844 25.261719 C 153.464844 16.949219 145.828125 14.96875 137.003906 14.96875 C 131.773438 14.96875 126.128906 15.667969 121.199219 16.152344 C 121.039062 16.285156 120.855469 16.390625 120.621094 16.429688 C 119.777344 16.558594 118.796875 16.613281 117.714844 16.613281 C 117.136719 16.613281 116.53125 16.597656 115.894531 16.570312 C 115.261719 16.597656 114.652344 16.613281 114.074219 16.613281 C 112.992188 16.613281 112.015625 16.558594 111.167969 16.429688 C 110.933594 16.390625 110.75 16.285156 110.589844 16.152344 C 105.660156 15.667969 100.015625 14.96875 94.789062 14.96875 C 85.964844 14.96875 78.328125 16.953125 77.324219 25.261719 C 77.898438 39.238281 77.777344 53.246094 78.398438 67.222656 C 79.046875 81.773438 80.214844 96.230469 79.984375 110.804688 C 79.875 117.402344 78.304688 126.210938 80.351562 132.5625 C 82.039062 137.816406 86.726562 138.34375 91.316406 138.722656 C 99.550781 139.410156 107.695312 141.199219 115.894531 141.839844 C 118.925781 141.605469 121.949219 141.207031 124.972656 140.769531 C 124.648438 142.402344 124.425781 144.070312 124.277344 145.585938 C 122.617188 145.691406 120.9375 145.746094 119.25 145.746094 C 118.136719 145.746094 117.019531 145.722656 115.894531 145.679688 C 114.6875 145.726562 113.480469 145.753906 112.28125 145.753906 " fill-opacity="1" fill-rule="nonzero"/><g clip-path="url(#5ec88217f1)"><path fill="#1c3f60" d="M 175.132812 270.925781 C 175.050781 270.925781 174.96875 270.914062 174.886719 270.894531 C 167.355469 268.796875 164.277344 257.703125 162.320312 251.050781 C 162.105469 251.003906 161.914062 250.859375 161.851562 250.640625 C 161.46875 249.261719 162.453125 247.617188 164.179688 245.90625 C 164.113281 245.828125 164.035156 245.773438 164 245.65625 C 163.179688 242.703125 162.714844 239.648438 161.917969 236.6875 C 161.292969 234.355469 160.601562 232.035156 160.429688 229.617188 C 160.40625 229.308594 160.535156 229.089844 160.722656 228.941406 C 154.15625 224.597656 149.933594 217.929688 144.324219 212.5 C 138.796875 207.152344 132.554688 202.511719 127.699219 196.511719 C 123.519531 191.351562 123.375 185.191406 123.222656 178.746094 C 123.050781 171.433594 123.367188 164.15625 123.683594 156.871094 C 123.761719 155.082031 123.839844 153.289062 123.910156 151.5 C 123.917969 151.28125 123.925781 151.0625 123.933594 150.84375 C 123.96875 149.9375 124.039062 147.949219 124.277344 145.585938 C 124.425781 144.070312 124.648438 142.402344 124.972656 140.769531 C 125.878906 136.21875 127.585938 131.921875 130.84375 131.921875 C 131.617188 131.921875 132.472656 132.164062 133.425781 132.695312 C 130.621094 121.328125 124.636719 95.261719 133.71875 95.261719 C 140.203125 95.261719 143.828125 108.527344 145.507812 113.164062 C 146.601562 116.183594 147.695312 119.25 148.746094 122.347656 C 149.234375 122.246094 149.71875 122.199219 150.191406 122.199219 C 150.964844 122.199219 151.710938 122.328125 152.4375 122.558594 C 153.703125 122.96875 154.890625 123.695312 155.984375 124.605469 C 157.210938 125.617188 158.320312 126.859375 159.300781 128.140625 C 159.554688 127.742188 159.824219 127.398438 160.113281 127.097656 C 161.15625 126.015625 162.410156 125.5625 163.730469 125.5625 C 164.046875 125.5625 164.367188 125.589844 164.6875 125.640625 C 167.335938 126.042969 170.113281 128.015625 171.949219 130.152344 C 173.019531 131.398438 174.015625 132.703125 174.976562 134.03125 C 175.25 134.011719 175.523438 134.003906 175.792969 134.003906 C 185.140625 134.003906 192.039062 144.480469 195.515625 152.1875 C 198.59375 159.003906 198.296875 167.359375 197.703125 174.617188 C 197.023438 182.839844 197.398438 191.359375 196.253906 199.488281 C 196.222656 199.710938 196.054688 199.839844 195.859375 199.914062 C 195.984375 200.171875 196.101562 200.410156 196.214844 200.613281 C 197.988281 203.824219 201.136719 208.234375 200.671875 212.09375 C 200.640625 212.367188 200.484375 212.570312 200.289062 212.679688 C 200.507812 212.714844 200.726562 212.765625 200.9375 212.816406 C 201.003906 212.269531 201.390625 211.78125 201.902344 211.78125 C 202.082031 211.78125 202.277344 211.84375 202.480469 211.984375 C 205.035156 213.765625 206.839844 216.246094 208.554688 218.816406 C 209.640625 220.445312 211.476562 222.433594 212.074219 224.480469 C 212.847656 224.90625 213.4375 225.59375 213.40625 226.558594 C 213.140625 234.484375 220.644531 240.765625 226.0625 245.367188 C 227.390625 246.496094 226.171875 248.230469 224.773438 248.230469 C 224.394531 248.230469 224.003906 248.101562 223.648438 247.800781 C 217.050781 242.234375 213.320312 236.816406 209.777344 229.375 C 201.25 231.753906 193.121094 235.105469 184.902344 238.460938 C 179.34375 240.726562 173.679688 243.660156 168.683594 247.03125 C 167.597656 247.765625 166.242188 249.207031 164.84375 250.15625 C 166.191406 253.871094 167.257812 257.730469 169.109375 261.234375 C 170.863281 264.554688 173.117188 266.761719 175.832031 269.257812 C 176.492188 269.871094 175.925781 270.925781 175.132812 270.925781 M 198.035156 217.652344 C 192.863281 217.652344 188.105469 218.179688 182.609375 220.21875 C 175.417969 222.882812 168.214844 225.519531 162.597656 230.949219 C 163.214844 233.421875 163.769531 235.929688 164.347656 238.410156 C 164.84375 240.527344 165.367188 242.667969 165.320312 244.847656 C 170.738281 240.160156 180.683594 235.234375 182.972656 233.851562 C 188.730469 230.367188 199.308594 223.5625 207.496094 223.5625 C 207.589844 223.5625 207.683594 223.5625 207.773438 223.566406 C 207.25 222.710938 206.796875 221.820312 206.351562 221.089844 C 205.664062 219.957031 204.933594 218.871094 204.183594 217.796875 C 204.128906 217.800781 204.078125 217.820312 204.019531 217.820312 C 204.011719 217.820312 204.007812 217.816406 204.003906 217.816406 C 201.917969 217.722656 199.949219 217.652344 198.035156 217.652344 M 132.789062 139.582031 C 131.523438 139.582031 130.019531 139.953125 128.28125 140.699219 C 126.339844 151.828125 126.382812 164.367188 126.605469 175.648438 C 126.726562 181.761719 126.011719 189.699219 129.847656 194.84375 C 132.859375 198.886719 136.429688 202.207031 140.113281 205.597656 C 147.886719 212.75 153.914062 221.632812 162.285156 228.097656 C 162.382812 228.171875 162.457031 228.257812 162.511719 228.351562 C 168.226562 222.714844 176.175781 218.257812 183.550781 215.734375 C 186.964844 214.566406 192.816406 212.492188 197.835938 212.492188 C 198.414062 212.492188 198.984375 212.519531 199.535156 212.578125 L 199.523438 212.574219 C 196.507812 209.910156 194.871094 204.800781 193.007812 201.269531 C 192.152344 199.640625 189.28125 195.820312 190.589844 193.957031 C 190.707031 193.792969 190.898438 193.625 191.117188 193.625 C 191.128906 193.625 191.144531 193.625 191.160156 193.628906 C 192.082031 193.738281 192.875 194.496094 193.570312 195.496094 C 191.429688 186.273438 194.75 175.625 194.351562 166.367188 C 193.9375 156.730469 188.320312 139.300781 176.941406 136.851562 C 177.679688 137.957031 178.410156 139.074219 179.128906 140.203125 C 180.507812 142.359375 182.722656 144.886719 182.796875 147.5625 C 182.8125 148.1875 182.285156 148.578125 181.730469 148.578125 C 181.652344 148.578125 181.574219 148.574219 181.5 148.554688 C 175.425781 147.355469 171.050781 128.929688 164.097656 128.929688 C 163.0625 128.929688 161.972656 129.335938 160.8125 130.265625 C 161.230469 130.902344 161.613281 131.519531 161.960938 132.09375 C 164.085938 135.628906 165.929688 139.304688 167.855469 142.949219 C 169.007812 145.128906 171.300781 147.816406 171.378906 150.34375 C 171.398438 151.015625 170.800781 151.558594 170.164062 151.558594 C 170.0625 151.558594 169.957031 151.542969 169.851562 151.515625 C 165.707031 150.28125 163.21875 141.722656 161.355469 138.289062 C 158.796875 133.566406 155.449219 126.140625 149.628906 125.03125 C 152.589844 134.046875 155.089844 143.320312 156.027344 152.570312 C 156.105469 153.375 155.359375 153.890625 154.644531 153.890625 C 154.203125 153.890625 153.773438 153.691406 153.566406 153.242188 C 149.050781 143.542969 147.640625 131.707031 144.441406 121.417969 C 142.339844 114.648438 140.105469 104.183594 134.628906 99.3125 C 134.3125 99.027344 134.035156 98.902344 133.792969 98.902344 C 131.863281 98.902344 132.253906 107.050781 132.339844 108 C 132.746094 112.453125 133.472656 116.839844 134.222656 121.238281 C 134.953125 125.539062 136.386719 130.40625 136.355469 134.941406 C 145.761719 143.917969 142.441406 160.351562 142.542969 172.039062 C 142.550781 173.09375 141.746094 173.648438 140.925781 173.648438 C 140.25 173.648438 139.5625 173.269531 139.3125 172.480469 C 137.671875 167.324219 138.316406 162.371094 138.523438 157.019531 C 138.667969 153.324219 139 149.101562 137.761719 145.558594 C 137.375 141.574219 135.71875 139.582031 132.789062 139.582031 " fill-opacity="1" fill-rule="nonzero"/></g><path fill="#1c3f60" d="M 182.914062 230.328125 C 182.320312 230.328125 181.808594 229.574219 182.363281 229.097656 C 183.007812 228.550781 183.683594 228.039062 184.367188 227.550781 C 183.75 227.414062 183.363281 226.652344 183.902344 226.0625 C 184.742188 225.136719 185.726562 224.316406 186.800781 223.597656 C 185.113281 224.105469 183.4375 224.648438 181.828125 225.367188 C 181.765625 225.394531 181.707031 225.40625 181.648438 225.40625 C 181.292969 225.40625 181.0625 224.925781 181.4375 224.691406 C 183.925781 223.128906 186.738281 221.691406 189.652344 220.71875 C 190.632812 220.261719 191.632812 219.851562 192.648438 219.535156 C 194.09375 219.082031 195.652344 218.382812 197.191406 218.382812 C 197.394531 218.382812 197.589844 218.394531 197.789062 218.417969 C 198.398438 218.496094 198.996094 219.097656 198.996094 219.703125 C 199.085938 219.761719 199.171875 219.820312 199.242188 219.914062 C 199.488281 220.222656 199.625 220.5 199.691406 220.753906 C 199.847656 220.746094 200 220.734375 200.15625 220.734375 C 200.195312 220.734375 200.234375 220.734375 200.273438 220.738281 C 201.027344 220.777344 201.621094 221.792969 200.945312 222.363281 C 200.78125 222.5 200.605469 222.613281 200.4375 222.738281 C 200.71875 222.992188 200.804688 223.480469 200.597656 223.792969 C 199.402344 225.621094 196.890625 225.839844 194.9375 226.574219 C 192.359375 227.546875 189.867188 228.75 187.210938 229.488281 C 187.128906 229.507812 187.050781 229.519531 186.980469 229.519531 C 186.519531 229.519531 186.28125 229.078125 186.355469 228.660156 C 185.3125 229.175781 184.277344 229.707031 183.242188 230.246094 C 183.132812 230.304688 183.023438 230.328125 182.914062 230.328125 " fill-opacity="1" fill-rule="nonzero"/><path fill="#1c3f60" d="M 196.613281 260.195312 C 195.800781 260.195312 195.078125 259.191406 195.851562 258.539062 C 196.507812 257.988281 197.179688 257.433594 197.851562 256.886719 C 196.132812 257.328125 194.402344 257.71875 192.632812 257.996094 C 192.589844 258.003906 192.546875 258.007812 192.503906 258.007812 C 192.042969 258.007812 191.652344 257.636719 191.550781 257.238281 L 191.425781 257.289062 C 191.300781 257.335938 191.183594 257.363281 191.074219 257.363281 C 190.6875 257.363281 190.40625 257.074219 190.285156 256.710938 C 189.5625 256.65625 189.183594 255.714844 189.90625 255.171875 C 192.34375 253.332031 194.90625 251.667969 197.515625 250.078125 C 195.132812 251.269531 192.761719 252.46875 190.625 253.90625 C 190.527344 253.972656 190.429688 254 190.335938 254 C 190.246094 254 190.164062 253.976562 190.089844 253.929688 L 190.0625 253.960938 C 189.917969 254.136719 189.738281 254.210938 189.554688 254.210938 C 189.011719 254.210938 188.449219 253.554688 188.820312 252.996094 C 190.464844 250.539062 192.679688 248.351562 195.199219 246.460938 C 192.371094 248.109375 189.597656 249.871094 186.660156 251.289062 C 186.5 251.367188 186.347656 251.398438 186.207031 251.398438 C 185.75 251.398438 185.386719 251.058594 185.304688 250.636719 C 184.871094 250.960938 184.425781 251.261719 184.003906 251.613281 C 183.800781 251.78125 183.5625 251.855469 183.324219 251.855469 C 182.597656 251.855469 181.898438 251.15625 182.417969 250.382812 C 183.285156 249.09375 184.339844 247.957031 185.539062 246.9375 C 183.457031 248.035156 181.359375 249.132812 179.210938 250.171875 C 179.191406 250.183594 179.171875 250.1875 179.152344 250.1875 C 179.046875 250.1875 178.960938 250.058594 179.054688 249.96875 C 181.609375 247.597656 184.433594 245.410156 187.421875 243.453125 C 185.730469 244.234375 184.0625 245.09375 182.425781 246.125 C 182.292969 246.210938 182.160156 246.246094 182.035156 246.246094 C 181.464844 246.246094 181.078125 245.449219 181.515625 244.9375 C 183.546875 242.554688 186.28125 240.902344 189.171875 239.644531 C 191.589844 237.757812 193.929688 235.863281 196.617188 234.335938 C 198.519531 233.257812 200.746094 231.890625 202.996094 231.890625 C 203.191406 231.890625 203.390625 231.902344 203.589844 231.925781 C 204.074219 231.980469 204.449219 232.570312 204.019531 232.96875 C 203.894531 233.085938 203.757812 233.1875 203.625 233.296875 C 203.71875 233.289062 203.808594 233.289062 203.898438 233.289062 C 204.472656 233.289062 205.042969 233.378906 205.59375 233.609375 C 205.789062 233.691406 205.875 233.859375 205.898438 234.035156 C 206.234375 233.988281 206.574219 233.953125 206.914062 233.953125 C 207.046875 233.953125 207.179688 233.960938 207.316406 233.972656 C 207.878906 234.019531 208.175781 234.644531 207.777344 235.085938 C 207.621094 235.253906 207.449219 235.402344 207.273438 235.558594 C 207.972656 235.828125 208.320312 236.679688 208.058594 237.300781 C 208.488281 237.34375 208.90625 237.429688 209.308594 237.578125 C 210.066406 237.847656 210.515625 238.804688 210.027344 239.492188 C 210.097656 239.476562 210.167969 239.453125 210.238281 239.4375 C 210.382812 239.402344 210.523438 239.382812 210.65625 239.382812 C 212.0625 239.382812 212.613281 241.292969 211.382812 242.175781 C 210.5 242.8125 209.574219 243.363281 208.621094 243.859375 C 209.535156 243.527344 210.472656 243.285156 211.460938 243.203125 C 211.492188 243.203125 211.519531 243.199219 211.546875 243.199219 C 212.449219 243.199219 212.648438 244.339844 212.171875 244.9375 C 211.734375 245.488281 211.21875 245.96875 210.671875 246.417969 C 211.015625 246.375 211.351562 246.351562 211.679688 246.351562 C 212.519531 246.351562 213.3125 246.503906 214.027344 246.871094 C 214.136719 246.855469 214.246094 246.828125 214.359375 246.816406 C 214.414062 246.808594 214.464844 246.804688 214.515625 246.804688 C 215.59375 246.804688 216.082031 248.019531 215.78125 248.945312 C 215.90625 249 216.039062 249.023438 216.164062 249.09375 C 216.804688 249.449219 216.878906 250.347656 216.386719 250.851562 C 214.175781 253.152344 209.914062 253.375 207.0625 254.792969 C 203.675781 256.476562 200.4375 258.429688 197.042969 260.09375 C 196.902344 260.164062 196.757812 260.195312 196.613281 260.195312 " fill-opacity="1" fill-rule="nonzero"/><path fill="#1c3f60" d="M 163.527344 224.964844 C 163.371094 224.964844 163.214844 224.917969 163.078125 224.800781 C 153.207031 216.515625 146.789062 204.359375 138.15625 194.828125 C 137.644531 194.265625 138.125 193.554688 138.707031 193.554688 C 138.875 193.554688 139.054688 193.617188 139.21875 193.757812 C 148.871094 202.0625 157.394531 213.175781 164.113281 224 C 164.429688 224.507812 163.992188 224.964844 163.527344 224.964844 " fill-opacity="1" fill-rule="nonzero"/><path fill="#1c3f60" d="M 63.945312 262.632812 C 63.492188 262.632812 63.046875 262.417969 62.789062 261.964844 C 60.59375 258.09375 63.191406 250.421875 63.5625 246.199219 C 63.96875 241.492188 64.375 236.542969 62.933594 231.996094 C 61.28125 233.050781 59.089844 233.714844 56.238281 233.878906 C 54.863281 233.957031 53.476562 233.996094 52.082031 233.996094 C 38.699219 233.996094 24.75 230.375 13.382812 223.355469 C 13.398438 223.6875 13.332031 224.023438 13.160156 224.300781 C 11.011719 227.804688 9.421875 231.8125 8.507812 235.832031 C 7.996094 238.085938 8.414062 242.007812 6.859375 243.796875 C 6.785156 243.886719 6.652344 243.9375 6.527344 243.9375 C 6.484375 243.9375 6.445312 243.929688 6.40625 243.917969 C 0.535156 241.886719 8.308594 225.726562 10.210938 222.5625 C 10.433594 222.195312 10.859375 221.84375 11.316406 221.738281 C 11.195312 221.464844 11.167969 221.152344 11.253906 220.839844 C 12.992188 214.59375 14.3125 208.15625 17.3125 202.371094 C 17.484375 202.050781 17.765625 201.914062 18.058594 201.914062 C 18.238281 201.914062 18.421875 201.964844 18.582031 202.058594 L 18.609375 202.035156 C 18.980469 201.949219 19.351562 201.914062 19.730469 201.914062 C 19.992188 201.914062 20.253906 201.933594 20.519531 201.964844 C 20.734375 201.757812 21.019531 201.621094 21.363281 201.621094 C 21.609375 201.621094 21.863281 201.652344 22.117188 201.679688 C 22.273438 201.542969 22.457031 201.425781 22.691406 201.359375 C 22.90625 201.296875 23.09375 201.269531 23.273438 201.269531 C 23.761719 201.269531 24.152344 201.460938 24.703125 201.574219 C 25.082031 201.652344 25.472656 201.636719 25.863281 201.644531 C 26.023438 201.648438 26.15625 201.699219 26.296875 201.734375 C 26.429688 201.507812 26.566406 201.277344 26.699219 201.03125 C 29.535156 195.726562 30.148438 190.433594 29.851562 184.417969 C 29.308594 173.390625 28.292969 162.40625 28.621094 151.347656 C 28.878906 142.71875 28.617188 133.785156 33.863281 126.535156 C 38.125 120.640625 45.582031 117.296875 51.394531 113.269531 C 51.445312 113.238281 51.492188 113.222656 51.539062 113.191406 C 51.460938 111.980469 51.386719 110.765625 51.347656 109.535156 C 51.121094 102.742188 51.894531 96.324219 56.699219 91.1875 C 58.226562 89.554688 60.4375 88.835938 62.722656 88.835938 C 63.917969 88.835938 65.140625 89.035156 66.289062 89.398438 C 68.011719 89.941406 69.582031 90.863281 70.707031 92.054688 C 70.824219 92.179688 70.941406 92.308594 71.054688 92.433594 C 74.042969 95.820312 75.304688 100.257812 75.675781 104.765625 C 75.703125 105.128906 75.730469 105.492188 75.746094 105.855469 C 75.777344 106.449219 75.792969 107.039062 75.796875 107.628906 C 75.800781 108.410156 75.785156 109.183594 75.753906 109.953125 C 75.742188 110.121094 75.714844 110.269531 75.664062 110.402344 C 75.554688 110.683594 75.363281 110.886719 75.132812 111.023438 C 75.324219 113.144531 75.519531 115.332031 75.6875 117.566406 C 76.046875 122.339844 76.3125 127.316406 76.246094 132.253906 C 76.199219 135.832031 75.984375 139.390625 75.511719 142.832031 C 76.722656 144.453125 77.839844 146.097656 78.847656 147.769531 C 79.835938 149.414062 80.71875 151.082031 81.480469 152.773438 C 84.917969 160.429688 85.835938 168.59375 82.757812 177.363281 C 79.667969 186.175781 71.203125 194.121094 64.863281 201.21875 C 64.835938 205.53125 64.65625 209.789062 64.976562 214.097656 C 65.300781 214.167969 65.601562 214.316406 65.820312 214.601562 C 66.726562 215.03125 67.011719 216.222656 66.542969 217.078125 C 67.644531 222.363281 67.5 227.195312 64.851562 230.316406 C 68.417969 232.488281 67.742188 239.933594 67.535156 243.246094 C 67.289062 247.117188 66.84375 250.953125 66.421875 254.804688 C 66.167969 257.078125 66.414062 259.972656 65.160156 261.964844 C 64.882812 262.402344 64.410156 262.632812 63.945312 262.632812 M 19.015625 203.1875 C 18.21875 205.828125 12.84375 219.871094 15.253906 221.304688 C 21.820312 225.21875 29.003906 227.910156 36.515625 229.296875 C 41.308594 230.179688 46.425781 230.957031 51.4375 230.957031 C 53.054688 230.957031 54.660156 230.878906 56.238281 230.695312 C 64.234375 229.765625 64.820312 224.589844 63.433594 218.164062 C 61.027344 218.394531 58.492188 218.53125 55.90625 218.53125 C 48.484375 218.53125 40.683594 217.386719 34.585938 213.96875 C 29.816406 211.296875 22.617188 207.691406 19.015625 203.1875 M 51.839844 117.640625 C 44.828125 122.105469 35.253906 126.570312 33.613281 135.375 C 31.601562 146.195312 32.464844 157.449219 32.761719 168.367188 C 32.992188 176.917969 36.15625 187.144531 33.546875 195.519531 C 32.632812 198.445312 30.441406 203.414062 27.601562 205.601562 C 29.425781 206.988281 31.128906 208.445312 32.558594 209.335938 C 39.25 213.5 47.171875 215.398438 55.058594 215.398438 C 57.792969 215.398438 60.523438 215.171875 63.199219 214.726562 C 63.296875 214.597656 63.410156 214.480469 63.542969 214.382812 C 62.488281 210.980469 62.527344 207.148438 62.753906 203.441406 C 62.628906 203.488281 62.503906 203.507812 62.378906 203.507812 C 61.640625 203.507812 60.882812 202.789062 61.15625 201.976562 C 61.652344 200.511719 62.320312 199.160156 63.105469 197.886719 L 63.105469 197.847656 C 63.125 197.445312 63.351562 197.195312 63.632812 197.082031 C 67.324219 191.582031 73.148438 187.523438 76.785156 181.941406 C 80.980469 175.503906 83.625 167.324219 81.058594 159.679688 C 79.507812 155.054688 77.035156 151.003906 74.855469 146.738281 C 74.222656 149.84375 73.347656 152.824219 72.140625 155.59375 C 71.953125 156.019531 71.640625 156.195312 71.308594 156.195312 C 70.652344 156.195312 69.933594 155.492188 70.058594 154.707031 C 71.433594 145.90625 73.308594 137.621094 73.167969 128.628906 C 73.070312 122.171875 72.574219 115.671875 72.917969 109.214844 C 71.65625 104.285156 70.007812 91.246094 63.957031 91.246094 C 62.792969 91.246094 61.464844 91.730469 59.945312 92.84375 C 53.824219 97.335938 54.191406 105.949219 54.734375 112.664062 C 55.300781 119.671875 56.023438 126.683594 53.929688 133.492188 C 52.472656 138.230469 49.410156 142.773438 47.386719 147.308594 C 47.175781 147.773438 46.824219 147.964844 46.453125 147.964844 C 45.71875 147.964844 44.925781 147.210938 45.089844 146.332031 C 46.175781 140.585938 50.558594 136.019531 51.523438 130.3125 C 52.25 125.988281 52.109375 121.832031 51.839844 117.640625 " fill-opacity="1" fill-rule="nonzero"/><path fill="#1c3f60" d="M 50.367188 230.054688 C 49.515625 230.054688 48.617188 229.777344 47.816406 229.617188 C 46.304688 229.308594 44.777344 229.171875 43.25 228.945312 C 42.015625 228.761719 42.382812 227.167969 43.34375 226.855469 C 41.039062 226.511719 38.722656 226.03125 36.699219 224.910156 C 36.40625 224.746094 36.441406 224.210938 36.800781 224.148438 C 37.628906 224.003906 38.460938 223.945312 39.300781 223.945312 C 41.789062 223.945312 44.316406 224.460938 46.78125 224.746094 C 44.601562 224.367188 42.421875 224.007812 40.222656 223.730469 C 39.25 223.605469 39.152344 222.398438 39.96875 222.101562 C 36.863281 221.316406 33.796875 220.558594 30.832031 220.160156 C 29.410156 219.96875 29.285156 217.8125 30.792969 217.8125 C 30.804688 217.8125 30.820312 217.8125 30.832031 217.816406 C 35.644531 217.9375 40.34375 218.785156 45.058594 219.6875 C 45.300781 219.734375 45.554688 219.769531 45.796875 219.8125 C 45.9375 219.726562 46.09375 219.652344 46.300781 219.628906 C 47.578125 219.460938 48.914062 219.363281 50.242188 219.363281 C 51.296875 219.363281 52.347656 219.421875 53.363281 219.558594 C 55.054688 219.777344 56.777344 219.808594 57.976562 221.136719 C 58.257812 221.4375 58.269531 221.832031 58.117188 222.152344 C 58.328125 222.214844 58.550781 222.253906 58.757812 222.320312 C 59.75 222.628906 59.960938 224.386719 58.757812 224.558594 C 58.011719 224.664062 57.253906 224.71875 56.492188 224.753906 C 56.4375 224.957031 56.324219 225.152344 56.121094 225.292969 C 56.003906 225.378906 55.875 225.429688 55.75 225.492188 C 56.371094 225.625 56.980469 225.777344 57.558594 225.996094 C 58.3125 226.277344 58.335938 227.285156 57.558594 227.554688 C 56.871094 227.796875 56.148438 227.929688 55.410156 228.019531 C 55.664062 228.164062 55.910156 228.332031 56.128906 228.558594 C 56.402344 228.839844 56.359375 229.34375 56.003906 229.542969 C 55.433594 229.863281 54.808594 229.976562 54.164062 229.976562 C 53.390625 229.976562 52.585938 229.808594 51.808594 229.636719 C 51.71875 229.714844 51.625 229.792969 51.5 229.84375 C 51.140625 229.996094 50.757812 230.054688 50.367188 230.054688 " fill-opacity="1" fill-rule="nonzero"/><path fill="#1c3f60" d="M 49.988281 261.167969 C 48.210938 261.167969 46.308594 260.792969 44.546875 260.433594 C 43.03125 260.296875 41.507812 260.132812 40.066406 259.621094 C 36.867188 259.046875 33.683594 258.277344 30.855469 256.613281 C 29.914062 256.0625 30.410156 254.644531 31.378906 254.644531 C 31.472656 254.644531 31.566406 254.660156 31.664062 254.683594 C 33.25 255.117188 34.832031 255.449219 36.417969 255.746094 C 36.40625 255.382812 36.574219 255.027344 36.902344 254.808594 C 31.949219 253.742188 27.289062 251.96875 24.195312 249.996094 C 23.230469 249.382812 23.707031 247.90625 24.742188 247.90625 C 24.839844 247.90625 24.945312 247.917969 25.054688 247.945312 C 30.847656 249.503906 36.335938 251.261719 42.394531 251.632812 C 42.460938 251.636719 42.527344 251.636719 42.59375 251.636719 L 42.609375 251.507812 C 41.761719 251.414062 40.921875 251.289062 40.097656 251.089844 C 37.695312 250.796875 35.304688 250.351562 33.183594 249.179688 C 32.457031 248.78125 32.804688 247.660156 33.597656 247.648438 C 33.695312 247.648438 33.789062 247.648438 33.886719 247.648438 C 36.460938 247.648438 39.046875 247.96875 41.628906 248.214844 C 40.933594 247.953125 40.265625 247.640625 39.648438 247.238281 C 39.527344 247.15625 39.433594 247.0625 39.355469 246.964844 C 33.332031 246 27.335938 244.691406 21.949219 241.71875 C 20.886719 241.136719 21.433594 239.464844 22.503906 239.464844 C 22.617188 239.464844 22.738281 239.484375 22.863281 239.527344 C 29.324219 241.707031 35.796875 243.046875 42.59375 243.632812 C 42.648438 243.636719 42.707031 243.636719 42.761719 243.644531 C 39.050781 243.027344 35.332031 242.472656 31.621094 241.851562 C 30.242188 241.621094 30.621094 239.488281 31.941406 239.472656 C 32.15625 239.46875 32.375 239.46875 32.589844 239.46875 C 34.371094 239.46875 36.148438 239.558594 37.921875 239.699219 C 37.890625 239.445312 37.914062 239.191406 38.003906 238.964844 C 34.773438 238.667969 31.550781 238.324219 28.335938 237.84375 C 27.136719 237.667969 27.40625 235.695312 28.570312 235.695312 C 28.589844 235.695312 28.605469 235.695312 28.625 235.695312 C 29.660156 235.75 30.761719 235.769531 31.902344 235.769531 C 33.296875 235.769531 34.761719 235.742188 36.261719 235.710938 C 37.761719 235.683594 39.300781 235.652344 40.847656 235.652344 C 47.273438 235.652344 53.84375 236.15625 58.417969 239.238281 C 59.277344 239.820312 58.929688 241.089844 57.898438 241.15625 C 57.46875 241.183594 57.039062 241.199219 56.605469 241.199219 C 56.226562 241.199219 55.847656 241.1875 55.46875 241.171875 C 55.703125 241.539062 55.789062 242.015625 55.59375 242.375 C 56.171875 242.617188 56.734375 242.878906 57.265625 243.210938 C 57.917969 243.621094 57.816406 244.570312 57.136719 244.867188 C 57.3125 244.929688 57.5 244.96875 57.675781 245.035156 C 58.84375 245.503906 58.867188 246.996094 57.675781 247.453125 C 56.816406 247.785156 55.878906 247.988281 54.917969 248.140625 C 55.050781 248.285156 55.191406 248.425781 55.3125 248.601562 C 55.570312 248.976562 55.386719 249.546875 55.011719 249.761719 C 54.945312 249.792969 54.875 249.8125 54.804688 249.84375 C 54.941406 250.21875 54.839844 250.671875 54.464844 250.886719 C 53.886719 251.210938 53.242188 251.421875 52.570312 251.589844 C 53.527344 251.644531 54.476562 251.746094 55.40625 251.941406 C 56.273438 252.121094 56.382812 253.386719 55.648438 253.800781 C 54.527344 254.429688 53.238281 254.886719 51.847656 255.214844 C 52.039062 255.34375 52.234375 255.488281 52.417969 255.660156 C 52.917969 256.121094 52.609375 256.871094 52.050781 257.074219 C 51.597656 257.242188 51.121094 257.320312 50.632812 257.363281 C 51.753906 257.617188 52.796875 258.058594 53.652344 258.867188 C 54.105469 259.300781 54.035156 260.203125 53.445312 260.484375 C 52.410156 260.988281 51.230469 261.167969 49.988281 261.167969 " fill-opacity="1" fill-rule="nonzero"/><g clip-path="url(#71785c408c)"><g clip-path="url(#399911231c)"><g clip-path="url(#cc4b588e38)"><path fill="#1c3f60" d="M 11.1875 412.339844 C 11.074219 412.21875 10.96875 412.097656 10.867188 411.972656 C 10.675781 411.738281 10.496094 411.488281 10.339844 411.230469 C 10.132812 410.898438 9.957031 410.546875 9.8125 410.183594 C 9.65625 409.796875 9.535156 409.394531 9.453125 408.984375 C 9.371094 408.5625 9.324219 408.132812 9.320312 407.707031 C 9.3125 407.222656 9.359375 406.738281 9.453125 406.265625 C 9.539062 405.820312 9.671875 405.386719 9.847656 404.96875 C 10.019531 404.550781 10.234375 404.148438 10.488281 403.773438 C 10.664062 403.507812 10.859375 403.253906 11.070312 403.015625 C 11.195312 402.878906 11.324219 402.746094 11.457031 402.621094 C 45.328125 370.316406 79.347656 338.164062 113.519531 306.175781 C 113.652344 306.046875 113.792969 305.929688 113.9375 305.8125 C 114.1875 305.613281 114.449219 305.433594 114.722656 305.273438 C 115.078125 305.0625 115.449219 304.886719 115.835938 304.742188 C 116.261719 304.585938 116.699219 304.46875 117.148438 304.398438 C 117.597656 304.328125 118.054688 304.300781 118.511719 304.316406 C 118.96875 304.335938 119.421875 304.398438 119.863281 304.507812 C 120.25 304.597656 120.628906 304.726562 120.992188 304.882812 C 121.367188 305.046875 121.730469 305.246094 122.070312 305.472656 C 122.335938 305.648438 122.585938 305.84375 122.824219 306.054688 C 122.960938 306.179688 123.09375 306.308594 123.222656 306.4375 C 139.195312 323.183594 155.089844 340.003906 170.902344 356.898438 C 171.027344 357.035156 171.148438 357.171875 171.265625 357.316406 C 171.460938 357.566406 171.640625 357.828125 171.804688 358.101562 C 172.011719 358.457031 172.1875 358.828125 172.332031 359.210938 C 172.496094 359.664062 172.617188 360.132812 172.683594 360.605469 C 172.75 361.058594 172.769531 361.515625 172.746094 361.96875 C 172.722656 362.410156 172.65625 362.851562 172.550781 363.28125 C 172.449219 363.679688 172.316406 364.070312 172.144531 364.445312 C 171.984375 364.808594 171.789062 365.15625 171.566406 365.484375 C 171.382812 365.753906 171.179688 366.011719 170.960938 366.253906 C 170.851562 366.371094 170.738281 366.488281 170.621094 366.601562 C 136.761719 398.921875 102.742188 431.070312 68.554688 463.046875 C 68.4375 463.15625 68.316406 463.261719 68.191406 463.367188 C 67.9375 463.570312 67.667969 463.757812 67.390625 463.925781 C 67.03125 464.140625 66.652344 464.324219 66.261719 464.46875 C 65.855469 464.621094 65.4375 464.734375 65.011719 464.808594 C 64.574219 464.882812 64.132812 464.914062 63.6875 464.90625 C 63.246094 464.894531 62.804688 464.84375 62.375 464.75 C 61.945312 464.660156 61.527344 464.523438 61.121094 464.351562 C 60.71875 464.179688 60.332031 463.96875 59.96875 463.722656 C 59.707031 463.542969 59.453125 463.347656 59.21875 463.132812 C 59.09375 463.019531 58.972656 462.902344 58.855469 462.78125 C 42.886719 446.042969 27.050781 429.175781 11.1875 412.335938 Z M 135.90625 339.257812 L 138.867188 342.390625 C 140.03125 343.625 141.980469 343.675781 143.214844 342.511719 L 146.355469 339.542969 C 147.589844 338.375 147.644531 336.429688 146.480469 335.195312 L 143.519531 332.0625 C 142.355469 330.828125 140.40625 330.777344 139.171875 331.941406 L 136.03125 334.910156 C 134.796875 336.078125 134.742188 338.023438 135.90625 339.257812 Z M 137.886719 338.496094 C 137.160156 337.726562 137.195312 336.507812 137.964844 335.777344 L 139.929688 333.921875 C 140.703125 333.191406 141.921875 333.226562 142.648438 333.996094 L 144.5 335.957031 C 145.230469 336.726562 145.191406 337.945312 144.421875 338.675781 L 142.457031 340.53125 C 141.683594 341.257812 140.46875 341.226562 139.738281 340.457031 Z M 15.90625 401.753906 L 69.664062 458.640625 C 100.597656 429.496094 131.585938 400.40625 162.363281 371.089844 L 108.578125 314.171875 C 77.628906 343.304688 46.671875 372.425781 15.902344 401.75 Z M 28.605469 424.773438 L 47.417969 444.683594 C 47.640625 444.917969 48.011719 444.925781 48.246094 444.703125 L 49.101562 443.898438 C 49.335938 443.675781 49.347656 443.304688 49.125 443.066406 L 30.3125 423.160156 C 30.09375 422.925781 29.71875 422.914062 29.484375 423.136719 L 28.628906 423.945312 C 28.394531 424.167969 28.382812 424.539062 28.605469 424.773438 Z M 28.605469 424.773438 " fill-opacity="1" fill-rule="evenodd"/></g></g></g><g clip-path="url(#66459b8d26)"><path fill="#1c3f60" d="M 59.183594 545.429688 L 7.195312 513.367188 L 7.191406 513.375 C 6.613281 513.015625 6.292969 512.398438 6.292969 511.765625 L 6.292969 411.484375 L 157.839844 411.484375 L 157.839844 509.03125 C 157.839844 509.742188 157.445312 510.363281 156.863281 510.683594 L 102.640625 545.496094 L 102.640625 545.5 C 102.273438 545.734375 101.859375 545.828125 101.457031 545.792969 L 60.308594 545.792969 L 60.308594 545.800781 C 59.886719 545.800781 59.496094 545.664062 59.183594 545.429688 Z M 111.226562 397.449219 C 110.183594 397.449219 109.335938 398.292969 109.335938 399.335938 C 109.335938 400.378906 110.183594 401.222656 111.226562 401.222656 L 139.957031 401.222656 C 141 401.222656 141.84375 400.378906 141.84375 399.335938 C 141.84375 398.292969 141 397.449219 139.957031 397.449219 Z M 6.292969 407.707031 L 6.292969 394.808594 C 6.292969 389.253906 10.839844 384.710938 16.390625 384.710938 L 147.742188 384.710938 C 153.292969 384.710938 157.839844 389.257812 157.839844 394.808594 L 157.839844 407.707031 Z M 144.746094 417.804688 C 144.746094 415.804688 142.003906 415.160156 141.132812 417.039062 C 141.023438 417.289062 140.96875 417.53125 140.96875 417.804688 L 140.96875 421.578125 C 140.96875 423.578125 143.714844 424.222656 144.585938 422.347656 C 144.691406 422.09375 144.746094 421.851562 144.746094 421.578125 Z M 23.160156 419.457031 C 23.160156 417.457031 20.417969 416.816406 19.546875 418.691406 C 19.441406 418.941406 19.386719 419.183594 19.386719 419.457031 L 19.386719 422.4375 C 19.386719 424.4375 22.128906 425.078125 23 423.203125 C 23.105469 422.953125 23.160156 422.710938 23.160156 422.4375 Z M 23.160156 433.765625 C 23.160156 431.765625 20.417969 431.121094 19.546875 432.996094 C 19.441406 433.25 19.386719 433.492188 19.386719 433.765625 L 19.386719 437.539062 C 19.386719 439.539062 22.128906 440.183594 23 438.304688 C 23.105469 438.054688 23.160156 437.8125 23.160156 437.539062 Z M 23.160156 448.867188 C 23.160156 446.867188 20.417969 446.222656 19.546875 448.101562 C 19.441406 448.351562 19.386719 448.59375 19.386719 448.867188 L 19.386719 452.640625 C 19.386719 454.640625 22.128906 455.285156 23 453.40625 C 23.105469 453.15625 23.160156 452.914062 23.160156 452.640625 Z M 23.160156 463.96875 C 23.160156 461.96875 20.417969 461.328125 19.546875 463.203125 C 19.441406 463.453125 19.386719 463.695312 19.386719 463.96875 L 19.386719 467.742188 C 19.386719 469.742188 22.128906 470.386719 23 468.511719 C 23.105469 468.257812 23.160156 468.015625 23.160156 467.742188 Z M 23.160156 479.070312 C 23.160156 477.070312 20.417969 476.429688 19.546875 478.304688 C 19.441406 478.554688 19.386719 478.796875 19.386719 479.070312 L 19.386719 482.847656 C 19.386719 484.847656 22.128906 485.488281 23 483.613281 C 23.105469 483.363281 23.160156 483.121094 23.160156 482.847656 Z M 23.160156 494.171875 C 23.160156 492.171875 20.417969 491.53125 19.546875 493.40625 C 19.441406 493.65625 19.386719 493.898438 19.386719 494.171875 L 19.386719 497.949219 C 19.386719 499.949219 22.128906 500.589844 23 498.714844 C 23.105469 498.464844 23.160156 498.222656 23.160156 497.949219 Z M 27.160156 504.9375 C 25.457031 503.90625 23.519531 505.84375 24.570312 507.554688 C 24.730469 507.796875 24.925781 508 25.175781 508.152344 L 28.390625 510.132812 C 30.089844 511.164062 32.03125 509.226562 30.976562 507.515625 C 30.816406 507.273438 30.625 507.074219 30.375 506.917969 Z M 40.015625 512.867188 C 38.316406 511.832031 36.375 513.773438 37.429688 515.480469 C 37.589844 515.726562 37.78125 515.925781 38.03125 516.078125 L 41.246094 518.0625 C 42.949219 519.09375 44.886719 517.15625 43.835938 515.445312 C 43.675781 515.199219 43.480469 515 43.230469 514.847656 Z M 52.871094 520.792969 C 51.171875 519.761719 49.230469 521.703125 50.285156 523.410156 C 50.445312 523.65625 50.636719 523.855469 50.890625 524.007812 L 54.101562 525.992188 C 55.804688 527.023438 57.742188 525.082031 56.691406 523.375 C 56.53125 523.128906 56.335938 522.929688 56.085938 522.777344 Z M 64.835938 528.089844 C 62.835938 528.089844 62.195312 530.832031 64.070312 531.703125 C 64.320312 531.808594 64.5625 531.863281 64.835938 531.863281 L 68.613281 531.863281 C 70.613281 531.863281 71.253906 529.121094 69.378906 528.25 C 69.128906 528.144531 68.886719 528.089844 68.613281 528.089844 Z M 79.941406 528.089844 C 77.941406 528.089844 77.296875 530.832031 79.175781 531.703125 C 79.425781 531.808594 79.667969 531.863281 79.941406 531.863281 L 83.71875 531.863281 C 85.71875 531.863281 86.359375 529.121094 84.484375 528.25 C 84.234375 528.144531 83.992188 528.089844 83.71875 528.089844 Z M 95.046875 528.089844 C 93.046875 528.089844 92.402344 530.832031 94.28125 531.703125 C 94.53125 531.808594 94.773438 531.863281 95.046875 531.863281 L 98.164062 531.863281 C 98.273438 531.859375 98.386719 531.851562 98.5 531.832031 C 98.746094 531.785156 98.964844 531.703125 99.175781 531.566406 L 99.738281 531.203125 C 101.4375 530.113281 100.460938 527.421875 98.371094 527.757812 C 98.125 527.808594 97.910156 527.890625 97.695312 528.027344 L 97.601562 528.089844 Z M 107.230469 521.90625 C 105.53125 523 106.503906 525.6875 108.59375 525.351562 C 108.839844 525.300781 109.058594 525.21875 109.269531 525.082031 L 112.449219 523.042969 C 114.144531 521.953125 113.171875 519.261719 111.082031 519.597656 C 110.835938 519.648438 110.617188 519.730469 110.40625 519.867188 Z M 119.9375 513.746094 C 118.242188 514.839844 119.214844 517.527344 121.304688 517.191406 C 121.550781 517.140625 121.769531 517.058594 121.980469 516.921875 L 125.15625 514.882812 C 126.855469 513.792969 125.882812 511.101562 123.792969 511.4375 C 123.546875 511.488281 123.328125 511.570312 123.117188 511.707031 Z M 132.648438 505.585938 C 130.949219 506.675781 131.925781 509.367188 134.015625 509.03125 C 134.261719 508.980469 134.476562 508.898438 134.691406 508.761719 L 137.867188 506.722656 C 139.566406 505.628906 138.589844 502.941406 136.503906 503.277344 C 136.253906 503.328125 136.039062 503.410156 135.828125 503.546875 Z M 140.96875 497.089844 C 140.96875 499.089844 143.714844 499.734375 144.585938 497.855469 C 144.691406 497.605469 144.746094 497.363281 144.746094 497.089844 L 144.746094 493.316406 C 144.746094 491.316406 142.003906 490.671875 141.132812 492.546875 C 141.023438 492.800781 140.96875 493.042969 140.96875 493.316406 Z M 140.96875 481.988281 C 140.96875 483.988281 143.714844 484.628906 144.585938 482.753906 C 144.691406 482.503906 144.746094 482.261719 144.746094 481.988281 L 144.746094 478.214844 C 144.746094 476.214844 142.003906 475.570312 141.132812 477.445312 C 141.023438 477.699219 140.96875 477.941406 140.96875 478.214844 Z M 140.96875 466.886719 C 140.96875 468.886719 143.714844 469.527344 144.585938 467.652344 C 144.691406 467.402344 144.746094 467.160156 144.746094 466.886719 L 144.746094 463.109375 C 144.746094 461.109375 142.003906 460.46875 141.132812 462.34375 C 141.023438 462.59375 140.96875 462.835938 140.96875 463.109375 Z M 140.96875 451.785156 C 140.96875 453.785156 143.714844 454.425781 144.585938 452.550781 C 144.691406 452.300781 144.746094 452.058594 144.746094 451.785156 L 144.746094 448.007812 C 144.746094 446.007812 142.003906 445.367188 141.132812 447.242188 C 141.023438 447.492188 140.96875 447.734375 140.96875 448.007812 Z M 140.96875 436.683594 C 140.96875 438.679688 143.714844 439.324219 144.585938 437.449219 C 144.691406 437.199219 144.746094 436.953125 144.746094 436.683594 L 144.746094 432.90625 C 144.746094 430.90625 142.003906 430.265625 141.132812 432.140625 C 141.023438 432.390625 140.96875 432.632812 140.96875 432.90625 Z M 140.96875 436.683594 " fill-opacity="1" fill-rule="nonzero"/></g><g clip-path="url(#91e9d250d5)"><path fill="#1c3f60" d="M 491.242188 368.554688 L 490.015625 369.078125 C 491.246094 371.945312 487.585938 374.695312 487.585938 374.695312 C 490.347656 376.304688 491.363281 378.667969 490.628906 381.777344 C 498.960938 381.242188 491.242188 368.554688 491.242188 368.554688 " fill-opacity="1" fill-rule="nonzero"/></g><path fill="#1c3f60" d="M 489.488281 378.074219 C 489.140625 377.265625 488.546875 376.636719 487.835938 376.234375 C 486.824219 375.667969 485.570312 375.5625 484.421875 376.054688 L 483.652344 376.386719 C 481.695312 377.222656 480.789062 379.488281 481.628906 381.445312 C 482.46875 383.402344 484.738281 384.308594 486.695312 383.464844 L 487.464844 383.136719 C 489.421875 382.296875 490.328125 380.027344 489.488281 378.074219 " fill-opacity="1" fill-rule="nonzero"/><g clip-path="url(#d3e0110f78)"><path fill="#1c3f60" d="M 329.394531 373.125 C 341.890625 368.601562 355.867188 367.933594 368.6875 371.492188 C 381.25 374.972656 394.117188 382.945312 399.105469 395.539062 C 401.667969 402.003906 401.261719 409.230469 397.332031 415.066406 C 393.320312 421.023438 386.511719 424.867188 379.53125 426.152344 C 371.421875 427.644531 363.035156 425.820312 355.472656 422.859375 C 348.550781 420.15625 341.949219 416.507812 335.898438 412.207031 C 325.542969 404.839844 316.375 394.960938 311.855469 382.953125 C 317.070312 378.746094 323.011719 375.433594 329.394531 373.125 Z M 302.78125 444.625 C 314.058594 437.527344 329.382812 435.582031 341.050781 442.921875 C 346.789062 446.535156 351.558594 452.289062 352.9375 459.035156 C 354.375 466.074219 351.496094 472.9375 346.078125 477.5 C 340.75 481.980469 333.503906 484.203125 326.582031 483.351562 C 318.617188 482.371094 311.441406 478.042969 305.855469 472.429688 C 300.316406 466.859375 296.199219 460.066406 293.519531 452.730469 C 296.121094 449.613281 299.210938 446.871094 302.78125 444.625 Z M 368.824219 504.179688 L 415.554688 441.511719 C 418.957031 436.949219 425.472656 436 430.035156 439.398438 L 449.742188 454.070312 C 454.300781 457.46875 455.253906 463.980469 451.851562 468.539062 L 405.121094 531.210938 C 401.722656 535.765625 395.207031 536.71875 390.644531 533.320312 L 370.9375 518.648438 C 366.375 515.25 365.421875 508.738281 368.824219 504.179688 Z M 488.433594 365.261719 L 489.664062 368.125 L 490.816406 367.632812 L 489.964844 365.648438 C 489.960938 365.644531 489.960938 365.640625 489.960938 365.636719 C 489.953125 365.625 489.949219 365.613281 489.941406 365.597656 L 489.585938 364.769531 L 489.574219 364.773438 C 476.574219 335.75 450.558594 313.28125 419.746094 305.109375 C 395.214844 298.597656 366.828125 300.617188 344.078125 312.765625 L 343.574219 311.910156 L 328.027344 321.964844 L 328.941406 323.164062 C 328.726562 323.351562 328.507812 323.539062 328.296875 323.730469 C 327.699219 324.261719 327.113281 324.804688 326.535156 325.359375 C 315.507812 335.949219 308.066406 350.511719 307.863281 365.976562 C 307.785156 371.734375 308.8125 377.285156 310.707031 382.527344 C 309.308594 383.675781 307.964844 384.890625 306.679688 386.175781 C 296.976562 395.859375 291.078125 408.886719 289.3125 422.414062 C 288 432.484375 288.972656 442.921875 292.367188 452.503906 C 290.367188 454.921875 288.636719 457.5625 287.238281 460.394531 C 280.554688 473.894531 281.035156 490.296875 286.933594 503.980469 C 293.234375 518.59375 305.574219 530.003906 319.535156 537.265625 C 333.195312 544.367188 350.648438 549.375 365.335938 542.34375 C 366.308594 541.875 367.253906 541.363281 368.167969 540.804688 L 368.4375 541.15625 L 375.511719 536.210938 L 376.953125 537.296875 L 380.914062 532.191406 L 388.6875 537.980469 C 393.703125 541.714844 400.863281 540.667969 404.605469 535.660156 L 455.972656 466.769531 C 459.710938 461.757812 458.664062 454.601562 453.648438 450.867188 L 431.988281 434.738281 C 426.972656 431.003906 419.8125 432.046875 416.074219 437.0625 L 364.703125 505.945312 C 360.964844 510.957031 362.015625 518.117188 367.027344 521.851562 L 375.355469 528.050781 L 371.523438 533.210938 L 372.875 534.226562 L 367.355469 539.746094 L 367.550781 540 C 366.046875 540.910156 364.460938 541.695312 362.820312 542.34375 C 355.238281 545.34375 346.800781 545.199219 338.9375 543.453125 C 324.113281 540.15625 309.808594 532.050781 299.429688 520.972656 C 289.175781 510.035156 282.996094 495.691406 283.398438 480.597656 C 283.660156 470.75 286.839844 461.191406 292.78125 453.640625 C 293.898438 456.601562 295.25 459.476562 296.839844 462.226562 C 304.199219 474.941406 318.257812 486.855469 333.933594 484.160156 C 340.609375 483.011719 347.070312 479.308594 350.925781 473.660156 C 354.621094 468.246094 355.238281 461.5 352.917969 455.410156 C 347.898438 442.257812 333.195312 436.019531 319.871094 437.503906 C 309.53125 438.65625 299.910156 443.867188 293.125 451.613281 C 291.308594 446.320312 290.226562 440.761719 289.878906 435.195312 C 289.054688 421.976562 292.230469 408.429688 299.246094 397.15625 C 302.46875 391.976562 306.488281 387.417969 311.097656 383.574219 C 314.136719 391.449219 319.128906 398.585938 325.234375 404.601562 C 330.507812 409.792969 336.523438 414.214844 342.9375 417.902344 C 349.808594 421.84375 357.21875 425.199219 365.015625 426.773438 C 372.722656 428.332031 380.816406 427.960938 387.921875 424.386719 C 394.035156 421.316406 399.257812 416.058594 401.066406 409.328125 C 404.691406 395.8125 394.121094 383.03125 383.195312 376.546875 C 371.277344 369.480469 356.957031 367.03125 343.28125 368.765625 C 331.785156 370.222656 320.5625 374.6875 311.472656 381.90625 C 311.25 381.273438 311.042969 380.632812 310.847656 379.992188 C 306.253906 364.84375 310.125 348.398438 319.039062 335.589844 C 322.066406 331.238281 325.589844 327.34375 329.496094 323.894531 L 330.4375 325.121094 L 345.570312 315.320312 L 344.96875 314.292969 C 353.242188 310.992188 362.171875 309.257812 370.953125 309.175781 C 387.003906 309.03125 404.425781 315.0625 413.378906 329.097656 C 418.207031 336.675781 419.789062 345.601562 416.835938 354.101562 L 416.796875 354.082031 L 415.632812 356.976562 L 416.796875 357.441406 L 417.957031 354.550781 L 417.765625 354.472656 C 423.066406 339.167969 413.992188 323.378906 400.5625 315.597656 C 385.523438 306.878906 366.917969 306.390625 350.554688 311.335938 C 348.953125 311.820312 347.359375 312.359375 345.789062 312.953125 C 362.769531 304.378906 382.988281 301.292969 401.308594 302.894531 C 432.078125 305.582031 460.335938 321.921875 478.261719 347.023438 C 482.324219 352.710938 485.796875 358.792969 488.652344 365.167969 L 488.433594 365.261719 " fill-opacity="1" fill-rule="nonzero"/></g><path fill="#1c3f60" d="M 416.449219 358.394531 L 415.207031 357.898438 C 414.042969 360.789062 409.507812 360.140625 409.507812 360.140625 C 410.316406 363.234375 409.359375 365.617188 406.636719 367.292969 C 412.898438 372.816406 416.449219 358.394531 416.449219 358.394531 " fill-opacity="1" fill-rule="nonzero"/><path fill="#1c3f60" d="M 408.457031 363.871094 C 409.253906 361.898438 408.292969 359.652344 406.316406 358.859375 L 405.539062 358.546875 C 403.558594 357.753906 401.316406 358.714844 400.523438 360.6875 C 400.152344 361.609375 400.164062 362.589844 400.480469 363.453125 C 400.84375 364.441406 401.609375 365.277344 402.664062 365.699219 L 403.441406 366.015625 C 405.417969 366.804688 407.667969 365.847656 408.457031 363.871094 " fill-opacity="1" fill-rule="nonzero"/><path fill="#eaeef3" d="M 451.851562 468.539062 L 405.121094 531.210938 C 401.722656 535.765625 395.207031 536.71875 390.644531 533.320312 L 370.9375 518.648438 C 366.375 515.25 365.421875 508.738281 368.824219 504.179688 L 415.554688 441.511719 C 418.957031 436.949219 425.472656 436 430.035156 439.398438 L 449.742188 454.070312 C 454.300781 457.46875 455.253906 463.980469 451.851562 468.539062 " fill-opacity="1" fill-rule="nonzero"/></svg>