<svg xmlns="http://www.w3.org/2000/svg" xmlns:xlink="http://www.w3.org/1999/xlink" width="693" zoomAndPan="magnify" viewBox="0 0 519.75 328.49999" height="438" preserveAspectRatio="xMidYMid meet" version="1.0"><defs><clipPath id="7665275785"><path d="M 0.964844 0.550781 L 415.285156 0.550781 L 415.285156 139.15625 L 0.964844 139.15625 Z M 0.964844 0.550781 " clip-rule="nonzero"/></clipPath><clipPath id="59e53e3be2"><path d="M 110.542969 191.332031 L 518.867188 191.332031 L 518.867188 327.691406 L 110.542969 327.691406 Z M 110.542969 191.332031 " clip-rule="nonzero"/></clipPath></defs><g clip-path="url(#7665275785)"><path fill="#1c3f60" d="M 392.488281 139.105469 L 23.761719 139.105469 C 11.1875 139.105469 0.964844 128.859375 0.964844 116.253906 L 0.964844 23.453125 C 0.964844 10.847656 11.1875 0.601562 23.761719 0.601562 L 392.414062 0.601562 C 404.988281 0.601562 415.210938 10.847656 415.210938 23.453125 L 415.210938 116.253906 C 415.285156 128.859375 405.0625 139.105469 392.488281 139.105469 Z M 392.488281 139.105469 " fill-opacity="1" fill-rule="nonzero"/></g><path fill="#f3f6fa" d="M 57.882812 15.417969 L 31.191406 15.417969 C 26.117188 15.417969 21.996094 19.546875 21.996094 24.632812 L 21.996094 46.007812 C 21.996094 51.09375 26.117188 55.222656 31.191406 55.222656 L 57.882812 55.222656 C 62.957031 55.222656 67.078125 51.09375 67.078125 46.007812 L 67.078125 24.632812 C 67.078125 19.546875 62.957031 15.417969 57.882812 15.417969 Z M 44.5 48.515625 C 41.339844 48.515625 38.324219 47.554688 35.96875 46.007812 L 30.675781 46.671875 L 32.441406 42.765625 C 30.894531 40.699219 29.941406 38.195312 29.941406 35.539062 C 29.941406 28.390625 36.410156 22.640625 44.425781 22.640625 C 52.441406 22.640625 58.914062 28.464844 58.914062 35.539062 C 58.914062 42.617188 52.515625 48.515625 44.5 48.515625 Z M 44.5 48.515625 " fill-opacity="1" fill-rule="nonzero"/><path fill="#f3f6fa" d="M 194.152344 39.816406 L 83.253906 39.816406 C 80.753906 39.816406 78.769531 37.824219 78.769531 35.320312 C 78.769531 32.8125 80.753906 30.824219 83.253906 30.824219 L 194.152344 30.824219 C 196.652344 30.824219 198.636719 32.8125 198.636719 35.320312 C 198.636719 37.824219 196.578125 39.816406 194.152344 39.816406 Z M 194.152344 39.816406 " fill-opacity="1" fill-rule="nonzero"/><path fill="#c2cdd7" d="M 115.832031 84.925781 L 22.21875 84.925781 C 19.71875 84.925781 17.730469 82.9375 17.730469 80.429688 C 17.730469 77.925781 19.71875 75.933594 22.21875 75.933594 L 115.761719 75.933594 C 118.261719 75.933594 120.246094 77.925781 120.246094 80.429688 C 120.320312 82.9375 118.261719 84.925781 115.832031 84.925781 Z M 115.832031 84.925781 " fill-opacity="1" fill-rule="nonzero"/><path fill="#c2cdd7" d="M 122.671875 103.503906 L 22.21875 103.503906 C 19.71875 103.503906 17.730469 101.511719 17.730469 99.007812 C 17.730469 96.5 19.71875 94.511719 22.21875 94.511719 L 122.597656 94.511719 C 125.097656 94.511719 127.085938 96.5 127.085938 99.007812 C 127.085938 101.511719 125.097656 103.503906 122.671875 103.503906 Z M 122.671875 103.503906 " fill-opacity="1" fill-rule="nonzero"/><path fill="#c2cdd7" d="M 187.828125 103.503906 L 144.21875 103.503906 C 141.71875 103.503906 139.734375 101.511719 139.734375 99.007812 C 139.734375 96.5 141.71875 94.511719 144.21875 94.511719 L 187.828125 94.511719 C 190.328125 94.511719 192.3125 96.5 192.3125 99.007812 C 192.3125 101.511719 190.328125 103.503906 187.828125 103.503906 Z M 187.828125 103.503906 " fill-opacity="1" fill-rule="nonzero"/><path fill="#c2cdd7" d="M 238.277344 84.925781 L 137.894531 84.925781 C 135.394531 84.925781 133.410156 82.9375 133.410156 80.429688 C 133.410156 77.925781 135.394531 75.933594 137.894531 75.933594 L 238.277344 75.933594 C 240.777344 75.933594 242.761719 77.925781 242.761719 80.429688 C 242.761719 82.9375 240.777344 84.925781 238.277344 84.925781 Z M 238.277344 84.925781 " fill-opacity="1" fill-rule="nonzero"/><g clip-path="url(#59e53e3be2)"><path fill="#ffffff" d="M 496.398438 327.640625 L 133.007812 327.640625 C 120.617188 327.640625 110.542969 317.5625 110.542969 305.160156 L 110.542969 213.863281 C 110.542969 201.460938 120.617188 191.382812 133.007812 191.382812 L 496.328125 191.382812 C 508.71875 191.382812 518.792969 201.460938 518.792969 213.863281 L 518.792969 305.160156 C 518.867188 317.5625 508.792969 327.640625 496.398438 327.640625 Z M 496.398438 327.640625 " fill-opacity="1" fill-rule="nonzero"/></g><path fill="#1c3f60" d="M 166.636719 205.957031 L 140.328125 205.957031 C 135.328125 205.957031 131.269531 210.019531 131.269531 215.023438 L 131.269531 236.050781 C 131.269531 241.054688 135.328125 245.117188 140.328125 245.117188 L 166.636719 245.117188 C 171.636719 245.117188 175.695312 241.054688 175.695312 236.050781 L 175.695312 215.023438 C 175.695312 210.019531 171.636719 205.957031 166.636719 205.957031 Z M 153.445312 238.519531 C 150.332031 238.519531 147.359375 237.574219 145.039062 236.050781 L 139.820312 236.707031 L 141.5625 232.863281 C 140.039062 230.832031 139.097656 228.367188 139.097656 225.753906 C 139.097656 218.722656 145.476562 213.066406 153.375 213.066406 C 161.273438 213.066406 167.652344 218.792969 167.652344 225.753906 C 167.652344 232.71875 161.347656 238.519531 153.445312 238.519531 Z M 153.445312 238.519531 " fill-opacity="1" fill-rule="nonzero"/><path fill="#1c3f60" d="M 300.933594 229.960938 L 191.640625 229.960938 C 189.175781 229.960938 187.21875 228.003906 187.21875 225.539062 C 187.21875 223.070312 189.175781 221.113281 191.640625 221.113281 L 300.933594 221.113281 C 303.398438 221.113281 305.355469 223.070312 305.355469 225.539062 C 305.355469 228.003906 303.324219 229.960938 300.933594 229.960938 Z M 300.933594 229.960938 " fill-opacity="1" fill-rule="nonzero"/><path fill="#afc1d0" d="M 223.746094 274.339844 L 131.488281 274.339844 C 129.023438 274.339844 127.066406 272.382812 127.066406 269.917969 C 127.066406 267.453125 129.023438 265.496094 131.488281 265.496094 L 223.675781 265.496094 C 226.140625 265.496094 228.097656 267.453125 228.097656 269.917969 C 228.167969 272.382812 226.140625 274.339844 223.746094 274.339844 Z M 223.746094 274.339844 " fill-opacity="1" fill-rule="nonzero"/><path fill="#afc1d0" d="M 230.488281 292.617188 L 131.488281 292.617188 C 129.023438 292.617188 127.066406 290.65625 127.066406 288.191406 C 127.066406 285.726562 129.023438 283.769531 131.488281 283.769531 L 230.414062 283.769531 C 232.878906 283.769531 234.835938 285.726562 234.835938 288.191406 C 234.835938 290.65625 232.878906 292.617188 230.488281 292.617188 Z M 230.488281 292.617188 " fill-opacity="1" fill-rule="nonzero"/><path fill="#afc1d0" d="M 294.699219 292.617188 L 251.722656 292.617188 C 249.257812 292.617188 247.300781 290.65625 247.300781 288.191406 C 247.300781 285.726562 249.257812 283.769531 251.722656 283.769531 L 294.699219 283.769531 C 297.164062 283.769531 299.121094 285.726562 299.121094 288.191406 C 299.121094 290.65625 297.164062 292.617188 294.699219 292.617188 Z M 294.699219 292.617188 " fill-opacity="1" fill-rule="nonzero"/><path fill="#afc1d0" d="M 344.417969 274.339844 L 245.492188 274.339844 C 243.027344 274.339844 241.070312 272.382812 241.070312 269.917969 C 241.070312 267.453125 243.027344 265.496094 245.492188 265.496094 L 344.417969 265.496094 C 346.882812 265.496094 348.839844 267.453125 348.839844 269.917969 C 348.839844 272.382812 346.882812 274.339844 344.417969 274.339844 Z M 344.417969 274.339844 " fill-opacity="1" fill-rule="nonzero"/></svg>