<svg xmlns="http://www.w3.org/2000/svg" xmlns:xlink="http://www.w3.org/1999/xlink" width="467" zoomAndPan="magnify" viewBox="0 0 350.25 344.999992" height="460" preserveAspectRatio="xMidYMid meet" version="1.0"><defs><clipPath id="d41f92bc25"><path d="M 44 314 L 305 314 L 305 343.859375 L 44 343.859375 Z M 44 314 " clip-rule="nonzero"/></clipPath><clipPath id="34a056620b"><path d="M 167 1.09375 L 182 1.09375 L 182 72 L 167 72 Z M 167 1.09375 " clip-rule="nonzero"/></clipPath><clipPath id="70a80d0c43"><path d="M 0.457031 168 L 71 168 L 71 183 L 0.457031 183 Z M 0.457031 168 " clip-rule="nonzero"/></clipPath><clipPath id="e96bfd1122"><path d="M 278.527344 168.367188 L 349.210938 168.367188 L 349.210938 182.753906 L 278.527344 182.753906 Z M 278.527344 168.367188 " clip-rule="nonzero"/></clipPath><clipPath id="021025520a"><path d="M 44 314 L 305 314 L 305 343.859375 L 44 343.859375 Z M 44 314 " clip-rule="nonzero"/></clipPath><clipPath id="40ad2f9521"><path d="M 167 1.09375 L 182 1.09375 L 182 72 L 167 72 Z M 167 1.09375 " clip-rule="nonzero"/></clipPath><clipPath id="672f8bbccd"><path d="M 0.457031 168 L 71 168 L 71 183 L 0.457031 183 Z M 0.457031 168 " clip-rule="nonzero"/></clipPath><clipPath id="161ae3d760"><path d="M 278.527344 168.367188 L 349.210938 168.367188 L 349.210938 182.753906 L 278.527344 182.753906 Z M 278.527344 168.367188 " clip-rule="nonzero"/></clipPath></defs><path fill="#1c3f60" d="M 255.230469 307.601562 L 94.457031 307.601562 C 89.679688 307.601562 85.808594 303.726562 85.808594 298.949219 L 85.808594 173.609375 C 85.808594 124.414062 125.667969 84.539062 174.84375 84.539062 C 224.015625 84.539062 263.878906 124.414062 263.878906 173.609375 L 263.878906 298.949219 C 263.878906 303.726562 260.007812 307.601562 255.230469 307.601562 " fill-opacity="1" fill-rule="nonzero"/><path fill="#ffffff" d="M 229.167969 119.28125 C 218.125 108.230469 204.308594 100.964844 189.285156 98.125 C 189.28125 98.125 189.28125 98.125 189.277344 98.125 C 188.046875 97.890625 186.808594 97.6875 185.558594 97.519531 C 185.421875 97.496094 185.289062 97.480469 185.152344 97.460938 C 184.066406 97.316406 182.976562 97.195312 181.878906 97.09375 C 181.621094 97.074219 181.359375 97.050781 181.097656 97.027344 C 180.828125 97.007812 180.5625 96.984375 180.292969 96.964844 C 179.800781 96.929688 179.308594 96.902344 178.8125 96.878906 C 178.640625 96.867188 178.46875 96.863281 178.300781 96.855469 C 177.890625 96.839844 177.488281 96.820312 177.082031 96.8125 C 176.898438 96.804688 176.710938 96.800781 176.523438 96.796875 C 175.988281 96.785156 175.445312 96.777344 174.902344 96.777344 C 174.890625 96.777344 174.878906 96.777344 174.859375 96.777344 C 174.859375 96.777344 174.855469 96.777344 174.851562 96.777344 C 174.847656 96.777344 174.84375 96.777344 174.84375 96.777344 C 174.828125 96.777344 174.8125 96.777344 174.800781 96.777344 C 174.257812 96.777344 173.71875 96.785156 173.179688 96.796875 C 172.992188 96.800781 172.808594 96.804688 172.621094 96.8125 C 172.214844 96.820312 171.8125 96.839844 171.40625 96.855469 C 171.234375 96.863281 171.0625 96.867188 170.890625 96.878906 C 170.394531 96.902344 169.902344 96.929688 169.410156 96.964844 C 169.144531 96.984375 168.875 97.007812 168.605469 97.027344 C 168.347656 97.050781 168.085938 97.074219 167.824219 97.09375 C 166.730469 97.195312 165.640625 97.316406 164.554688 97.460938 C 164.417969 97.480469 164.28125 97.496094 164.144531 97.519531 C 162.898438 97.6875 161.65625 97.890625 160.425781 98.125 C 160.425781 98.125 160.421875 98.125 160.417969 98.125 C 145.398438 100.964844 131.582031 108.230469 120.535156 119.28125 C 106.027344 133.789062 98.039062 153.085938 98.039062 173.609375 C 98.039062 176.257812 100.1875 178.40625 102.835938 178.40625 C 105.488281 178.40625 107.636719 176.257812 107.636719 173.609375 C 107.636719 155.714844 114.578125 138.890625 127.179688 126.210938 C 127.230469 126.164062 127.289062 126.117188 127.339844 126.066406 C 134.96875 118.433594 144.296875 112.742188 154.441406 109.519531 C 154.519531 109.492188 154.601562 109.46875 154.679688 109.441406 C 154.984375 109.347656 155.285156 109.253906 155.589844 109.164062 C 155.601562 109.160156 155.609375 109.15625 155.621094 109.15625 C 155.953125 109.054688 156.285156 108.960938 156.617188 108.867188 C 156.890625 108.789062 157.167969 108.714844 157.441406 108.644531 C 157.605469 108.597656 157.769531 108.554688 157.933594 108.511719 C 158.210938 108.441406 158.484375 108.371094 158.761719 108.304688 C 158.929688 108.261719 159.097656 108.222656 159.261719 108.1875 C 159.738281 108.074219 160.214844 107.964844 160.6875 107.863281 C 160.867188 107.828125 161.050781 107.785156 161.230469 107.75 C 161.503906 107.695312 161.773438 107.640625 162.046875 107.589844 C 162.234375 107.550781 162.421875 107.519531 162.609375 107.484375 C 163.054688 107.402344 163.5 107.328125 163.941406 107.253906 C 164.152344 107.21875 164.359375 107.183594 164.570312 107.152344 C 164.828125 107.117188 165.089844 107.078125 165.351562 107.039062 C 165.5625 107.011719 165.777344 106.980469 165.992188 106.953125 C 166.242188 106.917969 166.492188 106.886719 166.742188 106.859375 C 167.148438 106.808594 167.550781 106.765625 167.957031 106.722656 C 168.179688 106.699219 168.40625 106.683594 168.628906 106.660156 C 168.894531 106.636719 169.164062 106.613281 169.429688 106.59375 C 169.640625 106.574219 169.855469 106.558594 170.066406 106.542969 C 170.507812 106.511719 170.949219 106.484375 171.390625 106.460938 C 171.53125 106.453125 171.675781 106.453125 171.820312 106.445312 C 172.179688 106.425781 172.539062 106.414062 172.898438 106.402344 C 173.0625 106.402344 173.222656 106.394531 173.386719 106.394531 C 173.859375 106.382812 174.328125 106.375 174.800781 106.375 C 174.816406 106.375 174.835938 106.375 174.851562 106.375 C 174.871094 106.375 174.886719 106.375 174.902344 106.375 C 175.378906 106.375 175.847656 106.382812 176.320312 106.394531 C 176.480469 106.394531 176.640625 106.402344 176.804688 106.402344 C 177.164062 106.414062 177.527344 106.425781 177.886719 106.445312 C 178.027344 106.453125 178.171875 106.453125 178.3125 106.460938 C 178.757812 106.484375 179.195312 106.511719 179.636719 106.542969 C 179.851562 106.558594 180.0625 106.574219 180.277344 106.59375 C 180.542969 106.613281 180.808594 106.636719 181.078125 106.660156 C 181.300781 106.683594 181.523438 106.699219 181.746094 106.722656 C 182.15625 106.765625 182.558594 106.808594 182.960938 106.859375 C 183.214844 106.886719 183.460938 106.917969 183.714844 106.953125 C 183.929688 106.980469 184.140625 107.011719 184.355469 107.039062 C 184.617188 107.078125 184.878906 107.117188 185.136719 107.152344 C 185.34375 107.183594 185.550781 107.21875 185.753906 107.253906 C 186.203125 107.328125 186.652344 107.402344 187.097656 107.484375 C 187.28125 107.519531 187.46875 107.550781 187.65625 107.589844 C 187.929688 107.640625 188.203125 107.695312 188.476562 107.75 C 188.652344 107.785156 188.832031 107.824219 189.011719 107.863281 C 189.492188 107.964844 189.972656 108.074219 190.449219 108.1875 C 190.613281 108.226562 190.777344 108.261719 190.941406 108.304688 C 191.21875 108.371094 191.496094 108.441406 191.773438 108.515625 C 191.9375 108.554688 192.097656 108.597656 192.257812 108.640625 C 192.535156 108.714844 192.808594 108.789062 193.085938 108.867188 C 193.734375 109.046875 194.382812 109.242188 195.03125 109.445312 C 195.105469 109.46875 195.179688 109.492188 195.257812 109.515625 C 205.402344 112.742188 214.734375 118.433594 222.367188 126.066406 C 222.417969 126.117188 222.472656 126.164062 222.527344 126.210938 C 235.128906 138.890625 242.070312 155.714844 242.070312 173.609375 C 242.070312 176.257812 244.21875 178.40625 246.867188 178.40625 C 249.515625 178.40625 251.664062 176.257812 251.664062 173.609375 C 251.664062 153.085938 243.675781 133.789062 229.167969 119.28125 " fill-opacity="1" fill-rule="nonzero"/><g clip-path="url(#d41f92bc25)"><path fill="#1c3f60" d="M 290.40625 343.765625 L 59.277344 343.765625 C 51.234375 343.765625 44.714844 337.246094 44.714844 329.195312 C 44.714844 321.148438 51.234375 314.625 59.277344 314.625 L 290.40625 314.625 C 298.453125 314.625 304.972656 321.148438 304.972656 329.195312 C 304.972656 337.246094 298.453125 343.765625 290.40625 343.765625 " fill-opacity="1" fill-rule="nonzero"/></g><g clip-path="url(#34a056620b)"><path fill="#1c3f60" d="M 174.84375 71.496094 L 167.90625 8.941406 C 167.449219 4.804688 170.683594 1.1875 174.84375 1.1875 C 179.003906 1.1875 182.238281 4.804688 181.78125 8.941406 L 174.84375 71.496094 " fill-opacity="1" fill-rule="nonzero"/></g><path fill="#1c3f60" d="M 122.789062 85.449219 L 85.515625 34.742188 C 83.050781 31.390625 84.046875 26.640625 87.652344 24.5625 C 91.253906 22.480469 95.863281 23.996094 97.53125 27.804688 L 122.789062 85.449219 " fill-opacity="1" fill-rule="nonzero"/><path fill="#1c3f60" d="M 84.6875 123.566406 L 27.0625 98.300781 C 23.253906 96.628906 21.738281 92.019531 23.820312 88.414062 C 25.898438 84.808594 30.648438 83.816406 34 86.28125 L 84.6875 123.566406 " fill-opacity="1" fill-rule="nonzero"/><g clip-path="url(#70a80d0c43)"><path fill="#1c3f60" d="M 70.738281 175.640625 L 8.203125 182.578125 C 4.070312 183.035156 0.457031 179.800781 0.457031 175.640625 C 0.457031 171.480469 4.070312 168.242188 8.203125 168.699219 L 70.738281 175.640625 " fill-opacity="1" fill-rule="nonzero"/></g><g clip-path="url(#e96bfd1122)"><path fill="#1c3f60" d="M 278.949219 175.640625 L 341.480469 168.699219 C 345.613281 168.242188 349.226562 171.480469 349.226562 175.640625 C 349.226562 179.800781 345.613281 183.035156 341.480469 182.578125 L 278.949219 175.640625 " fill-opacity="1" fill-rule="nonzero"/></g><path fill="#1c3f60" d="M 265 123.566406 L 315.6875 86.28125 C 319.039062 83.816406 323.785156 84.808594 325.867188 88.414062 C 327.945312 92.019531 326.433594 96.628906 322.625 98.300781 L 265 123.566406 " fill-opacity="1" fill-rule="nonzero"/><path fill="#1c3f60" d="M 226.894531 85.449219 L 252.152344 27.804688 C 253.824219 23.996094 258.433594 22.480469 262.035156 24.5625 C 265.636719 26.640625 266.632812 31.390625 264.167969 34.742188 L 226.894531 85.449219 " fill-opacity="1" fill-rule="nonzero"/><path fill="#1c3f60" d="M 255.230469 307.601562 L 94.457031 307.601562 C 89.679688 307.601562 85.808594 303.726562 85.808594 298.949219 L 85.808594 173.609375 C 85.808594 124.414062 125.667969 84.539062 174.84375 84.539062 C 224.015625 84.539062 263.878906 124.414062 263.878906 173.609375 L 263.878906 298.949219 C 263.878906 303.726562 260.007812 307.601562 255.230469 307.601562 " fill-opacity="1" fill-rule="nonzero"/><path fill="#ffffff" d="M 229.167969 119.28125 C 218.125 108.230469 204.308594 100.964844 189.285156 98.125 C 189.28125 98.125 189.28125 98.125 189.277344 98.125 C 188.046875 97.890625 186.808594 97.6875 185.558594 97.519531 C 185.421875 97.496094 185.289062 97.480469 185.152344 97.460938 C 184.066406 97.316406 182.976562 97.195312 181.878906 97.09375 C 181.621094 97.074219 181.359375 97.050781 181.097656 97.027344 C 180.828125 97.007812 180.5625 96.984375 180.292969 96.964844 C 179.800781 96.929688 179.308594 96.902344 178.8125 96.878906 C 178.640625 96.867188 178.46875 96.863281 178.300781 96.855469 C 177.890625 96.839844 177.488281 96.820312 177.082031 96.8125 C 176.898438 96.804688 176.710938 96.800781 176.523438 96.796875 C 175.988281 96.785156 175.445312 96.777344 174.902344 96.777344 C 174.890625 96.777344 174.878906 96.777344 174.859375 96.777344 C 174.859375 96.777344 174.855469 96.777344 174.851562 96.777344 C 174.847656 96.777344 174.84375 96.777344 174.84375 96.777344 C 174.828125 96.777344 174.8125 96.777344 174.800781 96.777344 C 174.257812 96.777344 173.71875 96.785156 173.179688 96.796875 C 172.992188 96.800781 172.808594 96.804688 172.621094 96.8125 C 172.214844 96.820312 171.8125 96.839844 171.40625 96.855469 C 171.234375 96.863281 171.0625 96.867188 170.890625 96.878906 C 170.394531 96.902344 169.902344 96.929688 169.410156 96.964844 C 169.144531 96.984375 168.875 97.007812 168.605469 97.027344 C 168.347656 97.050781 168.085938 97.074219 167.824219 97.09375 C 166.730469 97.195312 165.640625 97.316406 164.554688 97.460938 C 164.417969 97.480469 164.28125 97.496094 164.144531 97.519531 C 162.898438 97.6875 161.65625 97.890625 160.425781 98.125 C 160.425781 98.125 160.421875 98.125 160.417969 98.125 C 145.398438 100.964844 131.582031 108.230469 120.535156 119.28125 C 106.027344 133.789062 98.039062 153.085938 98.039062 173.609375 C 98.039062 176.257812 100.1875 178.40625 102.835938 178.40625 C 105.488281 178.40625 107.636719 176.257812 107.636719 173.609375 C 107.636719 155.714844 114.578125 138.890625 127.179688 126.210938 C 127.230469 126.164062 127.289062 126.117188 127.339844 126.066406 C 134.96875 118.433594 144.296875 112.742188 154.441406 109.519531 C 154.519531 109.492188 154.601562 109.46875 154.679688 109.441406 C 154.984375 109.347656 155.285156 109.253906 155.589844 109.164062 C 155.601562 109.160156 155.609375 109.15625 155.621094 109.15625 C 155.953125 109.054688 156.285156 108.960938 156.617188 108.867188 C 156.890625 108.789062 157.167969 108.714844 157.441406 108.644531 C 157.605469 108.597656 157.769531 108.554688 157.933594 108.511719 C 158.210938 108.441406 158.484375 108.371094 158.761719 108.304688 C 158.929688 108.261719 159.097656 108.222656 159.261719 108.1875 C 159.738281 108.074219 160.214844 107.964844 160.6875 107.863281 C 160.867188 107.828125 161.050781 107.785156 161.230469 107.75 C 161.503906 107.695312 161.773438 107.640625 162.046875 107.589844 C 162.234375 107.550781 162.421875 107.519531 162.609375 107.484375 C 163.054688 107.402344 163.5 107.328125 163.941406 107.253906 C 164.152344 107.21875 164.359375 107.183594 164.570312 107.152344 C 164.828125 107.117188 165.089844 107.078125 165.351562 107.039062 C 165.5625 107.011719 165.777344 106.980469 165.992188 106.953125 C 166.242188 106.917969 166.492188 106.886719 166.742188 106.859375 C 167.148438 106.808594 167.550781 106.765625 167.957031 106.722656 C 168.179688 106.699219 168.40625 106.683594 168.628906 106.660156 C 168.894531 106.636719 169.164062 106.613281 169.429688 106.59375 C 169.640625 106.574219 169.855469 106.558594 170.066406 106.542969 C 170.507812 106.511719 170.949219 106.484375 171.390625 106.460938 C 171.53125 106.453125 171.675781 106.453125 171.820312 106.445312 C 172.179688 106.425781 172.539062 106.414062 172.898438 106.402344 C 173.0625 106.402344 173.222656 106.394531 173.386719 106.394531 C 173.859375 106.382812 174.328125 106.375 174.800781 106.375 C 174.816406 106.375 174.835938 106.375 174.851562 106.375 C 174.871094 106.375 174.886719 106.375 174.902344 106.375 C 175.378906 106.375 175.847656 106.382812 176.320312 106.394531 C 176.480469 106.394531 176.640625 106.402344 176.804688 106.402344 C 177.164062 106.414062 177.527344 106.425781 177.886719 106.445312 C 178.027344 106.453125 178.171875 106.453125 178.3125 106.460938 C 178.757812 106.484375 179.195312 106.511719 179.636719 106.542969 C 179.851562 106.558594 180.0625 106.574219 180.277344 106.59375 C 180.542969 106.613281 180.808594 106.636719 181.078125 106.660156 C 181.300781 106.683594 181.523438 106.699219 181.746094 106.722656 C 182.15625 106.765625 182.558594 106.808594 182.960938 106.859375 C 183.214844 106.886719 183.460938 106.917969 183.714844 106.953125 C 183.929688 106.980469 184.140625 107.011719 184.355469 107.039062 C 184.617188 107.078125 184.878906 107.117188 185.136719 107.152344 C 185.34375 107.183594 185.550781 107.21875 185.753906 107.253906 C 186.203125 107.328125 186.652344 107.402344 187.097656 107.484375 C 187.28125 107.519531 187.46875 107.550781 187.65625 107.589844 C 187.929688 107.640625 188.203125 107.695312 188.476562 107.75 C 188.652344 107.785156 188.832031 107.824219 189.011719 107.863281 C 189.492188 107.964844 189.972656 108.074219 190.449219 108.1875 C 190.613281 108.226562 190.777344 108.261719 190.941406 108.304688 C 191.21875 108.371094 191.496094 108.441406 191.773438 108.515625 C 191.9375 108.554688 192.097656 108.597656 192.257812 108.640625 C 192.535156 108.714844 192.808594 108.789062 193.085938 108.867188 C 193.734375 109.046875 194.382812 109.242188 195.03125 109.445312 C 195.105469 109.46875 195.179688 109.492188 195.257812 109.515625 C 205.402344 112.742188 214.734375 118.433594 222.367188 126.066406 C 222.417969 126.117188 222.472656 126.164062 222.527344 126.210938 C 235.128906 138.890625 242.070312 155.714844 242.070312 173.609375 C 242.070312 176.257812 244.21875 178.40625 246.867188 178.40625 C 249.515625 178.40625 251.664062 176.257812 251.664062 173.609375 C 251.664062 153.085938 243.675781 133.789062 229.167969 119.28125 " fill-opacity="1" fill-rule="nonzero"/><g clip-path="url(#021025520a)"><path fill="#1c3f60" d="M 290.40625 343.765625 L 59.277344 343.765625 C 51.234375 343.765625 44.714844 337.246094 44.714844 329.195312 C 44.714844 321.148438 51.234375 314.625 59.277344 314.625 L 290.40625 314.625 C 298.453125 314.625 304.972656 321.148438 304.972656 329.195312 C 304.972656 337.246094 298.453125 343.765625 290.40625 343.765625 " fill-opacity="1" fill-rule="nonzero"/></g><g clip-path="url(#40ad2f9521)"><path fill="#1c3f60" d="M 174.84375 71.496094 L 167.90625 8.941406 C 167.449219 4.804688 170.683594 1.1875 174.84375 1.1875 C 179.003906 1.1875 182.238281 4.804688 181.78125 8.941406 L 174.84375 71.496094 " fill-opacity="1" fill-rule="nonzero"/></g><path fill="#1c3f60" d="M 122.789062 85.449219 L 85.515625 34.742188 C 83.050781 31.390625 84.046875 26.640625 87.652344 24.5625 C 91.253906 22.480469 95.863281 23.996094 97.53125 27.804688 L 122.789062 85.449219 " fill-opacity="1" fill-rule="nonzero"/><path fill="#1c3f60" d="M 84.6875 123.566406 L 27.0625 98.300781 C 23.253906 96.628906 21.738281 92.019531 23.820312 88.414062 C 25.898438 84.808594 30.648438 83.816406 34 86.28125 L 84.6875 123.566406 " fill-opacity="1" fill-rule="nonzero"/><g clip-path="url(#672f8bbccd)"><path fill="#1c3f60" d="M 70.738281 175.640625 L 8.203125 182.578125 C 4.070312 183.035156 0.457031 179.800781 0.457031 175.640625 C 0.457031 171.480469 4.070312 168.242188 8.203125 168.699219 L 70.738281 175.640625 " fill-opacity="1" fill-rule="nonzero"/></g><g clip-path="url(#161ae3d760)"><path fill="#1c3f60" d="M 278.949219 175.640625 L 341.480469 168.699219 C 345.613281 168.242188 349.226562 171.480469 349.226562 175.640625 C 349.226562 179.800781 345.613281 183.035156 341.480469 182.578125 L 278.949219 175.640625 " fill-opacity="1" fill-rule="nonzero"/></g><path fill="#1c3f60" d="M 265 123.566406 L 315.6875 86.28125 C 319.039062 83.816406 323.785156 84.808594 325.867188 88.414062 C 327.945312 92.019531 326.433594 96.628906 322.625 98.300781 L 265 123.566406 " fill-opacity="1" fill-rule="nonzero"/><path fill="#1c3f60" d="M 226.894531 85.449219 L 252.152344 27.804688 C 253.824219 23.996094 258.433594 22.480469 262.035156 24.5625 C 265.636719 26.640625 266.632812 31.390625 264.167969 34.742188 L 226.894531 85.449219 " fill-opacity="1" fill-rule="nonzero"/></svg>