<svg xmlns="http://www.w3.org/2000/svg" xmlns:xlink="http://www.w3.org/1999/xlink" width="1003" zoomAndPan="magnify" viewBox="0 0 752.25 719.999996" height="960" preserveAspectRatio="xMidYMid meet" version="1.0"><defs><clipPath id="ebabbf20ef"><path d="M 53 173 L 695 173 L 695 573 L 53 573 Z M 53 173 " clip-rule="nonzero"/></clipPath><clipPath id="ac5363d883"><path d="M 0.128906 300.152344 L 501.277344 0.953125 L 751.316406 419.753906 L 250.167969 718.953125 Z M 0.128906 300.152344 " clip-rule="nonzero"/></clipPath><clipPath id="f420d5e0c5"><path d="M 0.128906 300.152344 L 501.277344 0.953125 L 751.316406 419.753906 L 250.167969 718.953125 Z M 0.128906 300.152344 " clip-rule="nonzero"/></clipPath><clipPath id="126602fff0"><path d="M 254 502 L 516 502 L 516 531.558594 L 254 531.558594 Z M 254 502 " clip-rule="nonzero"/></clipPath><clipPath id="ee57c8ed50"><path d="M 377 188.398438 L 392 188.398438 L 392 259 L 377 259 Z M 377 188.398438 " clip-rule="nonzero"/></clipPath><clipPath id="e5f2be2ec6"><path d="M 210.25 356 L 281 356 L 281 371 L 210.25 371 Z M 210.25 356 " clip-rule="nonzero"/></clipPath><clipPath id="6469197a3a"><path d="M 489 356 L 559.398438 356 L 559.398438 370.265625 L 489 370.265625 Z M 489 356 " clip-rule="nonzero"/></clipPath></defs><g clip-path="url(#ebabbf20ef)"><g clip-path="url(#ac5363d883)"><g clip-path="url(#f420d5e0c5)"><path fill="#c2cdd7" d="M 639.777344 250.410156 C 618.347656 230.152344 592.550781 215.878906 565.28125 205.164062 C 539.742188 195.132812 512.90625 188.875 485.863281 184.527344 C 457.375 179.949219 428.554688 177.292969 399.773438 175.410156 C 335.460938 171.195312 268.734375 171.925781 206.828125 191.890625 C 151.652344 209.6875 96.871094 242.832031 68.371094 295.039062 C 64.5625 302.015625 61.519531 309.375 58.789062 316.832031 C 56 324.449219 54.714844 332.355469 53.816406 340.390625 C 52.242188 354.480469 54.027344 368.988281 57.867188 382.589844 C 65.457031 409.5 81.285156 433.375 98.234375 455.242188 C 128.738281 494.59375 166.175781 531.292969 212.148438 551.925781 C 235.375 562.347656 259.871094 568.429688 285.335938 569.585938 C 286.828125 569.65625 288.324219 569.699219 289.816406 569.730469 C 304.238281 571.839844 318.847656 572.800781 333.324219 572.871094 C 389.074219 573.136719 444.4375 559.90625 497.355469 543.382812 C 522.371094 535.574219 547.4375 527.429688 571.882812 517.964844 C 600.128906 507.023438 627.238281 493.824219 650.378906 474 C 672.023438 455.453125 686.976562 429.761719 692.242188 401.734375 C 697.363281 374.472656 694.558594 345.878906 685.246094 319.8125 C 675.761719 293.261719 660.261719 269.773438 639.777344 250.410156 Z M 639.777344 250.410156 " fill-opacity="1" fill-rule="nonzero"/></g></g></g><path fill="#1c3f60" d="M 465.3125 495.253906 L 304.355469 495.253906 C 299.574219 495.253906 295.695312 491.378906 295.695312 486.59375 L 295.695312 361.109375 C 295.695312 311.859375 335.601562 271.9375 384.832031 271.9375 C 434.0625 271.9375 473.972656 311.859375 473.972656 361.109375 L 473.972656 486.59375 C 473.972656 491.378906 470.09375 495.253906 465.3125 495.253906 " fill-opacity="1" fill-rule="nonzero"/><path fill="#ffffff" d="M 439.222656 306.71875 C 428.164062 295.65625 414.332031 288.382812 399.292969 285.539062 C 399.289062 285.539062 399.289062 285.539062 399.285156 285.539062 C 398.050781 285.308594 396.8125 285.101562 395.558594 284.933594 C 395.425781 284.910156 395.289062 284.894531 395.152344 284.875 C 394.066406 284.730469 392.976562 284.609375 391.878906 284.507812 C 391.617188 284.488281 391.359375 284.464844 391.09375 284.441406 C 390.828125 284.421875 390.558594 284.398438 390.289062 284.378906 C 389.796875 284.34375 389.304688 284.316406 388.808594 284.292969 C 388.636719 284.28125 388.464844 284.277344 388.292969 284.269531 C 387.886719 284.25 387.480469 284.234375 387.074219 284.226562 C 386.890625 284.21875 386.707031 284.214844 386.519531 284.210938 C 385.980469 284.199219 385.4375 284.191406 384.894531 284.191406 C 384.882812 284.191406 384.867188 284.191406 384.851562 284.191406 C 384.847656 284.191406 384.847656 284.191406 384.84375 284.191406 C 384.839844 284.191406 384.835938 284.191406 384.832031 284.191406 C 384.820312 284.191406 384.804688 284.191406 384.789062 284.191406 C 384.25 284.191406 383.707031 284.199219 383.167969 284.210938 C 382.980469 284.214844 382.796875 284.21875 382.609375 284.226562 C 382.203125 284.234375 381.796875 284.25 381.390625 284.269531 C 381.21875 284.277344 381.046875 284.28125 380.878906 284.292969 C 380.382812 284.316406 379.890625 284.34375 379.394531 284.378906 C 379.128906 284.398438 378.859375 284.421875 378.589844 284.441406 C 378.328125 284.464844 378.070312 284.488281 377.808594 284.507812 C 376.710938 284.609375 375.621094 284.730469 374.53125 284.875 C 374.394531 284.894531 374.261719 284.910156 374.125 284.933594 C 372.875 285.101562 371.632812 285.308594 370.402344 285.539062 C 370.398438 285.539062 370.394531 285.539062 370.394531 285.539062 C 355.355469 288.382812 341.523438 295.65625 330.464844 306.71875 C 315.941406 321.246094 307.941406 340.5625 307.941406 361.109375 C 307.941406 363.761719 310.09375 365.914062 312.746094 365.914062 C 315.398438 365.914062 317.550781 363.761719 317.550781 361.109375 C 317.550781 343.195312 324.5 326.355469 337.117188 313.660156 C 337.167969 313.609375 337.222656 313.566406 337.273438 313.515625 C 344.914062 305.871094 354.253906 300.175781 364.40625 296.945312 C 364.488281 296.917969 364.566406 296.894531 364.648438 296.867188 C 364.949219 296.773438 365.253906 296.679688 365.558594 296.589844 C 365.570312 296.585938 365.578125 296.585938 365.589844 296.582031 C 365.921875 296.484375 366.253906 296.386719 366.585938 296.292969 C 366.859375 296.214844 367.136719 296.144531 367.414062 296.070312 C 367.574219 296.023438 367.742188 295.980469 367.90625 295.9375 C 368.179688 295.871094 368.457031 295.796875 368.734375 295.730469 C 368.902344 295.691406 369.070312 295.648438 369.238281 295.613281 C 369.710938 295.5 370.1875 295.394531 370.660156 295.289062 C 370.84375 295.253906 371.027344 295.214844 371.207031 295.175781 C 371.476562 295.121094 371.75 295.066406 372.023438 295.015625 C 372.210938 294.976562 372.398438 294.945312 372.585938 294.910156 C 373.03125 294.828125 373.476562 294.753906 373.921875 294.679688 C 374.128906 294.644531 374.339844 294.609375 374.546875 294.578125 C 374.808594 294.539062 375.066406 294.503906 375.328125 294.464844 C 375.542969 294.4375 375.757812 294.40625 375.972656 294.378906 C 376.222656 294.34375 376.472656 294.3125 376.722656 294.285156 C 377.128906 294.234375 377.535156 294.191406 377.941406 294.148438 C 378.164062 294.125 378.390625 294.105469 378.609375 294.085938 C 378.878906 294.0625 379.148438 294.035156 379.414062 294.019531 C 379.625 294 379.839844 293.984375 380.050781 293.96875 C 380.492188 293.9375 380.9375 293.90625 381.378906 293.886719 C 381.519531 293.878906 381.660156 293.875 381.804688 293.867188 C 382.164062 293.851562 382.527344 293.839844 382.886719 293.828125 C 383.050781 293.824219 383.210938 293.820312 383.375 293.816406 C 383.847656 293.804688 384.320312 293.800781 384.789062 293.796875 C 384.804688 293.796875 384.824219 293.796875 384.84375 293.796875 C 384.859375 293.796875 384.878906 293.796875 384.894531 293.796875 C 385.367188 293.800781 385.839844 293.804688 386.3125 293.816406 C 386.472656 293.820312 386.632812 293.824219 386.796875 293.828125 C 387.15625 293.839844 387.519531 293.851562 387.882812 293.867188 C 388.023438 293.875 388.164062 293.878906 388.308594 293.886719 C 388.75 293.90625 389.191406 293.9375 389.632812 293.96875 C 389.847656 293.984375 390.058594 294 390.273438 294.019531 C 390.539062 294.035156 390.804688 294.0625 391.074219 294.085938 C 391.300781 294.105469 391.519531 294.125 391.746094 294.148438 C 392.152344 294.191406 392.558594 294.234375 392.960938 294.285156 C 393.214844 294.3125 393.464844 294.34375 393.714844 294.378906 C 393.929688 294.40625 394.140625 294.4375 394.355469 294.464844 C 394.617188 294.503906 394.878906 294.539062 395.140625 294.578125 C 395.347656 294.609375 395.550781 294.644531 395.757812 294.679688 C 396.207031 294.753906 396.65625 294.828125 397.101562 294.910156 C 397.289062 294.945312 397.476562 294.976562 397.664062 295.015625 C 397.9375 295.066406 398.210938 295.121094 398.484375 295.175781 C 398.660156 295.214844 398.839844 295.25 399.019531 295.289062 C 399.5 295.394531 399.980469 295.5 400.460938 295.613281 C 400.621094 295.652344 400.785156 295.691406 400.949219 295.730469 C 401.226562 295.796875 401.507812 295.871094 401.785156 295.941406 C 401.945312 295.980469 402.105469 296.023438 402.265625 296.066406 C 402.546875 296.144531 402.820312 296.214844 403.097656 296.292969 C 403.75 296.476562 404.398438 296.667969 405.042969 296.871094 C 405.121094 296.894531 405.195312 296.917969 405.273438 296.945312 C 415.425781 300.171875 424.773438 305.871094 432.410156 313.515625 C 432.460938 313.566406 432.519531 313.609375 432.570312 313.660156 C 445.191406 326.355469 452.136719 343.195312 452.136719 361.109375 C 452.136719 363.761719 454.289062 365.914062 456.941406 365.914062 C 459.59375 365.914062 461.742188 363.761719 461.742188 361.109375 C 461.742188 340.5625 453.746094 321.246094 439.222656 306.71875 " fill-opacity="1" fill-rule="nonzero"/><g clip-path="url(#126602fff0)"><path fill="#8799a7" d="M 500.53125 531.460938 L 269.136719 531.460938 C 261.082031 531.460938 254.554688 524.933594 254.554688 516.875 C 254.554688 508.820312 261.082031 502.289062 269.136719 502.289062 L 500.53125 502.289062 C 508.582031 502.289062 515.109375 508.820312 515.109375 516.875 C 515.109375 524.933594 508.582031 531.460938 500.53125 531.460938 " fill-opacity="1" fill-rule="nonzero"/></g><g clip-path="url(#ee57c8ed50)"><path fill="#1c3f60" d="M 384.832031 258.882812 L 377.890625 196.253906 C 377.429688 192.113281 380.671875 188.492188 384.832031 188.492188 C 389 188.492188 392.238281 192.113281 391.777344 196.253906 L 384.832031 258.882812 " fill-opacity="1" fill-rule="nonzero"/></g><path fill="#1c3f60" d="M 332.722656 272.851562 L 295.40625 222.085938 C 292.9375 218.726562 293.933594 213.976562 297.542969 211.894531 C 301.148438 209.808594 305.761719 211.324219 307.433594 215.136719 L 332.722656 272.851562 " fill-opacity="1" fill-rule="nonzero"/><path fill="#1c3f60" d="M 294.574219 311.011719 L 236.882812 285.714844 C 233.070312 284.042969 231.554688 279.425781 233.640625 275.820312 C 235.71875 272.210938 240.476562 271.214844 243.828125 273.679688 L 294.574219 311.011719 " fill-opacity="1" fill-rule="nonzero"/><g clip-path="url(#e5f2be2ec6)"><path fill="#1c3f60" d="M 280.613281 363.140625 L 218.003906 370.089844 C 213.867188 370.546875 210.25 367.308594 210.25 363.140625 C 210.25 358.980469 213.867188 355.738281 218.003906 356.195312 L 280.613281 363.140625 " fill-opacity="1" fill-rule="nonzero"/></g><g clip-path="url(#6469197a3a)"><path fill="#1c3f60" d="M 489.058594 363.140625 L 551.660156 356.195312 C 555.800781 355.738281 559.417969 358.980469 559.417969 363.140625 C 559.417969 367.308594 555.800781 370.546875 551.660156 370.089844 L 489.058594 363.140625 " fill-opacity="1" fill-rule="nonzero"/></g><path fill="#1c3f60" d="M 475.09375 311.011719 L 525.839844 273.679688 C 529.195312 271.214844 533.945312 272.210938 536.03125 275.820312 C 538.109375 279.425781 536.597656 284.042969 532.785156 285.714844 L 475.09375 311.011719 " fill-opacity="1" fill-rule="nonzero"/><path fill="#1c3f60" d="M 436.945312 272.851562 L 462.234375 215.136719 C 463.902344 211.324219 468.519531 209.808594 472.128906 211.894531 C 475.730469 213.976562 476.730469 218.726562 474.261719 222.085938 L 436.945312 272.851562 " fill-opacity="1" fill-rule="nonzero"/></svg>