<svg xmlns="http://www.w3.org/2000/svg" xmlns:xlink="http://www.w3.org/1999/xlink" width="609" zoomAndPan="magnify" viewBox="0 0 456.75 557.249982" height="743" preserveAspectRatio="xMidYMid meet" version="1.0"><defs><filter x="0%" y="0%" width="100%" height="100%" id="6ce93cbbb3"><feColorMatrix values="0 0 0 0 1 0 0 0 0 1 0 0 0 0 1 0 0 0 1 0" color-interpolation-filters="sRGB"/></filter><clipPath id="a0ae5c1360"><path d="M 1.417969 0.300781 L 216 0.300781 L 216 556.355469 L 1.417969 556.355469 Z M 1.417969 0.300781 " clip-rule="nonzero"/></clipPath><clipPath id="041aebbe8c"><path d="M 37 21.429688 L 207.773438 21.429688 L 207.773438 547 L 37 547 Z M 37 21.429688 " clip-rule="nonzero"/></clipPath><clipPath id="ac211ee719"><path d="M 66.355469 62.207031 L 180.617188 23.332031 C 195.359375 18.316406 207.328125 26.878906 207.328125 42.441406 L 207.328125 475.089844 C 207.328125 488.921875 196.691406 503.769531 183.585938 508.226562 L 77.855469 544.199219 C 53.285156 552.558594 33.339844 538.289062 33.339844 512.351562 L 33.339844 108.292969 C 33.339844 89.054688 48.132812 68.40625 66.355469 62.207031 Z M 66.355469 62.207031 " clip-rule="nonzero"/></clipPath><mask id="d3793809bb"><g filter="url(#6ce93cbbb3)"><rect x="-45.675" width="548.1" fill="#000000" y="-55.724998" height="668.699979" fill-opacity="0.498"/></g></mask><clipPath id="12043eef40"><path d="M 1 0.429688 L 170.503906 0.429688 L 170.503906 526 L 1 526 Z M 1 0.429688 " clip-rule="nonzero"/></clipPath><clipPath id="b0599ac71e"><path d="M 29.355469 41.207031 L 143.617188 2.332031 C 158.359375 -2.683594 170.328125 5.878906 170.328125 21.441406 L 170.328125 454.089844 C 170.328125 467.921875 159.691406 482.769531 146.585938 487.226562 L 40.855469 523.199219 C 16.285156 531.558594 -3.660156 517.289062 -3.660156 491.351562 L -3.660156 87.292969 C -3.660156 68.054688 11.132812 47.40625 29.355469 41.207031 Z M 29.355469 41.207031 " clip-rule="nonzero"/></clipPath><clipPath id="29911cdc8d"><rect x="0" width="171" y="0" height="526"/></clipPath><clipPath id="0ef11748e4"><path d="M 180 103 L 456.304688 103 L 456.304688 302 L 180 302 Z M 180 103 " clip-rule="nonzero"/></clipPath><clipPath id="4599f701b0"><path d="M 0.605469 0.300781 L 216 0.300781 L 216 556.355469 L 0.605469 556.355469 Z M 0.605469 0.300781 " clip-rule="nonzero"/></clipPath><clipPath id="f5e2aafc14"><path d="M 36 21.429688 L 206.960938 21.429688 L 206.960938 547 L 36 547 Z M 36 21.429688 " clip-rule="nonzero"/></clipPath><clipPath id="212cf74e93"><path d="M 65.542969 62.207031 L 179.808594 23.332031 C 194.546875 18.316406 206.515625 26.878906 206.515625 42.441406 L 206.515625 475.089844 C 206.515625 488.921875 195.878906 503.769531 182.773438 508.226562 L 77.042969 544.199219 C 52.472656 552.558594 32.527344 538.289062 32.527344 512.351562 L 32.527344 108.292969 C 32.527344 89.054688 47.324219 68.40625 65.542969 62.207031 Z M 65.542969 62.207031 " clip-rule="nonzero"/></clipPath><mask id="286d597ada"><g filter="url(#6ce93cbbb3)"><rect x="-45.675" width="548.1" fill="#000000" y="-55.724998" height="668.699979" fill-opacity="0.498"/></g></mask><clipPath id="03c916a896"><path d="M 1 0.429688 L 170.542969 0.429688 L 170.542969 526 L 1 526 Z M 1 0.429688 " clip-rule="nonzero"/></clipPath><clipPath id="ff4cc4ed16"><path d="M 29.542969 41.207031 L 143.808594 2.332031 C 158.546875 -2.683594 170.515625 5.878906 170.515625 21.441406 L 170.515625 454.089844 C 170.515625 467.921875 159.878906 482.769531 146.773438 487.226562 L 41.042969 523.199219 C 16.472656 531.558594 -3.472656 517.289062 -3.472656 491.351562 L -3.472656 87.292969 C -3.472656 68.054688 11.324219 47.40625 29.542969 41.207031 Z M 29.542969 41.207031 " clip-rule="nonzero"/></clipPath><clipPath id="73a7bf79a2"><rect x="0" width="171" y="0" height="526"/></clipPath><clipPath id="338b1d5c38"><path d="M 179 103 L 455.492188 103 L 455.492188 302 L 179 302 Z M 179 103 " clip-rule="nonzero"/></clipPath></defs><g clip-path="url(#a0ae5c1360)"><path fill="#0b1320" d="M 149.792969 4.40625 L 39.652344 43.132812 C 18.433594 50.59375 1.398438 74.898438 1.636719 97.375 L 5.917969 501.976562 C 6.34375 542.453125 38.023438 565.328125 76.617188 553.027344 L 91.960938 548.136719 L 117.628906 537.558594 L 33.804688 112.15625 C 28.789062 86.707031 45.511719 62.644531 71.125 58.449219 L 215.671875 34.769531 C 217.449219 19.886719 206.132812 4.988281 190.421875 1.523438 C 179.421875 -0.902344 161.21875 0.390625 149.792969 4.40625 Z M 149.792969 4.40625 " fill-opacity="1" fill-rule="nonzero"/></g><path fill="#323232" d="M 60.464844 54.335938 L 189.140625 12.179688 C 203.9375 7.332031 215.949219 16.027344 215.949219 31.589844 L 215.949219 482.707031 C 215.949219 496.539062 205.269531 511.265625 192.117188 515.574219 L 78.339844 552.855469 C 48.746094 562.550781 24.71875 545.15625 24.71875 514.03125 L 24.71875 103.644531 C 24.71875 82.894531 40.734375 60.800781 60.464844 54.335938 Z M 60.464844 54.335938 " fill-opacity="1" fill-rule="nonzero"/><path fill="#f3f6fa" d="M 66.355469 62.207031 L 180.617188 23.332031 C 195.359375 18.316406 207.328125 26.878906 207.328125 42.441406 L 207.328125 475.089844 C 207.328125 488.921875 196.691406 503.769531 183.585938 508.226562 L 77.855469 544.199219 C 53.285156 552.558594 33.339844 538.289062 33.339844 512.351562 L 33.339844 108.292969 C 33.339844 89.054688 48.132812 68.40625 66.355469 62.207031 Z M 66.355469 62.207031 " fill-opacity="1" fill-rule="nonzero"/><g clip-path="url(#041aebbe8c)"><g clip-path="url(#ac211ee719)"><g mask="url(#d3793809bb)"><g transform="matrix(1, 0, 0, 1, 37, 21)"><g clip-path="url(#29911cdc8d)"><g clip-path="url(#12043eef40)"><g clip-path="url(#b0599ac71e)"><path fill="#0b1320" d="M 126.132812 -41.304688 L 1.125 517.792969 L 22.007812 530 L 152.195312 -55.339844 Z M 166.777344 -36.046875 L 30.089844 553.03125 L 40.335938 555.789062 L 177.808594 -19.902344 Z M 166.777344 -36.046875 " fill-opacity="1" fill-rule="evenodd"/></g></g></g></g></g></g></g><path fill="#323232" d="M 110.929688 60.347656 C 110.929688 53.121094 115.144531 47.253906 120.335938 47.253906 C 125.523438 47.253906 129.738281 53.121094 129.738281 60.347656 C 129.738281 67.574219 125.523438 73.4375 120.335938 73.4375 C 115.144531 73.4375 110.929688 67.574219 110.929688 60.347656 Z M 110.929688 60.347656 " fill-opacity="1" fill-rule="nonzero"/><g clip-path="url(#0ef11748e4)"><path fill="#0b1320" d="M 180.328125 275.980469 L 236.753906 188.265625 L 236.753906 150.671875 C 236.753906 124.734375 257.824219 103.679688 283.777344 103.679688 L 409.175781 103.679688 C 435.128906 103.679688 456.199219 124.734375 456.199219 150.671875 L 456.199219 254.050781 C 456.199219 279.988281 435.128906 301.042969 409.175781 301.042969 L 283.777344 301.042969 C 257.824219 301.042969 236.753906 279.988281 236.753906 254.050781 L 236.753906 250.917969 Z M 180.328125 275.980469 " fill-opacity="1" fill-rule="nonzero"/></g><path fill="#f3f6fa" d="M 289.566406 236.773438 L 291.96875 240.246094 L 285.023438 245.019531 L 282.644531 241.550781 C 280.433594 238.351562 278.414062 235.027344 276.625 231.578125 C 274.917969 228.359375 273.46875 225.015625 272.265625 221.585938 C 269.972656 215.171875 268.773438 208.402344 268.730469 201.585938 C 268.753906 194.855469 269.953125 188.1875 272.289062 181.898438 C 274.835938 175.125 278.371094 168.753906 282.75 163.011719 L 285.316406 159.667969 L 292.011719 164.757812 L 289.441406 168.101562 C 285.570312 173.191406 282.433594 178.828125 280.179688 184.84375 C 278.203125 190.183594 277.171875 195.84375 277.152344 201.5625 C 277.191406 207.433594 278.222656 213.238281 280.203125 218.769531 C 281.277344 221.820312 282.582031 224.804688 284.074219 227.6875 C 285.714844 230.820312 287.546875 233.871094 289.566406 236.773438 Z M 400.253906 168.101562 L 397.707031 164.757812 L 404.402344 159.667969 L 406.949219 163.011719 C 411.347656 168.753906 414.882812 175.125 417.429688 181.898438 C 419.765625 188.1875 420.964844 194.855469 420.988281 201.585938 C 420.945312 208.402344 419.746094 215.171875 417.449219 221.585938 C 416.230469 225.015625 414.777344 228.359375 413.09375 231.578125 C 411.304688 235.027344 409.285156 238.351562 407.074219 241.550781 L 404.695312 245.019531 L 397.75 240.246094 L 400.148438 236.773438 C 402.148438 233.871094 404 230.820312 405.644531 227.6875 C 407.136719 224.804688 408.441406 221.820312 409.515625 218.769531 C 411.496094 213.238281 412.527344 207.433594 412.566406 201.5625 C 412.546875 195.84375 411.515625 190.183594 409.539062 184.84375 C 407.285156 178.828125 404.148438 173.191406 400.253906 168.101562 Z M 276.414062 258.417969 L 278.792969 261.886719 L 271.867188 266.660156 L 269.46875 263.191406 C 266.015625 258.207031 262.878906 252.992188 260.058594 247.605469 C 257.449219 242.578125 255.175781 237.382812 253.300781 232.042969 C 251.515625 226.992188 250.148438 221.820312 249.199219 216.539062 C 248.292969 211.449219 247.832031 206.277344 247.832031 201.101562 C 247.851562 190.730469 249.726562 180.46875 253.300781 170.730469 C 255.199219 165.640625 257.46875 160.675781 260.121094 155.921875 C 262.945312 150.875 266.101562 146.015625 269.574219 141.390625 L 272.097656 138.023438 L 278.835938 143.070312 L 276.308594 146.4375 C 273.046875 150.769531 270.097656 155.292969 267.46875 160.023438 C 265.027344 164.398438 262.945312 168.941406 261.21875 173.652344 C 257.953125 182.445312 256.269531 191.742188 256.25 201.101562 C 256.25 205.792969 256.671875 210.460938 257.492188 215.066406 C 258.355469 219.882812 259.597656 224.636719 261.238281 229.246094 C 262.984375 234.207031 265.089844 239.046875 267.53125 243.714844 C 270.183594 248.785156 273.152344 253.707031 276.414062 258.417969 Z M 413.410156 146.4375 L 410.882812 143.070312 L 417.617188 138.023438 L 420.144531 141.390625 C 423.617188 146.015625 426.773438 150.875 429.597656 155.921875 C 432.246094 160.675781 434.519531 165.640625 436.394531 170.730469 C 439.992188 180.46875 441.84375 190.730469 441.886719 201.101562 C 441.886719 206.277344 441.425781 211.449219 440.519531 216.539062 C 439.570312 221.820312 438.203125 226.992188 436.414062 232.042969 C 434.542969 237.382812 432.269531 242.578125 429.636719 247.605469 C 426.839844 252.992188 423.679688 258.207031 420.230469 263.191406 L 417.851562 266.660156 L 410.925781 261.886719 L 413.304688 258.417969 C 416.566406 253.707031 419.535156 248.785156 422.1875 243.714844 C 424.628906 239.046875 426.734375 234.207031 428.480469 229.246094 C 430.101562 224.636719 431.363281 219.882812 432.226562 215.066406 C 433.046875 210.460938 433.46875 205.792969 433.46875 201.101562 C 433.425781 191.742188 431.742188 182.445312 428.5 173.652344 C 426.773438 168.941406 424.671875 164.398438 422.25 160.023438 C 419.617188 155.292969 416.652344 150.769531 413.410156 146.4375 Z M 344.855469 163.832031 C 347.613281 163.832031 350.253906 162.734375 352.195312 160.796875 C 354.140625 158.855469 355.234375 156.214844 355.234375 153.460938 C 355.234375 150.703125 354.140625 148.066406 352.195312 146.125 C 350.253906 144.183594 347.613281 143.085938 344.855469 143.085938 C 342.097656 143.085938 339.457031 144.183594 337.515625 146.125 C 335.574219 148.066406 334.476562 150.703125 334.476562 153.460938 C 334.476562 156.214844 335.574219 158.855469 337.515625 160.796875 C 339.457031 162.734375 342.097656 163.832031 344.855469 163.832031 Z M 325.953125 245.335938 L 363.761719 245.335938 L 363.761719 246.816406 C 363.761719 258.269531 355.289062 267.566406 344.855469 267.566406 C 334.421875 267.566406 325.953125 258.269531 325.953125 246.816406 Z M 333.578125 165.21875 C 318.6875 169.460938 307.78125 183.167969 307.78125 199.398438 L 307.78125 212.734375 C 307.78125 219.277344 304.460938 228.574219 300.367188 233.480469 C 296.277344 238.386719 298.269531 242.375 304.816406 242.375 L 384.894531 242.375 C 391.441406 242.375 393.4375 238.386719 389.34375 233.480469 C 385.25 228.574219 381.929688 219.277344 381.929688 212.734375 L 381.929688 199.398438 C 381.929688 183.167969 371.023438 169.460938 356.132812 165.21875 C 359.238281 162.257812 361.167969 158.082031 361.167969 153.460938 C 361.167969 144.460938 353.859375 137.160156 344.855469 137.160156 C 335.851562 137.160156 328.542969 144.460938 328.542969 153.460938 C 328.542969 158.082031 330.472656 162.257812 333.578125 165.21875 Z M 333.578125 165.21875 " fill-opacity="1" fill-rule="evenodd"/><g clip-path="url(#4599f701b0)"><path fill="#1c3f60" d="M 148.980469 4.40625 L 38.839844 43.132812 C 17.621094 50.59375 0.589844 74.898438 0.824219 97.375 L 5.105469 501.976562 C 5.535156 542.453125 37.214844 565.328125 75.804688 553.027344 L 91.148438 548.136719 L 116.816406 537.558594 L 32.992188 112.15625 C 27.976562 86.707031 44.699219 62.644531 70.3125 58.449219 L 214.863281 34.769531 C 216.636719 19.886719 205.320312 4.988281 189.609375 1.523438 C 178.609375 -0.902344 160.40625 0.390625 148.980469 4.40625 Z M 148.980469 4.40625 " fill-opacity="1" fill-rule="nonzero"/></g><path fill="#1c3f60" d="M 59.652344 54.335938 L 188.328125 12.179688 C 203.125 7.332031 215.136719 16.027344 215.136719 31.589844 L 215.136719 482.707031 C 215.136719 496.539062 204.457031 511.265625 191.304688 515.574219 L 77.527344 552.855469 C 47.933594 562.550781 23.90625 545.15625 23.90625 514.03125 L 23.90625 103.644531 C 23.90625 82.894531 39.925781 60.800781 59.652344 54.335938 Z M 59.652344 54.335938 " fill-opacity="1" fill-rule="nonzero"/><path fill="#f3f6fa" d="M 65.542969 62.207031 L 179.808594 23.332031 C 194.546875 18.316406 206.515625 26.878906 206.515625 42.441406 L 206.515625 475.089844 C 206.515625 488.921875 195.878906 503.769531 182.773438 508.226562 L 77.042969 544.199219 C 52.472656 552.558594 32.527344 538.289062 32.527344 512.351562 L 32.527344 108.292969 C 32.527344 89.054688 47.324219 68.40625 65.542969 62.207031 Z M 65.542969 62.207031 " fill-opacity="1" fill-rule="nonzero"/><g clip-path="url(#f5e2aafc14)"><g clip-path="url(#212cf74e93)"><g mask="url(#286d597ada)"><g transform="matrix(1, 0, 0, 1, 36, 21)"><g clip-path="url(#73a7bf79a2)"><g clip-path="url(#03c916a896)"><g clip-path="url(#ff4cc4ed16)"><path fill="#1c3f60" d="M 126.324219 -41.304688 L 1.3125 517.792969 L 22.199219 530 L 152.382812 -55.339844 Z M 166.964844 -36.046875 L 30.277344 553.03125 L 40.523438 555.789062 L 178 -19.902344 Z M 166.964844 -36.046875 " fill-opacity="1" fill-rule="evenodd"/></g></g></g></g></g></g></g><path fill="#1c3f60" d="M 110.117188 60.347656 C 110.117188 53.121094 114.332031 47.253906 119.523438 47.253906 C 124.710938 47.253906 128.925781 53.121094 128.925781 60.347656 C 128.925781 67.574219 124.710938 73.4375 119.523438 73.4375 C 114.332031 73.4375 110.117188 67.574219 110.117188 60.347656 Z M 110.117188 60.347656 " fill-opacity="1" fill-rule="nonzero"/><g clip-path="url(#338b1d5c38)"><path fill="#1c3f60" d="M 179.515625 275.980469 L 235.941406 188.265625 L 235.941406 150.671875 C 235.941406 124.734375 257.011719 103.679688 282.964844 103.679688 L 408.363281 103.679688 C 434.316406 103.679688 455.386719 124.734375 455.386719 150.671875 L 455.386719 254.050781 C 455.386719 279.988281 434.316406 301.042969 408.363281 301.042969 L 282.964844 301.042969 C 257.011719 301.042969 235.941406 279.988281 235.941406 254.050781 L 235.941406 250.917969 Z M 179.515625 275.980469 " fill-opacity="1" fill-rule="nonzero"/></g><path fill="#f3f6fa" d="M 288.757812 236.773438 L 291.15625 240.246094 L 284.210938 245.019531 L 281.832031 241.550781 C 279.621094 238.351562 277.601562 235.027344 275.8125 231.578125 C 274.105469 228.359375 272.65625 225.015625 271.457031 221.585938 C 269.160156 215.171875 267.960938 208.402344 267.917969 201.585938 C 267.941406 194.855469 269.140625 188.1875 271.476562 181.898438 C 274.023438 175.125 277.558594 168.753906 281.9375 163.011719 L 284.503906 159.667969 L 291.199219 164.757812 L 288.628906 168.101562 C 284.757812 173.191406 281.621094 178.828125 279.367188 184.84375 C 277.390625 190.183594 276.359375 195.84375 276.339844 201.5625 C 276.382812 207.433594 277.410156 213.238281 279.390625 218.769531 C 280.464844 221.820312 281.769531 224.804688 283.261719 227.6875 C 284.90625 230.820312 286.738281 233.871094 288.757812 236.773438 Z M 399.441406 168.101562 L 396.898438 164.757812 L 403.589844 159.667969 L 406.136719 163.011719 C 410.535156 168.753906 414.070312 175.125 416.617188 181.898438 C 418.953125 188.1875 420.152344 194.855469 420.175781 201.585938 C 420.132812 208.402344 418.933594 215.171875 416.640625 221.585938 C 415.417969 225.015625 413.964844 228.359375 412.28125 231.578125 C 410.492188 235.027344 408.472656 238.351562 406.261719 241.550781 L 403.882812 245.019531 L 396.9375 240.246094 L 399.339844 236.773438 C 401.335938 233.871094 403.191406 230.820312 404.832031 227.6875 C 406.324219 224.804688 407.628906 221.820312 408.703125 218.769531 C 410.683594 213.238281 411.714844 207.433594 411.753906 201.5625 C 411.734375 195.84375 410.703125 190.183594 408.726562 184.84375 C 406.472656 178.828125 403.335938 173.191406 399.441406 168.101562 Z M 275.601562 258.417969 L 277.980469 261.886719 L 271.054688 266.660156 L 268.65625 263.191406 C 265.203125 258.207031 262.066406 252.992188 259.246094 247.605469 C 256.636719 242.578125 254.363281 237.382812 252.492188 232.042969 C 250.703125 226.992188 249.335938 221.820312 248.386719 216.539062 C 247.480469 211.449219 247.019531 206.277344 247.019531 201.101562 C 247.039062 190.730469 248.914062 180.46875 252.492188 170.730469 C 254.386719 165.640625 256.660156 160.675781 259.308594 155.921875 C 262.132812 150.875 265.289062 146.015625 268.761719 141.390625 L 271.289062 138.023438 L 278.023438 143.070312 L 275.496094 146.4375 C 272.234375 150.769531 269.289062 155.292969 266.65625 160.023438 C 264.214844 164.398438 262.132812 168.941406 260.40625 173.652344 C 257.144531 182.445312 255.457031 191.742188 255.4375 201.101562 C 255.4375 205.792969 255.859375 210.460938 256.679688 215.066406 C 257.542969 219.882812 258.785156 224.636719 260.425781 229.246094 C 262.171875 234.207031 264.277344 239.046875 266.71875 243.714844 C 269.371094 248.785156 272.339844 253.707031 275.601562 258.417969 Z M 412.597656 146.4375 L 410.070312 143.070312 L 416.808594 138.023438 L 419.332031 141.390625 C 422.804688 146.015625 425.960938 150.875 428.785156 155.921875 C 431.4375 160.675781 433.707031 165.640625 435.582031 170.730469 C 439.183594 180.46875 441.035156 190.730469 441.074219 201.101562 C 441.074219 206.277344 440.613281 211.449219 439.707031 216.539062 C 438.761719 221.820312 437.390625 226.992188 435.601562 232.042969 C 433.730469 237.382812 431.457031 242.578125 428.828125 247.605469 C 426.027344 252.992188 422.867188 258.207031 419.417969 263.191406 L 417.039062 266.660156 L 410.113281 261.886719 L 412.492188 258.417969 C 415.753906 253.707031 418.722656 248.785156 421.375 243.714844 C 423.816406 239.046875 425.921875 234.207031 427.667969 229.246094 C 429.289062 224.636719 430.550781 219.882812 431.414062 215.066406 C 432.234375 210.460938 432.65625 205.792969 432.65625 201.101562 C 432.613281 191.742188 430.929688 182.445312 427.6875 173.652344 C 425.960938 168.941406 423.859375 164.398438 421.4375 160.023438 C 418.808594 155.292969 415.839844 150.769531 412.597656 146.4375 Z M 344.042969 163.832031 C 346.800781 163.832031 349.441406 162.734375 351.386719 160.796875 C 353.328125 158.855469 354.425781 156.214844 354.425781 153.460938 C 354.425781 150.703125 353.328125 148.066406 351.386719 146.125 C 349.441406 144.183594 346.800781 143.085938 344.042969 143.085938 C 341.285156 143.085938 338.644531 144.183594 336.703125 146.125 C 334.761719 148.066406 333.664062 150.703125 333.664062 153.460938 C 333.664062 156.214844 334.761719 158.855469 336.703125 160.796875 C 338.644531 162.734375 341.285156 163.832031 344.042969 163.832031 Z M 325.140625 245.335938 L 362.949219 245.335938 L 362.949219 246.816406 C 362.949219 258.269531 354.476562 267.566406 344.042969 267.566406 C 333.609375 267.566406 325.140625 258.269531 325.140625 246.816406 Z M 332.765625 165.21875 C 317.875 169.460938 306.972656 183.167969 306.972656 199.398438 L 306.972656 212.734375 C 306.972656 219.277344 303.648438 228.574219 299.558594 233.480469 C 295.464844 238.386719 297.457031 242.375 304.003906 242.375 L 384.082031 242.375 C 390.628906 242.375 392.625 238.386719 388.53125 233.480469 C 384.4375 228.574219 381.117188 219.277344 381.117188 212.734375 L 381.117188 199.398438 C 381.117188 183.167969 370.210938 169.460938 355.324219 165.21875 C 358.425781 162.257812 360.355469 158.082031 360.355469 153.460938 C 360.355469 144.460938 353.046875 137.160156 344.042969 137.160156 C 335.042969 137.160156 327.730469 144.460938 327.730469 153.460938 C 327.730469 158.082031 329.660156 162.257812 332.765625 165.21875 Z M 332.765625 165.21875 " fill-opacity="1" fill-rule="evenodd"/></svg>