<svg xmlns="http://www.w3.org/2000/svg" xmlns:xlink="http://www.w3.org/1999/xlink" width="949" zoomAndPan="magnify" viewBox="0 0 711.75 652.49998" height="870" preserveAspectRatio="xMidYMid meet" version="1.0"><defs><clipPath id="9bdf8416bc"><path d="M 43 117 L 673 117 L 673 528 L 43 528 Z M 43 117 " clip-rule="nonzero"/></clipPath><clipPath id="ff7e879064"><path d="M 711.140625 462.683594 L 158.488281 651.476562 L 0.71875 189.632812 L 553.367188 0.839844 Z M 711.140625 462.683594 " clip-rule="nonzero"/></clipPath><clipPath id="bbb9b23a63"><path d="M 711.140625 462.683594 L 158.488281 651.476562 L 0.71875 189.632812 L 553.367188 0.839844 Z M 711.140625 462.683594 " clip-rule="nonzero"/></clipPath><clipPath id="5921bd5d23"><path d="M 96.804688 162.484375 L 511.382812 162.484375 L 511.382812 301.175781 L 96.804688 301.175781 Z M 96.804688 162.484375 " clip-rule="nonzero"/></clipPath><clipPath id="e3b7b7b071"><path d="M 206.449219 353.386719 L 615 353.386719 L 615 489.828125 L 206.449219 489.828125 Z M 206.449219 353.386719 " clip-rule="nonzero"/></clipPath></defs><g clip-path="url(#9bdf8416bc)"><g clip-path="url(#ff7e879064)"><g clip-path="url(#bbb9b23a63)"><path fill="#c2cdd7" d="M 74.726562 378.546875 C 91.492188 402.824219 113.777344 422.152344 138.25 438.300781 C 161.164062 453.421875 186.128906 465.121094 211.695312 474.992188 C 238.628906 485.390625 266.289062 493.972656 294.066406 501.792969 C 356.140625 519.273438 421.605469 532.410156 486.34375 525.726562 C 544.046875 519.765625 604.546875 498.699219 643.285156 453.515625 C 648.460938 447.476562 652.964844 440.90625 657.1875 434.175781 C 661.5 427.300781 664.402344 419.824219 666.945312 412.148438 C 671.414062 398.683594 672.679688 384.113281 671.746094 370 C 669.90625 342.085938 659.371094 315.433594 647.320312 290.507812 C 625.636719 245.65625 596.609375 201.960938 555.898438 172.222656 C 535.328125 157.195312 512.613281 146.15625 487.929688 139.734375 C 486.484375 139.359375 485.027344 139.003906 483.570312 138.667969 C 469.894531 133.605469 455.796875 129.632812 441.640625 126.558594 C 387.128906 114.71875 330.191406 116.171875 274.964844 121.355469 C 248.859375 123.808594 222.628906 126.574219 196.738281 130.761719 C 166.816406 135.605469 137.542969 142.894531 110.777344 157.496094 C 85.738281 171.15625 65.769531 193.199219 54.796875 219.535156 C 44.121094 245.15625 40.929688 273.726562 44.632812 301.175781 C 48.402344 329.128906 58.699219 355.339844 74.726562 378.546875 Z M 74.726562 378.546875 " fill-opacity="1" fill-rule="nonzero"/></g></g></g><g clip-path="url(#5921bd5d23)"><path fill="#eaeef3" d="M 488.570312 301.125 L 119.613281 301.125 C 107.03125 301.125 96.804688 290.871094 96.804688 278.261719 L 96.804688 185.398438 C 96.804688 172.789062 107.03125 162.535156 119.613281 162.535156 L 488.496094 162.535156 C 501.078125 162.535156 511.308594 172.789062 511.308594 185.398438 L 511.308594 278.261719 C 511.382812 290.871094 501.152344 301.125 488.570312 301.125 Z M 488.570312 301.125 " fill-opacity="1" fill-rule="nonzero"/></g><path fill="#1c3f60" d="M 153.757812 177.359375 L 127.046875 177.359375 C 121.96875 177.359375 117.847656 181.492188 117.847656 186.578125 L 117.847656 207.96875 C 117.847656 213.058594 121.96875 217.1875 127.046875 217.1875 L 153.757812 217.1875 C 158.835938 217.1875 162.957031 213.058594 162.957031 207.96875 L 162.957031 186.578125 C 162.957031 181.492188 158.835938 177.359375 153.757812 177.359375 Z M 140.367188 210.476562 C 137.203125 210.476562 134.183594 209.519531 131.828125 207.96875 L 126.53125 208.632812 L 128.296875 204.722656 C 126.753906 202.660156 125.796875 200.152344 125.796875 197.496094 C 125.796875 190.339844 132.273438 184.589844 140.292969 184.589844 C 148.3125 184.589844 154.789062 190.414062 154.789062 197.496094 C 154.789062 204.578125 148.386719 210.476562 140.367188 210.476562 Z M 140.367188 210.476562 " fill-opacity="1" fill-rule="nonzero"/><path fill="#1c3f60" d="M 290.113281 201.773438 L 179.144531 201.773438 C 176.644531 201.773438 174.65625 199.78125 174.65625 197.273438 C 174.65625 194.765625 176.644531 192.777344 179.144531 192.777344 L 290.113281 192.777344 C 292.613281 192.777344 294.601562 194.765625 294.601562 197.273438 C 294.601562 199.78125 292.539062 201.773438 290.113281 201.773438 Z M 290.113281 201.773438 " fill-opacity="1" fill-rule="nonzero"/><path fill="#8799a7" d="M 211.742188 246.914062 L 118.070312 246.914062 C 115.566406 246.914062 113.582031 244.921875 113.582031 242.414062 C 113.582031 239.90625 115.566406 237.914062 118.070312 237.914062 L 211.667969 237.914062 C 214.171875 237.914062 216.160156 239.90625 216.160156 242.414062 C 216.230469 244.921875 214.171875 246.914062 211.742188 246.914062 Z M 211.742188 246.914062 " fill-opacity="1" fill-rule="nonzero"/><path fill="#8799a7" d="M 218.585938 265.5 L 118.070312 265.5 C 115.566406 265.5 113.582031 263.507812 113.582031 261 C 113.582031 258.492188 115.566406 256.5 118.070312 256.5 L 218.511719 256.5 C 221.015625 256.5 223 258.492188 223 261 C 223 263.507812 221.015625 265.5 218.585938 265.5 Z M 218.585938 265.5 " fill-opacity="1" fill-rule="nonzero"/><path fill="#8799a7" d="M 283.78125 265.5 L 240.148438 265.5 C 237.644531 265.5 235.660156 263.507812 235.660156 261 C 235.660156 258.492188 237.644531 256.5 240.148438 256.5 L 283.78125 256.5 C 286.285156 256.5 288.273438 258.492188 288.273438 261 C 288.273438 263.507812 286.285156 265.5 283.78125 265.5 Z M 283.78125 265.5 " fill-opacity="1" fill-rule="nonzero"/><path fill="#8799a7" d="M 334.261719 246.914062 L 233.820312 246.914062 C 231.316406 246.914062 229.332031 244.921875 229.332031 242.414062 C 229.332031 239.90625 231.316406 237.914062 233.820312 237.914062 L 334.261719 237.914062 C 336.765625 237.914062 338.75 239.90625 338.75 242.414062 C 338.75 244.921875 336.765625 246.914062 334.261719 246.914062 Z M 334.261719 246.914062 " fill-opacity="1" fill-rule="nonzero"/><g clip-path="url(#e3b7b7b071)"><path fill="#ffffff" d="M 592.546875 489.777344 L 228.929688 489.777344 C 216.527344 489.777344 206.449219 479.691406 206.449219 467.285156 L 206.449219 375.929688 C 206.449219 363.519531 216.527344 353.433594 228.929688 353.433594 L 592.476562 353.433594 C 604.875 353.433594 614.957031 363.519531 614.957031 375.929688 L 614.957031 467.285156 C 615.027344 479.691406 604.949219 489.777344 592.546875 489.777344 Z M 592.546875 489.777344 " fill-opacity="1" fill-rule="nonzero"/></g><path fill="#1c3f60" d="M 262.578125 368.019531 L 236.253906 368.019531 C 231.25 368.019531 227.1875 372.082031 227.1875 377.089844 L 227.1875 398.132812 C 227.1875 403.140625 231.25 407.203125 236.253906 407.203125 L 262.578125 407.203125 C 267.582031 407.203125 271.644531 403.140625 271.644531 398.132812 L 271.644531 377.089844 C 271.644531 372.082031 267.582031 368.019531 262.578125 368.019531 Z M 249.378906 400.601562 C 246.261719 400.601562 243.289062 399.65625 240.96875 398.132812 L 235.746094 398.785156 L 237.488281 394.941406 C 235.964844 392.910156 235.019531 390.441406 235.019531 387.828125 C 235.019531 380.789062 241.402344 375.132812 249.308594 375.132812 C 257.210938 375.132812 263.59375 380.863281 263.59375 387.828125 C 263.59375 394.796875 257.285156 400.601562 249.378906 400.601562 Z M 249.378906 400.601562 " fill-opacity="1" fill-rule="nonzero"/><path fill="#1c3f60" d="M 396.960938 392.039062 L 287.597656 392.039062 C 285.132812 392.039062 283.175781 390.078125 283.175781 387.613281 C 283.175781 385.144531 285.132812 383.183594 287.597656 383.183594 L 396.960938 383.183594 C 399.425781 383.183594 401.382812 385.144531 401.382812 387.613281 C 401.382812 390.078125 399.351562 392.039062 396.960938 392.039062 Z M 396.960938 392.039062 " fill-opacity="1" fill-rule="nonzero"/><path fill="#afc1d0" d="M 319.726562 436.445312 L 227.40625 436.445312 C 224.941406 436.445312 222.984375 434.488281 222.984375 432.019531 C 222.984375 429.550781 224.941406 427.59375 227.40625 427.59375 L 319.652344 427.59375 C 322.117188 427.59375 324.078125 429.550781 324.078125 432.019531 C 324.148438 434.488281 322.117188 436.445312 319.726562 436.445312 Z M 319.726562 436.445312 " fill-opacity="1" fill-rule="nonzero"/><path fill="#afc1d0" d="M 326.46875 454.730469 L 227.40625 454.730469 C 224.941406 454.730469 222.984375 452.773438 222.984375 450.304688 C 222.984375 447.839844 224.941406 445.878906 227.40625 445.878906 L 326.398438 445.878906 C 328.863281 445.878906 330.820312 447.839844 330.820312 450.304688 C 330.820312 452.773438 328.863281 454.730469 326.46875 454.730469 Z M 326.46875 454.730469 " fill-opacity="1" fill-rule="nonzero"/><path fill="#afc1d0" d="M 390.722656 454.730469 L 347.71875 454.730469 C 345.253906 454.730469 343.292969 452.773438 343.292969 450.304688 C 343.292969 447.839844 345.253906 445.878906 347.71875 445.878906 L 390.722656 445.878906 C 393.1875 445.878906 395.148438 447.839844 395.148438 450.304688 C 395.148438 452.773438 393.1875 454.730469 390.722656 454.730469 Z M 390.722656 454.730469 " fill-opacity="1" fill-rule="nonzero"/><path fill="#afc1d0" d="M 440.472656 436.445312 L 341.480469 436.445312 C 339.015625 436.445312 337.058594 434.488281 337.058594 432.019531 C 337.058594 429.550781 339.015625 427.59375 341.480469 427.59375 L 440.472656 427.59375 C 442.9375 427.59375 444.894531 429.550781 444.894531 432.019531 C 444.894531 434.488281 442.9375 436.445312 440.472656 436.445312 Z M 440.472656 436.445312 " fill-opacity="1" fill-rule="nonzero"/></svg>