<svg xmlns="http://www.w3.org/2000/svg" xmlns:xlink="http://www.w3.org/1999/xlink" width="636" zoomAndPan="magnify" viewBox="0 0 476.87997 319.499995" height="426" preserveAspectRatio="xMidYMid meet" version="1.0"><defs><clipPath id="a01fbfeab0"><path d="M 0.859375 185 L 272.683594 185 L 272.683594 239.082031 L 0.859375 239.082031 Z M 0.859375 185 " clip-rule="nonzero"/></clipPath><clipPath id="1adfac399f"><path d="M 4 22.066406 L 234 22.066406 L 234 198 L 4 198 Z M 4 22.066406 " clip-rule="nonzero"/></clipPath><clipPath id="1ca18a3aba"><path d="M 303.613281 0.0898438 L 476.449219 0.0898438 L 476.449219 318.566406 L 303.613281 318.566406 Z M 303.613281 0.0898438 " clip-rule="nonzero"/></clipPath><clipPath id="19b158100d"><path d="M 326 79.445312 L 465 79.445312 L 465 218.9375 L 326 218.9375 Z M 326 79.445312 " clip-rule="nonzero"/></clipPath><clipPath id="b57ffdc809"><path d="M 315.019531 140 L 338 140 L 338 157 L 315.019531 157 Z M 315.019531 140 " clip-rule="nonzero"/></clipPath></defs><g clip-path="url(#a01fbfeab0)"><path fill="#f3f6fa" d="M 233.746094 197.128906 L 229.003906 185.730469 C 226.660156 185.546875 224.257812 185.378906 221.824219 185.214844 L 225.535156 194.140625 L 230.222656 194.140625 L 230.222656 197.128906 Z M 47.558594 186.523438 C 45.285156 186.726562 43.054688 186.949219 40.875 187.167969 L 40.855469 187.167969 L 44.546875 196.074219 C 46.632812 195.761719 48.832031 195.484375 51.15625 195.191406 Z M 236.222656 186.320312 L 239.894531 195.191406 C 257.613281 197.347656 268.265625 200.113281 268.265625 203.140625 L 22.765625 203.140625 C 22.765625 202.050781 24.152344 201 26.753906 199.984375 C 29.355469 198.988281 33.160156 198.011719 38.03125 197.128906 L 34.191406 187.871094 C 3.738281 191.300781 -15.277344 196.132812 -15.277344 201.496094 C -15.277344 222.242188 55.625 239.082031 143.023438 239.082031 C 230.441406 239.082031 301.324219 222.242188 301.324219 201.496094 C 301.324219 195.265625 275.683594 189.734375 236.222656 186.320312 " fill-opacity="1" fill-rule="evenodd"/></g><g clip-path="url(#1adfac399f)"><path fill="#f3f6fa" d="M 107.4375 65.550781 L 68.820312 81.539062 L 68.800781 81.519531 C 67.324219 82.128906 65.628906 81.429688 65.019531 79.953125 C 64.390625 78.476562 65.109375 76.761719 66.585938 76.15625 L 66.585938 76.136719 L 105.183594 60.167969 L 105.203125 60.183594 C 106.679688 59.558594 108.378906 60.257812 108.988281 61.753906 C 109.613281 63.226562 108.914062 64.925781 107.4375 65.550781 Z M 229.003906 185.730469 L 225.996094 178.484375 L 225.164062 176.453125 L 171.226562 46.335938 L 166.910156 35.953125 C 166.890625 35.917969 166.871094 35.863281 166.855469 35.824219 L 161.148438 22.066406 L 166.855469 35.972656 C 164.859375 31.175781 160.671875 27.949219 155.925781 26.972656 C 155.851562 26.953125 155.777344 26.9375 155.6875 26.917969 C 153.285156 26.476562 150.738281 26.605469 148.285156 27.398438 L 147.582031 27.691406 L 147.398438 27.746094 C 147.324219 27.785156 147.269531 27.820312 147.214844 27.839844 L 14 82.960938 C 6.320312 86.132812 2.664062 94.945312 5.820312 102.617188 L 10.121094 113.019531 L 40.875 187.167969 L 44.546875 196.074219 L 45.007812 197.128906 L 51.96875 197.128906 L 51.15625 195.191406 L 47.558594 186.523438 L 18.816406 117.167969 L 168.015625 55.425781 L 221.824219 185.214844 L 225.535156 194.140625 L 226.769531 197.128906 L 233.746094 197.128906 L 229.003906 185.730469 " fill-opacity="1" fill-rule="evenodd"/></g><g clip-path="url(#1ca18a3aba)"><path fill="#f3f6fa" d="M 461.914062 0.316406 C 462.25 0.316406 462.585938 0.328125 462.917969 0.351562 C 463.546875 0.398438 464.171875 0.484375 464.789062 0.613281 C 465.578125 0.777344 466.355469 1.007812 467.105469 1.304688 C 467.910156 1.621094 468.6875 2.011719 469.421875 2.472656 C 470.175781 2.941406 470.882812 3.480469 471.535156 4.078125 C 472.269531 4.753906 472.933594 5.503906 473.511719 6.320312 C 474.054688 7.078125 474.523438 7.894531 474.90625 8.746094 C 475.289062 9.597656 475.585938 10.488281 475.792969 11.402344 C 475.941406 12.042969 476.042969 12.691406 476.097656 13.347656 C 476.128906 13.726562 476.148438 14.105469 476.148438 14.484375 C 476.597656 111.042969 476.597656 207.605469 476.148438 304.164062 C 476.148438 304.542969 476.128906 304.921875 476.097656 305.300781 C 476.042969 305.957031 475.941406 306.609375 475.792969 307.25 C 475.605469 308.074219 475.34375 308.886719 475.007812 309.664062 C 474.640625 310.527344 474.191406 311.347656 473.660156 312.121094 C 473.128906 312.898438 472.519531 313.621094 471.84375 314.277344 C 471.171875 314.9375 470.429688 315.527344 469.640625 316.039062 C 468.953125 316.488281 468.222656 316.875 467.46875 317.195312 C 466.6875 317.53125 465.875 317.792969 465.050781 317.980469 C 464.40625 318.125 463.753906 318.226562 463.101562 318.285156 C 462.71875 318.316406 462.339844 318.332031 461.960938 318.335938 C 414.070312 318.558594 366.183594 318.558594 318.292969 318.335938 C 317.914062 318.332031 317.535156 318.316406 317.15625 318.285156 C 316.5 318.226562 315.847656 318.125 315.203125 317.980469 C 314.378906 317.792969 313.566406 317.53125 312.785156 317.195312 C 311.871094 316.808594 311 316.324219 310.1875 315.753906 C 309.414062 315.210938 308.699219 314.59375 308.046875 313.914062 C 307.417969 313.253906 306.847656 312.53125 306.355469 311.761719 C 305.894531 311.046875 305.5 310.289062 305.175781 309.503906 C 304.863281 308.746094 304.617188 307.960938 304.441406 307.164062 C 304.296875 306.503906 304.195312 305.839844 304.144531 305.167969 C 304.121094 304.835938 304.105469 304.5 304.105469 304.164062 C 303.613281 207.605469 303.613281 111.046875 304.105469 14.488281 C 304.105469 14.152344 304.121094 13.820312 304.144531 13.484375 C 304.195312 12.8125 304.296875 12.148438 304.441406 11.492188 C 304.628906 10.648438 304.890625 9.820312 305.226562 9.027344 C 305.574219 8.207031 306 7.417969 306.496094 6.675781 C 307.003906 5.914062 307.585938 5.203125 308.226562 4.554688 C 308.867188 3.90625 309.574219 3.316406 310.328125 2.800781 C 311.078125 2.289062 311.875 1.851562 312.707031 1.488281 C 313.539062 1.128906 314.40625 0.847656 315.292969 0.652344 C 315.933594 0.511719 316.585938 0.414062 317.242188 0.363281 C 317.59375 0.335938 317.941406 0.320312 318.292969 0.316406 C 366.167969 0.0898438 414.039062 0.242188 461.914062 0.316406 Z M 394.574219 290.855469 L 385.648438 290.855469 C 382.140625 290.855469 379.292969 293.703125 379.292969 297.203125 L 379.292969 306.121094 C 379.292969 309.625 382.140625 312.46875 385.648438 312.46875 L 394.574219 312.46875 C 398.082031 312.46875 400.929688 309.625 400.929688 306.121094 L 400.929688 297.203125 C 400.929688 293.703125 398.082031 290.855469 394.574219 290.855469 Z M 392.902344 294.90625 C 395.09375 294.90625 396.875 296.683594 396.875 298.875 L 396.875 304.449219 C 396.875 306.640625 395.09375 308.417969 392.902344 308.417969 L 387.320312 308.417969 C 385.125 308.417969 383.34375 306.640625 383.34375 304.449219 L 383.34375 298.875 C 383.34375 296.683594 385.125 294.90625 387.320312 294.90625 Z M 471.125 22.390625 L 309.160156 22.390625 C 309.027344 110.066406 308.734375 197.742188 309.085938 285.425781 L 471.140625 285.425781 C 471.308594 197.746094 471.511719 110.074219 471.136719 22.390625 Z M 418.453125 8.8125 L 361.769531 8.8125 C 361.101562 8.8125 360.558594 9.355469 360.558594 10.023438 L 360.558594 12.449219 C 360.558594 13.117188 361.101562 13.660156 361.769531 13.660156 L 418.453125 13.660156 C 419.121094 13.660156 419.664062 13.117188 419.664062 12.449219 L 419.664062 10.023438 C 419.664062 9.355469 419.121094 8.8125 418.453125 8.8125 Z M 418.453125 8.8125 " fill-opacity="1" fill-rule="evenodd"/></g><path fill="#f3f6fa" d="M 392.1875 99.476562 C 391.304688 99.476562 390.570312 98.742188 390.570312 97.859375 L 390.570312 90.53125 C 390.570312 89.648438 391.304688 88.917969 392.1875 88.917969 C 393.070312 88.917969 393.800781 89.648438 393.800781 90.53125 L 393.800781 97.859375 C 393.785156 98.757812 393.070312 99.476562 392.1875 99.476562 Z M 392.1875 99.476562 " fill-opacity="1" fill-rule="nonzero"/><path fill="#f3f6fa" d="M 392.1875 207.667969 C 391.304688 207.667969 390.570312 206.933594 390.570312 206.050781 L 390.570312 198.726562 C 390.570312 197.84375 391.304688 197.109375 392.1875 197.109375 C 393.070312 197.109375 393.800781 197.84375 393.800781 198.726562 L 393.800781 206.050781 C 393.785156 206.933594 393.070312 207.667969 392.1875 207.667969 Z M 392.1875 207.667969 " fill-opacity="1" fill-rule="nonzero"/><path fill="#f3f6fa" d="M 449.9375 149.917969 L 442.609375 149.917969 C 441.726562 149.917969 440.996094 149.183594 440.996094 148.300781 C 440.996094 147.417969 441.726562 146.683594 442.609375 146.683594 L 449.9375 146.683594 C 450.820312 146.683594 451.554688 147.417969 451.554688 148.300781 C 451.554688 149.183594 450.820312 149.917969 449.9375 149.917969 Z M 449.9375 149.917969 " fill-opacity="1" fill-rule="nonzero"/><path fill="#f3f6fa" d="M 440.480469 181.304688 C 440.179688 181.304688 439.863281 181.222656 439.597656 181.058594 L 433.484375 177.042969 C 432.753906 176.558594 432.535156 175.5625 433.019531 174.828125 C 433.5 174.097656 434.5 173.878906 435.234375 174.363281 L 441.34375 178.375 C 442.078125 178.859375 442.292969 179.859375 441.8125 180.589844 C 441.527344 181.058594 441.011719 181.304688 440.480469 181.304688 Z M 440.480469 181.304688 " fill-opacity="1" fill-rule="nonzero"/><path fill="#f3f6fa" d="M 361.710938 199.875 C 361.414062 199.875 361.097656 199.789062 360.828125 199.625 C 360.097656 199.140625 359.878906 198.140625 360.363281 197.410156 L 364.375 191.296875 C 364.859375 190.566406 365.859375 190.347656 366.589844 190.832031 C 367.324219 191.316406 367.539062 192.3125 367.058594 193.046875 L 363.042969 199.15625 C 362.746094 199.609375 362.230469 199.875 361.710938 199.875 Z M 361.710938 199.875 " fill-opacity="1" fill-rule="nonzero"/><path fill="#f3f6fa" d="M 418.628906 105.71875 C 418.332031 105.71875 418.015625 105.636719 417.75 105.46875 C 417.015625 104.988281 416.800781 103.988281 417.28125 103.253906 L 421.296875 97.144531 C 421.777344 96.410156 422.777344 96.195312 423.511719 96.675781 C 424.242188 97.160156 424.460938 98.160156 423.976562 98.890625 L 419.964844 105.003906 C 419.679688 105.453125 419.164062 105.71875 418.628906 105.71875 Z M 418.628906 105.71875 " fill-opacity="1" fill-rule="nonzero"/><path fill="#f3f6fa" d="M 422.476562 199.972656 C 421.929688 199.972656 421.378906 199.691406 421.09375 199.175781 L 417.414062 192.847656 C 416.964844 192.082031 417.214844 191.097656 417.996094 190.648438 C 418.765625 190.199219 419.746094 190.449219 420.195312 191.230469 L 423.875 197.558594 C 424.324219 198.324219 424.078125 199.308594 423.292969 199.757812 C 423.042969 199.90625 422.777344 199.972656 422.476562 199.972656 Z M 422.476562 199.972656 " fill-opacity="1" fill-rule="nonzero"/><path fill="#f3f6fa" d="M 342.3125 181.140625 C 341.761719 181.140625 341.214844 180.855469 340.929688 180.339844 C 340.480469 179.574219 340.730469 178.59375 341.511719 178.140625 L 347.839844 174.460938 C 348.605469 174.011719 349.589844 174.261719 350.039062 175.046875 C 350.488281 175.8125 350.238281 176.792969 349.457031 177.242188 L 343.128906 180.921875 C 342.878906 181.089844 342.59375 181.140625 342.3125 181.140625 Z M 342.3125 181.140625 " fill-opacity="1" fill-rule="nonzero"/><path fill="#f3f6fa" d="M 435.714844 124.238281 C 435.167969 124.238281 434.617188 123.953125 434.335938 123.4375 C 433.882812 122.671875 434.132812 121.691406 434.917969 121.238281 L 441.246094 117.558594 C 442.011719 117.109375 442.992188 117.359375 443.441406 118.144531 C 443.894531 118.910156 443.644531 119.890625 442.859375 120.339844 L 436.53125 124.019531 C 436.28125 124.15625 435.984375 124.238281 435.714844 124.238281 Z M 435.714844 124.238281 " fill-opacity="1" fill-rule="nonzero"/><g clip-path="url(#19b158100d)"><path fill="#f3f6fa" d="M 367.855469 85.820312 C 374.367188 82.707031 381.460938 80.691406 388.722656 79.859375 C 390.539062 79.660156 392.371094 79.523438 394.203125 79.476562 L 396.949219 79.457031 C 397.183594 79.457031 397.414062 79.457031 397.632812 79.457031 L 398.316406 79.492188 L 399.695312 79.558594 L 401.078125 79.625 L 402.445312 79.757812 L 403.808594 79.890625 L 404.492188 79.957031 C 404.726562 79.992188 404.941406 80.023438 405.175781 80.058594 L 407.90625 80.457031 L 410.621094 80.992188 C 414.234375 81.789062 417.78125 82.855469 421.230469 84.203125 L 423.792969 85.285156 C 424.226562 85.453125 424.640625 85.671875 425.058594 85.871094 L 426.308594 86.46875 L 426.941406 86.769531 L 427.257812 86.917969 L 427.554688 87.085938 L 428.773438 87.75 L 430.003906 88.417969 C 430.203125 88.519531 430.402344 88.652344 430.605469 88.765625 L 431.203125 89.132812 L 432.402344 89.867188 L 433.003906 90.234375 C 433.203125 90.347656 433.386719 90.484375 433.585938 90.617188 L 435.898438 92.179688 L 438.132812 93.863281 C 438.3125 94.011719 438.515625 94.144531 438.679688 94.296875 L 439.214844 94.746094 L 440.296875 95.644531 C 443.144531 98.058594 445.808594 100.691406 448.253906 103.539062 C 450.671875 106.402344 452.867188 109.449219 454.832031 112.648438 L 455.550781 113.863281 C 455.78125 114.261719 456.03125 114.664062 456.25 115.078125 L 457.566406 117.578125 C 457.980469 118.425781 458.363281 119.273438 458.761719 120.125 L 459.0625 120.757812 C 459.164062 120.972656 459.246094 121.191406 459.328125 121.40625 L 459.863281 122.707031 L 460.394531 124.003906 L 460.863281 125.335938 L 461.328125 126.667969 C 461.410156 126.886719 461.496094 127.117188 461.5625 127.335938 L 461.761719 128.019531 C 462.027344 128.917969 462.308594 129.816406 462.558594 130.730469 L 463.226562 133.480469 C 464.027344 137.160156 464.558594 140.90625 464.808594 144.671875 C 465.007812 148.433594 464.925781 152.214844 464.558594 155.976562 L 464.226562 158.792969 L 464.175781 159.140625 L 464.109375 159.492188 L 463.992188 160.191406 L 463.742188 161.589844 L 463.625 162.289062 L 463.558594 162.640625 L 463.476562 162.988281 L 462.84375 165.753906 L 462.761719 166.101562 L 462.660156 166.4375 L 462.476562 167.117188 L 462.09375 168.484375 C 461.960938 168.933594 461.84375 169.398438 461.695312 169.847656 L 460.796875 172.53125 C 460.128906 174.296875 459.460938 176.0625 458.648438 177.777344 L 458.0625 179.074219 C 457.847656 179.492188 457.632812 179.925781 457.414062 180.339844 L 456.765625 181.605469 L 456.433594 182.238281 L 456.082031 182.855469 C 455.617188 183.671875 455.148438 184.503906 454.667969 185.304688 L 453.136719 187.683594 C 444.792969 200.257812 432.253906 210.03125 417.996094 215.011719 L 415.316406 215.894531 C 415.101562 215.976562 414.867188 216.027344 414.632812 216.09375 L 413.953125 216.277344 L 412.585938 216.644531 C 411.6875 216.910156 410.753906 217.09375 409.839844 217.292969 L 408.457031 217.59375 C 407.988281 217.691406 407.523438 217.757812 407.058594 217.84375 L 405.660156 218.074219 C 405.191406 218.160156 404.726562 218.242188 404.257812 218.292969 L 401.460938 218.625 C 401.230469 218.660156 400.996094 218.660156 400.761719 218.675781 L 400.0625 218.726562 L 398.648438 218.808594 C 397.714844 218.890625 396.765625 218.875 395.832031 218.890625 C 394.902344 218.910156 393.953125 218.925781 393.019531 218.875 C 392.085938 218.839844 391.136719 218.808594 390.203125 218.757812 L 387.40625 218.507812 C 387.175781 218.492188 386.941406 218.476562 386.707031 218.441406 L 386.007812 218.34375 L 384.609375 218.140625 C 384.144531 218.074219 383.675781 218.007812 383.210938 217.941406 L 380.445312 217.410156 C 380.214844 217.359375 379.980469 217.328125 379.765625 217.277344 L 379.082031 217.109375 C 378.164062 216.875 377.265625 216.660156 376.351562 216.425781 L 373.652344 215.609375 C 370.089844 214.460938 366.625 213.03125 363.292969 211.332031 L 360.828125 210.015625 C 360.628906 209.914062 360.429688 209.78125 360.230469 209.664062 L 359.628906 209.300781 L 358.433594 208.582031 L 357.832031 208.21875 C 357.632812 208.101562 357.449219 207.96875 357.25 207.835938 L 356.082031 207.050781 L 354.917969 206.269531 L 353.800781 205.4375 C 347.789062 201.054688 342.59375 195.628906 338.316406 189.597656 L 336.785156 187.300781 L 336.582031 187.019531 C 336.515625 186.917969 336.46875 186.820312 336.402344 186.71875 L 336.050781 186.117188 L 335.335938 184.9375 C 334.851562 184.152344 334.433594 183.339844 333.984375 182.523438 L 333.335938 181.304688 C 333.121094 180.890625 332.9375 180.472656 332.738281 180.058594 L 332.152344 178.808594 L 331.855469 178.191406 C 331.753906 177.976562 331.671875 177.777344 331.585938 177.558594 L 330.539062 175.011719 L 329.621094 172.429688 C 329.554688 172.214844 329.472656 171.996094 329.40625 171.78125 L 329.207031 171.113281 L 328.808594 169.800781 C 328.671875 169.367188 328.539062 168.933594 328.425781 168.484375 L 328.089844 167.152344 C 327.875 166.269531 327.640625 165.386719 327.492188 164.488281 L 327.242188 163.136719 L 327.109375 162.472656 C 327.074219 162.253906 327.023438 162.023438 326.992188 161.804688 L 326.625 159.109375 C 326.226562 155.496094 326.09375 151.863281 326.257812 148.265625 C 326.476562 151.863281 326.910156 155.445312 327.625 158.957031 L 328.207031 161.574219 C 328.257812 161.789062 328.324219 162.007812 328.375 162.222656 L 328.558594 162.871094 L 328.90625 164.171875 C 329.125 165.035156 329.421875 165.871094 329.691406 166.71875 L 330.105469 167.984375 C 330.253906 168.402344 330.421875 168.816406 330.570312 169.234375 L 331.039062 170.480469 L 331.269531 171.097656 C 331.355469 171.296875 331.453125 171.515625 331.539062 171.714844 L 332.605469 174.164062 L 333.785156 176.542969 C 333.886719 176.742188 333.984375 176.945312 334.085938 177.144531 L 334.402344 177.726562 L 335.050781 178.890625 C 336.800781 181.972656 338.75 184.921875 340.929688 187.683594 C 343.128906 190.433594 345.507812 193.011719 348.089844 195.394531 L 349.074219 196.277344 L 349.554688 196.710938 L 349.804688 196.925781 L 350.054688 197.144531 L 352.085938 198.808594 C 353.484375 199.875 354.867188 200.921875 356.332031 201.871094 L 357.414062 202.605469 L 359.648438 203.972656 C 359.832031 204.085938 360.015625 204.203125 360.214844 204.304688 L 360.78125 204.621094 L 361.929688 205.253906 L 362.496094 205.570312 C 362.679688 205.667969 362.878906 205.785156 363.078125 205.871094 L 365.425781 207 C 368.589844 208.449219 371.855469 209.648438 375.183594 210.597656 L 377.699219 211.265625 L 380.863281 211.949219 C 381.078125 211.980469 381.296875 212.015625 381.496094 212.046875 L 384.058594 212.445312 C 384.492188 212.496094 384.925781 212.546875 385.34375 212.597656 L 386.625 212.746094 L 387.273438 212.8125 C 387.492188 212.828125 387.707031 212.847656 387.921875 212.863281 L 390.503906 213.03125 C 391.371094 213.0625 392.238281 213.046875 393.085938 213.0625 C 393.953125 213.097656 394.816406 213.046875 395.667969 213.011719 C 396.53125 212.980469 397.398438 212.964844 398.25 212.863281 L 399.53125 212.746094 L 400.179688 212.695312 C 400.394531 212.679688 400.613281 212.664062 400.828125 212.628906 L 403.394531 212.28125 C 403.828125 212.230469 404.242188 212.148438 404.660156 212.0625 L 405.925781 211.832031 C 406.339844 211.746094 406.773438 211.679688 407.191406 211.582031 L 408.4375 211.28125 C 409.273438 211.082031 410.121094 210.898438 410.9375 210.632812 L 412.167969 210.265625 L 412.785156 210.082031 C 412.984375 210.015625 413.203125 209.964844 413.402344 209.882812 L 415.832031 209.03125 C 428.738281 204.289062 439.996094 195.34375 447.605469 183.9375 L 448.988281 181.773438 C 449.421875 181.039062 449.835938 180.289062 450.269531 179.542969 L 450.585938 178.992188 L 450.886719 178.425781 L 451.46875 177.277344 C 451.667969 176.894531 451.871094 176.511719 452.050781 176.128906 L 452.585938 174.960938 C 453.316406 173.414062 453.933594 171.8125 454.550781 170.214844 L 455.382812 167.785156 C 455.53125 167.386719 455.632812 166.96875 455.75 166.550781 L 456.097656 165.320312 L 456.28125 164.703125 L 456.367188 164.386719 L 456.433594 164.070312 L 456.730469 162.820312 L 457.03125 161.574219 L 457.097656 161.257812 L 457.148438 160.941406 L 457.265625 160.308594 L 457.496094 159.042969 L 457.613281 158.410156 L 457.679688 158.09375 L 457.730469 157.777344 L 458.082031 155.226562 C 458.445312 151.816406 458.5625 148.367188 458.464844 144.9375 C 458.296875 141.507812 457.882812 138.074219 457.214844 134.710938 L 456.664062 132.199219 L 456 129.699219 L 455.832031 129.082031 C 455.765625 128.882812 455.699219 128.667969 455.632812 128.46875 L 455.234375 127.234375 L 454.832031 126.003906 L 454.367188 124.789062 L 453.902344 123.570312 C 453.816406 123.371094 453.75 123.171875 453.667969 122.972656 L 453.402344 122.371094 C 453.050781 121.589844 452.71875 120.789062 452.351562 120.007812 L 451.203125 117.691406 C 451.019531 117.292969 450.804688 116.925781 450.585938 116.5625 L 449.953125 115.429688 C 448.253906 112.429688 446.308594 109.550781 444.160156 106.820312 C 441.976562 104.121094 439.613281 101.574219 437.046875 99.226562 L 436.082031 98.359375 L 435.601562 97.925781 C 435.433594 97.777344 435.265625 97.644531 435.101562 97.511719 L 433.085938 95.863281 L 430.988281 94.296875 C 430.804688 94.164062 430.636719 94.03125 430.453125 93.914062 L 429.90625 93.546875 L 428.820312 92.8125 C 425.90625 90.882812 422.84375 89.183594 419.664062 87.71875 C 416.464844 86.269531 413.167969 85.085938 409.773438 84.121094 L 407.222656 83.457031 L 404.644531 82.90625 C 404.425781 82.855469 404.210938 82.804688 403.992188 82.773438 L 403.34375 82.671875 L 402.027344 82.472656 L 400.710938 82.257812 L 399.398438 82.105469 L 398.082031 81.957031 L 397.414062 81.890625 C 397.199219 81.875 396.964844 81.855469 396.75 81.839844 L 394.101562 81.691406 C 392.335938 81.625 390.554688 81.625 388.773438 81.691406 C 381.746094 81.988281 374.652344 83.386719 367.855469 85.820312 Z M 367.855469 85.820312 " fill-opacity="1" fill-rule="nonzero"/></g><g clip-path="url(#b57ffdc809)"><path fill="#f3f6fa" d="M 326.308594 156.378906 L 337.582031 156.378906 L 331.9375 148.300781 L 326.308594 140.222656 L 315.019531 156.378906 Z M 326.308594 156.378906 " fill-opacity="1" fill-rule="nonzero"/></g><path fill="#f3f6fa" d="M 409.539062 147.300781 C 408.65625 145.1875 407.441406 143.320312 405.910156 141.773438 C 404.375 140.222656 402.5625 138.992188 400.53125 138.125 C 398.480469 137.242188 396.265625 136.792969 393.917969 136.792969 C 391.605469 136.792969 389.121094 137.375 386.492188 138.507812 L 387.875 130.632812 L 403.160156 130.632812 C 405.125 130.632812 406.675781 130.167969 407.738281 129.265625 C 408.871094 128.300781 409.457031 127.035156 409.457031 125.503906 C 409.457031 120.941406 405.375 120.257812 402.945312 120.257812 L 384.875 120.257812 C 382.59375 120.257812 380.878906 120.824219 379.796875 121.941406 C 378.746094 123.023438 378.066406 124.621094 377.699219 126.835938 L 374.816406 143.238281 C 374.417969 145.488281 374.417969 145.636719 374.417969 145.769531 C 374.417969 147.136719 374.984375 148.335938 376.082031 149.382812 C 377.164062 150.398438 378.429688 150.914062 379.863281 150.914062 C 381.164062 150.914062 382.679688 150.25 384.492188 148.882812 C 386.023438 147.71875 387.207031 146.902344 388.007812 146.453125 C 388.457031 146.1875 389.457031 145.886719 391.636719 145.886719 C 393.035156 145.886719 394.269531 146.203125 395.402344 146.867188 C 396.515625 147.519531 397.382812 148.5 398.066406 149.867188 C 398.746094 151.25 399.113281 152.964844 399.113281 154.960938 C 399.113281 156.808594 398.78125 158.492188 398.132812 159.925781 C 397.5 161.339844 396.632812 162.40625 395.46875 163.203125 C 394.335938 163.988281 393.035156 164.371094 391.503906 164.371094 C 389.820312 164.371094 388.339844 163.886719 386.992188 162.90625 C 385.609375 161.90625 384.492188 160.472656 383.675781 158.640625 C 382.261719 155.328125 379.996094 154.628906 378.332031 154.628906 C 376.882812 154.628906 375.652344 155.160156 374.683594 156.195312 C 373.734375 157.210938 373.253906 158.324219 373.253906 159.523438 C 373.253906 161.191406 373.820312 163.054688 374.984375 165.203125 C 376.148438 167.335938 378.113281 169.234375 380.828125 170.832031 C 383.542969 172.445312 387.089844 173.246094 391.371094 173.246094 C 395.21875 173.246094 398.664062 172.378906 401.613281 170.699219 C 404.574219 169 406.890625 166.667969 408.472656 163.769531 C 410.039062 160.890625 410.835938 157.660156 410.835938 154.179688 C 410.871094 151.714844 410.421875 149.417969 409.539062 147.300781 Z M 409.539062 147.300781 " fill-opacity="1" fill-rule="nonzero"/></svg>