<svg xmlns="http://www.w3.org/2000/svg" xmlns:xlink="http://www.w3.org/1999/xlink" width="687" zoomAndPan="magnify" viewBox="0 0 515.25 380.999991" height="508" preserveAspectRatio="xMidYMid meet" version="1.0"><defs><clipPath id="a6fc39d826"><path d="M 59 201 L 463 201 L 463 380.261719 L 59 380.261719 Z M 59 201 " clip-rule="nonzero"/></clipPath><clipPath id="374de02210"><path d="M 59 201 L 463 201 L 463 380.285156 L 59 380.285156 Z M 59 201 " clip-rule="nonzero"/></clipPath></defs><path fill="#f3f6fa" d="M 60.65625 287.019531 C 60.621094 287.019531 60.582031 287.015625 60.542969 287.007812 C 60.332031 286.949219 39.527344 281.390625 28.550781 277.167969 C 21.0625 274.296875 15.058594 271.117188 10.691406 267.71875 C 5.460938 263.644531 2.542969 259.214844 2.035156 254.550781 C 1.21875 247.144531 3.101562 240.550781 7.804688 234.40625 C 11.875 229.082031 17.511719 224.808594 22.480469 221.039062 C 26.535156 217.96875 30.355469 215.066406 32.730469 212.074219 C 39.167969 203.949219 42.941406 197.882812 44.429688 189.109375 C 45.429688 183.265625 45.472656 179.757812 41.898438 168.460938 C 39.746094 161.636719 39.199219 151.441406 39.0625 147.371094 C 39.058594 147.125 39.25 146.914062 39.5 146.90625 C 39.753906 146.898438 39.957031 147.09375 39.964844 147.34375 C 40.097656 151.375 40.636719 161.472656 42.757812 168.1875 C 46.394531 179.679688 46.34375 183.261719 45.324219 189.257812 C 43.796875 198.222656 39.96875 204.390625 33.4375 212.632812 C 30.996094 215.714844 27.125 218.652344 23.027344 221.757812 C 12.773438 229.53125 1.15625 238.34375 2.929688 254.453125 C 3.417969 258.867188 6.214844 263.085938 11.25 267.003906 C 15.542969 270.34375 21.46875 273.484375 28.875 276.328125 C 38.085938 279.867188 54.269531 284.363281 59.269531 285.726562 C 57.433594 283.707031 53.496094 279.226562 49.542969 273.835938 C 42.292969 263.945312 38.441406 255.855469 38.09375 249.785156 C 37.617188 241.375 38.164062 235.136719 39.886719 229.550781 C 41.890625 223.050781 45.59375 217.425781 51.207031 212.363281 C 58.003906 206.238281 63.421875 202.324219 68.203125 198.871094 C 75.40625 193.664062 80.609375 189.902344 85.421875 181.941406 C 88.527344 176.808594 90.242188 163.605469 91.753906 151.957031 C 92.632812 145.222656 93.457031 138.859375 94.453125 134.871094 C 94.515625 134.625 94.765625 134.480469 95.003906 134.542969 C 95.246094 134.597656 95.394531 134.847656 95.332031 135.085938 C 94.347656 139.027344 93.523438 145.367188 92.648438 152.074219 C 91.125 163.8125 89.394531 177.113281 86.195312 182.40625 C 81.289062 190.527344 76.019531 194.328125 68.730469 199.601562 C 63.96875 203.042969 58.574219 206.941406 51.8125 213.035156 C 40.042969 223.648438 38.175781 235.378906 38.996094 249.734375 C 39.328125 255.539062 43.226562 263.691406 50.269531 273.304688 C 55.617188 280.597656 60.929688 286.203125 60.984375 286.257812 C 61.125 286.402344 61.148438 286.625 61.046875 286.796875 C 60.960938 286.941406 60.816406 287.019531 60.65625 287.019531 " fill-opacity="1" fill-rule="nonzero"/><g clip-path="url(#a6fc39d826)"><path fill="#f3f6fa" d="M 122.671875 326.628906 C 122.835938 326.789062 123 326.945312 123.160156 327.105469 C 129.199219 332.949219 135.441406 339 142.988281 344.28125 C 155.121094 352.78125 165.1875 354.21875 171.339844 348.332031 C 173.628906 346.140625 175.222656 343.03125 175.824219 339.578125 C 176.351562 336.546875 175.996094 333.601562 174.902344 331.890625 C 170.5 325.019531 165.238281 321.683594 157.839844 321.070312 C 150.738281 320.488281 142.0625 322.355469 131.078125 324.722656 L 130.125 324.929688 C 127.480469 325.496094 125 326.0625 122.671875 326.628906 Z M 339.425781 331.214844 C 331.988281 332.414062 324.996094 333.875 318.761719 335.757812 C 300.027344 341.410156 290.714844 350.199219 290.289062 362.632812 C 290.164062 366.261719 294.441406 368.722656 297 369.863281 C 302.398438 372.269531 310.011719 373.449219 317.367188 373.027344 C 325.503906 372.554688 332.148438 370.222656 336.078125 366.457031 C 341.113281 361.628906 343.574219 354.78125 343.195312 346.636719 C 342.964844 341.625 341.664062 336.417969 339.425781 331.214844 Z M 139.542969 380.214844 C 129.429688 380.214844 121.101562 379.546875 114.109375 378.171875 C 104.800781 376.34375 97.859375 373.203125 93.476562 368.835938 C 89.566406 364.949219 87.589844 360.019531 87.589844 354.191406 C 87.589844 339.675781 92.589844 332.386719 118.636719 325.558594 C 113.640625 320.769531 108.710938 316.265625 102.988281 312.324219 C 89.65625 303.140625 70.042969 291.347656 60.285156 287.515625 C 59.765625 287.308594 59.507812 286.71875 59.710938 286.195312 C 59.921875 285.675781 60.503906 285.421875 61.027344 285.625 C 70.921875 289.511719 90.714844 301.402344 104.140625 310.65625 C 110.339844 314.925781 115.585938 319.796875 120.945312 324.964844 C 123.644531 324.292969 126.558594 323.617188 129.695312 322.945312 L 130.652344 322.738281 C 141.800781 320.335938 150.605469 318.441406 158.007812 319.050781 C 161.957031 319.375 165.3125 320.414062 168.269531 322.214844 C 171.414062 324.132812 174.144531 326.941406 176.613281 330.796875 C 179.425781 335.183594 178.34375 344.433594 172.746094 349.796875 C 168.734375 353.636719 159.378906 358.242188 141.824219 345.949219 C 134.148438 340.566406 127.839844 334.464844 121.742188 328.5625 C 121.277344 328.109375 120.816406 327.660156 120.351562 327.214844 C 108.5 330.25 100.949219 333.351562 96.421875 336.980469 C 90.757812 341.511719 89.621094 346.921875 89.621094 354.191406 C 89.621094 359.460938 91.398438 363.90625 94.910156 367.402344 C 102.195312 374.65625 116.8125 378.183594 139.570312 378.183594 C 139.800781 378.183594 140.035156 378.183594 140.269531 378.183594 C 144.382812 378.171875 157.859375 376.390625 173.296875 370.964844 C 186.949219 366.171875 206.027344 357.078125 219.390625 340.996094 C 227.933594 330.71875 232.324219 323.25 236.195312 316.664062 C 241.480469 307.679688 245.652344 300.582031 257.601562 290.605469 C 261.683594 287.199219 266.410156 285.015625 271.660156 284.117188 C 276.425781 283.300781 281.644531 283.53125 287.167969 284.808594 C 292.175781 285.96875 297.410156 287.980469 302.726562 290.785156 C 307.605469 293.355469 312.433594 296.53125 317.082031 300.226562 C 325.816406 307.164062 332.746094 314.933594 337.6875 323.316406 C 338.785156 325.191406 339.773438 327.078125 340.648438 328.964844 C 353.050781 327.042969 366.5625 325.820312 379.800781 324.621094 C 399.472656 322.839844 418.058594 321.15625 432.714844 317.394531 C 440.515625 315.394531 446.429688 312.992188 450.796875 310.0625 C 455.570312 306.855469 458.382812 303.089844 459.398438 298.546875 C 463.777344 279.011719 453.480469 270.058594 441.5625 259.683594 C 434.628906 253.65625 427.46875 247.425781 422.839844 238.589844 C 417.585938 228.550781 416.5625 216.664062 419.726562 202.25 C 419.84375 201.699219 420.386719 201.355469 420.9375 201.476562 C 421.480469 201.597656 421.832031 202.136719 421.707031 202.683594 C 414.886719 233.789062 429.125 246.175781 442.890625 258.152344 C 448.894531 263.375 454.566406 268.308594 458.28125 274.617188 C 460.300781 278.039062 461.554688 281.550781 462.113281 285.34375 C 462.734375 289.558594 462.496094 294.019531 461.382812 298.996094 C 460.261719 303.996094 457.082031 308.28125 451.933594 311.746094 C 447.371094 314.808594 441.246094 317.296875 433.21875 319.363281 C 418.410156 323.164062 399.746094 324.851562 379.984375 326.640625 C 366.972656 327.816406 353.691406 329.023438 341.492188 330.890625 C 343.71875 336.214844 344.996094 341.523438 345.226562 346.542969 C 345.425781 350.820312 344.875 354.808594 343.59375 358.410156 C 342.28125 362.09375 340.222656 365.292969 337.484375 367.917969 C 333.207031 372.019531 326.105469 374.554688 317.488281 375.054688 C 309.816406 375.496094 301.847656 374.25 296.171875 371.714844 C 290.949219 369.386719 288.136719 366.132812 288.257812 362.5625 C 288.382812 358.90625 289.214844 355.5 290.734375 352.4375 C 292.179688 349.527344 294.285156 346.839844 296.992188 344.445312 C 301.910156 340.105469 308.835938 336.628906 318.171875 333.8125 C 324.351562 331.949219 331.242188 330.496094 338.558594 329.296875 C 333.945312 319.582031 326.089844 309.972656 315.8125 301.8125 C 306.316406 294.269531 295.980469 288.933594 286.703125 286.785156 C 275.609375 284.214844 266.257812 286.027344 258.90625 292.164062 C 247.226562 301.914062 243.132812 308.875 237.945312 317.691406 C 234.035156 324.347656 229.601562 331.890625 220.953125 342.292969 C 215.007812 349.445312 207.476562 355.851562 198.578125 361.324219 C 191.234375 365.839844 182.957031 369.726562 173.972656 372.878906 C 158.285156 378.390625 144.496094 380.199219 140.273438 380.214844 C 140.03125 380.214844 139.785156 380.214844 139.542969 380.214844 " fill-opacity="1" fill-rule="nonzero"/></g><path fill="#f3f6fa" d="M 95.710938 308.976562 C 95.167969 308.976562 94.625 308.820312 94.144531 308.503906 C 85.148438 302.496094 76.460938 297.3125 69.6875 293.902344 C 68.296875 293.203125 67.738281 291.503906 68.4375 290.113281 C 69.140625 288.722656 70.835938 288.167969 72.230469 288.867188 C 79.199219 292.378906 88.097656 297.6875 97.28125 303.8125 C 98.574219 304.679688 98.925781 306.429688 98.058594 307.722656 C 97.515625 308.539062 96.617188 308.976562 95.710938 308.976562 " fill-opacity="1" fill-rule="nonzero"/><path fill="#f3f6fa" d="M 93.75 138.847656 L 94.105469 138.945312 C 95.003906 139.1875 95.9375 138.652344 96.179688 137.746094 L 96.25 137.492188 L 92.625 136.515625 L 92.550781 136.773438 C 92.308594 137.675781 92.84375 138.601562 93.75 138.847656 " fill-opacity="1" fill-rule="nonzero"/><path fill="#f3f6fa" d="M 89.753906 114.359375 C 90.710938 113.59375 92.15625 113.160156 93.589844 113.078125 C 94.335938 113.035156 95.714844 112.902344 97.15625 113.488281 C 99.003906 114.234375 100.042969 115.414062 100.542969 116.222656 C 102.265625 119.007812 101.730469 121.472656 99.269531 129.714844 C 98.375 132.722656 97.621094 136.460938 96.675781 137.382812 C 96.566406 137.496094 96.402344 137.53125 96.25 137.492188 L 92.625 136.515625 C 92.472656 136.476562 92.351562 136.355469 92.308594 136.207031 C 92.210938 135.855469 92.296875 135.417969 92.382812 134.863281 C 92.5 134.148438 92.601562 133.484375 92.832031 132.445312 C 93.164062 130.964844 93.132812 130.410156 93.109375 130.089844 C 93.074219 129.554688 93.0625 128.648438 92.140625 127.980469 C 91.414062 127.457031 90.992188 127.464844 89.917969 127.03125 C 88.988281 126.652344 88.46875 125.957031 87.992188 125.320312 C 87.664062 124.878906 86.074219 122.742188 86.503906 119.972656 C 86.886719 117.492188 88.101562 115.6875 89.753906 114.359375 " fill-opacity="1" fill-rule="nonzero"/><path fill="#f3f6fa" d="M 89.050781 114.613281 C 88.339844 118.074219 87.625 121.539062 86.910156 125.007812 C 86.761719 125.738281 86.160156 126.296875 85.414062 126.378906 C 84.476562 126.484375 83.222656 126.476562 81.847656 126.03125 C 81.226562 125.824219 78.574219 125.082031 77.210938 122.46875 C 75.734375 119.636719 76.175781 115.558594 78.902344 113.128906 C 81.3125 110.980469 84.6875 110.746094 87.070312 111.761719 C 87.429688 111.914062 87.753906 112.085938 88.042969 112.269531 C 88.835938 112.765625 89.238281 113.695312 89.050781 114.613281 " fill-opacity="1" fill-rule="nonzero"/><path fill="#f3f6fa" d="M 40.121094 155.6875 L 39.757812 155.742188 C 38.832031 155.878906 37.964844 155.242188 37.832031 154.316406 L 37.792969 154.054688 L 41.507812 153.503906 L 41.550781 153.765625 C 41.6875 154.691406 41.042969 155.550781 40.121094 155.6875 " fill-opacity="1" fill-rule="nonzero"/><path fill="#f3f6fa" d="M 46.9375 131.832031 C 46.078125 130.957031 44.6875 130.359375 43.273438 130.113281 C 42.542969 129.988281 41.183594 129.691406 39.691406 130.105469 C 37.765625 130.628906 36.597656 131.683594 36.007812 132.433594 C 33.96875 134.996094 34.214844 137.503906 35.695312 145.976562 C 36.238281 149.0625 36.550781 152.867188 37.378906 153.894531 C 37.484375 154.019531 37.636719 154.078125 37.792969 154.054688 L 41.507812 153.503906 C 41.664062 153.484375 41.796875 153.382812 41.855469 153.234375 C 41.992188 152.898438 41.964844 152.453125 41.9375 151.894531 C 41.90625 151.167969 41.882812 150.492188 41.769531 149.433594 C 41.617188 147.925781 41.707031 147.375 41.769531 147.066406 C 41.867188 146.539062 41.988281 145.640625 42.980469 145.082031 C 43.761719 144.648438 44.179688 144.707031 45.300781 144.394531 C 46.273438 144.128906 46.867188 143.5 47.410156 142.925781 C 47.789062 142.523438 49.621094 140.585938 49.511719 137.785156 C 49.425781 135.273438 48.425781 133.339844 46.9375 131.832031 " fill-opacity="1" fill-rule="nonzero"/><path fill="#f3f6fa" d="M 47.605469 132.164062 C 47.914062 135.6875 48.214844 139.210938 48.519531 142.734375 C 48.582031 143.484375 49.117188 144.101562 49.851562 144.277344 C 50.761719 144.488281 52.015625 144.625 53.433594 144.34375 C 54.070312 144.214844 56.792969 143.78125 58.453125 141.34375 C 60.25 138.703125 60.285156 134.597656 57.859375 131.871094 C 55.714844 129.457031 52.394531 128.832031 49.902344 129.5625 C 49.53125 129.675781 49.1875 129.808594 48.878906 129.953125 C 48.035156 130.355469 47.527344 131.234375 47.605469 132.164062 " fill-opacity="1" fill-rule="nonzero"/><path fill="#f3f6fa" d="M 462.195312 198.34375 L 385.988281 181.609375 C 378.4375 179.953125 373.667969 172.496094 375.324219 164.957031 L 408.808594 12.835938 C 410.46875 5.292969 417.933594 0.527344 425.480469 2.183594 L 501.691406 18.914062 C 509.238281 20.570312 514.011719 28.03125 512.355469 35.566406 L 478.871094 187.695312 C 477.207031 195.234375 469.746094 200 462.195312 198.34375 " fill-opacity="1" fill-rule="nonzero"/><path fill="#436286" d="M 469.035156 184.539062 L 385.578125 166.214844 C 384.179688 165.910156 383.292969 164.523438 383.597656 163.128906 L 415.539062 18.035156 C 415.847656 16.632812 417.230469 15.75 418.628906 16.058594 L 502.085938 34.378906 C 503.484375 34.6875 504.371094 36.074219 504.0625 37.46875 L 472.125 182.5625 C 471.816406 183.960938 470.433594 184.847656 469.035156 184.539062 " fill-opacity="1" fill-rule="nonzero"/><path fill="#436286" d="M 477.78125 21.390625 L 446.148438 14.445312 C 445.542969 14.3125 444.941406 14.699219 444.804688 15.304688 L 444.753906 15.546875 C 444.621094 16.152344 445.007812 16.753906 445.613281 16.886719 L 477.238281 23.832031 C 477.847656 23.964844 478.449219 23.582031 478.585938 22.972656 L 478.640625 22.734375 C 478.773438 22.125 478.386719 21.523438 477.78125 21.390625 " fill-opacity="1" fill-rule="nonzero"/><path fill="#436286" d="M 460.96875 131.566406 L 468.539062 133.226562 C 469.355469 133.40625 470.167969 132.890625 470.34375 132.070312 L 483.570312 71.980469 C 483.753906 71.164062 483.234375 70.355469 482.417969 70.179688 L 474.847656 68.515625 C 474.027344 68.335938 473.222656 68.855469 473.039062 69.667969 L 459.8125 129.757812 C 459.636719 130.578125 460.152344 131.386719 460.96875 131.566406 " fill-opacity="1" fill-rule="nonzero"/><path fill="#436286" d="M 443.171875 127.660156 L 450.738281 129.320312 C 451.554688 129.5 452.367188 128.984375 452.542969 128.164062 L 462.367188 83.5625 C 462.542969 82.742188 462.03125 81.9375 461.210938 81.753906 L 453.640625 80.09375 C 452.824219 79.914062 452.011719 80.429688 451.832031 81.246094 L 442.011719 125.851562 C 441.835938 126.671875 442.355469 127.476562 443.171875 127.660156 " fill-opacity="1" fill-rule="nonzero"/><path fill="#436286" d="M 425.375 123.75 L 432.941406 125.410156 C 433.761719 125.589844 434.566406 125.074219 434.75 124.257812 L 441.15625 95.140625 C 441.339844 94.320312 440.820312 93.511719 440.003906 93.332031 L 432.433594 91.671875 C 431.613281 91.488281 430.808594 92.007812 430.625 92.828125 L 424.21875 121.945312 C 424.035156 122.761719 424.554688 123.570312 425.375 123.75 " fill-opacity="1" fill-rule="nonzero"/><path fill="#436286" d="M 407.574219 119.84375 L 415.140625 121.503906 C 415.960938 121.683594 416.773438 121.167969 416.949219 120.347656 L 419.953125 106.714844 C 420.128906 105.902344 419.613281 105.089844 418.792969 104.914062 L 411.226562 103.253906 C 410.410156 103.070312 409.597656 103.589844 409.417969 104.402344 L 406.417969 118.035156 C 406.238281 118.855469 406.753906 119.664062 407.574219 119.84375 " fill-opacity="1" fill-rule="nonzero"/><path fill="#f3f6fa" d="M 420.121094 209.578125 L 419.464844 209.433594 C 417.789062 209.0625 416.734375 207.414062 417.101562 205.738281 L 421 188.011719 C 421.367188 186.335938 423.023438 185.28125 424.703125 185.644531 L 425.359375 185.792969 C 427.035156 186.160156 428.09375 187.816406 427.726562 189.488281 L 423.824219 207.214844 C 423.449219 208.886719 421.796875 209.945312 420.121094 209.578125 " fill-opacity="1" fill-rule="nonzero"/><path fill="#f3f6fa" d="M 60.65625 287.042969 C 60.621094 287.042969 60.582031 287.039062 60.542969 287.03125 C 60.332031 286.972656 39.527344 281.414062 28.550781 277.195312 C 21.0625 274.320312 15.058594 271.140625 10.691406 267.742188 C 5.460938 263.667969 2.542969 259.242188 2.035156 254.578125 C 1.21875 247.167969 3.101562 240.578125 7.804688 234.429688 C 11.875 229.109375 17.511719 224.832031 22.480469 221.066406 C 26.535156 217.996094 30.355469 215.089844 32.730469 212.101562 C 39.167969 203.972656 42.941406 197.90625 44.429688 189.132812 C 45.429688 183.292969 45.472656 179.785156 41.898438 168.488281 C 39.746094 161.660156 39.199219 151.46875 39.0625 147.398438 C 39.058594 147.148438 39.25 146.941406 39.5 146.933594 C 39.753906 146.921875 39.957031 147.117188 39.964844 147.371094 C 40.097656 151.402344 40.636719 161.496094 42.757812 168.210938 C 46.394531 179.703125 46.34375 183.289062 45.324219 189.285156 C 43.796875 198.246094 39.96875 204.417969 33.4375 212.660156 C 30.996094 215.742188 27.125 218.679688 23.027344 221.78125 C 12.773438 229.554688 1.15625 238.367188 2.929688 254.480469 C 3.417969 258.890625 6.214844 263.113281 11.25 267.03125 C 15.542969 270.371094 21.46875 273.511719 28.875 276.355469 C 38.085938 279.890625 54.269531 284.386719 59.269531 285.75 C 57.433594 283.730469 53.496094 279.25 49.542969 273.859375 C 42.292969 263.972656 38.441406 255.878906 38.09375 249.8125 C 37.617188 241.402344 38.164062 235.160156 39.886719 229.578125 C 41.890625 223.074219 45.59375 217.449219 51.207031 212.390625 C 58.003906 206.265625 63.421875 202.347656 68.203125 198.894531 C 75.40625 193.691406 80.609375 189.925781 85.421875 181.96875 C 88.527344 176.835938 90.242188 163.632812 91.753906 151.980469 C 92.632812 145.25 93.457031 138.886719 94.453125 134.894531 C 94.515625 134.652344 94.765625 134.503906 95.003906 134.566406 C 95.246094 134.625 95.394531 134.871094 95.332031 135.113281 C 94.347656 139.054688 93.523438 145.390625 92.648438 152.101562 C 91.125 163.835938 89.394531 177.140625 86.195312 182.433594 C 81.289062 190.550781 76.019531 194.355469 68.730469 199.625 C 63.96875 203.066406 58.574219 206.96875 51.8125 213.0625 C 40.042969 223.671875 38.175781 235.40625 38.996094 249.757812 C 39.328125 255.566406 43.226562 263.71875 50.269531 273.328125 C 55.617188 280.621094 60.929688 286.230469 60.984375 286.28125 C 61.125 286.429688 61.148438 286.652344 61.046875 286.824219 C 60.960938 286.964844 60.816406 287.042969 60.65625 287.042969 " fill-opacity="1" fill-rule="nonzero"/><g clip-path="url(#374de02210)"><path fill="#f3f6fa" d="M 122.671875 326.65625 C 122.835938 326.816406 123 326.96875 123.160156 327.128906 C 129.199219 332.976562 135.441406 339.023438 142.988281 344.308594 C 155.121094 352.808594 165.1875 354.242188 171.339844 348.355469 C 173.628906 346.164062 175.222656 343.054688 175.824219 339.605469 C 176.351562 336.570312 175.996094 333.625 174.902344 331.917969 C 170.5 325.042969 165.238281 321.707031 157.839844 321.097656 C 150.738281 320.511719 142.0625 322.382812 131.078125 324.746094 L 130.125 324.953125 C 127.480469 325.523438 125 326.089844 122.671875 326.65625 Z M 339.425781 331.238281 C 331.988281 332.4375 324.996094 333.902344 318.761719 335.78125 C 300.027344 341.433594 290.714844 350.226562 290.289062 362.65625 C 290.164062 366.289062 294.441406 368.746094 297 369.890625 C 302.398438 372.292969 310.011719 373.476562 317.367188 373.050781 C 325.503906 372.582031 332.148438 370.246094 336.078125 366.484375 C 341.113281 361.65625 343.574219 354.804688 343.195312 346.660156 C 342.964844 341.652344 341.664062 336.441406 339.425781 331.238281 Z M 139.542969 380.238281 C 129.429688 380.238281 121.101562 379.570312 114.109375 378.199219 C 104.800781 376.367188 97.859375 373.226562 93.476562 368.863281 C 89.566406 364.972656 87.589844 360.042969 87.589844 354.214844 C 87.589844 339.703125 92.589844 332.414062 118.636719 325.582031 C 113.640625 320.796875 108.710938 316.292969 102.988281 312.351562 C 89.65625 303.164062 70.042969 291.371094 60.285156 287.539062 C 59.765625 287.332031 59.507812 286.742188 59.710938 286.222656 C 59.921875 285.703125 60.503906 285.445312 61.027344 285.648438 C 70.921875 289.539062 90.714844 301.429688 104.140625 310.679688 C 110.339844 314.949219 115.585938 319.820312 120.945312 324.988281 C 123.644531 324.316406 126.558594 323.644531 129.695312 322.972656 L 130.652344 322.761719 C 141.800781 320.363281 150.605469 318.464844 158.007812 319.078125 C 161.957031 319.402344 165.3125 320.4375 168.269531 322.238281 C 171.414062 324.15625 174.144531 326.964844 176.613281 330.824219 C 179.425781 335.207031 178.34375 344.460938 172.746094 349.824219 C 168.734375 353.660156 159.378906 358.269531 141.824219 345.972656 C 134.148438 340.59375 127.839844 334.488281 121.742188 328.585938 C 121.277344 328.132812 120.816406 327.6875 120.351562 327.238281 C 108.5 330.273438 100.949219 333.378906 96.421875 337.003906 C 90.757812 341.535156 89.621094 346.949219 89.621094 354.214844 C 89.621094 359.484375 91.398438 363.933594 94.910156 367.425781 C 102.195312 374.679688 116.8125 378.210938 139.570312 378.210938 C 139.800781 378.210938 140.035156 378.210938 140.269531 378.210938 C 144.382812 378.199219 157.859375 376.417969 173.296875 370.992188 C 186.949219 366.195312 206.027344 357.101562 219.390625 341.023438 C 227.933594 330.742188 232.324219 323.277344 236.195312 316.691406 C 241.480469 307.703125 245.652344 300.605469 257.601562 290.632812 C 261.683594 287.226562 266.410156 285.042969 271.660156 284.144531 C 276.425781 283.324219 281.644531 283.554688 287.167969 284.835938 C 292.175781 285.996094 297.410156 288.003906 302.726562 290.808594 C 307.605469 293.382812 312.433594 296.558594 317.082031 300.25 C 325.816406 307.191406 332.746094 314.960938 337.6875 323.34375 C 338.785156 325.214844 339.773438 327.101562 340.648438 328.988281 C 353.050781 327.066406 366.5625 325.84375 379.800781 324.644531 C 399.472656 322.863281 418.058594 321.179688 432.714844 317.421875 C 440.515625 315.417969 446.429688 313.019531 450.796875 310.085938 C 455.570312 306.882812 458.382812 303.117188 459.398438 298.574219 C 463.777344 279.039062 453.480469 270.082031 441.5625 259.710938 C 434.628906 253.683594 427.46875 247.453125 422.839844 238.617188 C 417.585938 228.574219 416.5625 216.6875 419.726562 202.273438 C 419.84375 201.722656 420.386719 201.378906 420.9375 201.503906 C 421.480469 201.621094 421.832031 202.164062 421.707031 202.707031 C 414.886719 233.816406 429.125 246.203125 442.890625 258.179688 C 448.894531 263.398438 454.566406 268.332031 458.28125 274.644531 C 460.300781 278.0625 461.554688 281.574219 462.113281 285.371094 C 462.734375 289.582031 462.496094 294.046875 461.382812 299.019531 C 460.261719 304.019531 457.082031 308.308594 451.933594 311.769531 C 447.371094 314.835938 441.246094 317.324219 433.21875 319.386719 C 418.410156 323.1875 399.746094 324.875 379.984375 326.664062 C 366.972656 327.84375 353.691406 329.046875 341.492188 330.914062 C 343.71875 336.238281 344.996094 341.550781 345.226562 346.566406 C 345.425781 350.84375 344.875 354.835938 343.59375 358.4375 C 342.28125 362.121094 340.222656 365.320312 337.484375 367.945312 C 333.207031 372.046875 326.105469 374.578125 317.488281 375.078125 C 309.816406 375.523438 301.847656 374.273438 296.171875 371.742188 C 290.949219 369.410156 288.136719 366.160156 288.257812 362.585938 C 288.382812 358.933594 289.214844 355.527344 290.734375 352.460938 C 292.179688 349.550781 294.285156 346.863281 296.992188 344.472656 C 301.910156 340.132812 308.835938 336.65625 318.171875 333.839844 C 324.351562 331.972656 331.242188 330.523438 338.558594 329.320312 C 333.945312 319.609375 326.089844 310 315.8125 301.835938 C 306.316406 294.292969 295.980469 288.957031 286.703125 286.808594 C 275.609375 284.242188 266.257812 286.050781 258.90625 292.191406 C 247.226562 301.9375 243.132812 308.902344 237.945312 317.71875 C 234.035156 324.375 229.601562 331.917969 220.953125 342.320312 C 215.007812 349.472656 207.476562 355.875 198.578125 361.351562 C 191.234375 365.863281 182.957031 369.75 173.972656 372.90625 C 158.285156 378.414062 144.496094 380.226562 140.273438 380.238281 C 140.03125 380.238281 139.785156 380.238281 139.542969 380.238281 " fill-opacity="1" fill-rule="nonzero"/></g><path fill="#f3f6fa" d="M 95.710938 309.003906 C 95.167969 309.003906 94.625 308.847656 94.144531 308.527344 C 85.148438 302.523438 76.460938 297.335938 69.6875 293.925781 C 68.296875 293.226562 67.738281 291.53125 68.4375 290.140625 C 69.140625 288.75 70.835938 288.191406 72.230469 288.890625 C 79.199219 292.402344 88.097656 297.714844 97.28125 303.839844 C 98.574219 304.707031 98.925781 306.457031 98.058594 307.75 C 97.515625 308.5625 96.617188 309.003906 95.710938 309.003906 " fill-opacity="1" fill-rule="nonzero"/><path fill="#f3f6fa" d="M 93.75 138.871094 L 94.105469 138.96875 C 95.003906 139.210938 95.9375 138.675781 96.179688 137.773438 L 96.25 137.515625 L 92.625 136.542969 L 92.550781 136.796875 C 92.308594 137.703125 92.84375 138.628906 93.75 138.871094 " fill-opacity="1" fill-rule="nonzero"/><path fill="#f3f6fa" d="M 89.753906 114.386719 C 90.710938 113.617188 92.15625 113.183594 93.589844 113.105469 C 94.335938 113.0625 95.714844 112.929688 97.15625 113.511719 C 99.003906 114.261719 100.042969 115.4375 100.542969 116.25 C 102.265625 119.035156 101.730469 121.496094 99.269531 129.738281 C 98.375 132.746094 97.621094 136.484375 96.675781 137.410156 C 96.566406 137.519531 96.402344 137.554688 96.25 137.515625 L 92.625 136.542969 C 92.472656 136.503906 92.351562 136.382812 92.308594 136.230469 C 92.210938 135.882812 92.296875 135.445312 92.382812 134.890625 C 92.5 134.171875 92.601562 133.507812 92.832031 132.472656 C 93.164062 130.988281 93.132812 130.433594 93.109375 130.117188 C 93.074219 129.578125 93.0625 128.671875 92.140625 128.007812 C 91.414062 127.480469 90.992188 127.488281 89.917969 127.054688 C 88.988281 126.679688 88.46875 125.984375 87.992188 125.347656 C 87.664062 124.902344 86.074219 122.769531 86.503906 119.996094 C 86.886719 117.515625 88.101562 115.714844 89.753906 114.386719 " fill-opacity="1" fill-rule="nonzero"/><path fill="#f3f6fa" d="M 89.050781 114.636719 C 88.339844 118.101562 87.625 121.5625 86.910156 125.03125 C 86.761719 125.761719 86.160156 126.320312 85.414062 126.40625 C 84.476562 126.511719 83.222656 126.5 81.847656 126.054688 C 81.226562 125.851562 78.574219 125.105469 77.210938 122.492188 C 75.734375 119.664062 76.175781 115.585938 78.902344 113.152344 C 81.3125 111.003906 84.6875 110.769531 87.070312 111.785156 C 87.429688 111.941406 87.753906 112.113281 88.042969 112.292969 C 88.835938 112.789062 89.238281 113.71875 89.050781 114.636719 " fill-opacity="1" fill-rule="nonzero"/><path fill="#f3f6fa" d="M 40.121094 155.714844 L 39.757812 155.765625 C 38.832031 155.90625 37.964844 155.265625 37.832031 154.339844 L 37.792969 154.078125 L 41.507812 153.53125 L 41.550781 153.792969 C 41.6875 154.71875 41.042969 155.578125 40.121094 155.714844 " fill-opacity="1" fill-rule="nonzero"/><path fill="#f3f6fa" d="M 46.9375 131.855469 C 46.078125 130.984375 44.6875 130.386719 43.273438 130.136719 C 42.542969 130.015625 41.183594 129.71875 39.691406 130.128906 C 37.765625 130.65625 36.597656 131.710938 36.007812 132.457031 C 33.96875 135.023438 34.214844 137.53125 35.695312 146 C 36.238281 149.089844 36.550781 152.894531 37.378906 153.921875 C 37.484375 154.042969 37.636719 154.101562 37.792969 154.078125 L 41.507812 153.53125 C 41.664062 153.507812 41.796875 153.40625 41.855469 153.261719 C 41.992188 152.925781 41.964844 152.476562 41.9375 151.917969 C 41.90625 151.191406 41.882812 150.519531 41.769531 149.460938 C 41.617188 147.949219 41.707031 147.402344 41.769531 147.089844 C 41.867188 146.5625 41.988281 145.664062 42.980469 145.105469 C 43.761719 144.671875 44.179688 144.730469 45.300781 144.421875 C 46.273438 144.15625 46.867188 143.527344 47.410156 142.949219 C 47.789062 142.546875 49.621094 140.613281 49.511719 137.808594 C 49.425781 135.296875 48.425781 133.367188 46.9375 131.855469 " fill-opacity="1" fill-rule="nonzero"/><path fill="#f3f6fa" d="M 47.605469 132.1875 C 47.914062 135.714844 48.214844 139.234375 48.519531 142.761719 C 48.582031 143.507812 49.117188 144.128906 49.851562 144.300781 C 50.761719 144.515625 52.015625 144.652344 53.433594 144.367188 C 54.070312 144.238281 56.792969 143.804688 58.453125 141.371094 C 60.25 138.730469 60.285156 134.625 57.859375 131.894531 C 55.714844 129.484375 52.394531 128.859375 49.902344 129.589844 C 49.53125 129.699219 49.1875 129.832031 48.878906 129.980469 C 48.035156 130.382812 47.527344 131.257812 47.605469 132.1875 " fill-opacity="1" fill-rule="nonzero"/><path fill="#f3f6fa" d="M 462.195312 198.367188 L 385.988281 181.636719 C 378.4375 179.980469 373.667969 172.519531 375.324219 164.984375 L 408.808594 12.859375 C 410.46875 5.316406 417.933594 0.550781 425.480469 2.207031 L 501.691406 18.941406 C 509.238281 20.597656 514.011719 28.054688 512.355469 35.59375 L 478.871094 187.722656 C 477.207031 195.257812 469.746094 200.023438 462.195312 198.367188 " fill-opacity="1" fill-rule="nonzero"/><path fill="#436286" d="M 469.035156 184.5625 L 385.578125 166.242188 C 384.179688 165.9375 383.292969 164.550781 383.597656 163.15625 L 415.539062 18.058594 C 415.847656 16.660156 417.230469 15.773438 418.628906 16.085938 L 502.085938 34.40625 C 503.484375 34.710938 504.371094 36.097656 504.0625 37.492188 L 472.125 182.585938 C 471.816406 183.988281 470.433594 184.871094 469.035156 184.5625 " fill-opacity="1" fill-rule="nonzero"/><path fill="#436286" d="M 477.78125 21.417969 L 446.148438 14.472656 C 445.542969 14.339844 444.941406 14.722656 444.804688 15.332031 L 444.753906 15.570312 C 444.621094 16.175781 445.007812 16.78125 445.613281 16.914062 L 477.238281 23.855469 C 477.847656 23.988281 478.449219 23.609375 478.585938 22.996094 L 478.640625 22.757812 C 478.773438 22.152344 478.386719 21.550781 477.78125 21.417969 " fill-opacity="1" fill-rule="nonzero"/><path fill="#436286" d="M 460.96875 131.589844 L 468.539062 133.25 C 469.355469 133.433594 470.167969 132.914062 470.34375 132.09375 L 483.570312 72.007812 C 483.753906 71.191406 483.234375 70.378906 482.417969 70.203125 L 474.847656 68.542969 C 474.027344 68.359375 473.222656 68.878906 473.039062 69.695312 L 459.8125 129.785156 C 459.636719 130.601562 460.152344 131.414062 460.96875 131.589844 " fill-opacity="1" fill-rule="nonzero"/><path fill="#436286" d="M 443.171875 127.683594 L 450.738281 129.34375 C 451.554688 129.527344 452.367188 129.007812 452.542969 128.1875 L 462.367188 83.585938 C 462.542969 82.769531 462.03125 81.960938 461.210938 81.78125 L 453.640625 80.121094 C 452.824219 79.9375 452.011719 80.457031 451.832031 81.269531 L 442.011719 125.878906 C 441.835938 126.695312 442.355469 127.503906 443.171875 127.683594 " fill-opacity="1" fill-rule="nonzero"/><path fill="#436286" d="M 425.375 123.773438 L 432.941406 125.433594 C 433.761719 125.617188 434.566406 125.097656 434.75 124.28125 L 441.15625 95.164062 C 441.339844 94.34375 440.820312 93.539062 440.003906 93.355469 L 432.433594 91.695312 C 431.613281 91.515625 430.808594 92.03125 430.625 92.851562 L 424.21875 121.972656 C 424.035156 122.785156 424.554688 123.597656 425.375 123.773438 " fill-opacity="1" fill-rule="nonzero"/><path fill="#436286" d="M 407.574219 119.867188 L 415.140625 121.527344 C 415.960938 121.710938 416.773438 121.191406 416.949219 120.371094 L 419.953125 106.742188 C 420.128906 105.925781 419.613281 105.117188 418.792969 104.9375 L 411.226562 103.277344 C 410.410156 103.097656 409.597656 103.613281 409.417969 104.429688 L 406.417969 118.0625 C 406.238281 118.878906 406.753906 119.691406 407.574219 119.867188 " fill-opacity="1" fill-rule="nonzero"/><path fill="#f3f6fa" d="M 420.121094 209.601562 L 419.464844 209.457031 C 417.789062 209.089844 416.734375 207.4375 417.101562 205.761719 L 421 188.035156 C 421.367188 186.359375 423.023438 185.308594 424.703125 185.671875 L 425.359375 185.816406 C 427.035156 186.183594 428.09375 187.839844 427.726562 189.515625 L 423.824219 207.238281 C 423.449219 208.914062 421.796875 209.972656 420.121094 209.601562 " fill-opacity="1" fill-rule="nonzero"/></svg>