<svg xmlns="http://www.w3.org/2000/svg" xmlns:xlink="http://www.w3.org/1999/xlink" width="605" zoomAndPan="magnify" viewBox="0 0 453.75 363.749991" height="485" preserveAspectRatio="xMidYMid meet" version="1.0"><defs><g/><clipPath id="15ab08f334"><path d="M 310 0.3125 L 453.09375 0.3125 L 453.09375 363.261719 L 310 363.261719 Z M 310 0.3125 " clip-rule="nonzero"/></clipPath><clipPath id="0daea06bb5"><path d="M 370.035156 108.019531 L 417.4375 108.019531 L 417.4375 131.722656 L 370.035156 131.722656 Z M 370.035156 108.019531 " clip-rule="nonzero"/></clipPath><clipPath id="250bb4b24b"><path d="M 405.585938 108.019531 C 412.132812 108.019531 417.4375 113.324219 417.4375 119.871094 C 417.4375 126.414062 412.132812 131.722656 405.585938 131.722656 L 381.886719 131.722656 C 375.339844 131.722656 370.035156 126.414062 370.035156 119.871094 C 370.035156 113.324219 375.339844 108.019531 381.886719 108.019531 L 405.585938 108.019531 " clip-rule="nonzero"/></clipPath><clipPath id="95e0b7f89b"><path d="M 0.59375 0.3125 L 222.5625 0.3125 L 222.5625 363.261719 L 0.59375 363.261719 Z M 0.59375 0.3125 " clip-rule="nonzero"/></clipPath><clipPath id="06595a3f00"><path d="M 137.417969 107.921875 L 184.820312 107.921875 L 184.820312 131.621094 L 137.417969 131.621094 Z M 137.417969 107.921875 " clip-rule="nonzero"/></clipPath><clipPath id="37a5ba6a45"><path d="M 172.96875 107.921875 C 179.515625 107.921875 184.820312 113.226562 184.820312 119.773438 C 184.820312 126.316406 179.515625 131.621094 172.96875 131.621094 L 149.269531 131.621094 C 142.722656 131.621094 137.417969 126.316406 137.417969 119.773438 C 137.417969 113.226562 142.722656 107.921875 149.269531 107.921875 L 172.96875 107.921875 " clip-rule="nonzero"/></clipPath></defs><g clip-path="url(#15ab08f334)"><path fill="#f3f6fa" d="M 393.238281 18.554688 C 393.238281 20.875 391.347656 22.691406 389.097656 22.691406 C 386.773438 22.691406 384.957031 20.804688 384.957031 18.554688 C 384.957031 16.230469 386.84375 14.417969 389.097656 14.417969 C 391.347656 14.417969 393.238281 16.230469 393.238281 18.554688 Z M 437.769531 0.335938 L 340.425781 0.335938 C 331.925781 0.335938 325.097656 7.230469 325.023438 15.652344 L 325.023438 212.414062 C 325.605469 212.34375 326.113281 212.199219 326.621094 211.980469 L 328.65625 210.964844 C 328.945312 210.820312 329.238281 210.671875 329.527344 210.527344 C 329.527344 210.238281 329.527344 210.019531 329.527344 209.730469 L 329.527344 16.523438 C 329.601562 11.078125 333.960938 6.722656 339.40625 6.722656 L 438.785156 6.722656 C 444.234375 6.722656 448.589844 11.152344 448.589844 16.523438 L 448.589844 209.730469 C 448.589844 215.171875 444.160156 219.527344 438.785156 219.527344 L 437.695312 219.527344 C 436.96875 220.109375 436.460938 220.835938 436.097656 221.632812 L 432.464844 233.101562 L 431.59375 235.929688 L 437.769531 235.929688 C 446.195312 235.929688 453.09375 229.035156 453.09375 220.617188 L 453.09375 15.652344 C 453.09375 7.230469 446.195312 0.335938 437.769531 0.335938 Z M 434.570312 221.050781 C 435.078125 219.964844 435.734375 219.019531 436.679688 218.292969 C 436.824219 218.148438 436.96875 218.078125 437.042969 217.929688 C 439.292969 215.753906 439.367188 212.199219 437.1875 209.875 C 436.824219 209.441406 436.386719 209.148438 435.878906 208.859375 C 433.117188 207.335938 429.847656 207.191406 427.015625 208.570312 C 422.585938 210.746094 418.664062 213.941406 415.683594 217.859375 C 415.320312 218.367188 414.882812 218.875 414.59375 219.457031 L 408.566406 228.527344 C 407.621094 229.980469 405.660156 230.414062 404.207031 229.472656 C 403.914062 229.253906 403.625 229.035156 403.40625 228.671875 C 401.371094 225.988281 400.210938 222.792969 400.136719 219.457031 C 400.136719 218.949219 400.136719 218.441406 400.136719 217.859375 C 400.136719 217.859375 400.136719 217.785156 400.136719 217.785156 L 401.007812 206.679688 C 401.882812 194.707031 401.882812 182.65625 400.9375 170.683594 L 398.902344 145.496094 C 398.539062 140.632812 394.253906 137.003906 389.386719 137.367188 C 385.171875 137.730469 381.832031 140.996094 381.324219 145.132812 L 379.726562 158.054688 C 377.617188 175.835938 377.617188 193.835938 379.726562 211.617188 C 379.871094 212.5625 379.578125 213.429688 379 214.15625 C 378.417969 214.882812 377.546875 215.320312 376.675781 215.390625 C 376.019531 215.464844 375.292969 215.320312 374.710938 214.957031 L 369.117188 211.835938 C 363.890625 208.859375 357.351562 209.078125 352.339844 212.488281 L 351.757812 212.851562 C 349.941406 214.085938 347.542969 214.230469 345.582031 213.214844 L 343.910156 212.34375 C 339.988281 210.382812 335.484375 210.019531 331.34375 211.472656 C 330.835938 211.617188 330.328125 211.835938 329.890625 212.050781 L 329.457031 212.269531 L 327.421875 213.285156 C 326.695312 213.648438 325.894531 213.867188 325.097656 213.941406 C 324.589844 213.941406 324.007812 213.941406 323.5 213.867188 C 322.988281 213.792969 322.480469 213.578125 322.046875 213.359375 C 322.046875 213.359375 319.867188 211.472656 316.453125 211.398438 C 314.273438 211.328125 310.421875 212.414062 310.785156 217.929688 C 310.929688 220.835938 311.441406 223.449219 312.167969 225.40625 C 312.53125 226.496094 312.675781 227.585938 312.53125 228.746094 L 311.441406 235.714844 C 309.113281 251.101562 312.746094 286.375 321.390625 299.292969 L 321.539062 299.511719 C 323.351562 302.195312 324.296875 305.464844 324.152344 308.730469 L 321.753906 363.238281 L 392.4375 363.238281 L 391.640625 304.300781 C 391.566406 299.945312 393.382812 295.808594 396.578125 292.90625 L 396.652344 292.835938 L 404.0625 287.535156 C 415.320312 279.550781 424.039062 254.148438 429.339844 237.457031 C 429.484375 236.949219 429.703125 236.367188 429.847656 235.859375 C 430.210938 234.699219 430.574219 233.609375 430.867188 232.59375 L 434.5 221.050781 C 434.570312 221.125 434.570312 221.050781 434.570312 221.050781 Z M 439.4375 217.421875 C 441.398438 213.941406 440.164062 209.511719 436.679688 207.550781 C 433.480469 205.738281 429.632812 205.59375 426.289062 207.261719 C 421.277344 209.730469 416.917969 213.429688 413.722656 218.003906 L 401.664062 218.003906 L 402.535156 206.972656 C 403.480469 194.921875 403.40625 182.800781 402.460938 170.753906 L 400.429688 145.570312 C 399.992188 140.199219 395.488281 136.0625 390.039062 135.988281 C 384.738281 135.988281 380.304688 139.90625 379.726562 145.207031 L 378.199219 157.980469 C 376.09375 175.90625 376.09375 193.980469 378.199219 211.90625 C 378.199219 211.90625 378.199219 211.980469 378.199219 211.980469 C 378.273438 212.996094 377.546875 213.867188 376.527344 213.941406 C 376.164062 214.011719 375.800781 213.867188 375.4375 213.722656 L 369.84375 210.601562 C 364.105469 207.335938 356.988281 207.625 351.464844 211.328125 L 350.886719 211.761719 C 349.503906 212.632812 347.761719 212.777344 346.308594 212.050781 L 344.566406 211.179688 C 340.351562 209.078125 335.484375 208.714844 331.054688 210.164062 C 331.054688 210.09375 331.054688 210.019531 331.054688 209.949219 L 331.054688 16.523438 C 331.054688 11.949219 334.757812 8.246094 339.335938 8.246094 L 438.710938 8.246094 C 443.289062 8.246094 446.992188 11.949219 446.992188 16.523438 L 446.992188 209.730469 C 446.992188 214.15625 443.507812 217.785156 439.074219 218.003906 C 439.21875 217.785156 439.367188 217.640625 439.4375 217.421875 Z M 394.761719 18.554688 C 394.761719 15.433594 392.21875 12.820312 389.023438 12.820312 C 385.898438 12.820312 383.285156 15.359375 383.285156 18.554688 C 383.285156 21.675781 385.828125 24.289062 389.023438 24.289062 C 392.21875 24.214844 394.761719 21.675781 394.761719 18.554688 Z M 404.640625 227.800781 C 404.933594 228.238281 405.441406 228.457031 405.949219 228.457031 C 406.457031 228.457031 406.964844 228.164062 407.257812 227.730469 L 412.707031 219.527344 L 401.664062 219.527344 C 401.808594 222.503906 402.824219 225.40625 404.640625 227.800781 Z M 404.640625 227.800781 " fill-opacity="1" fill-rule="nonzero"/></g><g clip-path="url(#0daea06bb5)"><g clip-path="url(#250bb4b24b)"><path fill="#afc1d0" d="M 370.035156 108.019531 L 417.4375 108.019531 L 417.4375 131.722656 L 370.035156 131.722656 Z M 370.035156 108.019531 " fill-opacity="1" fill-rule="nonzero"/></g></g><g fill="#ffffff" fill-opacity="1"><g transform="translate(373.66709, 123.768035)"><g><path d="M 6.421875 0 L 5.53125 0 L 4.875 -1.953125 L 1.828125 -1.953125 L 1.15625 0 L 0.28125 0 L 2.78125 -7.140625 L 3.9375 -7.140625 Z M 3.28125 -6.28125 L 2.0625 -2.65625 L 4.625 -2.65625 L 3.40625 -6.28125 Z M 3.28125 -6.28125 "/></g></g></g><g fill="#ffffff" fill-opacity="1"><g transform="translate(380.372539, 123.768035)"><g><path d="M 3.09375 0.109375 C 2.613281 0.109375 2.1875 0 1.8125 -0.21875 C 1.4375 -0.4375 1.140625 -0.753906 0.921875 -1.171875 C 0.703125 -1.597656 0.59375 -2.101562 0.59375 -2.6875 C 0.59375 -3.28125 0.703125 -3.785156 0.921875 -4.203125 C 1.140625 -4.628906 1.4375 -4.945312 1.8125 -5.15625 C 2.1875 -5.375 2.613281 -5.484375 3.09375 -5.484375 C 3.664062 -5.484375 4.117188 -5.375 4.453125 -5.15625 C 4.785156 -4.945312 5.03125 -4.664062 5.1875 -4.3125 L 4.640625 -3.921875 L 4.546875 -3.921875 C 4.398438 -4.210938 4.210938 -4.425781 3.984375 -4.5625 C 3.753906 -4.707031 3.457031 -4.78125 3.09375 -4.78125 C 2.757812 -4.78125 2.46875 -4.703125 2.21875 -4.546875 C 1.96875 -4.390625 1.769531 -4.15625 1.625 -3.84375 C 1.488281 -3.53125 1.421875 -3.144531 1.421875 -2.6875 C 1.421875 -2.238281 1.488281 -1.859375 1.625 -1.546875 C 1.769531 -1.234375 1.96875 -1 2.21875 -0.84375 C 2.46875 -0.6875 2.757812 -0.609375 3.09375 -0.609375 C 3.46875 -0.609375 3.773438 -0.691406 4.015625 -0.859375 C 4.265625 -1.035156 4.457031 -1.304688 4.59375 -1.671875 L 4.703125 -1.671875 L 5.21875 -1.359375 C 5.082031 -0.898438 4.832031 -0.539062 4.46875 -0.28125 C 4.113281 -0.0195312 3.65625 0.109375 3.09375 0.109375 Z M 3.09375 0.109375 "/></g></g></g><g fill="#ffffff" fill-opacity="1"><g transform="translate(385.921377, 123.768035)"><g><path d="M 3.640625 -0.859375 L 3.890625 -0.28125 C 3.765625 -0.15625 3.597656 -0.0625 3.390625 0 C 3.191406 0.0703125 2.96875 0.109375 2.71875 0.109375 C 1.695312 0.109375 1.1875 -0.410156 1.1875 -1.453125 L 1.1875 -4.734375 L 0.25 -4.734375 L 0.25 -5.390625 L 1.1875 -5.390625 L 1.1875 -6.53125 L 1.984375 -6.65625 L 1.984375 -5.390625 L 3.71875 -5.390625 L 3.71875 -4.734375 L 1.984375 -4.734375 L 1.984375 -1.53125 C 1.984375 -0.914062 2.25 -0.609375 2.78125 -0.609375 C 3.070312 -0.609375 3.328125 -0.691406 3.546875 -0.859375 Z M 3.640625 -0.859375 "/></g></g></g><g fill="#ffffff" fill-opacity="1"><g transform="translate(390.020779, 123.768035)"><g><path d="M 1.34375 -6.421875 C 1.164062 -6.421875 1.023438 -6.472656 0.921875 -6.578125 C 0.816406 -6.691406 0.765625 -6.828125 0.765625 -6.984375 C 0.765625 -7.148438 0.816406 -7.285156 0.921875 -7.390625 C 1.023438 -7.492188 1.164062 -7.546875 1.34375 -7.546875 C 1.507812 -7.546875 1.644531 -7.492188 1.75 -7.390625 C 1.851562 -7.285156 1.90625 -7.148438 1.90625 -6.984375 C 1.90625 -6.828125 1.851562 -6.691406 1.75 -6.578125 C 1.644531 -6.472656 1.507812 -6.421875 1.34375 -6.421875 Z M 0.9375 0 L 0.9375 -5.390625 L 1.734375 -5.390625 L 1.734375 0 Z M 0.9375 0 "/></g></g></g><g fill="#ffffff" fill-opacity="1"><g transform="translate(392.690275, 123.768035)"><g><path d="M 3.40625 0 L 2.3125 0 L 0.265625 -5.390625 L 1.125 -5.390625 L 2.8125 -0.90625 L 2.9375 -0.90625 L 4.609375 -5.390625 L 5.453125 -5.390625 Z M 3.40625 0 "/></g></g></g><g fill="#ffffff" fill-opacity="1"><g transform="translate(398.395281, 123.768035)"><g><path d="M 2.21875 0.109375 C 1.6875 0.109375 1.269531 -0.03125 0.96875 -0.3125 C 0.675781 -0.59375 0.53125 -0.988281 0.53125 -1.5 C 0.53125 -1.820312 0.59375 -2.09375 0.71875 -2.3125 C 0.851562 -2.53125 1.0625 -2.707031 1.34375 -2.84375 C 1.625 -2.976562 1.984375 -3.085938 2.421875 -3.171875 C 2.816406 -3.234375 3.113281 -3.300781 3.3125 -3.375 C 3.519531 -3.457031 3.65625 -3.550781 3.71875 -3.65625 C 3.789062 -3.757812 3.828125 -3.882812 3.828125 -4.03125 C 3.828125 -4.28125 3.742188 -4.46875 3.578125 -4.59375 C 3.410156 -4.726562 3.144531 -4.796875 2.78125 -4.796875 C 2.425781 -4.796875 2.125 -4.726562 1.875 -4.59375 C 1.625 -4.457031 1.394531 -4.253906 1.1875 -3.984375 L 1.09375 -3.984375 L 0.703125 -4.546875 C 0.929688 -4.828125 1.21875 -5.050781 1.5625 -5.21875 C 1.914062 -5.394531 2.320312 -5.484375 2.78125 -5.484375 C 3.40625 -5.484375 3.867188 -5.34375 4.171875 -5.0625 C 4.472656 -4.789062 4.625 -4.410156 4.625 -3.921875 L 4.625 -1.0625 C 4.625 -0.757812 4.753906 -0.609375 5.015625 -0.609375 C 5.097656 -0.609375 5.175781 -0.625 5.25 -0.65625 L 5.328125 -0.640625 L 5.421875 -0.078125 C 5.359375 -0.046875 5.28125 -0.0195312 5.1875 0 C 5.09375 0.03125 4.992188 0.046875 4.890625 0.046875 C 4.585938 0.046875 4.359375 -0.0195312 4.203125 -0.15625 C 4.054688 -0.289062 3.960938 -0.484375 3.921875 -0.734375 L 3.828125 -0.75 C 3.671875 -0.457031 3.460938 -0.238281 3.203125 -0.09375 C 2.941406 0.0390625 2.613281 0.109375 2.21875 0.109375 Z M 2.390625 -0.53125 C 2.691406 -0.53125 2.953125 -0.597656 3.171875 -0.734375 C 3.390625 -0.878906 3.554688 -1.078125 3.671875 -1.328125 C 3.796875 -1.578125 3.859375 -1.863281 3.859375 -2.1875 L 3.859375 -2.875 L 3.765625 -2.890625 C 3.640625 -2.804688 3.488281 -2.734375 3.3125 -2.671875 C 3.144531 -2.617188 2.910156 -2.570312 2.609375 -2.53125 C 2.296875 -2.488281 2.046875 -2.421875 1.859375 -2.328125 C 1.671875 -2.242188 1.535156 -2.132812 1.453125 -2 C 1.378906 -1.863281 1.34375 -1.695312 1.34375 -1.5 C 1.34375 -1.1875 1.4375 -0.945312 1.625 -0.78125 C 1.8125 -0.613281 2.066406 -0.53125 2.390625 -0.53125 Z M 2.390625 -0.53125 "/></g></g></g><g fill="#ffffff" fill-opacity="1"><g transform="translate(403.96364, 123.768035)"><g><path d="M 3.640625 -0.859375 L 3.890625 -0.28125 C 3.765625 -0.15625 3.597656 -0.0625 3.390625 0 C 3.191406 0.0703125 2.96875 0.109375 2.71875 0.109375 C 1.695312 0.109375 1.1875 -0.410156 1.1875 -1.453125 L 1.1875 -4.734375 L 0.25 -4.734375 L 0.25 -5.390625 L 1.1875 -5.390625 L 1.1875 -6.53125 L 1.984375 -6.65625 L 1.984375 -5.390625 L 3.71875 -5.390625 L 3.71875 -4.734375 L 1.984375 -4.734375 L 1.984375 -1.53125 C 1.984375 -0.914062 2.25 -0.609375 2.78125 -0.609375 C 3.070312 -0.609375 3.328125 -0.691406 3.546875 -0.859375 Z M 3.640625 -0.859375 "/></g></g></g><g fill="#ffffff" fill-opacity="1"><g transform="translate(408.063042, 123.768035)"><g><path d="M 5.125 -2.515625 L 1.4375 -2.515625 C 1.457031 -1.859375 1.613281 -1.375 1.90625 -1.0625 C 2.195312 -0.757812 2.59375 -0.609375 3.09375 -0.609375 C 3.476562 -0.609375 3.785156 -0.675781 4.015625 -0.8125 C 4.253906 -0.945312 4.441406 -1.160156 4.578125 -1.453125 L 4.6875 -1.453125 L 5.203125 -1.15625 C 5.046875 -0.757812 4.796875 -0.445312 4.453125 -0.21875 C 4.109375 0 3.65625 0.109375 3.09375 0.109375 C 2.570312 0.109375 2.125 0.00390625 1.75 -0.203125 C 1.382812 -0.410156 1.097656 -0.722656 0.890625 -1.140625 C 0.691406 -1.554688 0.59375 -2.070312 0.59375 -2.6875 C 0.59375 -3.300781 0.695312 -3.816406 0.90625 -4.234375 C 1.125 -4.660156 1.414062 -4.972656 1.78125 -5.171875 C 2.15625 -5.378906 2.578125 -5.484375 3.046875 -5.484375 C 3.742188 -5.484375 4.285156 -5.289062 4.671875 -4.90625 C 5.054688 -4.519531 5.25 -3.941406 5.25 -3.171875 C 5.25 -2.867188 5.242188 -2.664062 5.234375 -2.5625 Z M 4.46875 -3.171875 C 4.457031 -3.742188 4.328125 -4.160156 4.078125 -4.421875 C 3.835938 -4.679688 3.492188 -4.8125 3.046875 -4.8125 C 2.578125 -4.8125 2.207031 -4.679688 1.9375 -4.421875 C 1.664062 -4.160156 1.503906 -3.742188 1.453125 -3.171875 Z M 4.46875 -3.171875 "/></g></g></g><g clip-path="url(#95e0b7f89b)"><path fill="#f3f6fa" d="M 222.359375 8.296875 L 222.359375 233.542969 C 222.359375 237.972656 218.800781 241.527344 214.367188 241.527344 L 152.597656 241.527344 C 153.761719 237.316406 155.359375 233.179688 157.324219 229.332031 L 211.53125 229.332031 C 216.328125 229.332031 220.179688 225.484375 220.179688 220.695312 L 220.179688 12.796875 C 220.179688 8.007812 216.328125 4.160156 211.53125 4.160156 L 105.800781 4.160156 C 101.003906 4.160156 97.152344 8.007812 97.152344 12.796875 L 97.152344 178.738281 C 96.136719 166.761719 95.046875 149.992188 95.046875 135.472656 L 95.046875 8.296875 C 95.046875 3.867188 98.609375 0.3125 103.039062 0.3125 L 214.441406 0.3125 C 218.800781 0.3125 222.359375 3.867188 222.359375 8.296875 Z M 98.609375 194.488281 L 98.609375 12.796875 C 98.609375 8.878906 101.804688 5.609375 105.730469 5.609375 L 211.53125 5.609375 C 215.53125 5.609375 218.726562 8.804688 218.726562 12.796875 L 218.726562 220.695312 C 218.726562 224.6875 215.53125 227.882812 211.53125 227.882812 L 158.121094 227.882812 C 162.117188 220.695312 166.695312 216.265625 170.839844 212.273438 C 174.617188 208.644531 177.886719 205.449219 179.921875 201.023438 C 184.574219 190.714844 185.226562 183.238281 181.738281 179.535156 C 178.613281 176.195312 172.4375 176.050781 163.71875 179.101562 C 152.234375 183.164062 137.703125 195.144531 131.527344 216.339844 C 129.636719 222.871094 126.222656 227.011719 122.078125 227.882812 L 118.375 227.882812 C 111.035156 226.355469 102.3125 215.757812 98.609375 194.488281 Z M 153.253906 13.667969 C 153.253906 16.644531 155.722656 19.039062 158.703125 19.039062 C 161.683594 19.039062 164.082031 16.570312 164.082031 13.59375 C 164.082031 10.617188 161.683594 8.222656 158.703125 8.222656 C 155.722656 8.222656 153.253906 10.617188 153.253906 13.667969 C 153.253906 13.59375 153.253906 13.59375 153.253906 13.667969 Z M 156.378906 227.882812 C 160.519531 220.113281 165.390625 215.394531 169.820312 211.1875 C 173.527344 207.628906 176.652344 204.578125 178.542969 200.371094 C 182.902344 190.640625 183.628906 183.746094 180.648438 180.550781 C 177.960938 177.648438 172.292969 177.648438 164.226562 180.550781 C 150.203125 185.488281 137.921875 199.714844 132.980469 216.773438 C 131.453125 222.074219 128.984375 225.847656 125.859375 227.953125 C 124.769531 228.679688 123.53125 229.1875 122.222656 229.476562 C 121.351562 229.625 120.554688 229.695312 119.679688 229.625 C 119.171875 229.625 118.738281 229.550781 118.300781 229.476562 C 116.917969 229.1875 115.613281 228.679688 114.375 227.953125 C 108.417969 224.542969 102.242188 216.050781 98.609375 201.675781 C 98.027344 199.5 97.589844 197.25 97.082031 194.78125 C 96.425781 191.152344 97.082031 194.707031 97.082031 194.636719 C 96.9375 193.402344 95.917969 183.457031 94.972656 170.609375 C 94.175781 159.792969 93.449219 147.015625 93.449219 135.546875 L 93.449219 78.707031 C 93.449219 74.351562 88.941406 71.957031 84.65625 71.886719 C 78.769531 71.8125 71.867188 75.878906 71.574219 87.492188 C 71.429688 93.515625 70.777344 103.097656 70.050781 113.261719 C 69.105469 127.5625 68.085938 142.371094 68.378906 148.976562 C 68.886719 160.808594 63.074219 195.507812 52.027344 216.773438 C 38.074219 243.707031 38.003906 268.3125 38.003906 268.53125 C 38.003906 268.675781 38.003906 268.75 37.929688 268.894531 L 0.796875 340.542969 L 86.109375 363.261719 L 113.941406 313.609375 C 114.085938 313.390625 114.375 313.246094 114.59375 313.246094 C 114.667969 313.246094 121.859375 313.539062 129.492188 307.875 C 136.539062 302.578125 145.261719 290.890625 147.222656 265.265625 C 147.730469 257.789062 148.820312 250.382812 150.636719 243.125 C 150.78125 242.617188 150.929688 242.109375 151.074219 241.601562 C 152.234375 237.390625 153.761719 233.324219 155.652344 229.40625 C 155.871094 228.824219 156.160156 228.316406 156.378906 227.882812 Z M 158.703125 17.515625 C 160.882812 17.515625 162.628906 15.773438 162.628906 13.59375 C 162.628906 11.417969 160.882812 9.675781 158.703125 9.675781 C 156.523438 9.675781 154.78125 11.417969 154.78125 13.59375 C 154.78125 15.773438 156.523438 17.515625 158.703125 17.515625 Z M 158.703125 17.515625 " fill-opacity="1" fill-rule="nonzero"/></g><g clip-path="url(#06595a3f00)"><g clip-path="url(#37a5ba6a45)"><path fill="#afc1d0" d="M 137.417969 107.921875 L 184.820312 107.921875 L 184.820312 131.621094 L 137.417969 131.621094 Z M 137.417969 107.921875 " fill-opacity="1" fill-rule="nonzero"/></g></g><g fill="#ffffff" fill-opacity="1"><g transform="translate(141.050197, 123.669791)"><g><path d="M 6.421875 0 L 5.53125 0 L 4.875 -1.953125 L 1.828125 -1.953125 L 1.15625 0 L 0.28125 0 L 2.78125 -7.140625 L 3.9375 -7.140625 Z M 3.28125 -6.28125 L 2.0625 -2.65625 L 4.625 -2.65625 L 3.40625 -6.28125 Z M 3.28125 -6.28125 "/></g></g></g><g fill="#ffffff" fill-opacity="1"><g transform="translate(147.755646, 123.669791)"><g><path d="M 3.09375 0.109375 C 2.613281 0.109375 2.1875 0 1.8125 -0.21875 C 1.4375 -0.4375 1.140625 -0.753906 0.921875 -1.171875 C 0.703125 -1.597656 0.59375 -2.101562 0.59375 -2.6875 C 0.59375 -3.28125 0.703125 -3.785156 0.921875 -4.203125 C 1.140625 -4.628906 1.4375 -4.945312 1.8125 -5.15625 C 2.1875 -5.375 2.613281 -5.484375 3.09375 -5.484375 C 3.664062 -5.484375 4.117188 -5.375 4.453125 -5.15625 C 4.785156 -4.945312 5.03125 -4.664062 5.1875 -4.3125 L 4.640625 -3.921875 L 4.546875 -3.921875 C 4.398438 -4.210938 4.210938 -4.425781 3.984375 -4.5625 C 3.753906 -4.707031 3.457031 -4.78125 3.09375 -4.78125 C 2.757812 -4.78125 2.46875 -4.703125 2.21875 -4.546875 C 1.96875 -4.390625 1.769531 -4.15625 1.625 -3.84375 C 1.488281 -3.53125 1.421875 -3.144531 1.421875 -2.6875 C 1.421875 -2.238281 1.488281 -1.859375 1.625 -1.546875 C 1.769531 -1.234375 1.96875 -1 2.21875 -0.84375 C 2.46875 -0.6875 2.757812 -0.609375 3.09375 -0.609375 C 3.46875 -0.609375 3.773438 -0.691406 4.015625 -0.859375 C 4.265625 -1.035156 4.457031 -1.304688 4.59375 -1.671875 L 4.703125 -1.671875 L 5.21875 -1.359375 C 5.082031 -0.898438 4.832031 -0.539062 4.46875 -0.28125 C 4.113281 -0.0195312 3.65625 0.109375 3.09375 0.109375 Z M 3.09375 0.109375 "/></g></g></g><g fill="#ffffff" fill-opacity="1"><g transform="translate(153.304484, 123.669791)"><g><path d="M 3.640625 -0.859375 L 3.890625 -0.28125 C 3.765625 -0.15625 3.597656 -0.0625 3.390625 0 C 3.191406 0.0703125 2.96875 0.109375 2.71875 0.109375 C 1.695312 0.109375 1.1875 -0.410156 1.1875 -1.453125 L 1.1875 -4.734375 L 0.25 -4.734375 L 0.25 -5.390625 L 1.1875 -5.390625 L 1.1875 -6.53125 L 1.984375 -6.65625 L 1.984375 -5.390625 L 3.71875 -5.390625 L 3.71875 -4.734375 L 1.984375 -4.734375 L 1.984375 -1.53125 C 1.984375 -0.914062 2.25 -0.609375 2.78125 -0.609375 C 3.070312 -0.609375 3.328125 -0.691406 3.546875 -0.859375 Z M 3.640625 -0.859375 "/></g></g></g><g fill="#ffffff" fill-opacity="1"><g transform="translate(157.403886, 123.669791)"><g><path d="M 1.34375 -6.421875 C 1.164062 -6.421875 1.023438 -6.472656 0.921875 -6.578125 C 0.816406 -6.691406 0.765625 -6.828125 0.765625 -6.984375 C 0.765625 -7.148438 0.816406 -7.285156 0.921875 -7.390625 C 1.023438 -7.492188 1.164062 -7.546875 1.34375 -7.546875 C 1.507812 -7.546875 1.644531 -7.492188 1.75 -7.390625 C 1.851562 -7.285156 1.90625 -7.148438 1.90625 -6.984375 C 1.90625 -6.828125 1.851562 -6.691406 1.75 -6.578125 C 1.644531 -6.472656 1.507812 -6.421875 1.34375 -6.421875 Z M 0.9375 0 L 0.9375 -5.390625 L 1.734375 -5.390625 L 1.734375 0 Z M 0.9375 0 "/></g></g></g><g fill="#ffffff" fill-opacity="1"><g transform="translate(160.073383, 123.669791)"><g><path d="M 3.40625 0 L 2.3125 0 L 0.265625 -5.390625 L 1.125 -5.390625 L 2.8125 -0.90625 L 2.9375 -0.90625 L 4.609375 -5.390625 L 5.453125 -5.390625 Z M 3.40625 0 "/></g></g></g><g fill="#ffffff" fill-opacity="1"><g transform="translate(165.778389, 123.669791)"><g><path d="M 2.21875 0.109375 C 1.6875 0.109375 1.269531 -0.03125 0.96875 -0.3125 C 0.675781 -0.59375 0.53125 -0.988281 0.53125 -1.5 C 0.53125 -1.820312 0.59375 -2.09375 0.71875 -2.3125 C 0.851562 -2.53125 1.0625 -2.707031 1.34375 -2.84375 C 1.625 -2.976562 1.984375 -3.085938 2.421875 -3.171875 C 2.816406 -3.234375 3.113281 -3.300781 3.3125 -3.375 C 3.519531 -3.457031 3.65625 -3.550781 3.71875 -3.65625 C 3.789062 -3.757812 3.828125 -3.882812 3.828125 -4.03125 C 3.828125 -4.28125 3.742188 -4.46875 3.578125 -4.59375 C 3.410156 -4.726562 3.144531 -4.796875 2.78125 -4.796875 C 2.425781 -4.796875 2.125 -4.726562 1.875 -4.59375 C 1.625 -4.457031 1.394531 -4.253906 1.1875 -3.984375 L 1.09375 -3.984375 L 0.703125 -4.546875 C 0.929688 -4.828125 1.21875 -5.050781 1.5625 -5.21875 C 1.914062 -5.394531 2.320312 -5.484375 2.78125 -5.484375 C 3.40625 -5.484375 3.867188 -5.34375 4.171875 -5.0625 C 4.472656 -4.789062 4.625 -4.410156 4.625 -3.921875 L 4.625 -1.0625 C 4.625 -0.757812 4.753906 -0.609375 5.015625 -0.609375 C 5.097656 -0.609375 5.175781 -0.625 5.25 -0.65625 L 5.328125 -0.640625 L 5.421875 -0.078125 C 5.359375 -0.046875 5.28125 -0.0195312 5.1875 0 C 5.09375 0.03125 4.992188 0.046875 4.890625 0.046875 C 4.585938 0.046875 4.359375 -0.0195312 4.203125 -0.15625 C 4.054688 -0.289062 3.960938 -0.484375 3.921875 -0.734375 L 3.828125 -0.75 C 3.671875 -0.457031 3.460938 -0.238281 3.203125 -0.09375 C 2.941406 0.0390625 2.613281 0.109375 2.21875 0.109375 Z M 2.390625 -0.53125 C 2.691406 -0.53125 2.953125 -0.597656 3.171875 -0.734375 C 3.390625 -0.878906 3.554688 -1.078125 3.671875 -1.328125 C 3.796875 -1.578125 3.859375 -1.863281 3.859375 -2.1875 L 3.859375 -2.875 L 3.765625 -2.890625 C 3.640625 -2.804688 3.488281 -2.734375 3.3125 -2.671875 C 3.144531 -2.617188 2.910156 -2.570312 2.609375 -2.53125 C 2.296875 -2.488281 2.046875 -2.421875 1.859375 -2.328125 C 1.671875 -2.242188 1.535156 -2.132812 1.453125 -2 C 1.378906 -1.863281 1.34375 -1.695312 1.34375 -1.5 C 1.34375 -1.1875 1.4375 -0.945312 1.625 -0.78125 C 1.8125 -0.613281 2.066406 -0.53125 2.390625 -0.53125 Z M 2.390625 -0.53125 "/></g></g></g><g fill="#ffffff" fill-opacity="1"><g transform="translate(171.346748, 123.669791)"><g><path d="M 3.640625 -0.859375 L 3.890625 -0.28125 C 3.765625 -0.15625 3.597656 -0.0625 3.390625 0 C 3.191406 0.0703125 2.96875 0.109375 2.71875 0.109375 C 1.695312 0.109375 1.1875 -0.410156 1.1875 -1.453125 L 1.1875 -4.734375 L 0.25 -4.734375 L 0.25 -5.390625 L 1.1875 -5.390625 L 1.1875 -6.53125 L 1.984375 -6.65625 L 1.984375 -5.390625 L 3.71875 -5.390625 L 3.71875 -4.734375 L 1.984375 -4.734375 L 1.984375 -1.53125 C 1.984375 -0.914062 2.25 -0.609375 2.78125 -0.609375 C 3.070312 -0.609375 3.328125 -0.691406 3.546875 -0.859375 Z M 3.640625 -0.859375 "/></g></g></g><g fill="#ffffff" fill-opacity="1"><g transform="translate(175.446149, 123.669791)"><g><path d="M 5.125 -2.515625 L 1.4375 -2.515625 C 1.457031 -1.859375 1.613281 -1.375 1.90625 -1.0625 C 2.195312 -0.757812 2.59375 -0.609375 3.09375 -0.609375 C 3.476562 -0.609375 3.785156 -0.675781 4.015625 -0.8125 C 4.253906 -0.945312 4.441406 -1.160156 4.578125 -1.453125 L 4.6875 -1.453125 L 5.203125 -1.15625 C 5.046875 -0.757812 4.796875 -0.445312 4.453125 -0.21875 C 4.109375 0 3.65625 0.109375 3.09375 0.109375 C 2.570312 0.109375 2.125 0.00390625 1.75 -0.203125 C 1.382812 -0.410156 1.097656 -0.722656 0.890625 -1.140625 C 0.691406 -1.554688 0.59375 -2.070312 0.59375 -2.6875 C 0.59375 -3.300781 0.695312 -3.816406 0.90625 -4.234375 C 1.125 -4.660156 1.414062 -4.972656 1.78125 -5.171875 C 2.15625 -5.378906 2.578125 -5.484375 3.046875 -5.484375 C 3.742188 -5.484375 4.285156 -5.289062 4.671875 -4.90625 C 5.054688 -4.519531 5.25 -3.941406 5.25 -3.171875 C 5.25 -2.867188 5.242188 -2.664062 5.234375 -2.5625 Z M 4.46875 -3.171875 C 4.457031 -3.742188 4.328125 -4.160156 4.078125 -4.421875 C 3.835938 -4.679688 3.492188 -4.8125 3.046875 -4.8125 C 2.578125 -4.8125 2.207031 -4.679688 1.9375 -4.421875 C 1.664062 -4.160156 1.503906 -3.742188 1.453125 -3.171875 Z M 4.46875 -3.171875 "/></g></g></g></svg>