<svg xmlns="http://www.w3.org/2000/svg" xmlns:xlink="http://www.w3.org/1999/xlink" width="162" zoomAndPan="magnify" viewBox="0 0 121.5 122.249994" height="163" preserveAspectRatio="xMidYMid meet" version="1.0"><defs><clipPath id="266b9f6bbe"><path d="M 0.238281 0.578125 L 120.882812 0.578125 L 120.882812 121.503906 L 0.238281 121.503906 Z M 0.238281 0.578125 " clip-rule="nonzero"/></clipPath><clipPath id="914893b3c3"><path d="M 0.238281 0.578125 L 120.882812 0.578125 L 120.882812 121.503906 L 0.238281 121.503906 Z M 0.238281 0.578125 " clip-rule="nonzero"/></clipPath></defs><g clip-path="url(#266b9f6bbe)"><path fill="#f3f6fa" d="M 121.523438 61.226562 C 121.523438 63.214844 121.425781 65.195312 121.230469 67.171875 C 121.035156 69.148438 120.746094 71.109375 120.359375 73.058594 C 119.972656 75.003906 119.488281 76.929688 118.914062 78.828125 C 118.335938 80.730469 117.667969 82.597656 116.90625 84.429688 C 116.148438 86.265625 115.300781 88.058594 114.363281 89.808594 C 113.429688 91.5625 112.410156 93.261719 111.304688 94.914062 C 110.203125 96.566406 109.019531 98.15625 107.761719 99.691406 C 106.5 101.226562 105.167969 102.699219 103.765625 104.101562 C 102.359375 105.507812 100.890625 106.839844 99.355469 108.097656 C 97.820312 109.359375 96.226562 110.539062 94.578125 111.640625 C 92.925781 112.746094 91.222656 113.765625 89.472656 114.703125 C 87.722656 115.636719 85.929688 116.484375 84.09375 117.246094 C 82.257812 118.003906 80.390625 118.671875 78.492188 119.25 C 76.589844 119.828125 74.667969 120.308594 72.71875 120.695312 C 70.773438 121.082031 68.808594 121.375 66.835938 121.570312 C 64.859375 121.761719 62.878906 121.859375 60.890625 121.859375 C 58.90625 121.859375 56.925781 121.761719 54.949219 121.570312 C 52.972656 121.375 51.011719 121.082031 49.0625 120.695312 C 47.113281 120.308594 45.191406 119.828125 43.289062 119.25 C 41.390625 118.671875 39.523438 118.003906 37.6875 117.246094 C 35.855469 116.484375 34.0625 115.636719 32.308594 114.703125 C 30.558594 113.765625 28.855469 112.746094 27.207031 111.640625 C 25.554688 110.539062 23.960938 109.359375 22.425781 108.097656 C 20.890625 106.839844 19.421875 105.507812 18.019531 104.101562 C 16.613281 102.699219 15.28125 101.226562 14.023438 99.691406 C 12.761719 98.15625 11.582031 96.566406 10.476562 94.914062 C 9.375 93.261719 8.355469 91.5625 7.417969 89.808594 C 6.480469 88.058594 5.632812 86.265625 4.875 84.429688 C 4.113281 82.597656 3.445312 80.730469 2.871094 78.828125 C 2.292969 76.929688 1.8125 75.003906 1.425781 73.058594 C 1.035156 71.109375 0.746094 69.148438 0.550781 67.171875 C 0.355469 65.195312 0.257812 63.214844 0.257812 61.226562 C 0.257812 59.242188 0.355469 57.261719 0.550781 55.285156 C 0.746094 53.308594 1.035156 51.347656 1.425781 49.398438 C 1.8125 47.453125 2.292969 45.527344 2.871094 43.628906 C 3.445312 41.726562 4.113281 39.859375 4.875 38.023438 C 5.632812 36.191406 6.480469 34.398438 7.417969 32.644531 C 8.355469 30.894531 9.375 29.195312 10.476562 27.542969 C 11.582031 25.890625 12.761719 24.296875 14.023438 22.761719 C 15.28125 21.230469 16.613281 19.757812 18.019531 18.355469 C 19.421875 16.949219 20.890625 15.617188 22.425781 14.359375 C 23.960938 13.097656 25.554688 11.917969 27.207031 10.8125 C 28.855469 9.710938 30.558594 8.691406 32.308594 7.753906 C 34.0625 6.820312 35.855469 5.972656 37.6875 5.210938 C 39.523438 4.453125 41.390625 3.785156 43.289062 3.207031 C 45.191406 2.628906 47.113281 2.148438 49.0625 1.761719 C 51.011719 1.375 52.972656 1.082031 54.949219 0.886719 C 56.925781 0.691406 58.90625 0.597656 60.890625 0.597656 C 62.878906 0.597656 64.859375 0.691406 66.835938 0.886719 C 68.808594 1.082031 70.773438 1.375 72.71875 1.761719 C 74.667969 2.148438 76.589844 2.628906 78.492188 3.207031 C 80.390625 3.785156 82.257812 4.453125 84.09375 5.210938 C 85.929688 5.972656 87.722656 6.820312 89.472656 7.753906 C 91.222656 8.691406 92.925781 9.710938 94.578125 10.8125 C 96.226562 11.917969 97.820312 13.097656 99.355469 14.359375 C 100.890625 15.617188 102.359375 16.949219 103.765625 18.355469 C 105.167969 19.757812 106.5 21.226562 107.761719 22.761719 C 109.019531 24.296875 110.203125 25.890625 111.304688 27.542969 C 112.410156 29.195312 113.429688 30.894531 114.363281 32.644531 C 115.300781 34.398438 116.148438 36.191406 116.90625 38.023438 C 117.667969 39.859375 118.335938 41.726562 118.914062 43.628906 C 119.488281 45.527344 119.972656 47.453125 120.359375 49.398438 C 120.746094 51.347656 121.035156 53.308594 121.230469 55.285156 C 121.425781 57.261719 121.523438 59.242188 121.523438 61.226562 Z M 121.523438 61.226562 " fill-opacity="1" fill-rule="nonzero"/></g><path fill="#1c3f60" d="M 86.980469 90.441406 L 86.980469 65.382812 C 86.980469 51.527344 75.75 40.296875 61.894531 40.296875 C 48.042969 40.296875 36.8125 51.527344 36.8125 65.382812 L 36.8125 90.441406 Z M 86.980469 90.441406 " fill-opacity="1" fill-rule="nonzero"/><path fill="#afc1d0" d="M 81.65625 85.832031 L 81.65625 66.089844 C 81.65625 55.175781 72.808594 46.328125 61.894531 46.328125 C 50.984375 46.328125 42.136719 55.175781 42.136719 66.089844 L 42.136719 85.832031 Z M 81.65625 85.832031 " fill-opacity="1" fill-rule="nonzero"/><path fill="#323232" d="M 32.84375 90.085938 L 91.195312 90.085938 L 91.195312 100.019531 L 32.84375 100.019531 Z M 32.84375 90.085938 " fill-opacity="1" fill-rule="nonzero"/><path fill="#323232" d="M 61.898438 37.40625 C 60.976562 37.40625 60.234375 36.660156 60.234375 35.742188 L 60.234375 16.855469 C 60.234375 15.9375 60.976562 15.191406 61.898438 15.191406 C 62.816406 15.191406 63.558594 15.9375 63.558594 16.855469 L 63.558594 35.742188 C 63.558594 36.660156 62.8125 37.40625 61.898438 37.40625 Z M 61.898438 37.40625 " fill-opacity="1" fill-rule="nonzero"/><path fill="#323232" d="M 83.363281 45.5 C 82.9375 45.5 82.511719 45.335938 82.1875 45.011719 C 81.535156 44.363281 81.535156 43.308594 82.1875 42.660156 L 95.539062 29.304688 C 96.191406 28.65625 97.242188 28.65625 97.894531 29.304688 C 98.542969 29.957031 98.542969 31.007812 97.894531 31.660156 L 84.539062 45.011719 C 84.214844 45.335938 83.789062 45.5 83.363281 45.5 Z M 83.363281 45.5 " fill-opacity="1" fill-rule="nonzero"/><path fill="#323232" d="M 38.417969 47.992188 C 37.992188 47.992188 37.566406 47.828125 37.242188 47.503906 L 23.890625 34.152344 C 23.238281 33.5 23.238281 32.449219 23.890625 31.796875 C 24.539062 31.148438 25.59375 31.148438 26.242188 31.796875 L 39.59375 45.152344 C 40.246094 45.800781 40.246094 46.855469 39.59375 47.503906 C 39.269531 47.828125 38.84375 47.992188 38.417969 47.992188 Z M 38.417969 47.992188 " fill-opacity="1" fill-rule="nonzero"/><g clip-path="url(#914893b3c3)"><path fill="#f3f6fa" d="M 121.523438 61.226562 C 121.523438 63.214844 121.425781 65.195312 121.230469 67.171875 C 121.035156 69.148438 120.746094 71.109375 120.359375 73.058594 C 119.972656 75.003906 119.488281 76.929688 118.914062 78.828125 C 118.335938 80.730469 117.667969 82.597656 116.90625 84.429688 C 116.148438 86.265625 115.300781 88.058594 114.363281 89.808594 C 113.429688 91.5625 112.410156 93.261719 111.304688 94.914062 C 110.203125 96.566406 109.019531 98.15625 107.761719 99.691406 C 106.5 101.226562 105.167969 102.699219 103.765625 104.101562 C 102.359375 105.507812 100.890625 106.839844 99.355469 108.097656 C 97.820312 109.359375 96.226562 110.539062 94.578125 111.640625 C 92.925781 112.746094 91.222656 113.765625 89.472656 114.703125 C 87.722656 115.636719 85.929688 116.484375 84.09375 117.246094 C 82.257812 118.003906 80.390625 118.671875 78.492188 119.25 C 76.589844 119.828125 74.667969 120.308594 72.71875 120.695312 C 70.773438 121.082031 68.808594 121.375 66.835938 121.570312 C 64.859375 121.761719 62.878906 121.859375 60.890625 121.859375 C 58.90625 121.859375 56.925781 121.761719 54.949219 121.570312 C 52.972656 121.375 51.011719 121.082031 49.0625 120.695312 C 47.113281 120.308594 45.191406 119.828125 43.289062 119.25 C 41.390625 118.671875 39.523438 118.003906 37.6875 117.246094 C 35.855469 116.484375 34.0625 115.636719 32.308594 114.703125 C 30.558594 113.765625 28.855469 112.746094 27.207031 111.640625 C 25.554688 110.539062 23.960938 109.359375 22.425781 108.097656 C 20.890625 106.839844 19.421875 105.507812 18.019531 104.101562 C 16.613281 102.699219 15.28125 101.226562 14.023438 99.691406 C 12.761719 98.15625 11.582031 96.566406 10.476562 94.914062 C 9.375 93.261719 8.355469 91.5625 7.417969 89.808594 C 6.480469 88.058594 5.632812 86.265625 4.875 84.429688 C 4.113281 82.597656 3.445312 80.730469 2.871094 78.828125 C 2.292969 76.929688 1.8125 75.003906 1.425781 73.058594 C 1.035156 71.109375 0.746094 69.148438 0.550781 67.171875 C 0.355469 65.195312 0.257812 63.214844 0.257812 61.226562 C 0.257812 59.242188 0.355469 57.261719 0.550781 55.285156 C 0.746094 53.308594 1.035156 51.347656 1.425781 49.398438 C 1.8125 47.453125 2.292969 45.527344 2.871094 43.628906 C 3.445312 41.726562 4.113281 39.859375 4.875 38.023438 C 5.632812 36.191406 6.480469 34.398438 7.417969 32.644531 C 8.355469 30.894531 9.375 29.195312 10.476562 27.542969 C 11.582031 25.890625 12.761719 24.296875 14.023438 22.761719 C 15.28125 21.230469 16.613281 19.757812 18.019531 18.355469 C 19.421875 16.949219 20.890625 15.617188 22.425781 14.359375 C 23.960938 13.097656 25.554688 11.917969 27.207031 10.8125 C 28.855469 9.710938 30.558594 8.691406 32.308594 7.753906 C 34.0625 6.820312 35.855469 5.972656 37.6875 5.210938 C 39.523438 4.453125 41.390625 3.785156 43.289062 3.207031 C 45.191406 2.628906 47.113281 2.148438 49.0625 1.761719 C 51.011719 1.375 52.972656 1.082031 54.949219 0.886719 C 56.925781 0.691406 58.90625 0.597656 60.890625 0.597656 C 62.878906 0.597656 64.859375 0.691406 66.835938 0.886719 C 68.808594 1.082031 70.773438 1.375 72.71875 1.761719 C 74.667969 2.148438 76.589844 2.628906 78.492188 3.207031 C 80.390625 3.785156 82.257812 4.453125 84.09375 5.210938 C 85.929688 5.972656 87.722656 6.820312 89.472656 7.753906 C 91.222656 8.691406 92.925781 9.710938 94.578125 10.8125 C 96.226562 11.917969 97.820312 13.097656 99.355469 14.359375 C 100.890625 15.617188 102.359375 16.949219 103.765625 18.355469 C 105.167969 19.757812 106.5 21.226562 107.761719 22.761719 C 109.019531 24.296875 110.203125 25.890625 111.304688 27.542969 C 112.410156 29.195312 113.429688 30.894531 114.363281 32.644531 C 115.300781 34.398438 116.148438 36.191406 116.90625 38.023438 C 117.667969 39.859375 118.335938 41.726562 118.914062 43.628906 C 119.488281 45.527344 119.972656 47.453125 120.359375 49.398438 C 120.746094 51.347656 121.035156 53.308594 121.230469 55.285156 C 121.425781 57.261719 121.523438 59.242188 121.523438 61.226562 Z M 121.523438 61.226562 " fill-opacity="1" fill-rule="nonzero"/></g><path fill="#1c3f60" d="M 86.980469 90.441406 L 86.980469 65.382812 C 86.980469 51.527344 75.75 40.296875 61.894531 40.296875 C 48.042969 40.296875 36.8125 51.527344 36.8125 65.382812 L 36.8125 90.441406 Z M 86.980469 90.441406 " fill-opacity="1" fill-rule="nonzero"/><path fill="#afc1d0" d="M 81.65625 85.832031 L 81.65625 66.089844 C 81.65625 55.175781 72.808594 46.328125 61.894531 46.328125 C 50.984375 46.328125 42.136719 55.175781 42.136719 66.089844 L 42.136719 85.832031 Z M 81.65625 85.832031 " fill-opacity="1" fill-rule="nonzero"/><path fill="#323232" d="M 32.84375 90.085938 L 91.195312 90.085938 L 91.195312 100.019531 L 32.84375 100.019531 Z M 32.84375 90.085938 " fill-opacity="1" fill-rule="nonzero"/><path fill="#323232" d="M 61.898438 37.40625 C 60.976562 37.40625 60.234375 36.660156 60.234375 35.742188 L 60.234375 16.855469 C 60.234375 15.9375 60.976562 15.191406 61.898438 15.191406 C 62.816406 15.191406 63.558594 15.9375 63.558594 16.855469 L 63.558594 35.742188 C 63.558594 36.660156 62.8125 37.40625 61.898438 37.40625 Z M 61.898438 37.40625 " fill-opacity="1" fill-rule="nonzero"/><path fill="#323232" d="M 83.363281 45.5 C 82.9375 45.5 82.511719 45.335938 82.1875 45.011719 C 81.535156 44.363281 81.535156 43.308594 82.1875 42.660156 L 95.539062 29.304688 C 96.191406 28.65625 97.242188 28.65625 97.894531 29.304688 C 98.542969 29.957031 98.542969 31.007812 97.894531 31.660156 L 84.539062 45.011719 C 84.214844 45.335938 83.789062 45.5 83.363281 45.5 Z M 83.363281 45.5 " fill-opacity="1" fill-rule="nonzero"/><path fill="#323232" d="M 38.417969 47.992188 C 37.992188 47.992188 37.566406 47.828125 37.242188 47.503906 L 23.890625 34.152344 C 23.238281 33.5 23.238281 32.449219 23.890625 31.796875 C 24.539062 31.148438 25.59375 31.148438 26.242188 31.796875 L 39.59375 45.152344 C 40.246094 45.800781 40.246094 46.855469 39.59375 47.503906 C 39.269531 47.828125 38.84375 47.992188 38.417969 47.992188 Z M 38.417969 47.992188 " fill-opacity="1" fill-rule="nonzero"/></svg>