<svg xmlns="http://www.w3.org/2000/svg" xmlns:xlink="http://www.w3.org/1999/xlink" width="165" zoomAndPan="magnify" viewBox="0 0 123.75 177.749994" height="237" preserveAspectRatio="xMidYMid meet" version="1.0"><defs><clipPath id="f6ba4f0461"><path d="M 2 2 L 122 2 L 122 119 L 2 119 Z M 2 2 " clip-rule="nonzero"/></clipPath><clipPath id="09f99734d9"><path d="M 42.371094 121.03125 L 0.738281 76.972656 L 82.105469 0.0820312 L 123.742188 44.140625 Z M 42.371094 121.03125 " clip-rule="nonzero"/></clipPath><clipPath id="9b932083fb"><path d="M 42.371094 121.03125 L 0.738281 76.972656 L 82.105469 0.0820312 L 123.742188 44.140625 Z M 42.371094 121.03125 " clip-rule="nonzero"/></clipPath><clipPath id="000a9f56fa"><path d="M 0.730469 60.625 L 110.726562 60.625 L 110.726562 177.445312 L 0.730469 177.445312 Z M 0.730469 60.625 " clip-rule="nonzero"/></clipPath><clipPath id="57ed6ebd3a"><path d="M 2 2 L 122 2 L 122 119 L 2 119 Z M 2 2 " clip-rule="nonzero"/></clipPath><clipPath id="da7b8dc915"><path d="M 42.371094 121.03125 L 0.738281 76.972656 L 82.105469 0.0820312 L 123.742188 44.140625 Z M 42.371094 121.03125 " clip-rule="nonzero"/></clipPath><clipPath id="71e53b3c46"><path d="M 42.371094 121.03125 L 0.738281 76.972656 L 82.105469 0.0820312 L 123.742188 44.140625 Z M 42.371094 121.03125 " clip-rule="nonzero"/></clipPath><clipPath id="050a297e96"><path d="M 0.730469 60.625 L 110.726562 60.625 L 110.726562 177.445312 L 0.730469 177.445312 Z M 0.730469 60.625 " clip-rule="nonzero"/></clipPath></defs><g clip-path="url(#f6ba4f0461)"><g clip-path="url(#09f99734d9)"><g clip-path="url(#9b932083fb)"><path fill="#ffffff" d="M 4.328125 80.660156 C 4.25 80.574219 4.171875 80.484375 4.097656 80.394531 C 3.957031 80.222656 3.832031 80.042969 3.714844 79.855469 C 3.566406 79.617188 3.4375 79.363281 3.332031 79.097656 C 3.222656 78.816406 3.132812 78.523438 3.074219 78.226562 C 3.011719 77.921875 2.980469 77.613281 2.976562 77.300781 C 2.972656 76.949219 3.003906 76.601562 3.074219 76.257812 C 3.136719 75.933594 3.230469 75.621094 3.359375 75.316406 C 3.484375 75.011719 3.640625 74.722656 3.824219 74.449219 C 3.949219 74.257812 4.09375 74.074219 4.246094 73.902344 C 4.335938 73.800781 4.429688 73.707031 4.523438 73.613281 C 29.085938 50.1875 53.757812 26.875 78.539062 3.675781 C 78.636719 3.582031 78.734375 3.496094 78.839844 3.414062 C 79.023438 3.269531 79.210938 3.136719 79.410156 3.019531 C 79.667969 2.867188 79.9375 2.738281 80.21875 2.636719 C 80.527344 2.523438 80.84375 2.4375 81.167969 2.386719 C 81.496094 2.335938 81.828125 2.316406 82.15625 2.328125 C 82.488281 2.34375 82.816406 2.386719 83.136719 2.464844 C 83.417969 2.53125 83.691406 2.625 83.957031 2.738281 C 84.230469 2.859375 84.492188 3 84.738281 3.167969 C 84.929688 3.292969 85.113281 3.4375 85.285156 3.589844 C 85.386719 3.679688 85.480469 3.769531 85.574219 3.867188 C 97.15625 16.011719 108.679688 28.207031 120.152344 40.457031 C 120.242188 40.554688 120.328125 40.65625 120.410156 40.761719 C 120.554688 40.941406 120.6875 41.132812 120.804688 41.332031 C 120.953125 41.585938 121.082031 41.855469 121.183594 42.136719 C 121.304688 42.460938 121.390625 42.800781 121.441406 43.148438 C 121.488281 43.472656 121.503906 43.804688 121.488281 44.136719 C 121.46875 44.457031 121.421875 44.773438 121.34375 45.085938 C 121.273438 45.375 121.171875 45.660156 121.050781 45.929688 C 120.933594 46.195312 120.792969 46.445312 120.628906 46.683594 C 120.496094 46.878906 120.351562 47.066406 120.191406 47.242188 C 120.113281 47.328125 120.03125 47.410156 119.945312 47.492188 C 95.394531 70.929688 70.722656 94.246094 45.933594 117.433594 C 45.847656 117.511719 45.757812 117.589844 45.667969 117.664062 C 45.484375 117.8125 45.289062 117.949219 45.085938 118.070312 C 44.824219 118.226562 44.550781 118.359375 44.265625 118.464844 C 43.972656 118.574219 43.667969 118.65625 43.359375 118.710938 C 43.042969 118.761719 42.722656 118.789062 42.402344 118.78125 C 42.082031 118.773438 41.761719 118.734375 41.449219 118.667969 C 41.136719 118.601562 40.832031 118.503906 40.542969 118.378906 C 40.25 118.253906 39.96875 118.101562 39.703125 117.921875 C 39.515625 117.792969 39.332031 117.652344 39.160156 117.496094 C 39.070312 117.414062 38.980469 117.328125 38.898438 117.238281 C 27.316406 105.101562 15.832031 92.871094 4.332031 80.660156 Z M 94.769531 27.664062 L 96.917969 29.9375 C 97.761719 30.832031 99.175781 30.871094 100.070312 30.023438 L 102.347656 27.871094 C 103.242188 27.027344 103.285156 25.613281 102.441406 24.71875 L 100.292969 22.445312 C 99.449219 21.554688 98.035156 21.515625 97.140625 22.359375 L 94.863281 24.511719 C 93.96875 25.359375 93.925781 26.769531 94.769531 27.664062 Z M 96.207031 27.113281 C 95.679688 26.554688 95.707031 25.671875 96.265625 25.140625 L 97.691406 23.796875 C 98.25 23.265625 99.132812 23.292969 99.660156 23.851562 L 101.003906 25.273438 C 101.53125 25.832031 101.507812 26.714844 100.945312 27.242188 L 99.523438 28.589844 C 98.960938 29.117188 98.078125 29.09375 97.550781 28.535156 Z M 7.753906 72.984375 L 46.734375 114.238281 C 69.167969 93.101562 91.640625 72.007812 113.957031 50.75 L 74.957031 9.476562 C 52.511719 30.601562 30.0625 51.71875 7.75 72.980469 Z M 16.960938 89.679688 L 30.601562 104.113281 C 30.765625 104.285156 31.035156 104.292969 31.207031 104.132812 L 31.824219 103.546875 C 31.996094 103.382812 32.003906 103.113281 31.84375 102.945312 L 18.199219 88.507812 C 18.039062 88.335938 17.769531 88.328125 17.597656 88.492188 L 16.980469 89.078125 C 16.808594 89.238281 16.800781 89.507812 16.960938 89.679688 Z M 16.960938 89.679688 " fill-opacity="1" fill-rule="evenodd"/></g></g></g><g clip-path="url(#000a9f56fa)"><path fill="#ffffff" d="M 39.132812 177.171875 L 1.433594 153.921875 L 1.433594 153.925781 C 1.011719 153.667969 0.78125 153.222656 0.78125 152.761719 L 0.78125 80.039062 L 110.675781 80.039062 L 110.675781 150.777344 C 110.675781 151.292969 110.390625 151.742188 109.96875 151.976562 L 70.648438 177.222656 L 70.648438 177.226562 C 70.382812 177.394531 70.082031 177.460938 69.789062 177.4375 L 39.953125 177.4375 L 39.953125 177.441406 C 39.644531 177.441406 39.363281 177.339844 39.132812 177.171875 Z M 76.875 69.863281 C 76.117188 69.863281 75.503906 70.476562 75.503906 71.230469 C 75.503906 71.988281 76.117188 72.601562 76.875 72.601562 L 97.710938 72.601562 C 98.464844 72.601562 99.078125 71.988281 99.078125 71.230469 C 99.078125 70.476562 98.464844 69.863281 97.710938 69.863281 Z M 0.78125 77.304688 L 0.78125 67.949219 C 0.78125 63.921875 4.078125 60.625 8.105469 60.625 L 103.351562 60.625 C 107.378906 60.625 110.675781 63.921875 110.675781 67.949219 L 110.675781 77.304688 Z M 101.183594 84.625 C 101.183594 83.175781 99.191406 82.707031 98.5625 84.070312 C 98.484375 84.25 98.445312 84.425781 98.445312 84.625 L 98.445312 87.363281 C 98.445312 88.8125 100.433594 89.277344 101.066406 87.917969 C 101.144531 87.734375 101.183594 87.558594 101.183594 87.363281 Z M 13.011719 85.824219 C 13.011719 84.375 11.023438 83.90625 10.394531 85.269531 C 10.316406 85.449219 10.273438 85.625 10.273438 85.824219 L 10.273438 87.984375 C 10.273438 89.433594 12.265625 89.898438 12.894531 88.539062 C 12.972656 88.359375 13.011719 88.183594 13.011719 87.984375 Z M 13.011719 96.199219 C 13.011719 94.746094 11.023438 94.28125 10.394531 95.640625 C 10.316406 95.824219 10.273438 96 10.273438 96.199219 L 10.273438 98.933594 C 10.273438 100.386719 12.265625 100.851562 12.894531 99.492188 C 12.972656 99.308594 13.011719 99.132812 13.011719 98.933594 Z M 13.011719 107.148438 C 13.011719 105.699219 11.023438 105.234375 10.394531 106.59375 C 10.316406 106.773438 10.273438 106.949219 10.273438 107.148438 L 10.273438 109.886719 C 10.273438 111.335938 12.265625 111.804688 12.894531 110.441406 C 12.972656 110.261719 13.011719 110.085938 13.011719 109.886719 Z M 13.011719 118.101562 C 13.011719 116.652344 11.023438 116.183594 10.394531 117.546875 C 10.316406 117.726562 10.273438 117.902344 10.273438 118.101562 L 10.273438 120.839844 C 10.273438 122.289062 12.265625 122.753906 12.894531 121.394531 C 12.972656 121.210938 13.011719 121.035156 13.011719 120.839844 Z M 13.011719 129.050781 C 13.011719 127.601562 11.023438 127.136719 10.394531 128.496094 C 10.316406 128.679688 10.273438 128.855469 10.273438 129.050781 L 10.273438 131.789062 C 10.273438 133.238281 12.265625 133.707031 12.894531 132.347656 C 12.972656 132.164062 13.011719 131.988281 13.011719 131.789062 Z M 13.011719 140.003906 C 13.011719 138.554688 11.023438 138.085938 10.394531 139.449219 C 10.316406 139.628906 10.273438 139.804688 10.273438 140.003906 L 10.273438 142.742188 C 10.273438 144.191406 12.265625 144.65625 12.894531 143.296875 C 12.972656 143.117188 13.011719 142.941406 13.011719 142.742188 Z M 15.914062 147.808594 C 14.679688 147.0625 13.273438 148.46875 14.035156 149.707031 C 14.152344 149.882812 14.292969 150.03125 14.476562 150.140625 L 16.804688 151.578125 C 18.039062 152.324219 19.445312 150.921875 18.683594 149.679688 C 18.566406 149.503906 18.425781 149.359375 18.242188 149.246094 Z M 25.234375 153.558594 C 24.003906 152.8125 22.597656 154.214844 23.359375 155.457031 C 23.476562 155.632812 23.617188 155.777344 23.796875 155.890625 L 26.128906 157.328125 C 27.363281 158.074219 28.769531 156.667969 28.003906 155.429688 C 27.890625 155.253906 27.75 155.105469 27.566406 154.996094 Z M 34.558594 159.308594 C 33.324219 158.558594 31.917969 159.964844 32.679688 161.207031 C 32.796875 161.382812 32.9375 161.527344 33.121094 161.640625 L 35.449219 163.078125 C 36.683594 163.824219 38.089844 162.417969 37.328125 161.179688 C 37.210938 161 37.070312 160.855469 36.886719 160.746094 Z M 43.234375 164.597656 C 41.785156 164.597656 41.316406 166.585938 42.679688 167.21875 C 42.859375 167.296875 43.035156 167.335938 43.234375 167.335938 L 45.972656 167.335938 C 47.421875 167.335938 47.890625 165.347656 46.527344 164.714844 C 46.347656 164.636719 46.171875 164.597656 45.972656 164.597656 Z M 54.1875 164.597656 C 52.738281 164.597656 52.273438 166.585938 53.632812 167.21875 C 53.8125 167.296875 53.988281 167.335938 54.1875 167.335938 L 56.925781 167.335938 C 58.375 167.335938 58.84375 165.347656 57.480469 164.714844 C 57.300781 164.636719 57.125 164.597656 56.925781 164.597656 Z M 65.140625 164.597656 C 63.691406 164.597656 63.226562 166.585938 64.585938 167.21875 C 64.769531 167.296875 64.945312 167.335938 65.140625 167.335938 L 67.398438 167.335938 L 67.402344 167.332031 C 67.480469 167.332031 67.5625 167.328125 67.644531 167.3125 C 67.824219 167.277344 67.984375 167.21875 68.136719 167.117188 L 68.542969 166.855469 C 69.773438 166.066406 69.070312 164.113281 67.554688 164.359375 C 67.375 164.394531 67.21875 164.453125 67.0625 164.554688 L 66.996094 164.597656 Z M 73.976562 160.117188 C 72.746094 160.90625 73.453125 162.859375 74.964844 162.613281 C 75.144531 162.578125 75.300781 162.519531 75.457031 162.417969 L 77.761719 160.9375 C 78.992188 160.148438 78.285156 158.195312 76.769531 158.441406 C 76.589844 158.476562 76.433594 158.535156 76.28125 158.636719 Z M 83.191406 154.199219 C 81.960938 154.988281 82.667969 156.941406 84.183594 156.695312 C 84.363281 156.660156 84.519531 156.601562 84.671875 156.5 L 86.976562 155.023438 C 88.207031 154.230469 87.503906 152.28125 85.988281 152.523438 C 85.808594 152.558594 85.652344 152.621094 85.496094 152.71875 Z M 92.410156 148.28125 C 91.179688 149.070312 91.886719 151.023438 93.398438 150.777344 C 93.578125 150.742188 93.734375 150.683594 93.890625 150.582031 L 96.195312 149.105469 C 97.425781 148.3125 96.71875 146.363281 95.203125 146.605469 C 95.023438 146.640625 94.867188 146.703125 94.714844 146.800781 Z M 98.445312 142.121094 C 98.445312 143.570312 100.433594 144.035156 101.066406 142.675781 C 101.144531 142.492188 101.183594 142.316406 101.183594 142.121094 L 101.183594 139.382812 C 101.183594 137.929688 99.191406 137.464844 98.5625 138.824219 C 98.484375 139.007812 98.445312 139.183594 98.445312 139.382812 Z M 98.445312 131.167969 C 98.445312 132.617188 100.433594 133.085938 101.066406 131.722656 C 101.144531 131.542969 101.183594 131.367188 101.183594 131.167969 L 101.183594 128.429688 C 101.183594 126.980469 99.191406 126.515625 98.5625 127.875 C 98.484375 128.054688 98.445312 128.230469 98.445312 128.429688 Z M 98.445312 120.214844 C 98.445312 121.667969 100.433594 122.132812 101.066406 120.773438 C 101.144531 120.589844 101.183594 120.414062 101.183594 120.214844 L 101.183594 117.480469 C 101.183594 116.027344 99.191406 115.5625 98.5625 116.921875 C 98.484375 117.105469 98.445312 117.28125 98.445312 117.480469 Z M 98.445312 109.265625 C 98.445312 110.714844 100.433594 111.179688 101.066406 109.820312 C 101.144531 109.640625 101.183594 109.464844 101.183594 109.265625 L 101.183594 106.527344 C 101.183594 105.078125 99.191406 104.609375 98.5625 105.972656 C 98.484375 106.152344 98.445312 106.328125 98.445312 106.527344 Z M 98.445312 98.3125 C 98.445312 99.761719 100.433594 100.230469 101.066406 98.871094 C 101.144531 98.6875 101.183594 98.511719 101.183594 98.3125 L 101.183594 95.574219 C 101.183594 94.125 99.191406 93.660156 98.5625 95.019531 C 98.484375 95.203125 98.445312 95.378906 98.445312 95.574219 Z M 98.445312 98.3125 " fill-opacity="1" fill-rule="nonzero"/></g><g clip-path="url(#57ed6ebd3a)"><g clip-path="url(#da7b8dc915)"><g clip-path="url(#71e53b3c46)"><path fill="#ffffff" d="M 4.328125 80.660156 C 4.25 80.574219 4.171875 80.484375 4.097656 80.394531 C 3.957031 80.222656 3.832031 80.042969 3.714844 79.855469 C 3.566406 79.617188 3.4375 79.363281 3.332031 79.097656 C 3.222656 78.816406 3.132812 78.523438 3.074219 78.226562 C 3.011719 77.921875 2.980469 77.613281 2.976562 77.300781 C 2.972656 76.949219 3.003906 76.601562 3.074219 76.257812 C 3.136719 75.933594 3.230469 75.621094 3.359375 75.316406 C 3.484375 75.011719 3.640625 74.722656 3.824219 74.449219 C 3.949219 74.257812 4.09375 74.074219 4.246094 73.902344 C 4.335938 73.800781 4.429688 73.707031 4.523438 73.613281 C 29.085938 50.1875 53.757812 26.875 78.539062 3.675781 C 78.636719 3.582031 78.734375 3.496094 78.839844 3.414062 C 79.023438 3.269531 79.210938 3.136719 79.410156 3.019531 C 79.667969 2.867188 79.9375 2.738281 80.21875 2.636719 C 80.527344 2.523438 80.84375 2.4375 81.167969 2.386719 C 81.496094 2.335938 81.828125 2.316406 82.15625 2.328125 C 82.488281 2.34375 82.816406 2.386719 83.136719 2.464844 C 83.417969 2.53125 83.691406 2.625 83.957031 2.738281 C 84.230469 2.859375 84.492188 3 84.738281 3.167969 C 84.929688 3.292969 85.113281 3.4375 85.285156 3.589844 C 85.386719 3.679688 85.480469 3.769531 85.574219 3.867188 C 97.15625 16.011719 108.679688 28.207031 120.152344 40.457031 C 120.242188 40.554688 120.328125 40.65625 120.410156 40.761719 C 120.554688 40.941406 120.6875 41.132812 120.804688 41.332031 C 120.953125 41.585938 121.082031 41.855469 121.183594 42.136719 C 121.304688 42.460938 121.390625 42.800781 121.441406 43.148438 C 121.488281 43.472656 121.503906 43.804688 121.488281 44.136719 C 121.46875 44.457031 121.421875 44.773438 121.34375 45.085938 C 121.273438 45.375 121.171875 45.660156 121.050781 45.929688 C 120.933594 46.195312 120.792969 46.445312 120.628906 46.683594 C 120.496094 46.878906 120.351562 47.066406 120.191406 47.242188 C 120.113281 47.328125 120.03125 47.410156 119.945312 47.492188 C 95.394531 70.929688 70.722656 94.246094 45.933594 117.433594 C 45.847656 117.511719 45.757812 117.589844 45.667969 117.664062 C 45.484375 117.8125 45.289062 117.949219 45.085938 118.070312 C 44.824219 118.226562 44.550781 118.359375 44.265625 118.464844 C 43.972656 118.574219 43.667969 118.65625 43.359375 118.710938 C 43.042969 118.761719 42.722656 118.789062 42.402344 118.78125 C 42.082031 118.773438 41.761719 118.734375 41.449219 118.667969 C 41.136719 118.601562 40.832031 118.503906 40.542969 118.378906 C 40.25 118.253906 39.96875 118.101562 39.703125 117.921875 C 39.515625 117.792969 39.332031 117.652344 39.160156 117.496094 C 39.070312 117.414062 38.980469 117.328125 38.898438 117.238281 C 27.316406 105.101562 15.832031 92.871094 4.332031 80.660156 Z M 94.769531 27.664062 L 96.917969 29.9375 C 97.761719 30.832031 99.175781 30.871094 100.070312 30.023438 L 102.347656 27.871094 C 103.242188 27.027344 103.285156 25.613281 102.441406 24.71875 L 100.292969 22.445312 C 99.449219 21.554688 98.035156 21.515625 97.140625 22.359375 L 94.863281 24.511719 C 93.96875 25.359375 93.925781 26.769531 94.769531 27.664062 Z M 96.207031 27.113281 C 95.679688 26.554688 95.707031 25.671875 96.265625 25.140625 L 97.691406 23.796875 C 98.25 23.265625 99.132812 23.292969 99.660156 23.851562 L 101.003906 25.273438 C 101.53125 25.832031 101.507812 26.714844 100.945312 27.242188 L 99.523438 28.589844 C 98.960938 29.117188 98.078125 29.09375 97.550781 28.535156 Z M 7.753906 72.984375 L 46.734375 114.238281 C 69.167969 93.101562 91.640625 72.007812 113.957031 50.75 L 74.957031 9.476562 C 52.511719 30.601562 30.0625 51.71875 7.75 72.980469 Z M 16.960938 89.679688 L 30.601562 104.113281 C 30.765625 104.285156 31.035156 104.292969 31.207031 104.132812 L 31.824219 103.546875 C 31.996094 103.382812 32.003906 103.113281 31.84375 102.945312 L 18.199219 88.507812 C 18.039062 88.335938 17.769531 88.328125 17.597656 88.492188 L 16.980469 89.078125 C 16.808594 89.238281 16.800781 89.507812 16.960938 89.679688 Z M 16.960938 89.679688 " fill-opacity="1" fill-rule="evenodd"/></g></g></g><g clip-path="url(#050a297e96)"><path fill="#ffffff" d="M 39.132812 177.171875 L 1.433594 153.921875 L 1.433594 153.925781 C 1.011719 153.667969 0.78125 153.222656 0.78125 152.761719 L 0.78125 80.039062 L 110.675781 80.039062 L 110.675781 150.777344 C 110.675781 151.292969 110.390625 151.742188 109.96875 151.976562 L 70.648438 177.222656 L 70.648438 177.226562 C 70.382812 177.394531 70.082031 177.460938 69.789062 177.4375 L 39.953125 177.4375 L 39.953125 177.441406 C 39.644531 177.441406 39.363281 177.339844 39.132812 177.171875 Z M 76.875 69.863281 C 76.117188 69.863281 75.503906 70.476562 75.503906 71.230469 C 75.503906 71.988281 76.117188 72.601562 76.875 72.601562 L 97.710938 72.601562 C 98.464844 72.601562 99.078125 71.988281 99.078125 71.230469 C 99.078125 70.476562 98.464844 69.863281 97.710938 69.863281 Z M 0.78125 77.304688 L 0.78125 67.949219 C 0.78125 63.921875 4.078125 60.625 8.105469 60.625 L 103.351562 60.625 C 107.378906 60.625 110.675781 63.921875 110.675781 67.949219 L 110.675781 77.304688 Z M 101.183594 84.625 C 101.183594 83.175781 99.191406 82.707031 98.5625 84.070312 C 98.484375 84.25 98.445312 84.425781 98.445312 84.625 L 98.445312 87.363281 C 98.445312 88.8125 100.433594 89.277344 101.066406 87.917969 C 101.144531 87.734375 101.183594 87.558594 101.183594 87.363281 Z M 13.011719 85.824219 C 13.011719 84.375 11.023438 83.90625 10.394531 85.269531 C 10.316406 85.449219 10.273438 85.625 10.273438 85.824219 L 10.273438 87.984375 C 10.273438 89.433594 12.265625 89.898438 12.894531 88.539062 C 12.972656 88.359375 13.011719 88.183594 13.011719 87.984375 Z M 13.011719 96.199219 C 13.011719 94.746094 11.023438 94.28125 10.394531 95.640625 C 10.316406 95.824219 10.273438 96 10.273438 96.199219 L 10.273438 98.933594 C 10.273438 100.386719 12.265625 100.851562 12.894531 99.492188 C 12.972656 99.308594 13.011719 99.132812 13.011719 98.933594 Z M 13.011719 107.148438 C 13.011719 105.699219 11.023438 105.234375 10.394531 106.59375 C 10.316406 106.773438 10.273438 106.949219 10.273438 107.148438 L 10.273438 109.886719 C 10.273438 111.335938 12.265625 111.804688 12.894531 110.441406 C 12.972656 110.261719 13.011719 110.085938 13.011719 109.886719 Z M 13.011719 118.101562 C 13.011719 116.652344 11.023438 116.183594 10.394531 117.546875 C 10.316406 117.726562 10.273438 117.902344 10.273438 118.101562 L 10.273438 120.839844 C 10.273438 122.289062 12.265625 122.753906 12.894531 121.394531 C 12.972656 121.210938 13.011719 121.035156 13.011719 120.839844 Z M 13.011719 129.050781 C 13.011719 127.601562 11.023438 127.136719 10.394531 128.496094 C 10.316406 128.679688 10.273438 128.855469 10.273438 129.050781 L 10.273438 131.789062 C 10.273438 133.238281 12.265625 133.707031 12.894531 132.347656 C 12.972656 132.164062 13.011719 131.988281 13.011719 131.789062 Z M 13.011719 140.003906 C 13.011719 138.554688 11.023438 138.085938 10.394531 139.449219 C 10.316406 139.628906 10.273438 139.804688 10.273438 140.003906 L 10.273438 142.742188 C 10.273438 144.191406 12.265625 144.65625 12.894531 143.296875 C 12.972656 143.117188 13.011719 142.941406 13.011719 142.742188 Z M 15.914062 147.808594 C 14.679688 147.0625 13.273438 148.46875 14.035156 149.707031 C 14.152344 149.882812 14.292969 150.03125 14.476562 150.140625 L 16.804688 151.578125 C 18.039062 152.324219 19.445312 150.921875 18.683594 149.679688 C 18.566406 149.503906 18.425781 149.359375 18.242188 149.246094 Z M 25.234375 153.558594 C 24.003906 152.8125 22.597656 154.214844 23.359375 155.457031 C 23.476562 155.632812 23.617188 155.777344 23.796875 155.890625 L 26.128906 157.328125 C 27.363281 158.074219 28.769531 156.667969 28.003906 155.429688 C 27.890625 155.253906 27.75 155.105469 27.566406 154.996094 Z M 34.558594 159.308594 C 33.324219 158.558594 31.917969 159.964844 32.679688 161.207031 C 32.796875 161.382812 32.9375 161.527344 33.121094 161.640625 L 35.449219 163.078125 C 36.683594 163.824219 38.089844 162.417969 37.328125 161.179688 C 37.210938 161 37.070312 160.855469 36.886719 160.746094 Z M 43.234375 164.597656 C 41.785156 164.597656 41.316406 166.585938 42.679688 167.21875 C 42.859375 167.296875 43.035156 167.335938 43.234375 167.335938 L 45.972656 167.335938 C 47.421875 167.335938 47.890625 165.347656 46.527344 164.714844 C 46.347656 164.636719 46.171875 164.597656 45.972656 164.597656 Z M 54.1875 164.597656 C 52.738281 164.597656 52.273438 166.585938 53.632812 167.21875 C 53.8125 167.296875 53.988281 167.335938 54.1875 167.335938 L 56.925781 167.335938 C 58.375 167.335938 58.84375 165.347656 57.480469 164.714844 C 57.300781 164.636719 57.125 164.597656 56.925781 164.597656 Z M 65.140625 164.597656 C 63.691406 164.597656 63.226562 166.585938 64.585938 167.21875 C 64.769531 167.296875 64.945312 167.335938 65.140625 167.335938 L 67.398438 167.335938 L 67.402344 167.332031 C 67.480469 167.332031 67.5625 167.328125 67.644531 167.3125 C 67.824219 167.277344 67.984375 167.21875 68.136719 167.117188 L 68.542969 166.855469 C 69.773438 166.066406 69.070312 164.113281 67.554688 164.359375 C 67.375 164.394531 67.21875 164.453125 67.0625 164.554688 L 66.996094 164.597656 Z M 73.976562 160.117188 C 72.746094 160.90625 73.453125 162.859375 74.964844 162.613281 C 75.144531 162.578125 75.300781 162.519531 75.457031 162.417969 L 77.761719 160.9375 C 78.992188 160.148438 78.285156 158.195312 76.769531 158.441406 C 76.589844 158.476562 76.433594 158.535156 76.28125 158.636719 Z M 83.191406 154.199219 C 81.960938 154.988281 82.667969 156.941406 84.183594 156.695312 C 84.363281 156.660156 84.519531 156.601562 84.671875 156.5 L 86.976562 155.023438 C 88.207031 154.230469 87.503906 152.28125 85.988281 152.523438 C 85.808594 152.558594 85.652344 152.621094 85.496094 152.71875 Z M 92.410156 148.28125 C 91.179688 149.070312 91.886719 151.023438 93.398438 150.777344 C 93.578125 150.742188 93.734375 150.683594 93.890625 150.582031 L 96.195312 149.105469 C 97.425781 148.3125 96.71875 146.363281 95.203125 146.605469 C 95.023438 146.640625 94.867188 146.703125 94.714844 146.800781 Z M 98.445312 142.121094 C 98.445312 143.570312 100.433594 144.035156 101.066406 142.675781 C 101.144531 142.492188 101.183594 142.316406 101.183594 142.121094 L 101.183594 139.382812 C 101.183594 137.929688 99.191406 137.464844 98.5625 138.824219 C 98.484375 139.007812 98.445312 139.183594 98.445312 139.382812 Z M 98.445312 131.167969 C 98.445312 132.617188 100.433594 133.085938 101.066406 131.722656 C 101.144531 131.542969 101.183594 131.367188 101.183594 131.167969 L 101.183594 128.429688 C 101.183594 126.980469 99.191406 126.515625 98.5625 127.875 C 98.484375 128.054688 98.445312 128.230469 98.445312 128.429688 Z M 98.445312 120.214844 C 98.445312 121.667969 100.433594 122.132812 101.066406 120.773438 C 101.144531 120.589844 101.183594 120.414062 101.183594 120.214844 L 101.183594 117.480469 C 101.183594 116.027344 99.191406 115.5625 98.5625 116.921875 C 98.484375 117.105469 98.445312 117.28125 98.445312 117.480469 Z M 98.445312 109.265625 C 98.445312 110.714844 100.433594 111.179688 101.066406 109.820312 C 101.144531 109.640625 101.183594 109.464844 101.183594 109.265625 L 101.183594 106.527344 C 101.183594 105.078125 99.191406 104.609375 98.5625 105.972656 C 98.484375 106.152344 98.445312 106.328125 98.445312 106.527344 Z M 98.445312 98.3125 C 98.445312 99.761719 100.433594 100.230469 101.066406 98.871094 C 101.144531 98.6875 101.183594 98.511719 101.183594 98.3125 L 101.183594 95.574219 C 101.183594 94.125 99.191406 93.660156 98.5625 95.019531 C 98.484375 95.203125 98.445312 95.378906 98.445312 95.574219 Z M 98.445312 98.3125 " fill-opacity="1" fill-rule="nonzero"/></g></svg>