<svg xmlns="http://www.w3.org/2000/svg" xmlns:xlink="http://www.w3.org/1999/xlink" width="184" zoomAndPan="magnify" viewBox="0 0 138 159.750002" height="213" preserveAspectRatio="xMidYMid meet" version="1.0"><defs><clipPath id="eb81c1dded"><path d="M 132.871094 44 L 137.339844 44 L 137.339844 52.804688 L 132.871094 52.804688 Z M 132.871094 44 " clip-rule="nonzero"/></clipPath><clipPath id="b8688827b5"><path d="M 0.316406 0.660156 L 135 0.660156 L 135 158.585938 L 0.316406 158.585938 Z M 0.316406 0.660156 " clip-rule="nonzero"/></clipPath><clipPath id="a6719d5fbc"><path d="M 132.871094 44 L 137.339844 44 L 137.339844 52.804688 L 132.871094 52.804688 Z M 132.871094 44 " clip-rule="nonzero"/></clipPath><clipPath id="7a9f790a1e"><path d="M 0.316406 0.660156 L 135 0.660156 L 135 158.585938 L 0.316406 158.585938 Z M 0.316406 0.660156 " clip-rule="nonzero"/></clipPath></defs><g clip-path="url(#eb81c1dded)"><path fill="#ffffff" d="M 135.238281 44.035156 L 134.445312 44.375 C 135.238281 46.226562 132.875 48.007812 132.875 48.007812 C 134.65625 49.046875 135.3125 50.574219 134.839844 52.585938 C 140.222656 52.238281 135.238281 44.035156 135.238281 44.035156 " fill-opacity="1" fill-rule="nonzero"/></g><path fill="#ffffff" d="M 134.101562 50.191406 C 133.878906 49.667969 133.496094 49.261719 133.035156 49 C 132.382812 48.636719 131.574219 48.566406 130.832031 48.882812 L 130.332031 49.097656 C 129.070312 49.640625 128.484375 51.105469 129.027344 52.371094 C 129.570312 53.636719 131.035156 54.21875 132.296875 53.675781 L 132.796875 53.460938 C 134.0625 52.917969 134.644531 51.453125 134.101562 50.191406 " fill-opacity="1" fill-rule="nonzero"/><g clip-path="url(#b8688827b5)"><path fill="#ffffff" d="M 30.695312 46.988281 C 38.765625 44.066406 47.792969 43.636719 56.074219 45.933594 C 64.1875 48.183594 72.5 53.339844 75.722656 61.480469 C 77.375 65.660156 77.117188 70.332031 74.578125 74.109375 C 71.984375 77.957031 67.585938 80.441406 63.078125 81.273438 C 57.839844 82.242188 52.425781 81.058594 47.539062 79.148438 C 43.066406 77.398438 38.804688 75.039062 34.894531 72.257812 C 28.207031 67.496094 22.285156 61.109375 19.363281 53.34375 C 22.734375 50.625 26.570312 48.480469 30.695312 46.988281 Z M 13.503906 93.21875 C 20.789062 88.628906 30.6875 87.371094 38.222656 92.117188 C 41.929688 94.453125 45.011719 98.171875 45.902344 102.535156 C 46.832031 107.085938 44.96875 111.523438 41.46875 114.472656 C 38.027344 117.371094 33.347656 118.804688 28.878906 118.253906 C 23.730469 117.621094 19.097656 114.824219 15.488281 111.195312 C 11.910156 107.59375 9.253906 103.203125 7.523438 98.457031 C 9.199219 96.445312 11.199219 94.671875 13.503906 93.21875 Z M 56.160156 131.722656 L 86.347656 91.203125 C 88.546875 88.253906 92.753906 87.640625 95.699219 89.835938 L 108.429688 99.324219 C 111.375 101.519531 111.988281 105.730469 109.792969 108.679688 L 79.609375 149.199219 C 77.414062 152.144531 73.203125 152.757812 70.257812 150.5625 L 57.527344 141.078125 C 54.578125 138.878906 53.964844 134.667969 56.160156 131.722656 Z M 133.421875 41.90625 L 134.214844 43.757812 L 134.960938 43.441406 L 134.410156 42.15625 C 134.410156 42.15625 134.410156 42.152344 134.40625 42.148438 C 134.402344 42.140625 134.398438 42.132812 134.394531 42.125 L 134.164062 41.589844 L 134.160156 41.589844 C 125.761719 22.828125 108.957031 8.300781 89.054688 3.015625 C 73.210938 -1.195312 54.875 0.109375 40.175781 7.964844 L 39.851562 7.414062 L 29.808594 13.914062 L 30.402344 14.6875 C 30.261719 14.808594 30.121094 14.933594 29.984375 15.054688 C 29.597656 15.398438 29.21875 15.75 28.847656 16.109375 C 21.722656 22.957031 16.917969 32.371094 16.785156 42.371094 C 16.738281 46.089844 17.398438 49.679688 18.621094 53.070312 C 17.71875 53.8125 16.851562 54.597656 16.023438 55.425781 C 9.753906 61.6875 5.945312 70.113281 4.804688 78.855469 C 3.957031 85.367188 4.585938 92.117188 6.777344 98.3125 C 5.484375 99.875 4.367188 101.582031 3.464844 103.414062 C -0.851562 112.140625 -0.542969 122.746094 3.265625 131.59375 C 7.335938 141.039062 15.308594 148.417969 24.324219 153.113281 C 33.148438 157.703125 44.421875 160.941406 53.910156 156.394531 C 54.535156 156.09375 55.148438 155.761719 55.738281 155.402344 L 55.914062 155.628906 L 60.484375 152.429688 L 61.414062 153.132812 L 63.972656 149.832031 L 68.992188 153.574219 C 72.234375 155.988281 76.859375 155.3125 79.273438 152.074219 L 112.453125 107.535156 C 114.867188 104.296875 114.195312 99.667969 110.953125 97.253906 L 96.960938 86.824219 C 93.722656 84.410156 89.097656 85.085938 86.683594 88.328125 L 53.5 132.863281 C 51.085938 136.105469 51.765625 140.730469 55.003906 143.148438 L 60.382812 147.15625 L 57.90625 150.492188 L 58.777344 151.148438 L 55.214844 154.714844 L 55.339844 154.878906 C 54.367188 155.46875 53.34375 155.976562 52.285156 156.394531 C 47.386719 158.335938 41.9375 158.242188 36.859375 157.113281 C 27.28125 154.984375 18.042969 149.738281 11.335938 142.578125 C 4.714844 135.507812 0.722656 126.234375 0.984375 116.472656 C 1.152344 110.109375 3.207031 103.925781 7.046875 99.046875 C 7.765625 100.960938 8.636719 102.820312 9.664062 104.597656 C 14.417969 112.820312 23.5 120.519531 33.625 118.777344 C 37.9375 118.035156 42.113281 115.640625 44.601562 111.992188 C 46.988281 108.488281 47.386719 104.128906 45.886719 100.191406 C 42.644531 91.6875 33.148438 87.652344 24.542969 88.613281 C 17.863281 89.359375 11.648438 92.726562 7.265625 97.738281 C 6.09375 94.3125 5.394531 90.71875 5.171875 87.121094 C 4.636719 78.574219 6.6875 69.816406 11.21875 62.527344 C 13.300781 59.179688 15.898438 56.230469 18.875 53.746094 C 20.839844 58.835938 24.0625 63.453125 28.007812 67.339844 C 31.414062 70.699219 35.296875 73.558594 39.441406 75.941406 C 43.878906 78.488281 48.664062 80.65625 53.703125 81.675781 C 58.679688 82.683594 63.90625 82.441406 68.5 80.132812 C 72.449219 78.148438 75.820312 74.746094 76.988281 70.398438 C 79.332031 61.660156 72.503906 53.394531 65.445312 49.203125 C 57.746094 44.632812 48.496094 43.050781 39.664062 44.171875 C 32.238281 45.113281 24.988281 48 19.117188 52.667969 C 18.972656 52.257812 18.839844 51.84375 18.714844 51.429688 C 15.746094 41.636719 18.246094 31.003906 24.003906 22.722656 C 25.960938 19.910156 28.238281 17.390625 30.761719 15.160156 L 31.367188 15.957031 L 41.140625 9.617188 L 40.753906 8.953125 C 46.097656 6.820312 51.867188 5.699219 57.535156 5.644531 C 67.90625 5.550781 79.160156 9.449219 84.941406 18.527344 C 88.0625 23.425781 89.082031 29.195312 87.175781 34.691406 L 87.148438 34.679688 L 86.398438 36.550781 L 87.148438 36.851562 L 87.898438 34.980469 L 87.773438 34.929688 C 91.199219 25.035156 85.335938 14.828125 76.664062 9.796875 C 66.949219 4.160156 54.929688 3.84375 44.363281 7.042969 C 43.328125 7.355469 42.296875 7.703125 41.28125 8.089844 C 52.25 2.542969 65.3125 0.546875 77.144531 1.582031 C 97.019531 3.320312 115.273438 13.886719 126.851562 30.113281 C 129.476562 33.792969 131.71875 37.726562 133.5625 41.847656 L 133.421875 41.90625 " fill-opacity="1" fill-rule="nonzero"/></g><path fill="#ffffff" d="M 86.921875 37.46875 L 86.121094 37.144531 C 85.371094 39.015625 82.441406 38.59375 82.441406 38.59375 C 82.964844 40.597656 82.34375 42.136719 80.585938 43.21875 C 84.628906 46.789062 86.921875 37.46875 86.921875 37.46875 " fill-opacity="1" fill-rule="nonzero"/><path fill="#ffffff" d="M 81.761719 41.007812 C 82.277344 39.730469 81.65625 38.28125 80.378906 37.769531 L 79.875 37.566406 C 78.597656 37.054688 77.148438 37.671875 76.636719 38.949219 C 76.398438 39.546875 76.40625 40.179688 76.609375 40.738281 C 76.847656 41.378906 77.339844 41.917969 78.019531 42.191406 L 78.523438 42.394531 C 79.800781 42.90625 81.25 42.285156 81.761719 41.007812 " fill-opacity="1" fill-rule="nonzero"/><path fill="#f3f6fa" d="M 109.792969 108.679688 L 79.609375 149.199219 C 77.414062 152.144531 73.203125 152.757812 70.257812 150.5625 L 57.527344 141.078125 C 54.578125 138.878906 53.964844 134.667969 56.160156 131.722656 L 86.347656 91.203125 C 88.546875 88.253906 92.753906 87.640625 95.699219 89.835938 L 108.429688 99.324219 C 111.375 101.519531 111.988281 105.730469 109.792969 108.679688 " fill-opacity="1" fill-rule="nonzero"/><g clip-path="url(#a6719d5fbc)"><path fill="#ffffff" d="M 135.238281 44.035156 L 134.445312 44.375 C 135.238281 46.226562 132.875 48.007812 132.875 48.007812 C 134.65625 49.046875 135.3125 50.574219 134.839844 52.585938 C 140.222656 52.238281 135.238281 44.035156 135.238281 44.035156 " fill-opacity="1" fill-rule="nonzero"/></g><path fill="#ffffff" d="M 134.101562 50.191406 C 133.878906 49.667969 133.496094 49.261719 133.035156 49 C 132.382812 48.636719 131.574219 48.566406 130.832031 48.882812 L 130.332031 49.097656 C 129.070312 49.640625 128.484375 51.105469 129.027344 52.371094 C 129.570312 53.636719 131.035156 54.21875 132.296875 53.675781 L 132.796875 53.460938 C 134.0625 52.917969 134.644531 51.453125 134.101562 50.191406 " fill-opacity="1" fill-rule="nonzero"/><g clip-path="url(#7a9f790a1e)"><path fill="#ffffff" d="M 30.695312 46.988281 C 38.765625 44.066406 47.792969 43.636719 56.074219 45.933594 C 64.1875 48.183594 72.5 53.339844 75.722656 61.480469 C 77.375 65.660156 77.117188 70.332031 74.578125 74.109375 C 71.984375 77.957031 67.585938 80.441406 63.078125 81.273438 C 57.839844 82.242188 52.425781 81.058594 47.539062 79.148438 C 43.066406 77.398438 38.804688 75.039062 34.894531 72.257812 C 28.207031 67.496094 22.285156 61.109375 19.363281 53.34375 C 22.734375 50.625 26.570312 48.480469 30.695312 46.988281 Z M 13.503906 93.21875 C 20.789062 88.628906 30.6875 87.371094 38.222656 92.117188 C 41.929688 94.453125 45.011719 98.171875 45.902344 102.535156 C 46.832031 107.085938 44.96875 111.523438 41.46875 114.472656 C 38.027344 117.371094 33.347656 118.804688 28.878906 118.253906 C 23.730469 117.621094 19.097656 114.824219 15.488281 111.195312 C 11.910156 107.59375 9.253906 103.203125 7.523438 98.457031 C 9.199219 96.445312 11.199219 94.671875 13.503906 93.21875 Z M 56.160156 131.722656 L 86.347656 91.203125 C 88.546875 88.253906 92.753906 87.640625 95.699219 89.835938 L 108.429688 99.324219 C 111.375 101.519531 111.988281 105.730469 109.792969 108.679688 L 79.609375 149.199219 C 77.414062 152.144531 73.203125 152.757812 70.257812 150.5625 L 57.527344 141.078125 C 54.578125 138.878906 53.964844 134.667969 56.160156 131.722656 Z M 133.421875 41.90625 L 134.214844 43.757812 L 134.960938 43.441406 L 134.410156 42.15625 C 134.410156 42.15625 134.410156 42.152344 134.40625 42.148438 C 134.402344 42.140625 134.398438 42.132812 134.394531 42.125 L 134.164062 41.589844 L 134.160156 41.589844 C 125.761719 22.828125 108.957031 8.300781 89.054688 3.015625 C 73.210938 -1.195312 54.875 0.109375 40.175781 7.964844 L 39.851562 7.414062 L 29.808594 13.914062 L 30.402344 14.6875 C 30.261719 14.808594 30.121094 14.933594 29.984375 15.054688 C 29.597656 15.398438 29.21875 15.75 28.847656 16.109375 C 21.722656 22.957031 16.917969 32.371094 16.785156 42.371094 C 16.738281 46.089844 17.398438 49.679688 18.621094 53.070312 C 17.71875 53.8125 16.851562 54.597656 16.023438 55.425781 C 9.753906 61.6875 5.945312 70.113281 4.804688 78.855469 C 3.957031 85.367188 4.585938 92.117188 6.777344 98.3125 C 5.484375 99.875 4.367188 101.582031 3.464844 103.414062 C -0.851562 112.140625 -0.542969 122.746094 3.265625 131.59375 C 7.335938 141.039062 15.308594 148.417969 24.324219 153.113281 C 33.148438 157.703125 44.421875 160.941406 53.910156 156.394531 C 54.535156 156.09375 55.148438 155.761719 55.738281 155.402344 L 55.914062 155.628906 L 60.484375 152.429688 L 61.414062 153.132812 L 63.972656 149.832031 L 68.992188 153.574219 C 72.234375 155.988281 76.859375 155.3125 79.273438 152.074219 L 112.453125 107.535156 C 114.867188 104.296875 114.195312 99.667969 110.953125 97.253906 L 96.960938 86.824219 C 93.722656 84.410156 89.097656 85.085938 86.683594 88.328125 L 53.5 132.863281 C 51.085938 136.105469 51.765625 140.730469 55.003906 143.148438 L 60.382812 147.15625 L 57.90625 150.492188 L 58.777344 151.148438 L 55.214844 154.714844 L 55.339844 154.878906 C 54.367188 155.46875 53.34375 155.976562 52.285156 156.394531 C 47.386719 158.335938 41.9375 158.242188 36.859375 157.113281 C 27.28125 154.984375 18.042969 149.738281 11.335938 142.578125 C 4.714844 135.507812 0.722656 126.234375 0.984375 116.472656 C 1.152344 110.109375 3.207031 103.925781 7.046875 99.046875 C 7.765625 100.960938 8.636719 102.820312 9.664062 104.597656 C 14.417969 112.820312 23.5 120.519531 33.625 118.777344 C 37.9375 118.035156 42.113281 115.640625 44.601562 111.992188 C 46.988281 108.488281 47.386719 104.128906 45.886719 100.191406 C 42.644531 91.6875 33.148438 87.652344 24.542969 88.613281 C 17.863281 89.359375 11.648438 92.726562 7.265625 97.738281 C 6.09375 94.3125 5.394531 90.71875 5.171875 87.121094 C 4.636719 78.574219 6.6875 69.816406 11.21875 62.527344 C 13.300781 59.179688 15.898438 56.230469 18.875 53.746094 C 20.839844 58.835938 24.0625 63.453125 28.007812 67.339844 C 31.414062 70.699219 35.296875 73.558594 39.441406 75.941406 C 43.878906 78.488281 48.664062 80.65625 53.703125 81.675781 C 58.679688 82.683594 63.90625 82.441406 68.5 80.132812 C 72.449219 78.148438 75.820312 74.746094 76.988281 70.398438 C 79.332031 61.660156 72.503906 53.394531 65.445312 49.203125 C 57.746094 44.632812 48.496094 43.050781 39.664062 44.171875 C 32.238281 45.113281 24.988281 48 19.117188 52.667969 C 18.972656 52.257812 18.839844 51.84375 18.714844 51.429688 C 15.746094 41.636719 18.246094 31.003906 24.003906 22.722656 C 25.960938 19.910156 28.238281 17.390625 30.761719 15.160156 L 31.367188 15.957031 L 41.140625 9.617188 L 40.753906 8.953125 C 46.097656 6.820312 51.867188 5.699219 57.535156 5.644531 C 67.90625 5.550781 79.160156 9.449219 84.941406 18.527344 C 88.0625 23.425781 89.082031 29.195312 87.175781 34.691406 L 87.148438 34.679688 L 86.398438 36.550781 L 87.148438 36.851562 L 87.898438 34.980469 L 87.773438 34.929688 C 91.199219 25.035156 85.335938 14.828125 76.664062 9.796875 C 66.949219 4.160156 54.929688 3.84375 44.363281 7.042969 C 43.328125 7.355469 42.296875 7.703125 41.28125 8.089844 C 52.25 2.542969 65.3125 0.546875 77.144531 1.582031 C 97.019531 3.320312 115.273438 13.886719 126.851562 30.113281 C 129.476562 33.792969 131.71875 37.726562 133.5625 41.847656 L 133.421875 41.90625 " fill-opacity="1" fill-rule="nonzero"/></g><path fill="#ffffff" d="M 86.921875 37.46875 L 86.121094 37.144531 C 85.371094 39.015625 82.441406 38.59375 82.441406 38.59375 C 82.964844 40.597656 82.34375 42.136719 80.585938 43.21875 C 84.628906 46.789062 86.921875 37.46875 86.921875 37.46875 " fill-opacity="1" fill-rule="nonzero"/><path fill="#ffffff" d="M 81.761719 41.007812 C 82.277344 39.730469 81.65625 38.28125 80.378906 37.769531 L 79.875 37.566406 C 78.597656 37.054688 77.148438 37.671875 76.636719 38.949219 C 76.398438 39.546875 76.40625 40.179688 76.609375 40.738281 C 76.847656 41.378906 77.339844 41.917969 78.019531 42.191406 L 78.523438 42.394531 C 79.800781 42.90625 81.25 42.285156 81.761719 41.007812 " fill-opacity="1" fill-rule="nonzero"/><path fill="#f3f6fa" d="M 109.792969 108.679688 L 79.609375 149.199219 C 77.414062 152.144531 73.203125 152.757812 70.257812 150.5625 L 57.527344 141.078125 C 54.578125 138.878906 53.964844 134.667969 56.160156 131.722656 L 86.347656 91.203125 C 88.546875 88.253906 92.753906 87.640625 95.699219 89.835938 L 108.429688 99.324219 C 111.375 101.519531 111.988281 105.730469 109.792969 108.679688 " fill-opacity="1" fill-rule="nonzero"/></svg>