<svg xmlns="http://www.w3.org/2000/svg" xmlns:xlink="http://www.w3.org/1999/xlink" width="140" zoomAndPan="magnify" viewBox="0 0 104.88 121.500001" height="162" preserveAspectRatio="xMidYMid meet" version="1.0"><defs><clipPath id="68d3486751"><path d="M 0.816406 0.125 L 103.890625 0.125 L 103.890625 120.378906 L 0.816406 120.378906 Z M 0.816406 0.125 " clip-rule="nonzero"/></clipPath><clipPath id="bf9d3e4dd7"><path d="M 0.816406 0.00390625 L 103.890625 0.00390625 L 103.890625 120.257812 L 0.816406 120.257812 Z M 0.816406 0.00390625 " clip-rule="nonzero"/></clipPath></defs><g clip-path="url(#68d3486751)"><path fill="#f3f6fa" d="M 52.34375 120.382812 C 38.21875 111.597656 26.292969 99.957031 17.625 86.457031 C 7.953125 71.378906 2.46875 54.171875 1.765625 36.695312 L 0.828125 13.351562 C 21.308594 12.539062 40.125 6.6875 52.34375 0.121094 C 64.5625 6.6875 83.378906 12.539062 103.859375 13.351562 L 102.921875 36.695312 C 102.21875 54.171875 96.734375 71.378906 87.0625 86.457031 C 78.394531 99.957031 66.46875 111.597656 52.34375 120.382812 " fill-opacity="1" fill-rule="nonzero"/></g><path fill="#1c3f60" d="M 47.546875 74.8125 L 24.800781 52.054688 L 33.453125 43.398438 L 47.546875 57.496094 L 76.238281 28.789062 L 84.890625 37.449219 L 47.546875 74.8125 " fill-opacity="1" fill-rule="nonzero"/><g clip-path="url(#bf9d3e4dd7)"><path fill="#f3f6fa" d="M 52.34375 120.261719 C 38.21875 111.476562 26.292969 99.835938 17.625 86.335938 C 7.953125 71.261719 2.46875 54.050781 1.765625 36.574219 L 0.828125 13.230469 C 21.308594 12.421875 40.125 6.566406 52.34375 0 C 64.5625 6.566406 83.378906 12.421875 103.859375 13.230469 L 102.921875 36.574219 C 102.21875 54.050781 96.734375 71.261719 87.0625 86.335938 C 78.394531 99.835938 66.46875 111.476562 52.34375 120.261719 " fill-opacity="1" fill-rule="nonzero"/></g><path fill="#1c3f60" d="M 47.546875 74.691406 L 24.800781 51.933594 L 33.453125 43.277344 L 47.546875 57.378906 L 76.238281 28.671875 L 84.890625 37.328125 L 47.546875 74.691406 " fill-opacity="1" fill-rule="nonzero"/></svg>